<svg xmlns="http://www.w3.org/2000/svg" xmlns:xlink="http://www.w3.org/1999/xlink" fill="none" version="1.1" width="27" height="21" viewBox="0 0 27 21"><g transform="matrix(1,0,0,-1,0,42)"><path d="M0,39.75L0,37.5L0,39.75L0,37.5Q0,36.8438,0.421875,36.4219Q0.84375,36,1.5,36L2.25,36L4.5,36L4.5,39.75Q4.45312,40.6875,3.84375,41.3438Q3.1875,41.9531,2.25,42Q1.3125,41.9531,0.65625,41.3438Q0.046875,40.6875,0,39.75ZM5.25,42Q6,41.0156,6,39.75L6,25.5Q6.04688,24.23438,6.89062,23.39062Q7.73438,22.54688,9,22.5Q10.2656,22.54688,11.1094,23.39062Q11.9531,24.23438,12,25.5L12,25.73438Q12.0469,26.90625,12.7969,27.70312Q13.5938,28.45312,14.7656,28.5L22.5,28.5L22.5,37.5Q22.4531,39.4219,21.1875,40.6875Q19.9219,41.9531,18,42L5.25,42ZM21.75,21Q24,21.046875,25.4531,22.54688Q26.9531,24,27,26.25Q26.9531,26.95312,26.25,27L14.7656,27Q13.5938,26.90625,13.5,25.73438L13.5,25.5Q13.4531,23.57812,12.1875,22.3125Q10.9219,21.046875,9,21L17.25,21L21.75,21Z" fill="#FEBF00" fill-opacity="1" style="mix-blend-mode:passthrough"/></g></svg>