<svg xmlns="http://www.w3.org/2000/svg" xmlns:xlink="http://www.w3.org/1999/xlink" fill="none" version="1.1" width="24" height="24.015626907348633" viewBox="0 0 24 24.015626907348633"><g transform="matrix(1,0,0,-1,0,48.031253814697266)"><path d="M22.5,46.51562690734863Q22.4531,47.500026907348634,21.5625,47.92182690734863Q20.6719,48.250026907348634,19.9219,47.59372690734863L17.9062,45.53122690734863Q16.1719,43.84372690734863,14.0156,42.90622690734863Q11.8125,42.01562690734863,9.42188,42.01562690734863L9,42.01562690734863L3,42.01562690734863Q1.73438,41.96872690734863,0.890625,41.125026907348634Q0.046875,40.28122690734863,0,39.01562690734863L0,34.51562690734863Q0.046875,33.250006907348634,0.890625,32.40624690734863Q1.73438,31.562506907348634,3,31.515626907348633L3,25.515626907348633Q3,24.859376907348633,3.42188,24.437501907348633Q3.84375,24.015626907348633,4.5,24.015626907348633L7.5,24.015626907348633Q8.15625,24.015626907348633,8.57812,24.437501907348633Q9,24.859376907348633,9,25.515626907348633L9,31.515626907348633L9.42188,31.515626907348633Q11.8125,31.515626907348633,14.0156,30.578126907348633Q16.1719,29.687506907348634,17.9062,28.000006907348634L19.9219,25.937506907348634Q20.6719,25.28124690734863,21.5625,25.609376907348633Q22.4531,26.03124690734863,22.5,27.015626907348633L22.5,33.95312690734863Q23.1562,34.28122690734863,23.5781,35.03122690734863Q24,35.78122690734863,24,36.76562690734863Q24,37.750026907348634,23.5781,38.500026907348634Q23.1562,39.29682690734863,22.5,39.57812690734863L22.5,46.51562690734863ZM19.5,42.90622690734863L19.5,36.76562690734863L19.5,42.90622690734863L19.5,36.76562690734863L19.5,30.625006907348634Q17.3906,32.500006907348634,14.8125,33.48437690734863Q12.2344,34.51562690734863,9.42188,34.51562690734863L9,34.51562690734863L9,39.01562690734863L9.42188,39.01562690734863Q12.2344,39.01562690734863,14.8125,40.04682690734863Q17.3906,41.03122690734863,19.5,42.90622690734863Z" fill="#FEBF00" fill-opacity="1" style="mix-blend-mode:passthrough"/></g></svg>