<svg xmlns="http://www.w3.org/2000/svg" xmlns:xlink="http://www.w3.org/1999/xlink" fill="none" version="1.1" width="27" height="24" viewBox="0 0 27 24"><g transform="matrix(1,0,0,-1,0,48)"><path d="M26.5781,45.4219Q27,45.8906,27,46.5Q27,47.1094,26.5781,47.5781Q26.1094,48,25.5,48Q24.8906,48,24.4219,47.5781L15.4219,38.5781L13.8281,40.1719Q13.5,40.5,13.0781,40.5Q12.0938,40.4062,12,39.4219L12,38.0625L17.0625,33L18.4219,33Q19.4062,33.09375,19.5,34.0781Q19.5,34.5,19.1719,34.8281L17.5781,36.4219L26.5781,45.4219ZM15.9844,31.45312L10.4531,36.9844L15.9844,31.45312L10.4531,36.9844Q7.3125,37.2188,5.01562,35.0156L4.64062,34.6406Q3.04688,33,3,30.70312Q3.09375,30.14062,3.60938,30.32812L6,31.5Q6.1875,31.59375,6.28125,31.45312Q6.42188,31.26562,6.28125,31.125L0.328125,25.82812Q0,25.5,0,25.03125Q0.09375,24.09375,1.03125,24L9.14062,24Q12,24.046875,14.0156,26.01562Q16.2188,28.3125,15.9844,31.45312Z" fill="#FEBF00" fill-opacity="1" style="mix-blend-mode:passthrough"/></g></svg>