<svg xmlns="http://www.w3.org/2000/svg" xmlns:xlink="http://www.w3.org/1999/xlink" fill="none" version="1.1" width="24" height="24" viewBox="0 0 24 24"><g transform="matrix(1,0,0,-1,0,48)"><path d="M12,24Q15.2812,24.046875,18,25.59375Q20.7188,27.1875,22.4062,30Q24,32.85938,24,36Q24,39.1406,22.4062,42Q20.7188,44.8125,18,46.4062Q15.2812,47.9531,12,48Q8.71875,47.9531,6,46.4062Q3.28125,44.8125,1.59375,42Q0,39.1406,0,36Q0,32.85938,1.59375,30Q3.28125,27.1875,6,25.59375Q8.71875,24.046875,12,24ZM7.96875,40.2656Q8.25,41.0625,8.90625,41.5312Q9.5625,42,10.4531,42L13.1719,42Q14.4375,41.9531,15.2812,41.1094Q16.0781,40.3125,16.125,39.0469Q16.0781,37.3594,14.625,36.4688L13.125,35.625Q13.0312,34.5938,12,34.5Q10.9688,34.5938,10.875,35.625L10.875,36.2344Q10.875,36.8906,11.4375,37.2188L13.5,38.4375Q13.875,38.625,13.875,39.0469Q13.8281,39.7031,13.1719,39.75L10.4531,39.75Q10.1719,39.75,10.0781,39.5156L10.0781,39.4219Q9.60938,38.4844,8.625,38.7656Q7.6875,39.1875,7.92188,40.1719L7.96875,40.2656ZM10.5,31.5Q10.5,32.15625,10.9219,32.57812Q11.3438,33,12,33Q12.6562,33,13.0781,32.57812Q13.5,32.15625,13.5,31.5Q13.5,30.84375,13.0781,30.42188Q12.6562,30,12,30Q11.3438,30,10.9219,30.42188Q10.5,30.84375,10.5,31.5Z" fill="#FEBF00" fill-opacity="1" style="mix-blend-mode:passthrough"/></g></svg>