<svg xmlns="http://www.w3.org/2000/svg" xmlns:xlink="http://www.w3.org/1999/xlink" fill="none" version="1.1" width="30" height="21" viewBox="0 0 30 21"><g transform="matrix(1,0,0,-1,0,42)"><path d="M1.5,42Q2.15625,42,2.57812,41.5781Q3,41.1562,3,40.5L3,28.5L13.5,28.5L13.5,36Q13.5,36.6562,13.9219,37.0781Q14.3438,37.5,15,37.5L25.5,37.5Q27.4219,37.4531,28.6875,36.1875Q29.9531,34.9219,30,33L30,22.5Q30,21.84375,29.5781,21.421875Q29.1562,21,28.5,21Q27.8438,21,27.4219,21.421875Q27,21.84375,27,22.5L27,24L16.5,24L3,24L3,22.5Q3,21.84375,2.57812,21.421875Q2.15625,21,1.5,21Q0.84375,21,0.421875,21.421875Q0,21.84375,0,22.5L0,40.5Q0,41.1562,0.421875,41.5781Q0.84375,42,1.5,42ZM8.25,37.5Q10.3594,37.4531,11.4844,35.625Q12.5156,33.75,11.4844,31.875Q10.3594,30.04688,8.25,30Q6.14062,30.04688,5.01562,31.875Q3.98438,33.75,5.01562,35.625Q6.14062,37.4531,8.25,37.5Z" fill="#FEBF00" fill-opacity="1" style="mix-blend-mode:passthrough"/></g></svg>