<svg xmlns="http://www.w3.org/2000/svg" xmlns:xlink="http://www.w3.org/1999/xlink" fill="none" version="1.1" width="27" height="21.012500762939453" viewBox="0 0 27 21.012500762939453"><g transform="matrix(1,0,0,-1,0,42.025001525878906)"><path d="M0,38.221900762939455L0,23.737500762939455L0,38.221900762939455L0,23.737500762939455Q0.046875,22.331250762939455,1.26562,21.768750762939455Q4.3125,20.737500762939455,7.40625,21.112500662939453Q10.4531,21.487500762939455,13.5,22.331250762939455Q16.3125,23.128130762939453,19.125,23.550000762939455Q21.9375,23.925000762939455,24.7031,23.221880762939453Q25.5469,23.034380762939453,26.25,23.503130762939453Q26.9531,23.925000762939455,27,24.815630762939453L27,39.300000762939455Q26.9531,40.70630076293945,25.7344,41.26880076293945Q22.6875,42.300000762939455,19.6406,41.925000762939455Q16.5469,41.550000762939455,13.5,40.70630076293945Q10.6875,39.909400762939455,7.875,39.534400762939455Q5.0625,39.112500762939455,2.29688,39.815600762939454Q1.40625,40.003100762939454,0.75,39.58130076293945Q0.046875,39.112500762939455,0,38.221900762939455ZM13.5,27.018750762939455Q11.9062,27.065630762939453,10.8281,28.331250762939455Q9.79688,29.596880762939453,9.75,31.518800762939453Q9.79688,33.440600762939454,10.8281,34.70630076293945Q11.9062,35.971900762939455,13.5,36.01880076293945Q15.0938,35.971900762939455,16.1719,34.70630076293945Q17.2031,33.440600762939454,17.25,31.518800762939453Q17.2031,29.596880762939453,16.1719,28.331250762939455Q15.0938,27.065630762939453,13.5,27.018750762939455ZM3,27.018750762939455Q4.26562,26.971880762939453,5.10938,26.128130762939453Q5.95312,25.284380762939453,6,24.018750762939455L3,24.018750762939455L3,27.018750762939455ZM6,36.76880076293945Q5.95312,35.503100762939454,5.10938,34.659400762939455Q4.26562,33.815600762939454,3,33.76880076293945L3,36.76880076293945L6,36.76880076293945ZM24,29.268750762939455L24,26.268750762939455L24,29.268750762939455L24,26.268750762939455L21,26.268750762939455Q21.0469,27.534380762939453,21.8906,28.378130762939453Q22.7344,29.221880762939453,24,29.268750762939455ZM21,39.01880076293945L24,39.01880076293945L21,39.01880076293945L24,39.01880076293945L24,36.01880076293945Q22.7344,36.065600762939454,21.8906,36.909400762939455Q21.0469,37.753100762939454,21,39.01880076293945Z" fill="#FEBF00" fill-opacity="1" style="mix-blend-mode:passthrough"/></g></svg>