<svg width="250" height="210" viewBox="0 0 250 210" fill="none" xmlns="http://www.w3.org/2000/svg">
<mask id="path-1-outside-1_408_102" maskUnits="userSpaceOnUse" x="0.034668" y="131.649" width="250" height="53" fill="black">
<rect fill="white" x="0.034668" y="131.649" width="250" height="53"/>
<path d="M36.3158 169.931C34.3433 160.907 32.9132 152.031 32.1735 143.5C26.5519 162.583 12.4486 178.659 1.45199 173.58C1.05749 173.235 1.00818 172.791 1.5013 172.939C15.9498 177.426 28.2286 152.277 30.99 142.316C31.1873 141.576 31.2366 140.541 31.3352 139.949C31.2859 139.9 31.3352 139.85 31.3352 139.801C31.4832 139.111 33.1105 140.097 33.3077 141.034C34.4419 147.888 34.9843 157.159 37.0554 165.641C40.458 157.208 49.7287 136.99 51.7012 135.314C52.4902 134.278 53.8709 135.659 53.8216 136.645C53.0819 144.289 52.5888 150.206 52.5888 156.37C52.5888 157.603 52.5888 158.786 52.6381 160.019C52.934 169.734 54.4627 176.835 58.1611 178.018C58.457 178.117 58.5556 178.659 57.9639 178.659C52.3916 178.659 51.2081 167.219 50.8629 160.315C50.8136 159.033 50.7643 157.701 50.7643 156.37C50.7643 150.305 51.356 143.647 51.9478 137.779C49.4821 141.626 40.2114 161.597 37.8938 168.008C37.9431 169.241 36.8089 170.375 36.3158 169.931ZM57.8529 166.479C57.1132 165.69 56.768 164.013 56.768 162.386C56.768 160.857 57.0639 159.329 57.6063 158.49C57.6556 158.244 58.1488 158.195 58.7405 158.343C59.283 158.54 59.5788 158.934 59.5295 159.181C59.135 159.575 58.1488 165.148 58.8885 165.789C59.283 166.085 59.7761 166.232 60.3185 166.232C63.3759 166.232 68.603 162.288 70.0823 160.808C70.2796 160.611 70.7727 160.907 70.181 161.992C69.244 163.718 64.7566 167.613 61.3541 167.761C60.1213 167.81 58.7898 167.515 57.8529 166.479ZM58.8885 155.039C58.2967 154.841 58.0008 154.398 58.2474 154.2C58.346 154.052 58.6912 153.066 58.7898 152.82L58.8885 152.08C58.8885 151.784 59.4309 151.685 59.924 151.883C60.5651 152.031 60.9596 152.425 60.8609 152.672C60.8609 152.869 60.8609 153.214 60.713 153.51C60.6144 153.756 60.2199 154.841 60.072 155.088C59.924 155.285 59.3323 155.285 58.8885 155.039ZM70.0434 165.641C69.9941 164.901 69.9448 164.161 69.9448 163.471C69.9448 161.893 70.0927 160.463 70.29 159.23C70.4379 158.392 72.0652 159.477 71.9173 160.118C71.9666 161.4 71.7694 162.288 71.8187 163.915C73.5446 162.041 75.2212 160.068 77.3416 159.033C77.7361 158.836 78.5745 159.329 78.969 159.871C79.5114 161.153 79.5607 162.189 80.0045 163.915L84.7878 160.019C85.133 159.773 86.0699 160.266 86.4151 160.808C86.9082 161.794 87.1548 163.57 88.141 164.408C88.6835 164.753 89.2752 165 89.9656 165C91.5436 165 96.9186 162.583 97.609 161.4C97.7569 161.153 98.398 161.548 97.8062 162.633C97.0666 163.964 93.8613 166.38 91.0505 166.38C90.0149 166.38 88.8314 166.085 87.7465 165.394C87.0069 164.901 86.5137 164.309 86.0699 163.718C85.7247 163.224 85.4782 162.682 85.3302 162.238C83.1112 164.063 81.8784 165.049 80.5469 165.937C80.1524 166.134 79.2155 165.641 78.9196 165.098C78.4265 164.013 78.1306 162.879 77.6868 160.956C75.1719 162.583 73.7912 165.197 71.868 166.874C71.4735 167.219 70.1914 166.232 70.0434 165.641ZM97.871 166.479C97.1313 165.69 96.7861 164.013 96.7861 162.386C96.7861 160.857 97.082 159.329 97.6244 158.49C97.6737 158.244 98.1668 158.195 98.7586 158.343C99.301 158.54 99.5969 158.934 99.5476 159.181C99.1531 159.575 98.1668 165.148 98.9065 165.789C99.301 166.085 99.7941 166.232 100.337 166.232C103.394 166.232 108.621 162.288 110.1 160.808C110.298 160.611 110.791 160.907 110.199 161.992C109.262 163.718 104.775 167.613 101.372 167.761C100.139 167.81 98.8079 167.515 97.871 166.479ZM98.9065 155.039C98.3148 154.841 98.0189 154.398 98.2655 154.2C98.3641 154.052 98.7093 153.066 98.8079 152.82L98.9065 152.08C98.9065 151.784 99.449 151.685 99.9421 151.883C100.583 152.031 100.978 152.425 100.879 152.672C100.879 152.869 100.879 153.214 100.731 153.51C100.632 153.756 100.238 154.841 100.09 155.088C99.9421 155.285 99.3503 155.285 98.9065 155.039ZM119.036 160.907C115.387 161.301 111.837 163.668 110.9 165.739L110.85 166.874C110.9 167.515 109.174 167.071 109.125 166.282C109.075 165.887 109.026 165.394 109.125 164.802L109.618 159.871C109.618 159.526 110.111 159.477 110.604 159.674C110.998 159.921 111.442 160.364 111.393 160.66L111.294 162.337C112.971 161.104 116.521 159.329 119.283 159.625C120.22 159.723 121.107 160.611 121.107 161.351C121.107 161.844 120.96 162.583 120.91 163.372C120.91 163.964 121.354 164.408 122.044 164.605C123.08 164.901 124.707 165 126.729 165C132.548 165 141.03 164.013 143.249 163.372C143.594 163.274 145.418 162.83 145.665 163.224C146.059 163.619 143.988 164.408 143.643 164.507C140.142 165.641 132.942 166.824 127.469 166.824C125.743 166.824 124.214 166.676 122.981 166.43C122.143 166.183 118.642 165.443 119.036 160.907ZM168.644 178.314C168.25 174.418 167.954 168.649 167.855 162.435C167.362 162.386 166.869 162.288 166.376 162.189C163.269 161.597 160.754 159.526 160.705 157.258C160.655 156.321 161.444 155.187 162.184 154.94C163.368 154.644 165.439 155.285 167.855 156.321C167.904 147.592 168.348 138.766 169.285 133.193C169.68 132.651 171.504 133.095 171.406 133.884C170.518 139.16 169.976 148.135 169.828 157.258C171.307 157.997 172.885 158.885 174.414 159.723C178.063 158.047 182.994 154.693 186.988 150.896C189.207 148.825 194.73 142.119 194.73 138.371C194.73 137.829 194.632 137.385 194.385 136.99C194.139 136.596 194.188 136.201 194.533 136.152C194.829 136.103 195.322 136.349 195.47 136.744C195.766 137.434 195.914 138.223 195.914 139.012C195.914 143.5 191.624 149.22 188.468 152.228C184.424 156.074 179.246 159.378 175.844 160.956C183.832 166.479 189.207 170.868 196.999 178.659C197.295 178.955 197.344 179.3 197.048 179.448C196.801 179.596 196.308 179.547 196.062 179.202C191.969 175.109 182.747 167.416 174.167 161.696C172.786 162.14 171.258 162.386 169.778 162.435C169.778 168.649 169.926 174.616 170.37 179.054L170.518 179.3C170.518 179.547 170.419 179.695 170.123 179.744C169.581 179.695 168.989 178.758 168.644 178.314ZM161.938 157.751C162.332 158.984 164.157 160.167 166.277 160.71C166.77 160.857 167.313 160.907 167.855 160.956V158.392C165.587 157.307 163.269 156.321 162.332 156.666C161.888 156.814 161.888 157.406 161.938 157.751ZM171.652 160.315L169.778 159.378V160.956C170.419 160.907 171.011 160.808 171.603 160.611C171.603 160.512 171.652 160.414 171.652 160.315ZM209.39 161.646C208.305 162.041 205.1 162.485 202.092 162.337C202.289 162.978 202.339 163.718 202.191 164.457C201.747 166.923 199.725 168.156 197.457 168.008C195.632 167.909 194.399 166.38 194.153 165C193.808 162.929 195.09 160.562 196.224 160.167C196.323 160.167 196.372 160.118 196.47 160.118C196.668 159.427 197.013 158.885 197.999 158.934C199.331 159.132 200.415 159.773 201.155 160.66C202.388 160.808 203.67 160.857 204.804 160.857C207.122 160.857 209.045 160.66 209.489 160.66C210.919 160.611 210.574 161.252 209.39 161.646ZM197.21 161.252C196.569 161.745 195.632 163.471 195.879 164.852C196.125 166.282 196.668 166.824 197.605 166.775C199.774 166.676 200.859 163.865 200.07 162.09C198.936 161.893 197.999 161.597 197.309 161.153L197.21 161.252ZM209.487 167.712C208.896 167.416 208.452 166.183 209.537 166.43C209.98 166.528 210.523 166.578 211.164 166.578C212.742 166.578 214.714 166.331 215.997 166.035C214.764 165.394 212.89 164.457 211.904 163.915C210.622 163.175 209.241 162.682 209.044 161.203C208.649 158.589 214.024 157.011 216.539 156.666C217.328 156.567 218.314 157.504 217.92 157.997C216.095 158.638 211.608 159.477 211.065 160.759C210.769 161.449 211.904 161.942 212.89 162.534C214.764 163.57 216.243 164.309 217.229 165.098C218.314 166.035 217.377 167.416 216.095 167.761C215.208 168.008 213.925 168.156 212.643 168.156C211.411 168.156 210.227 168.008 209.487 167.712ZM223.131 181.667C222.588 179.941 222.391 172.298 222.391 165.69C222.391 162.83 222.44 160.167 222.49 158.244C222.539 155.926 222.638 153.017 222.785 150.009C218.693 150.354 214.846 150.65 210.901 151.34C209.964 151.488 208.929 150.206 209.767 150.009C213.268 149.368 216.769 148.973 222.835 148.48C223.032 144.634 223.279 140.738 223.476 137.681C223.427 136.892 225.35 137.188 225.498 138.174C225.152 140.639 224.857 144.486 224.659 148.332C225.103 148.332 225.596 148.283 226.089 148.234C230.281 147.938 235.903 147.494 240.735 147.494C243.546 147.494 246.11 147.642 247.885 148.036C248.329 148.234 248.822 148.727 249.02 149.023C249.069 149.417 248.822 149.614 248.428 149.565C246.209 149.121 243.447 148.973 240.489 148.973C235.212 148.973 229.443 149.466 225.695 149.762C225.3 149.812 224.955 149.861 224.561 149.861L224.216 158.145C224.166 161.301 224.018 165.937 224.018 170.424C224.018 175.454 224.216 180.286 224.857 182.604C225.005 183.738 223.476 182.703 223.131 181.667Z"/>
</mask>
<path d="M36.3158 169.931C34.3433 160.907 32.9132 152.031 32.1735 143.5C26.5519 162.583 12.4486 178.659 1.45199 173.58C1.05749 173.235 1.00818 172.791 1.5013 172.939C15.9498 177.426 28.2286 152.277 30.99 142.316C31.1873 141.576 31.2366 140.541 31.3352 139.949C31.2859 139.9 31.3352 139.85 31.3352 139.801C31.4832 139.111 33.1105 140.097 33.3077 141.034C34.4419 147.888 34.9843 157.159 37.0554 165.641C40.458 157.208 49.7287 136.99 51.7012 135.314C52.4902 134.278 53.8709 135.659 53.8216 136.645C53.0819 144.289 52.5888 150.206 52.5888 156.37C52.5888 157.603 52.5888 158.786 52.6381 160.019C52.934 169.734 54.4627 176.835 58.1611 178.018C58.457 178.117 58.5556 178.659 57.9639 178.659C52.3916 178.659 51.2081 167.219 50.8629 160.315C50.8136 159.033 50.7643 157.701 50.7643 156.37C50.7643 150.305 51.356 143.647 51.9478 137.779C49.4821 141.626 40.2114 161.597 37.8938 168.008C37.9431 169.241 36.8089 170.375 36.3158 169.931ZM57.8529 166.479C57.1132 165.69 56.768 164.013 56.768 162.386C56.768 160.857 57.0639 159.329 57.6063 158.49C57.6556 158.244 58.1488 158.195 58.7405 158.343C59.283 158.54 59.5788 158.934 59.5295 159.181C59.135 159.575 58.1488 165.148 58.8885 165.789C59.283 166.085 59.7761 166.232 60.3185 166.232C63.3759 166.232 68.603 162.288 70.0823 160.808C70.2796 160.611 70.7727 160.907 70.181 161.992C69.244 163.718 64.7566 167.613 61.3541 167.761C60.1213 167.81 58.7898 167.515 57.8529 166.479ZM58.8885 155.039C58.2967 154.841 58.0008 154.398 58.2474 154.2C58.346 154.052 58.6912 153.066 58.7898 152.82L58.8885 152.08C58.8885 151.784 59.4309 151.685 59.924 151.883C60.5651 152.031 60.9596 152.425 60.8609 152.672C60.8609 152.869 60.8609 153.214 60.713 153.51C60.6144 153.756 60.2199 154.841 60.072 155.088C59.924 155.285 59.3323 155.285 58.8885 155.039ZM70.0434 165.641C69.9941 164.901 69.9448 164.161 69.9448 163.471C69.9448 161.893 70.0927 160.463 70.29 159.23C70.4379 158.392 72.0652 159.477 71.9173 160.118C71.9666 161.4 71.7694 162.288 71.8187 163.915C73.5446 162.041 75.2212 160.068 77.3416 159.033C77.7361 158.836 78.5745 159.329 78.969 159.871C79.5114 161.153 79.5607 162.189 80.0045 163.915L84.7878 160.019C85.133 159.773 86.0699 160.266 86.4151 160.808C86.9082 161.794 87.1548 163.57 88.141 164.408C88.6835 164.753 89.2752 165 89.9656 165C91.5436 165 96.9186 162.583 97.609 161.4C97.7569 161.153 98.398 161.548 97.8062 162.633C97.0666 163.964 93.8613 166.38 91.0505 166.38C90.0149 166.38 88.8314 166.085 87.7465 165.394C87.0069 164.901 86.5137 164.309 86.0699 163.718C85.7247 163.224 85.4782 162.682 85.3302 162.238C83.1112 164.063 81.8784 165.049 80.5469 165.937C80.1524 166.134 79.2155 165.641 78.9196 165.098C78.4265 164.013 78.1306 162.879 77.6868 160.956C75.1719 162.583 73.7912 165.197 71.868 166.874C71.4735 167.219 70.1914 166.232 70.0434 165.641ZM97.871 166.479C97.1313 165.69 96.7861 164.013 96.7861 162.386C96.7861 160.857 97.082 159.329 97.6244 158.49C97.6737 158.244 98.1668 158.195 98.7586 158.343C99.301 158.54 99.5969 158.934 99.5476 159.181C99.1531 159.575 98.1668 165.148 98.9065 165.789C99.301 166.085 99.7941 166.232 100.337 166.232C103.394 166.232 108.621 162.288 110.1 160.808C110.298 160.611 110.791 160.907 110.199 161.992C109.262 163.718 104.775 167.613 101.372 167.761C100.139 167.81 98.8079 167.515 97.871 166.479ZM98.9065 155.039C98.3148 154.841 98.0189 154.398 98.2655 154.2C98.3641 154.052 98.7093 153.066 98.8079 152.82L98.9065 152.08C98.9065 151.784 99.449 151.685 99.9421 151.883C100.583 152.031 100.978 152.425 100.879 152.672C100.879 152.869 100.879 153.214 100.731 153.51C100.632 153.756 100.238 154.841 100.09 155.088C99.9421 155.285 99.3503 155.285 98.9065 155.039ZM119.036 160.907C115.387 161.301 111.837 163.668 110.9 165.739L110.85 166.874C110.9 167.515 109.174 167.071 109.125 166.282C109.075 165.887 109.026 165.394 109.125 164.802L109.618 159.871C109.618 159.526 110.111 159.477 110.604 159.674C110.998 159.921 111.442 160.364 111.393 160.66L111.294 162.337C112.971 161.104 116.521 159.329 119.283 159.625C120.22 159.723 121.107 160.611 121.107 161.351C121.107 161.844 120.96 162.583 120.91 163.372C120.91 163.964 121.354 164.408 122.044 164.605C123.08 164.901 124.707 165 126.729 165C132.548 165 141.03 164.013 143.249 163.372C143.594 163.274 145.418 162.83 145.665 163.224C146.059 163.619 143.988 164.408 143.643 164.507C140.142 165.641 132.942 166.824 127.469 166.824C125.743 166.824 124.214 166.676 122.981 166.43C122.143 166.183 118.642 165.443 119.036 160.907ZM168.644 178.314C168.25 174.418 167.954 168.649 167.855 162.435C167.362 162.386 166.869 162.288 166.376 162.189C163.269 161.597 160.754 159.526 160.705 157.258C160.655 156.321 161.444 155.187 162.184 154.94C163.368 154.644 165.439 155.285 167.855 156.321C167.904 147.592 168.348 138.766 169.285 133.193C169.68 132.651 171.504 133.095 171.406 133.884C170.518 139.16 169.976 148.135 169.828 157.258C171.307 157.997 172.885 158.885 174.414 159.723C178.063 158.047 182.994 154.693 186.988 150.896C189.207 148.825 194.73 142.119 194.73 138.371C194.73 137.829 194.632 137.385 194.385 136.99C194.139 136.596 194.188 136.201 194.533 136.152C194.829 136.103 195.322 136.349 195.47 136.744C195.766 137.434 195.914 138.223 195.914 139.012C195.914 143.5 191.624 149.22 188.468 152.228C184.424 156.074 179.246 159.378 175.844 160.956C183.832 166.479 189.207 170.868 196.999 178.659C197.295 178.955 197.344 179.3 197.048 179.448C196.801 179.596 196.308 179.547 196.062 179.202C191.969 175.109 182.747 167.416 174.167 161.696C172.786 162.14 171.258 162.386 169.778 162.435C169.778 168.649 169.926 174.616 170.37 179.054L170.518 179.3C170.518 179.547 170.419 179.695 170.123 179.744C169.581 179.695 168.989 178.758 168.644 178.314ZM161.938 157.751C162.332 158.984 164.157 160.167 166.277 160.71C166.77 160.857 167.313 160.907 167.855 160.956V158.392C165.587 157.307 163.269 156.321 162.332 156.666C161.888 156.814 161.888 157.406 161.938 157.751ZM171.652 160.315L169.778 159.378V160.956C170.419 160.907 171.011 160.808 171.603 160.611C171.603 160.512 171.652 160.414 171.652 160.315ZM209.39 161.646C208.305 162.041 205.1 162.485 202.092 162.337C202.289 162.978 202.339 163.718 202.191 164.457C201.747 166.923 199.725 168.156 197.457 168.008C195.632 167.909 194.399 166.38 194.153 165C193.808 162.929 195.09 160.562 196.224 160.167C196.323 160.167 196.372 160.118 196.47 160.118C196.668 159.427 197.013 158.885 197.999 158.934C199.331 159.132 200.415 159.773 201.155 160.66C202.388 160.808 203.67 160.857 204.804 160.857C207.122 160.857 209.045 160.66 209.489 160.66C210.919 160.611 210.574 161.252 209.39 161.646ZM197.21 161.252C196.569 161.745 195.632 163.471 195.879 164.852C196.125 166.282 196.668 166.824 197.605 166.775C199.774 166.676 200.859 163.865 200.07 162.09C198.936 161.893 197.999 161.597 197.309 161.153L197.21 161.252ZM209.487 167.712C208.896 167.416 208.452 166.183 209.537 166.43C209.98 166.528 210.523 166.578 211.164 166.578C212.742 166.578 214.714 166.331 215.997 166.035C214.764 165.394 212.89 164.457 211.904 163.915C210.622 163.175 209.241 162.682 209.044 161.203C208.649 158.589 214.024 157.011 216.539 156.666C217.328 156.567 218.314 157.504 217.92 157.997C216.095 158.638 211.608 159.477 211.065 160.759C210.769 161.449 211.904 161.942 212.89 162.534C214.764 163.57 216.243 164.309 217.229 165.098C218.314 166.035 217.377 167.416 216.095 167.761C215.208 168.008 213.925 168.156 212.643 168.156C211.411 168.156 210.227 168.008 209.487 167.712ZM223.131 181.667C222.588 179.941 222.391 172.298 222.391 165.69C222.391 162.83 222.44 160.167 222.49 158.244C222.539 155.926 222.638 153.017 222.785 150.009C218.693 150.354 214.846 150.65 210.901 151.34C209.964 151.488 208.929 150.206 209.767 150.009C213.268 149.368 216.769 148.973 222.835 148.48C223.032 144.634 223.279 140.738 223.476 137.681C223.427 136.892 225.35 137.188 225.498 138.174C225.152 140.639 224.857 144.486 224.659 148.332C225.103 148.332 225.596 148.283 226.089 148.234C230.281 147.938 235.903 147.494 240.735 147.494C243.546 147.494 246.11 147.642 247.885 148.036C248.329 148.234 248.822 148.727 249.02 149.023C249.069 149.417 248.822 149.614 248.428 149.565C246.209 149.121 243.447 148.973 240.489 148.973C235.212 148.973 229.443 149.466 225.695 149.762C225.3 149.812 224.955 149.861 224.561 149.861L224.216 158.145C224.166 161.301 224.018 165.937 224.018 170.424C224.018 175.454 224.216 180.286 224.857 182.604C225.005 183.738 223.476 182.703 223.131 181.667Z" fill="white"/>
<path d="M36.3158 169.931L35.3793 170.136L35.4452 170.437L35.6745 170.643L36.3158 169.931ZM32.1735 143.5L33.1285 143.417L31.2541 143.229L32.1735 143.5ZM1.45199 173.58L0.820795 174.301L0.924711 174.392L1.05007 174.45L1.45199 173.58ZM1.5013 172.939L1.78562 172.024L1.77673 172.021L1.5013 172.939ZM30.99 142.316L31.9138 142.572L31.9162 142.563L30.99 142.316ZM31.3352 139.949L32.2807 140.107L32.3618 139.62L32.013 139.271L31.3352 139.949ZM31.3352 139.801L30.398 139.6L30.3767 139.7V139.801H31.3352ZM33.3077 141.034L34.2534 140.877L34.25 140.857L34.2457 140.836L33.3077 141.034ZM37.0554 165.641L36.1243 165.868L36.8304 168.76L37.9443 165.999L37.0554 165.641ZM51.7012 135.314L52.322 136.044L52.4009 135.977L52.4636 135.895L51.7012 135.314ZM53.8216 136.645L54.7757 136.737L54.7778 136.715L54.779 136.693L53.8216 136.645ZM52.6381 160.019L53.5963 159.99L53.5959 159.981L52.6381 160.019ZM58.1611 178.018L58.4642 177.109L58.4532 177.105L58.1611 178.018ZM50.8629 160.315L49.905 160.352L49.9056 160.363L50.8629 160.315ZM51.9478 137.779L52.9014 137.875L51.1408 137.262L51.9478 137.779ZM37.8938 168.008L36.9923 167.682L36.9285 167.858L36.936 168.046L37.8938 168.008ZM37.2522 169.726C35.2869 160.735 33.864 151.9 33.1285 143.417L31.2186 143.582C31.9624 152.161 33.3997 161.079 35.3793 170.136L37.2522 169.726ZM31.2541 143.229C28.4789 152.65 23.6167 161.294 18.1408 166.933C12.6145 172.624 6.77142 174.981 1.85392 172.71L1.05007 174.45C7.1292 177.258 13.8361 174.117 19.516 168.269C25.2463 162.368 30.2466 153.433 33.093 143.77L31.2541 143.229ZM2.08319 172.859C2.05076 172.83 2.04191 172.814 2.04712 172.822C2.05007 172.827 2.06135 172.847 2.07311 172.882C2.08415 172.915 2.10232 172.982 2.10232 173.075C2.10232 173.169 2.08292 173.312 1.99642 173.463C1.90487 173.622 1.76808 173.738 1.62152 173.803C1.36764 173.917 1.18393 173.844 1.22587 173.857L1.77673 172.021C1.57211 171.959 1.20965 171.887 0.838655 172.053C0.362864 172.266 0.185261 172.715 0.185263 173.075C0.185263 173.38 0.300222 173.636 0.400721 173.804C0.510725 173.989 0.655977 174.157 0.820795 174.301L2.08319 172.859ZM1.217 173.854C5.14419 175.074 8.89939 174.26 12.2991 172.276C15.6785 170.304 18.7446 167.16 21.3955 163.62C26.6958 156.543 30.5048 147.654 31.9137 142.572L30.0664 142.06C28.7138 146.939 25.0027 155.605 19.8611 162.471C17.291 165.903 14.4058 168.827 11.333 170.62C8.28049 172.401 5.08266 173.048 1.78561 172.024L1.217 173.854ZM31.9162 142.563C32.0343 142.12 32.1021 141.616 32.1518 141.187C32.2058 140.722 32.2366 140.371 32.2807 140.107L30.3897 139.791C30.3353 140.118 30.2921 140.582 30.2475 140.967C30.1985 141.389 30.143 141.772 30.0639 142.069L31.9162 142.563ZM32.013 139.271C32.1227 139.381 32.2196 139.539 32.2565 139.735C32.29 139.914 32.2601 140.054 32.2466 140.108C32.2397 140.135 32.233 140.155 32.233 140.155C32.229 140.167 32.2389 140.138 32.2432 140.124C32.2541 140.089 32.2938 139.964 32.2938 139.801H30.3767C30.3767 139.663 30.4102 139.562 30.4134 139.552C30.4138 139.551 30.4195 139.533 30.4115 139.558C30.4074 139.57 30.3969 139.602 30.3868 139.643C30.3672 139.721 30.3342 139.886 30.3723 140.089C30.4138 140.31 30.5231 140.493 30.6575 140.627L32.013 139.271ZM32.2725 140.002C32.2448 140.131 32.1551 140.309 31.9661 140.428C31.8019 140.532 31.6592 140.53 31.6238 140.528C31.571 140.525 31.6343 140.521 31.8 140.623C31.9442 140.712 32.0937 140.838 32.2088 140.972C32.3309 141.115 32.3651 141.209 32.3698 141.231L34.2457 140.836C34.1517 140.39 33.9086 140.01 33.6654 139.726C33.4153 139.433 33.1117 139.18 32.806 138.991C32.5216 138.816 32.138 138.637 31.7324 138.614C31.5205 138.602 31.2249 138.629 30.9427 138.807C30.6355 139.001 30.4626 139.299 30.398 139.6L32.2725 140.002ZM32.362 141.19C32.9252 144.594 33.3389 148.581 33.8793 152.848C34.4167 157.091 35.0754 161.573 36.1243 165.868L37.9866 165.413C36.9643 161.227 36.3163 156.832 35.7812 152.607C35.249 148.404 34.8244 144.328 34.2534 140.877L32.362 141.19ZM37.9443 165.999C39.6365 161.806 42.7966 154.661 45.781 148.354C47.273 145.201 48.7161 142.267 49.906 140.023C50.5016 138.899 51.028 137.959 51.4615 137.255C51.6785 136.902 51.8662 136.618 52.0229 136.404C52.189 136.176 52.2872 136.074 52.322 136.044L51.0804 134.583C50.8686 134.763 50.6632 135.015 50.4752 135.272C50.2777 135.542 50.0606 135.873 49.8287 136.25C49.3644 137.005 48.8164 137.985 48.2123 139.125C47.0028 141.406 45.5457 144.369 44.0482 147.534C41.0534 153.863 37.8769 161.043 36.1666 165.282L37.9443 165.999ZM52.4636 135.895C52.4896 135.861 52.4937 135.867 52.4665 135.882C52.4372 135.897 52.403 135.905 52.3754 135.905C52.3338 135.905 52.3761 135.892 52.4888 135.979C52.594 136.061 52.7014 136.186 52.7769 136.328C52.8558 136.475 52.8655 136.573 52.8643 136.597L54.779 136.693C54.8024 136.225 54.658 135.78 54.4672 135.423C54.2731 135.06 53.9952 134.721 53.6628 134.463C53.3378 134.212 52.8901 133.986 52.3692 133.988C51.8008 133.989 51.2972 134.262 50.9388 134.733L52.4636 135.895ZM52.8675 136.553C52.1277 144.198 51.6303 150.156 51.6303 156.37H53.5473C53.5473 150.256 54.0362 144.379 54.7757 136.737L52.8675 136.553ZM51.6303 156.37C51.6303 157.6 51.6302 158.802 51.6804 160.057L53.5959 159.981C53.5475 158.77 53.5473 157.606 53.5473 156.37H51.6303ZM51.68 160.048C51.8288 164.933 52.2881 169.228 53.2009 172.477C54.0919 175.649 55.5153 178.178 57.869 178.931L58.4532 177.105C57.1085 176.675 55.9183 175.062 55.0465 171.959C54.1963 168.933 53.7433 164.82 53.5962 159.99L51.68 160.048ZM57.858 178.927C57.6972 178.874 57.5921 178.772 57.532 178.678C57.4731 178.587 57.4268 178.456 57.4401 178.296C57.4551 178.116 57.5461 177.931 57.7081 177.808C57.854 177.698 57.9741 177.701 57.9639 177.701V179.618C58.2494 179.618 58.5791 179.553 58.8638 179.338C59.1645 179.11 59.3232 178.783 59.3506 178.455C59.398 177.886 59.0494 177.304 58.4642 177.109L57.858 178.927ZM57.9639 177.701C56.9539 177.701 56.0909 177.201 55.3143 176.183C54.5212 175.142 53.8805 173.631 53.3767 171.819C52.3715 168.205 51.9924 163.71 51.8202 160.267L49.9056 160.363C50.0786 163.824 50.4638 168.501 51.5297 172.333C52.0615 174.244 52.783 176.024 53.7898 177.345C54.8131 178.687 56.1876 179.618 57.9639 179.618V177.701ZM51.8207 160.278C51.7713 158.994 51.7228 157.681 51.7228 156.37H49.8057C49.8057 157.722 49.8558 159.071 49.9051 160.352L51.8207 160.278ZM51.7228 156.37C51.7228 150.357 52.3099 143.742 52.9014 137.875L50.9941 137.683C50.4022 143.553 49.8057 150.252 49.8057 156.37H51.7228ZM51.1408 137.262C49.8651 139.252 46.9015 145.275 43.996 151.528C41.0815 157.801 38.1674 164.432 36.9923 167.682L38.7952 168.334C39.9378 165.173 42.8179 158.613 45.7346 152.336C48.6602 146.039 51.5648 140.153 52.7547 138.297L51.1408 137.262ZM36.936 168.046C36.9491 168.374 36.7956 168.732 36.5911 168.962C36.4882 169.078 36.4283 169.098 36.4516 169.089C36.4934 169.074 36.7371 169.021 36.957 169.218L35.6745 170.643C36.141 171.063 36.7114 171.034 37.103 170.893C37.4761 170.758 37.7891 170.5 38.0252 170.234C38.4988 169.7 38.8877 168.875 38.8515 167.969L36.936 168.046ZM57.8529 166.479L58.5637 165.836L58.558 165.83L58.5522 165.823L57.8529 166.479ZM57.6063 158.49L58.4111 159.011L58.5104 158.858L58.5462 158.678L57.6063 158.49ZM58.7405 158.343L59.0681 157.442L59.0213 157.425L58.973 157.413L58.7405 158.343ZM59.5295 159.181L60.2073 159.859L60.4125 159.653L60.4694 159.369L59.5295 159.181ZM58.8885 165.789L58.2607 166.513L58.2863 166.535L58.3133 166.556L58.8885 165.789ZM70.0823 160.808L69.4046 160.13L70.0823 160.808ZM70.181 161.992L69.3395 161.533L69.3386 161.534L70.181 161.992ZM61.3541 167.761L61.3924 168.719L61.3957 168.719L61.3541 167.761ZM58.8885 155.039L59.354 154.201L59.2761 154.157L59.1916 154.129L58.8885 155.039ZM58.2474 154.2L58.8462 154.949L58.9624 154.856L59.0449 154.732L58.2474 154.2ZM58.7898 152.82L59.6798 153.176L59.7242 153.065L59.74 152.946L58.7898 152.82ZM58.8885 152.08L59.8386 152.207L59.847 152.143V152.08H58.8885ZM59.924 151.883L59.568 152.773L59.6366 152.8L59.7085 152.817L59.924 151.883ZM60.8609 152.672L59.971 152.316L59.9024 152.487V152.672H60.8609ZM60.713 153.51L59.8557 153.081L59.8378 153.117L59.823 153.154L60.713 153.51ZM60.072 155.088L60.8388 155.663L60.8684 155.623L60.8939 155.581L60.072 155.088ZM58.5522 165.823C58.3445 165.602 58.1253 165.169 57.9635 164.516C57.8068 163.884 57.7266 163.138 57.7266 162.386H55.8095C55.8095 163.262 55.9018 164.167 56.1027 164.978C56.2984 165.767 56.6216 166.567 57.1536 167.135L58.5522 165.823ZM57.7266 162.386C57.7266 160.92 58.0196 159.616 58.4111 159.011L56.8016 157.97C56.1082 159.041 55.8095 160.795 55.8095 162.386H57.7266ZM58.5462 158.678C58.4926 158.947 58.3191 159.102 58.2098 159.167C58.1169 159.222 58.0582 159.223 58.0854 159.22C58.1345 159.214 58.2817 159.216 58.508 159.272L58.973 157.413C58.6076 157.321 58.2123 157.274 57.8547 157.317C57.6784 157.338 57.4502 157.389 57.2325 157.518C56.9984 157.657 56.7448 157.911 56.6664 158.302L58.5462 158.678ZM58.4129 159.243C58.5492 159.293 58.6187 159.355 58.6373 159.376C58.6468 159.387 58.63 159.372 58.6108 159.323C58.5932 159.278 58.5565 159.159 58.5896 158.993L60.4694 159.369C60.5803 158.815 60.2932 158.356 60.0765 158.11C59.8239 157.823 59.4742 157.589 59.0681 157.442L58.4129 159.243ZM58.8517 158.503C58.699 158.656 58.6142 158.834 58.5778 158.914C58.5289 159.02 58.486 159.137 58.4483 159.251C58.3723 159.481 58.2968 159.764 58.2252 160.073C58.0811 160.694 57.9388 161.478 57.8336 162.265C57.729 163.049 57.6567 163.867 57.6626 164.55C57.6656 164.888 57.6878 165.227 57.7477 165.526C57.7969 165.771 57.9104 166.209 58.2607 166.513L59.5162 165.064C59.6816 165.208 59.6641 165.332 59.6272 165.148C59.601 165.018 59.582 164.813 59.5796 164.533C59.5747 163.978 59.635 163.259 59.7338 162.519C59.8319 161.784 59.9639 161.061 60.0926 160.506C60.1574 160.227 60.2179 160.006 60.2684 159.853C60.2941 159.775 60.312 159.731 60.3205 159.712C60.3416 159.666 60.3107 159.755 60.2073 159.859L58.8517 158.503ZM58.3133 166.556C58.8979 166.994 59.6011 167.191 60.3185 167.191V165.274C59.9511 165.274 59.668 165.175 59.4636 165.022L58.3133 166.556ZM60.3185 167.191C61.2665 167.191 62.3024 166.891 63.2946 166.478C64.3009 166.058 65.3351 165.491 66.3002 164.888C68.2208 163.688 69.9581 162.288 70.7601 161.486L69.4046 160.13C68.7272 160.808 67.1113 162.12 65.2842 163.262C64.3754 163.83 63.437 164.342 62.5572 164.708C61.6632 165.081 60.8992 165.274 60.3185 165.274V167.191ZM70.7601 161.486C70.5753 161.671 70.295 161.756 70.0213 161.685C69.7418 161.611 69.5927 161.413 69.5376 161.275C69.4864 161.147 69.5128 161.082 69.5015 161.141C69.4912 161.195 69.4544 161.322 69.3395 161.533L71.0225 162.451C71.3557 161.84 71.556 161.159 71.3175 160.563C71.1883 160.24 70.916 159.937 70.507 159.83C70.1039 159.724 69.688 159.847 69.4046 160.13L70.7601 161.486ZM69.3386 161.534C69.1682 161.848 68.7858 162.34 68.2046 162.925C67.6363 163.498 66.9205 164.118 66.129 164.692C64.507 165.87 62.725 166.742 61.3124 166.804L61.3957 168.719C63.3857 168.632 65.5486 167.483 67.2552 166.244C68.128 165.61 68.9225 164.923 69.5653 164.276C70.1954 163.641 70.7252 162.998 71.0234 162.449L69.3386 161.534ZM61.3158 166.803C60.2412 166.846 59.2391 166.582 58.5637 165.836L57.1421 167.122C58.3405 168.447 60.0013 168.775 61.3924 168.719L61.3158 166.803ZM59.1916 154.129C59.036 154.077 59.0002 154.017 59.0275 154.054C59.0398 154.071 59.1126 154.174 59.1184 154.356C59.1215 154.454 59.1043 154.568 59.0517 154.683C58.9988 154.799 58.923 154.887 58.8462 154.949L57.6486 153.452C57.3475 153.693 57.1905 154.048 57.2023 154.417C57.2127 154.744 57.3502 155.008 57.4797 155.185C57.7412 155.543 58.1492 155.803 58.5853 155.948L59.1916 154.129ZM59.0449 154.732C59.1033 154.644 59.1464 154.551 59.1663 154.508C59.1934 154.449 59.2211 154.383 59.2474 154.319C59.3005 154.189 59.3598 154.034 59.4161 153.883C59.5372 153.561 59.6351 153.287 59.6798 153.176L57.8999 152.464C57.846 152.598 57.7219 152.941 57.6211 153.21C57.5665 153.356 57.5148 153.491 57.4724 153.595C57.451 153.647 57.4347 153.685 57.4236 153.709C57.4054 153.749 57.4161 153.719 57.4499 153.669L59.0449 154.732ZM59.74 152.946L59.8386 152.207L57.9383 151.953L57.8397 152.693L59.74 152.946ZM59.847 152.08C59.847 152.195 59.8194 152.312 59.7646 152.418C59.7115 152.521 59.6438 152.593 59.5868 152.639C59.531 152.685 59.4821 152.709 59.453 152.721C59.4232 152.733 59.4036 152.737 59.398 152.738C59.3944 152.739 59.4684 152.733 59.568 152.773L60.28 150.993C59.8865 150.835 59.4428 150.78 59.0447 150.854C58.8475 150.891 58.5972 150.973 58.375 151.154C58.1306 151.353 57.9299 151.673 57.9299 152.08H59.847ZM59.7085 152.817C59.8999 152.861 60.006 152.932 60.0331 152.957C60.0482 152.97 60.0096 152.942 59.9715 152.857C59.9315 152.768 59.8729 152.561 59.971 152.316L61.7509 153.028C61.8983 152.659 61.8274 152.311 61.7211 152.073C61.6168 151.84 61.458 151.658 61.3067 151.524C61.0009 151.252 60.5892 151.052 60.1395 150.949L59.7085 152.817ZM59.9024 152.672C59.9024 152.772 59.9016 152.853 59.8913 152.935C59.881 153.017 59.865 153.063 59.8557 153.081L61.5703 153.939C61.8335 153.412 61.8195 152.845 61.8195 152.672H59.9024ZM59.823 153.154C59.775 153.274 59.6335 153.654 59.5176 153.952C59.4542 154.115 59.3918 154.271 59.3379 154.399C59.2758 154.545 59.2474 154.599 59.25 154.595L60.8939 155.581C61.0204 155.37 61.1894 154.942 61.3043 154.646C61.4474 154.278 61.5524 153.992 61.603 153.866L59.823 153.154ZM59.3051 154.513C59.3783 154.415 59.4574 154.358 59.5101 154.327C59.5629 154.296 59.604 154.282 59.6226 154.277C59.6568 154.267 59.6575 154.273 59.6178 154.272C59.5827 154.271 59.5353 154.265 59.4835 154.251C59.4318 154.237 59.3874 154.219 59.354 154.201L58.423 155.877C58.7911 156.081 59.2028 156.178 59.5645 156.188C59.7468 156.193 59.9508 156.177 60.1515 156.119C60.3341 156.067 60.6254 155.948 60.8388 155.663L59.3051 154.513ZM70.0434 165.641L69.087 165.705L69.0927 165.79L69.1135 165.873L70.0434 165.641ZM70.29 159.23L69.3461 159.064L69.3447 159.071L69.3435 159.079L70.29 159.23ZM71.9173 160.118L70.9833 159.902L70.9546 160.027L70.9595 160.155L71.9173 160.118ZM71.8187 163.915L70.8606 163.944L70.9318 166.293L72.5237 164.564L71.8187 163.915ZM77.3416 159.033L77.7623 159.894L77.7703 159.89L77.3416 159.033ZM78.969 159.871L79.8517 159.498L79.8089 159.396L79.7441 159.307L78.969 159.871ZM80.0045 163.915L79.0762 164.154L79.449 165.603L80.6098 164.658L80.0045 163.915ZM84.7878 160.019L84.2307 159.239L84.206 159.257L84.1825 159.276L84.7878 160.019ZM86.4151 160.808L87.2724 160.379L87.2503 160.335L87.2238 160.294L86.4151 160.808ZM88.141 164.408L87.5202 165.138L87.5706 165.181L87.6264 165.217L88.141 164.408ZM97.609 161.4L96.787 160.907L96.781 160.917L97.609 161.4ZM97.8062 162.633L98.6442 163.098L98.6477 163.092L97.8062 162.633ZM87.7465 165.394L87.2148 166.192L87.2233 166.197L87.2319 166.203L87.7465 165.394ZM86.0699 163.718L85.2847 164.267L85.2937 164.28L85.3031 164.293L86.0699 163.718ZM85.3302 162.238L86.2396 161.935L85.7986 160.612L84.7215 161.498L85.3302 162.238ZM80.5469 165.937L80.9756 166.794L81.029 166.767L81.0786 166.734L80.5469 165.937ZM78.9196 165.098L78.047 165.495L78.0615 165.527L78.0782 165.557L78.9196 165.098ZM77.6868 160.956L78.6208 160.741L78.3135 159.409L77.1661 160.151L77.6868 160.956ZM71.868 166.874L71.2381 166.151L71.2368 166.152L71.868 166.874ZM70.9998 165.577C70.9501 164.83 70.9033 164.124 70.9033 163.471H68.9863C68.9863 164.199 69.0382 164.972 69.087 165.705L70.9998 165.577ZM70.9033 163.471C70.9033 161.953 71.0457 160.574 71.2365 159.382L69.3435 159.079C69.1398 160.352 68.9863 161.833 68.9863 163.471H70.9033ZM71.2339 159.397C71.2226 159.461 71.1762 159.608 71.0271 159.733C70.8821 159.856 70.7329 159.88 70.662 159.883C70.5973 159.885 70.5736 159.872 70.6011 159.881C70.6237 159.889 70.6645 159.907 70.7178 159.939C70.8309 160.007 70.9284 160.098 70.9794 160.166C71.0039 160.199 70.9994 160.202 70.9891 160.172C70.9788 160.142 70.9511 160.042 70.9833 159.902L72.8513 160.333C72.9852 159.753 72.7005 159.265 72.5131 159.016C72.2959 158.726 72.0051 158.477 71.7114 158.299C71.4408 158.135 71.0357 157.951 70.593 157.967C70.3509 157.976 70.0516 158.048 69.7898 158.269C69.524 158.494 69.3944 158.79 69.3461 159.064L71.2339 159.397ZM70.9595 160.155C70.982 160.739 70.9488 161.233 70.9114 161.826C70.874 162.418 70.8345 163.083 70.8606 163.944L72.7768 163.886C72.7535 163.119 72.788 162.527 72.8246 161.947C72.8611 161.369 72.9019 160.779 72.8751 160.081L70.9595 160.155ZM72.5237 164.564C74.3086 162.626 75.8445 160.831 77.7623 159.894L76.921 158.172C74.598 159.306 72.7806 161.456 71.1136 163.265L72.5237 164.564ZM77.7703 159.89C77.6082 159.971 77.496 159.94 77.5258 159.946C77.5435 159.949 77.6041 159.966 77.6999 160.018C77.8975 160.125 78.0907 160.293 78.1938 160.435L79.7441 159.307C79.4527 158.907 79.0295 158.557 78.6107 158.331C78.3983 158.217 78.1507 158.114 77.8879 158.063C77.6373 158.015 77.2723 157.996 76.913 158.176L77.7703 159.89ZM78.0862 160.245C78.3231 160.805 78.456 161.317 78.5863 161.927C78.7144 162.527 78.8478 163.265 79.0762 164.154L80.9328 163.676C80.7174 162.838 80.6042 162.196 80.4611 161.526C80.3202 160.867 80.1572 160.22 79.8517 159.498L78.0862 160.245ZM80.6098 164.658L85.3931 160.762L84.1825 159.276L79.3992 163.172L80.6098 164.658ZM85.3449 160.799C85.241 160.873 85.1436 160.899 85.0873 160.908C85.0588 160.912 85.0373 160.913 85.0246 160.912C85.0119 160.912 85.0051 160.911 85.005 160.911C85.0049 160.911 85.0093 160.912 85.0184 160.914C85.0275 160.916 85.0399 160.92 85.0555 160.925C85.0873 160.936 85.1271 160.952 85.1728 160.975C85.266 161.022 85.3637 161.085 85.4485 161.156C85.5362 161.23 85.586 161.291 85.6064 161.323L87.2238 160.294C86.9333 159.837 86.4592 159.475 86.0301 159.26C85.8083 159.15 85.547 159.052 85.2733 159.013C85.0217 158.977 84.6052 158.972 84.2307 159.239L85.3449 160.799ZM85.5578 161.237C85.6492 161.42 85.7395 161.661 85.8463 161.977C85.9457 162.27 86.0648 162.644 86.1933 162.994C86.4463 163.683 86.8233 164.546 87.5202 165.138L88.7618 163.678C88.4725 163.432 88.2332 162.988 87.993 162.333C87.8749 162.012 87.7783 161.704 87.6619 161.361C87.553 161.04 87.4275 160.69 87.2724 160.379L85.5578 161.237ZM87.6264 165.217C88.2609 165.62 89.0315 165.958 89.9656 165.958V164.041C89.519 164.041 89.106 163.886 88.6556 163.599L87.6264 165.217ZM89.9656 165.958C90.5294 165.958 91.291 165.759 92.031 165.513C92.8074 165.255 93.6823 164.902 94.5222 164.514C95.3608 164.126 96.1851 163.694 96.8552 163.273C97.1897 163.063 97.5 162.847 97.7592 162.632C98.0034 162.429 98.2657 162.177 98.4369 161.883L96.781 160.917C96.7854 160.909 96.7739 160.93 96.728 160.979C96.6841 161.026 96.621 161.085 96.535 161.157C96.3619 161.3 96.1267 161.467 95.8355 161.65C95.2543 162.015 94.5068 162.409 93.718 162.773C92.9307 163.137 92.1228 163.462 91.426 163.694C90.6928 163.938 90.1908 164.041 89.9656 164.041V165.958ZM98.4309 161.893C98.2101 162.261 97.8034 162.333 97.5366 162.262C97.2949 162.197 97.1767 162.041 97.1329 161.956C97.0324 161.761 97.1839 161.772 96.9648 162.174L98.6477 163.092C99.0203 162.409 99.1472 161.68 98.8371 161.078C98.6885 160.79 98.4193 160.514 98.0343 160.41C97.6242 160.3 97.0819 160.415 96.7871 160.907L98.4309 161.893ZM96.9683 162.167C96.7138 162.625 95.8868 163.457 94.7006 164.191C93.5331 164.913 92.2071 165.422 91.0505 165.422V167.339C92.7046 167.339 94.3867 166.639 95.7094 165.821C97.0135 165.014 98.159 163.972 98.6441 163.098L96.9683 162.167ZM91.0505 165.422C90.1904 165.422 89.1866 165.174 88.2611 164.586L87.2319 166.203C88.4762 166.995 89.8394 167.339 91.0505 167.339V165.422ZM88.2782 164.597C87.675 164.194 87.2599 163.707 86.8367 163.142L85.3031 164.293C85.7676 164.912 86.3387 165.608 87.2148 166.192L88.2782 164.597ZM86.8552 163.168C86.5718 162.763 86.3635 162.307 86.2396 161.935L84.4209 162.541C84.5928 163.057 84.8776 163.686 85.2847 164.267L86.8552 163.168ZM84.7215 161.498C82.4984 163.326 81.3009 164.282 80.0152 165.139L81.0786 166.734C82.4559 165.816 83.724 164.8 85.939 162.979L84.7215 161.498ZM80.1183 165.079C80.2074 165.035 80.2795 165.025 80.3111 165.023C80.3431 165.021 80.3542 165.025 80.3398 165.022C80.3079 165.016 80.2359 164.995 80.138 164.944C80.0434 164.895 79.9512 164.832 79.8768 164.767C79.7985 164.698 79.7668 164.65 79.7611 164.639L78.0782 165.557C78.3484 166.053 78.8333 166.427 79.2546 166.646C79.4772 166.761 79.7319 166.86 79.996 166.908C80.2392 166.952 80.6121 166.976 80.9756 166.794L80.1183 165.079ZM79.7922 164.702C79.344 163.716 79.066 162.67 78.6208 160.741L76.7528 161.172C77.1952 163.089 77.509 164.311 78.047 165.495L79.7922 164.702ZM77.1661 160.151C75.7838 161.046 74.7348 162.198 73.823 163.278C72.8814 164.394 72.1271 165.376 71.2381 166.151L72.4979 167.596C73.532 166.694 74.4297 165.532 75.288 164.515C76.1761 163.462 77.0749 162.494 78.2076 161.761L77.1661 160.151ZM71.2368 166.152C71.3803 166.027 71.5328 165.993 71.6181 165.988C71.6947 165.982 71.7311 165.997 71.7116 165.991C71.6703 165.979 71.565 165.932 71.4204 165.829C71.2831 165.73 71.1542 165.613 71.0607 165.505C71.0145 165.451 70.9852 165.41 70.969 165.383C70.9506 165.352 70.9617 165.362 70.9733 165.408L69.1135 165.873C69.2045 166.237 69.4268 166.546 69.6102 166.758C69.8111 166.991 70.0551 167.209 70.3061 167.388C70.5499 167.563 70.8482 167.734 71.1629 167.828C71.424 167.906 72.013 168.02 72.4992 167.595L71.2368 166.152ZM97.871 166.479L98.5817 165.836L98.576 165.83L98.5702 165.823L97.871 166.479ZM97.6244 158.49L98.4292 159.011L98.5285 158.858L98.5643 158.678L97.6244 158.49ZM98.7586 158.343L99.0862 157.442L99.0394 157.425L98.9911 157.413L98.7586 158.343ZM99.5476 159.181L100.225 159.859L100.431 159.653L100.487 159.369L99.5476 159.181ZM98.9065 165.789L98.2787 166.513L98.3043 166.535L98.3314 166.556L98.9065 165.789ZM110.1 160.808L109.423 160.13L110.1 160.808ZM110.199 161.992L109.358 161.533L109.357 161.534L110.199 161.992ZM101.372 167.761L101.41 168.719L101.414 168.719L101.372 167.761ZM98.9065 155.039L99.372 154.201L99.2941 154.157L99.2096 154.129L98.9065 155.039ZM98.2655 154.2L98.8643 154.949L98.9805 154.856L99.063 154.732L98.2655 154.2ZM98.8079 152.82L99.6979 153.176L99.7422 153.065L99.758 152.946L98.8079 152.82ZM98.9065 152.08L99.8566 152.207L99.865 152.143V152.08H98.9065ZM99.9421 151.883L99.5861 152.773L99.6546 152.8L99.7265 152.817L99.9421 151.883ZM100.879 152.672L99.989 152.316L99.9205 152.487V152.672H100.879ZM100.731 153.51L99.8737 153.081L99.8559 153.117L99.8411 153.154L100.731 153.51ZM100.09 155.088L100.857 155.663L100.887 155.623L100.912 155.581L100.09 155.088ZM98.5702 165.823C98.3626 165.602 98.1433 165.169 97.9815 164.516C97.8249 163.884 97.7446 163.138 97.7446 162.386H95.8276C95.8276 163.262 95.9199 164.167 96.1208 164.978C96.3165 165.767 96.6396 166.567 97.1717 167.135L98.5702 165.823ZM97.7446 162.386C97.7446 160.92 98.0376 159.616 98.4292 159.011L96.8196 157.97C96.1263 159.041 95.8276 160.795 95.8276 162.386H97.7446ZM98.5643 158.678C98.5106 158.947 98.3371 159.102 98.2279 159.167C98.135 159.222 98.0763 159.223 98.1034 159.22C98.1526 159.214 98.2997 159.216 98.5261 159.272L98.9911 157.413C98.6257 157.321 98.2304 157.274 97.8727 157.317C97.6965 157.338 97.4682 157.389 97.2505 157.518C97.0164 157.657 96.7628 157.911 96.6845 158.302L98.5643 158.678ZM98.431 159.243C98.5673 159.293 98.6367 159.355 98.6554 159.376C98.6649 159.387 98.648 159.372 98.6289 159.323C98.6113 159.278 98.5745 159.159 98.6077 158.993L100.487 159.369C100.598 158.815 100.311 158.356 100.095 158.11C99.842 157.823 99.4923 157.589 99.0862 157.442L98.431 159.243ZM98.8698 158.503C98.7171 158.656 98.6322 158.834 98.5959 158.914C98.547 159.02 98.504 159.137 98.4664 159.251C98.3904 159.481 98.3149 159.764 98.2432 160.073C98.0992 160.694 97.9569 161.478 97.8516 162.265C97.747 163.049 97.6747 163.867 97.6807 164.55C97.6836 164.888 97.7058 165.227 97.7657 165.526C97.815 165.771 97.9285 166.209 98.2787 166.513L99.5343 165.064C99.6996 165.208 99.6822 165.332 99.6453 165.148C99.6191 165.018 99.6001 164.813 99.5976 164.533C99.5928 163.978 99.653 163.259 99.7518 162.519C99.85 161.784 99.982 161.061 100.111 160.506C100.175 160.227 100.236 160.006 100.286 159.853C100.312 159.775 100.33 159.731 100.339 159.712C100.36 159.666 100.329 159.755 100.225 159.859L98.8698 158.503ZM98.3314 166.556C98.916 166.994 99.6192 167.191 100.337 167.191V165.274C99.9691 165.274 99.686 165.175 99.4816 165.022L98.3314 166.556ZM100.337 167.191C101.285 167.191 102.32 166.891 103.313 166.478C104.319 166.058 105.353 165.491 106.318 164.888C108.239 163.688 109.976 162.288 110.778 161.486L109.423 160.13C108.745 160.808 107.129 162.12 105.302 163.262C104.393 163.83 103.455 164.342 102.575 164.708C101.681 165.081 100.917 165.274 100.337 165.274V167.191ZM110.778 161.486C110.593 161.671 110.313 161.756 110.039 161.685C109.76 161.611 109.611 161.413 109.556 161.275C109.504 161.147 109.531 161.082 109.52 161.141C109.509 161.195 109.472 161.322 109.358 161.533L111.041 162.451C111.374 161.84 111.574 161.159 111.336 160.563C111.206 160.24 110.934 159.937 110.525 159.83C110.122 159.724 109.706 159.847 109.423 160.13L110.778 161.486ZM109.357 161.534C109.186 161.848 108.804 162.34 108.223 162.925C107.654 163.498 106.939 164.118 106.147 164.692C104.525 165.87 102.743 166.742 101.33 166.804L101.414 168.719C103.404 168.632 105.567 167.483 107.273 166.244C108.146 165.61 108.941 164.923 109.583 164.276C110.213 163.641 110.743 162.998 111.041 162.449L109.357 161.534ZM101.334 166.803C100.259 166.846 99.2572 166.582 98.5817 165.836L97.1602 167.122C98.3586 168.447 100.019 168.775 101.41 168.719L101.334 166.803ZM99.2096 154.129C99.054 154.077 99.0182 154.017 99.0455 154.054C99.0579 154.071 99.1306 154.174 99.1364 154.356C99.1395 154.454 99.1224 154.568 99.0697 154.683C99.0168 154.799 98.941 154.887 98.8643 154.949L97.6667 153.452C97.3655 153.693 97.2086 154.048 97.2204 154.417C97.2308 154.744 97.3683 155.008 97.4977 155.185C97.7592 155.543 98.1673 155.803 98.6034 155.948L99.2096 154.129ZM99.063 154.732C99.1214 154.644 99.1645 154.551 99.1844 154.508C99.2114 154.449 99.2391 154.383 99.2655 154.319C99.3186 154.189 99.3779 154.034 99.4342 153.883C99.5553 153.561 99.6531 153.287 99.6979 153.176L97.9179 152.464C97.8641 152.598 97.74 152.941 97.6392 153.21C97.5845 153.356 97.5329 153.491 97.4904 153.595C97.469 153.647 97.4528 153.685 97.4417 153.709C97.4235 153.749 97.4342 153.719 97.4679 153.669L99.063 154.732ZM99.758 152.946L99.8566 152.207L97.9564 151.953L97.8578 152.693L99.758 152.946ZM99.865 152.08C99.865 152.195 99.8374 152.312 99.7827 152.418C99.7295 152.521 99.6619 152.593 99.6049 152.639C99.5491 152.685 99.5001 152.709 99.471 152.721C99.4413 152.733 99.4217 152.737 99.416 152.738C99.4124 152.739 99.4865 152.733 99.5861 152.773L100.298 150.993C99.9045 150.835 99.4608 150.78 99.0627 150.854C98.8656 150.891 98.6152 150.973 98.3931 151.154C98.1487 151.353 97.948 151.673 97.948 152.08H99.865ZM99.7265 152.817C99.918 152.861 100.024 152.932 100.051 152.957C100.066 152.97 100.028 152.942 99.9896 152.857C99.9495 152.768 99.891 152.561 99.989 152.316L101.769 153.028C101.916 152.659 101.845 152.311 101.739 152.073C101.635 151.84 101.476 151.658 101.325 151.524C101.019 151.252 100.607 151.052 100.158 150.949L99.7265 152.817ZM99.9205 152.672C99.9205 152.772 99.9196 152.853 99.9094 152.935C99.8991 153.017 99.8831 153.063 99.8737 153.081L101.588 153.939C101.852 153.412 101.838 152.845 101.838 152.672H99.9205ZM99.8411 153.154C99.7931 153.274 99.6515 153.654 99.5357 153.952C99.4722 154.115 99.4099 154.271 99.3559 154.399C99.2939 154.545 99.2654 154.599 99.2681 154.595L100.912 155.581C101.038 155.37 101.207 154.942 101.322 154.646C101.465 154.278 101.57 153.992 101.621 153.866L99.8411 153.154ZM99.3232 154.513C99.3964 154.415 99.4755 154.358 99.5281 154.327C99.5809 154.296 99.6221 154.282 99.6406 154.277C99.6749 154.267 99.6755 154.273 99.6358 154.272C99.6008 154.271 99.5533 154.265 99.5015 154.251C99.4499 154.237 99.4055 154.219 99.372 154.201L98.441 155.877C98.8092 156.081 99.2209 156.178 99.5826 156.188C99.7648 156.193 99.9689 156.177 100.17 156.119C100.352 156.067 100.643 155.948 100.857 155.663L99.3232 154.513ZM119.036 160.907L119.991 160.99L120.092 159.828L118.933 159.954L119.036 160.907ZM110.9 165.739L110.026 165.344L109.95 165.513L109.942 165.698L110.9 165.739ZM110.85 166.874L109.893 166.832L109.89 166.89L109.895 166.947L110.85 166.874ZM109.125 166.282L110.081 166.222L110.079 166.192L110.076 166.163L109.125 166.282ZM109.125 164.802L110.07 164.96L110.075 164.929L110.078 164.898L109.125 164.802ZM109.618 159.871L110.571 159.967L110.576 159.919V159.871H109.618ZM110.604 159.674L111.112 158.861L111.039 158.816L110.96 158.784L110.604 159.674ZM111.393 160.66L110.447 160.503L110.439 160.553L110.436 160.604L111.393 160.66ZM111.294 162.337L110.337 162.281L110.218 164.318L111.862 163.109L111.294 162.337ZM119.283 159.625L119.181 160.578L119.183 160.578L119.283 159.625ZM120.91 163.372L119.954 163.313L119.952 163.342V163.372H120.91ZM122.044 164.605L121.781 165.527L122.044 164.605ZM143.249 163.372L142.985 162.451L142.983 162.452L143.249 163.372ZM145.665 163.224L144.852 163.732L144.91 163.825L144.987 163.902L145.665 163.224ZM143.643 164.507L143.38 163.585L143.364 163.59L143.348 163.595L143.643 164.507ZM122.981 166.43L122.711 167.349L122.752 167.361L122.793 167.37L122.981 166.43ZM118.933 159.954C116.947 160.168 115.013 160.915 113.448 161.878C111.908 162.827 110.606 164.063 110.026 165.344L111.773 166.134C112.13 165.345 113.073 164.361 114.454 163.51C115.811 162.674 117.476 162.04 119.139 161.86L118.933 159.954ZM109.942 165.698L109.893 166.832L111.808 166.915L111.857 165.781L109.942 165.698ZM109.895 166.947C109.883 166.799 109.926 166.596 110.078 166.426C110.209 166.279 110.349 166.239 110.391 166.229C110.438 166.218 110.452 166.224 110.421 166.221C110.395 166.219 110.353 166.212 110.3 166.196C110.186 166.162 110.091 166.108 110.042 166.066C109.986 166.019 110.071 166.064 110.081 166.222L108.168 166.342C108.202 166.894 108.522 167.291 108.802 167.528C109.089 167.772 109.432 167.937 109.749 168.032C110.049 168.122 110.444 168.185 110.826 168.096C111.024 168.05 111.291 167.945 111.507 167.703C111.744 167.438 111.83 167.108 111.806 166.8L109.895 166.947ZM110.076 166.163C110.029 165.793 109.995 165.412 110.07 164.96L108.179 164.645C108.057 165.377 108.121 165.981 108.173 166.401L110.076 166.163ZM110.078 164.898L110.571 159.967L108.664 159.776L108.171 164.707L110.078 164.898ZM110.576 159.871C110.576 160.038 110.506 160.229 110.355 160.369C110.228 160.487 110.108 160.511 110.083 160.515C110.042 160.522 110.105 160.507 110.248 160.564L110.96 158.784C110.61 158.644 110.18 158.555 109.768 158.624C109.559 158.659 109.285 158.747 109.05 158.965C108.791 159.205 108.659 159.532 108.659 159.871H110.576ZM110.096 160.487C110.155 160.524 110.221 160.571 110.284 160.624C110.348 160.678 110.401 160.73 110.439 160.774C110.48 160.822 110.486 160.84 110.478 160.823C110.474 160.815 110.416 160.693 110.447 160.503L112.338 160.818C112.395 160.48 112.299 160.191 112.214 160.009C112.124 159.818 112.004 159.654 111.891 159.523C111.665 159.261 111.379 159.028 111.112 158.861L110.096 160.487ZM110.436 160.604L110.337 162.281L112.251 162.393L112.35 160.716L110.436 160.604ZM111.862 163.109C112.631 162.543 113.864 161.832 115.229 161.301C116.609 160.764 118.02 160.453 119.181 160.578L119.385 158.672C117.785 158.5 116.04 158.929 114.534 159.514C113.015 160.105 111.634 160.897 110.726 161.565L111.862 163.109ZM119.183 160.578C119.398 160.601 119.663 160.727 119.881 160.937C119.986 161.038 120.059 161.139 120.103 161.224C120.148 161.311 120.149 161.354 120.149 161.351H122.066C122.066 160.624 121.655 159.984 121.212 159.557C120.752 159.114 120.105 158.747 119.383 158.671L119.183 160.578ZM120.149 161.351C120.149 161.525 120.121 161.77 120.076 162.132C120.034 162.469 119.98 162.883 119.954 163.313L121.867 163.432C121.889 163.073 121.934 162.722 121.978 162.369C122.02 162.041 122.066 161.669 122.066 161.351H120.149ZM119.952 163.372C119.952 164.553 120.858 165.263 121.781 165.527L122.308 163.684C122.086 163.62 121.968 163.535 121.916 163.48C121.876 163.437 121.869 163.409 121.869 163.372H119.952ZM121.781 165.527C122.962 165.864 124.714 165.958 126.729 165.958V164.041C124.7 164.041 123.198 163.938 122.308 163.684L121.781 165.527ZM126.729 165.958C129.683 165.958 133.294 165.708 136.438 165.38C139.555 165.054 142.312 164.641 143.515 164.293L142.983 162.452C141.967 162.745 139.373 163.145 136.239 163.473C133.133 163.798 129.594 164.041 126.729 164.041V165.958ZM143.512 164.294C143.653 164.254 144.151 164.129 144.626 164.063C144.869 164.029 145.058 164.017 145.176 164.024C145.236 164.028 145.234 164.034 145.194 164.02C145.163 164.01 144.985 163.945 144.852 163.732L146.478 162.716C146.283 162.405 145.994 162.268 145.815 162.207C145.627 162.142 145.439 162.119 145.288 162.11C144.983 162.093 144.649 162.124 144.361 162.164C143.777 162.246 143.189 162.392 142.985 162.451L143.512 164.294ZM144.987 163.902C144.907 163.822 144.818 163.694 144.778 163.521C144.737 163.348 144.76 163.196 144.795 163.09C144.853 162.912 144.951 162.839 144.919 162.868C144.876 162.907 144.741 162.999 144.499 163.121C144.036 163.356 143.488 163.554 143.38 163.585L143.906 165.428C144.143 165.361 144.804 165.115 145.364 164.832C145.633 164.695 145.964 164.509 146.209 164.287C146.321 164.185 146.519 163.985 146.616 163.688C146.671 163.522 146.698 163.312 146.644 163.085C146.591 162.856 146.473 162.677 146.343 162.547L144.987 163.902ZM143.348 163.595C139.952 164.695 132.853 165.866 127.469 165.866V167.783C133.032 167.783 140.332 166.587 143.939 165.418L143.348 163.595ZM127.469 165.866C125.794 165.866 124.33 165.722 123.169 165.49L122.793 167.37C124.099 167.631 125.691 167.783 127.469 167.783V165.866ZM123.252 165.51C122.778 165.371 121.91 165.171 121.163 164.543C120.483 163.971 119.82 162.962 119.991 160.99L118.081 160.824C117.858 163.388 118.749 165.018 119.93 166.011C121.045 166.948 122.346 167.242 122.711 167.349L123.252 165.51ZM168.644 178.314L167.69 178.411L167.718 178.685L167.887 178.902L168.644 178.314ZM167.855 162.435L168.813 162.42L168.8 161.567L167.95 161.482L167.855 162.435ZM166.376 162.189L166.564 161.249L166.555 161.247L166.376 162.189ZM160.705 157.258L161.663 157.237L161.663 157.222L161.662 157.207L160.705 157.258ZM162.184 154.94L161.952 154.01L161.916 154.019L161.881 154.031L162.184 154.94ZM167.855 156.321L167.477 157.202L168.805 157.771L168.814 156.326L167.855 156.321ZM169.285 133.193L168.51 132.629L168.377 132.812L168.34 133.034L169.285 133.193ZM171.406 133.884L172.351 134.043L172.354 134.023L172.357 134.003L171.406 133.884ZM169.828 157.258L168.869 157.242L168.859 157.845L169.399 158.115L169.828 157.258ZM174.414 159.723L173.953 160.564L174.376 160.796L174.814 160.594L174.414 159.723ZM186.988 150.896L186.334 150.196L186.328 150.202L186.988 150.896ZM194.533 136.152L194.669 137.101L194.68 137.099L194.691 137.097L194.533 136.152ZM195.47 136.744L194.572 137.08L194.58 137.101L194.589 137.121L195.47 136.744ZM188.468 152.228L189.128 152.922L189.129 152.922L188.468 152.228ZM175.844 160.956L175.44 160.087L173.92 160.792L175.299 161.745L175.844 160.956ZM196.999 178.659L197.676 177.981L196.999 178.659ZM197.048 179.448L196.619 178.591L196.586 178.607L196.555 178.626L197.048 179.448ZM196.062 179.202L196.842 178.644L196.796 178.58L196.739 178.524L196.062 179.202ZM174.167 161.696L174.699 160.898L174.314 160.642L173.874 160.783L174.167 161.696ZM169.778 162.435L169.746 161.477L168.82 161.508V162.435H169.778ZM170.37 179.054L169.416 179.149L169.438 179.363L169.548 179.547L170.37 179.054ZM170.518 179.3H171.476V179.035L171.34 178.807L170.518 179.3ZM170.123 179.744L170.037 180.699L170.159 180.71L170.281 180.69L170.123 179.744ZM161.938 157.751L160.989 157.886L161 157.966L161.025 158.043L161.938 157.751ZM166.277 160.71L166.553 159.791L166.534 159.786L166.515 159.781L166.277 160.71ZM167.855 160.956L167.768 161.911L168.814 162.006V160.956H167.855ZM167.855 158.392H168.814V157.788L168.269 157.527L167.855 158.392ZM162.332 156.666L162.635 157.575L162.649 157.571L162.663 157.565L162.332 156.666ZM171.652 160.315H172.611V159.723L172.081 159.458L171.652 160.315ZM169.778 159.378L170.207 158.521L168.82 157.827V159.378H169.778ZM169.778 160.956H168.82V161.991L169.852 161.912L169.778 160.956ZM171.603 160.611L171.906 161.52L172.561 161.302V160.611H171.603ZM169.598 178.217C169.207 174.358 168.912 168.618 168.813 162.42L166.897 162.451C166.996 168.679 167.292 174.478 167.69 178.411L169.598 178.217ZM167.95 161.482C167.512 161.438 167.065 161.349 166.564 161.249L166.188 163.129C166.673 163.226 167.212 163.334 167.76 163.389L167.95 161.482ZM166.555 161.247C165.148 160.979 163.9 160.379 163.017 159.624C162.125 158.861 161.68 158.013 161.663 157.237L159.747 157.278C159.779 158.771 160.616 160.092 161.771 161.08C162.934 162.075 164.496 162.807 166.196 163.13L166.555 161.247ZM161.662 157.207C161.651 157.004 161.739 156.687 161.95 156.366C162.168 156.034 162.397 155.879 162.487 155.849L161.881 154.031C161.231 154.247 160.697 154.783 160.348 155.314C159.991 155.856 159.709 156.574 159.748 157.308L161.662 157.207ZM162.417 155.87C162.765 155.783 163.382 155.815 164.315 156.058C165.216 156.294 166.288 156.692 167.477 157.202L168.233 155.44C167.006 154.914 165.834 154.474 164.8 154.204C163.797 153.942 162.787 153.801 161.952 154.01L162.417 155.87ZM168.814 156.326C168.863 147.608 169.307 138.845 170.23 133.352L168.34 133.034C167.39 138.686 166.946 147.577 166.897 156.315L168.814 156.326ZM170.06 133.757C169.986 133.859 169.905 133.901 169.878 133.913C169.851 133.925 169.851 133.919 169.891 133.915C169.975 133.907 170.114 133.917 170.265 133.96C170.337 133.981 170.4 134.006 170.45 134.031C170.502 134.057 170.529 134.078 170.537 134.085C170.547 134.094 170.52 134.074 170.493 134.017C170.463 133.953 170.442 133.862 170.454 133.765L172.357 134.003C172.434 133.382 172.11 132.917 171.805 132.648C171.504 132.382 171.132 132.215 170.795 132.118C170.454 132.02 170.069 131.971 169.702 132.008C169.374 132.04 168.848 132.165 168.51 132.629L170.06 133.757ZM170.46 133.725C169.56 139.076 169.017 148.11 168.869 157.242L170.786 157.273C170.934 148.159 171.476 139.244 172.351 134.043L170.46 133.725ZM169.399 158.115C170.857 158.844 172.41 159.718 173.953 160.564L174.874 158.883C173.36 158.052 171.757 157.151 170.256 156.4L169.399 158.115ZM174.814 160.594C178.573 158.867 183.59 155.449 187.649 151.591L186.328 150.202C182.398 153.938 177.553 157.226 174.013 158.852L174.814 160.594ZM187.642 151.597C188.81 150.507 190.79 148.258 192.48 145.807C193.328 144.578 194.119 143.275 194.702 142.022C195.276 140.788 195.689 139.515 195.689 138.371H193.772C193.772 139.101 193.494 140.072 192.963 141.214C192.441 142.337 191.713 143.543 190.902 144.718C189.277 147.075 187.386 149.214 186.334 150.196L187.642 151.597ZM195.689 138.371C195.689 137.707 195.566 137.072 195.198 136.482L193.572 137.498C193.697 137.698 193.772 137.95 193.772 138.371H195.689ZM195.198 136.482C195.152 136.408 195.207 136.446 195.184 136.593C195.17 136.679 195.126 136.806 195.013 136.921C194.896 137.039 194.763 137.087 194.669 137.101L194.397 135.203C194.131 135.241 193.861 135.358 193.647 135.576C193.435 135.791 193.329 136.051 193.291 136.29C193.218 136.746 193.372 137.178 193.572 137.498L195.198 136.482ZM194.691 137.097C194.644 137.105 194.609 137.105 194.589 137.104C194.568 137.102 194.556 137.099 194.553 137.099C194.548 137.097 194.556 137.099 194.572 137.108C194.588 137.117 194.596 137.126 194.598 137.127C194.599 137.129 194.585 137.115 194.572 137.08L196.367 136.407C196.196 135.951 195.855 135.638 195.542 135.455C195.246 135.281 194.819 135.133 194.375 135.207L194.691 137.097ZM194.589 137.121C194.828 137.679 194.955 138.338 194.955 139.012H196.872C196.872 138.108 196.704 137.189 196.351 136.366L194.589 137.121ZM194.955 139.012C194.955 140.988 193.995 143.354 192.559 145.67C191.139 147.961 189.331 150.081 187.806 151.534L189.129 152.922C190.76 151.367 192.675 149.122 194.189 146.68C195.687 144.262 196.872 141.524 196.872 139.012H194.955ZM187.807 151.533C183.842 155.305 178.752 158.551 175.44 160.087L176.247 161.826C179.741 160.205 185.006 156.843 189.128 152.922L187.807 151.533ZM175.299 161.745C183.241 167.235 188.571 171.587 196.321 179.337L197.676 177.981C189.844 170.149 184.424 165.723 176.389 160.168L175.299 161.745ZM196.321 179.337C196.375 179.392 196.304 179.353 196.29 179.192C196.282 179.098 196.296 178.968 196.37 178.836C196.445 178.703 196.547 178.627 196.619 178.591L197.477 180.306C197.697 180.195 197.904 180.021 198.043 179.772C198.182 179.525 198.221 179.262 198.2 179.026C198.161 178.581 197.918 178.223 197.676 177.981L196.321 179.337ZM196.555 178.626C196.629 178.582 196.685 178.572 196.703 178.57C196.725 178.567 196.737 178.569 196.743 178.57C196.75 178.571 196.798 178.583 196.842 178.644L195.282 179.759C195.572 180.165 195.99 180.374 196.367 180.45C196.722 180.521 197.164 180.497 197.541 180.27L196.555 178.626ZM196.739 178.524C192.597 174.381 183.325 166.649 174.699 160.898L173.635 162.493C182.17 168.183 191.341 175.836 195.384 179.879L196.739 178.524ZM173.874 160.783C172.586 161.197 171.146 161.431 169.746 161.477L169.81 163.393C171.369 163.341 172.987 163.082 174.46 162.608L173.874 160.783ZM168.82 162.435C168.82 168.655 168.967 174.661 169.416 179.149L171.324 178.958C170.885 174.57 170.737 168.643 170.737 162.435H168.82ZM169.548 179.547L169.696 179.793L171.34 178.807L171.192 178.561L169.548 179.547ZM169.559 179.3C169.559 179.3 169.559 179.291 169.561 179.276C169.563 179.261 169.567 179.237 169.575 179.207C169.593 179.144 169.629 179.062 169.695 178.982C169.835 178.814 169.989 178.795 169.966 178.799L170.281 180.69C170.554 180.644 170.905 180.526 171.168 180.21C171.43 179.895 171.476 179.538 171.476 179.3H169.559ZM170.21 178.789C170.322 178.8 170.352 178.843 170.283 178.792C170.223 178.748 170.139 178.668 170.031 178.546C169.79 178.27 169.635 178.026 169.401 177.726L167.887 178.902C167.999 179.046 168.312 179.492 168.588 179.808C168.74 179.981 168.927 180.173 169.141 180.332C169.347 180.485 169.653 180.664 170.037 180.699L170.21 178.789ZM161.025 158.043C161.317 158.957 162.077 159.715 162.925 160.285C163.798 160.871 164.888 161.344 166.04 161.638L166.515 159.781C165.546 159.533 164.663 159.142 163.995 158.693C163.302 158.228 162.952 157.777 162.851 157.459L161.025 158.043ZM166.002 161.628C166.604 161.808 167.246 161.863 167.768 161.911L167.942 160.001C167.379 159.95 166.936 159.907 166.553 159.791L166.002 161.628ZM168.814 160.956V158.392H166.897V160.956H168.814ZM168.269 157.527C167.13 156.983 165.942 156.445 164.908 156.087C164.391 155.908 163.883 155.764 163.421 155.691C162.983 155.621 162.466 155.595 162.001 155.766L162.663 157.565C162.655 157.569 162.683 157.557 162.769 157.555C162.853 157.553 162.969 157.56 163.121 157.584C163.428 157.633 163.818 157.738 164.281 157.898C165.206 158.219 166.312 158.716 167.442 159.257L168.269 157.527ZM162.029 155.757C161.373 155.975 161.108 156.526 161.017 156.915C160.928 157.291 160.956 157.66 160.989 157.886L162.887 157.615C162.879 157.565 162.875 157.509 162.875 157.456C162.875 157.402 162.88 157.368 162.883 157.354C162.887 157.339 162.882 157.373 162.841 157.427C162.82 157.455 162.79 157.486 162.752 157.514C162.713 157.543 162.672 157.563 162.635 157.575L162.029 155.757ZM172.081 159.458L170.207 158.521L169.35 160.235L171.223 161.172L172.081 159.458ZM168.82 159.378V160.956H170.737V159.378H168.82ZM169.852 161.912C170.547 161.858 171.22 161.749 171.906 161.52L171.3 159.702C170.802 159.867 170.292 159.955 169.705 160L169.852 161.912ZM172.561 160.611C172.561 160.665 172.555 160.702 172.553 160.714C172.551 160.722 172.55 160.725 172.557 160.695C172.562 160.676 172.576 160.623 172.587 160.566C172.598 160.505 172.611 160.418 172.611 160.315H170.694C170.694 160.261 170.7 160.224 170.702 160.212C170.704 160.204 170.705 160.201 170.698 160.23C170.693 160.25 170.679 160.303 170.668 160.36C170.657 160.421 170.644 160.508 170.644 160.611H172.561ZM209.39 161.646L209.087 160.737L209.075 160.741L209.063 160.746L209.39 161.646ZM202.092 162.337L202.139 161.379L200.774 161.312L201.176 162.619L202.092 162.337ZM202.191 164.457L201.251 164.269L201.249 164.278L201.247 164.287L202.191 164.457ZM197.457 168.008L197.519 167.051L197.508 167.051L197.457 168.008ZM194.153 165L193.207 165.157L193.209 165.168L194.153 165ZM196.224 160.167V159.209H196.062L195.909 159.262L196.224 160.167ZM196.47 160.118V161.076H197.193L197.392 160.381L196.47 160.118ZM197.999 158.934L198.14 157.986L198.094 157.979L198.047 157.977L197.999 158.934ZM201.155 160.66L200.419 161.274L200.663 161.567L201.041 161.612L201.155 160.66ZM209.489 160.66V161.619H209.505L209.522 161.618L209.489 160.66ZM197.21 161.252L197.795 162.012L197.844 161.974L197.888 161.93L197.21 161.252ZM195.879 164.852L196.823 164.689L196.822 164.683L195.879 164.852ZM197.605 166.775L197.561 165.817L197.554 165.818L197.605 166.775ZM200.07 162.09L200.946 161.701L200.738 161.234L200.234 161.146L200.07 162.09ZM197.309 161.153L197.827 160.347L197.177 159.929L196.631 160.476L197.309 161.153ZM209.063 160.746C208.634 160.902 207.657 161.102 206.359 161.242C205.087 161.379 203.584 161.451 202.139 161.379L202.045 163.294C203.608 163.371 205.212 163.294 206.565 163.148C207.894 163.005 209.062 162.786 209.718 162.547L209.063 160.746ZM201.176 162.619C201.327 163.109 201.367 163.687 201.251 164.269L203.131 164.645C203.31 163.748 203.252 162.847 203.008 162.055L201.176 162.619ZM201.247 164.287C200.904 166.195 199.385 167.173 197.519 167.051L197.394 168.964C200.066 169.138 202.59 167.651 203.134 164.627L201.247 164.287ZM197.508 167.051C196.224 166.981 195.283 165.876 195.096 164.831L193.209 165.168C193.516 166.885 195.04 168.837 197.405 168.965L197.508 167.051ZM195.098 164.842C194.965 164.041 195.144 163.129 195.502 162.359C195.679 161.98 195.887 161.663 196.091 161.433C196.304 161.192 196.467 161.097 196.539 161.072L195.909 159.262C195.414 159.434 194.991 159.783 194.656 160.162C194.311 160.551 194.007 161.029 193.765 161.55C193.285 162.58 192.996 163.887 193.207 165.157L195.098 164.842ZM196.224 161.126C196.444 161.126 196.613 161.064 196.65 161.052C196.687 161.04 196.592 161.076 196.47 161.076V159.159C196.25 159.159 196.081 159.221 196.044 159.233C196.007 159.245 196.102 159.209 196.224 159.209V161.126ZM197.392 160.381C197.475 160.092 197.549 159.989 197.588 159.954C197.601 159.942 197.619 159.928 197.659 159.916C197.704 159.902 197.794 159.884 197.951 159.892L198.047 157.977C197.359 157.943 196.754 158.116 196.29 158.544C195.86 158.939 195.663 159.454 195.549 159.854L197.392 160.381ZM197.859 159.882C198.96 160.046 199.832 160.57 200.419 161.274L201.891 160.047C200.999 158.975 199.701 158.217 198.14 157.986L197.859 159.882ZM201.041 161.612C202.323 161.766 203.645 161.816 204.804 161.816V159.899C203.695 159.899 202.453 159.851 201.269 159.708L201.041 161.612ZM204.804 161.816C205.989 161.816 207.07 161.766 207.906 161.716C208.788 161.663 209.304 161.619 209.489 161.619V159.702C209.23 159.702 208.562 159.756 207.792 159.802C206.976 159.851 205.937 159.899 204.804 159.899V161.816ZM209.522 161.618C209.842 161.607 209.928 161.644 209.891 161.63C209.869 161.621 209.727 161.563 209.607 161.388C209.463 161.177 209.442 160.929 209.495 160.735C209.538 160.577 209.615 160.497 209.622 160.49C209.636 160.475 209.629 160.486 209.583 160.516C209.493 160.574 209.329 160.656 209.087 160.737L209.693 162.556C210.043 162.439 210.366 162.293 210.629 162.122C210.76 162.037 210.896 161.933 211.015 161.806C211.128 161.687 211.274 161.498 211.344 161.239C211.425 160.943 211.391 160.601 211.189 160.305C211.012 160.046 210.768 159.915 210.595 159.846C210.258 159.713 209.851 159.689 209.456 159.702L209.522 161.618ZM196.626 160.492C196.123 160.879 195.646 161.601 195.33 162.343C195.007 163.101 194.767 164.077 194.935 165.02L196.822 164.683C196.744 164.246 196.849 163.668 197.093 163.095C197.344 162.506 197.657 162.118 197.795 162.012L196.626 160.492ZM194.934 165.015C195.069 165.796 195.308 166.507 195.777 167.017C196.296 167.581 196.969 167.768 197.655 167.732L197.554 165.818C197.303 165.831 197.237 165.772 197.188 165.719C197.09 165.613 196.935 165.338 196.823 164.689L194.934 165.015ZM197.648 167.732C199.187 167.662 200.266 166.627 200.813 165.472C201.354 164.33 201.474 162.888 200.946 161.701L199.194 162.48C199.456 163.068 199.427 163.919 199.081 164.651C198.741 165.369 198.192 165.789 197.561 165.817L197.648 167.732ZM200.234 161.146C199.154 160.958 198.362 160.691 197.827 160.347L196.79 161.96C197.636 162.504 198.718 162.828 199.906 163.035L200.234 161.146ZM196.631 160.476L196.532 160.574L197.888 161.93L197.987 161.831L196.631 160.476ZM209.487 167.712L209.059 168.569L209.094 168.587L209.131 168.602L209.487 167.712ZM209.537 166.43L209.324 167.364L209.329 167.365L209.537 166.43ZM215.997 166.035L216.212 166.969L218.746 166.385L216.439 165.185L215.997 166.035ZM211.904 163.915L211.425 164.745L211.433 164.75L211.442 164.755L211.904 163.915ZM209.044 161.203L209.994 161.076L209.993 161.068L209.991 161.06L209.044 161.203ZM216.539 156.666L216.42 155.715L216.409 155.716L216.539 156.666ZM217.92 157.997L218.237 158.902L218.497 158.811L218.668 158.596L217.92 157.997ZM211.065 160.759L211.946 161.136L211.948 161.132L211.065 160.759ZM212.89 162.534L212.397 163.356L212.411 163.365L212.426 163.373L212.89 162.534ZM217.229 165.098L217.856 164.373L217.842 164.361L217.828 164.35L217.229 165.098ZM216.095 167.761L215.846 166.836L215.839 166.838L216.095 167.761ZM209.916 166.855C209.948 166.871 209.922 166.864 209.877 166.801C209.833 166.738 209.827 166.699 209.83 166.719C209.832 166.732 209.841 166.793 209.817 166.884C209.792 166.985 209.729 167.114 209.605 167.218C209.362 167.423 209.158 167.327 209.324 167.364L209.749 165.495C209.372 165.409 208.818 165.375 208.371 165.751C207.901 166.146 207.887 166.702 207.936 167.016C207.989 167.35 208.137 167.66 208.309 167.904C208.48 168.146 208.731 168.405 209.059 168.569L209.916 166.855ZM209.329 167.365C209.862 167.484 210.479 167.536 211.164 167.536V165.619C210.567 165.619 210.099 165.573 209.745 165.494L209.329 167.365ZM211.164 167.536C212.817 167.536 214.862 167.281 216.212 166.969L215.781 165.101C214.567 165.381 212.667 165.619 211.164 165.619V167.536ZM216.439 165.185C215.177 164.529 213.34 163.611 212.366 163.075L211.442 164.755C212.439 165.303 214.35 166.259 215.554 166.886L216.439 165.185ZM212.383 163.085C211.632 162.652 211.114 162.426 210.645 162.071C210.248 161.772 210.048 161.485 209.994 161.076L208.093 161.329C208.236 162.399 208.825 163.099 209.489 163.601C210.08 164.047 210.893 164.438 211.425 164.745L212.383 163.085ZM209.991 161.06C209.95 160.786 210.035 160.478 210.394 160.095C210.766 159.698 211.358 159.307 212.112 158.949C213.612 158.237 215.485 157.778 216.669 157.616L216.409 155.716C215.078 155.899 213.006 156.402 211.289 157.218C210.433 157.624 209.599 158.139 208.995 158.785C208.378 159.443 207.94 160.312 208.096 161.346L209.991 161.06ZM216.658 157.617C216.65 157.618 216.69 157.613 216.776 157.649C216.86 157.683 216.945 157.739 217.01 157.802C217.082 157.871 217.081 157.9 217.068 157.857C217.059 157.83 217.044 157.765 217.055 157.673C217.068 157.575 217.108 157.478 217.171 157.399L218.668 158.596C219.016 158.162 219.015 157.655 218.895 157.278C218.783 156.924 218.56 156.632 218.336 156.418C217.912 156.011 217.195 155.618 216.42 155.715L216.658 157.617ZM217.602 157.093C217.184 157.24 216.598 157.403 215.901 157.595C215.22 157.782 214.452 157.992 213.722 158.224C212.997 158.454 212.269 158.718 211.672 159.023C211.373 159.176 211.081 159.353 210.831 159.559C210.587 159.76 210.333 160.031 210.183 160.385L211.948 161.132C211.934 161.166 211.939 161.13 212.05 161.038C212.157 160.95 212.319 160.846 212.545 160.73C213 160.497 213.609 160.271 214.302 160.051C214.989 159.833 215.719 159.633 216.41 159.443C217.085 159.257 217.743 159.075 218.237 158.902L217.602 157.093ZM210.184 160.381C209.987 160.842 210.036 161.305 210.238 161.69C210.414 162.025 210.689 162.272 210.914 162.444C211.34 162.771 211.994 163.115 212.397 163.356L213.383 161.712C213.136 161.564 212.84 161.399 212.63 161.276C212.395 161.139 212.214 161.026 212.08 160.923C211.935 160.812 211.92 160.769 211.936 160.799C211.978 160.879 211.996 161.021 211.946 161.136L210.184 160.381ZM212.426 163.373C214.37 164.447 215.729 165.125 216.631 165.847L217.828 164.35C216.758 163.493 215.157 162.692 213.354 161.695L212.426 163.373ZM216.603 165.824C216.728 165.932 216.742 166.001 216.745 166.02C216.749 166.047 216.751 166.11 216.697 166.215C216.577 166.448 216.262 166.724 215.846 166.836L216.344 168.687C217.211 168.454 218.005 167.866 218.403 167.089C218.608 166.688 218.72 166.209 218.635 165.703C218.549 165.188 218.273 164.733 217.856 164.373L216.603 165.824ZM215.839 166.838C215.059 167.054 213.868 167.197 212.643 167.197V169.114C213.982 169.114 215.356 168.961 216.352 168.685L215.839 166.838ZM212.643 167.197C211.451 167.197 210.413 167.05 209.843 166.822L209.131 168.602C210.041 168.966 211.37 169.114 212.643 169.114V167.197ZM223.131 181.667L222.216 181.955L222.219 181.963L222.221 181.97L223.131 181.667ZM222.49 158.244L223.448 158.268L223.448 158.264L222.49 158.244ZM222.785 150.009L223.743 150.056L223.797 148.962L222.705 149.054L222.785 150.009ZM210.901 151.34L211.051 152.287L211.059 152.286L211.066 152.284L210.901 151.34ZM209.767 150.009L209.594 149.066L209.571 149.07L209.548 149.076L209.767 150.009ZM222.835 148.48L222.912 149.435L223.749 149.367L223.792 148.529L222.835 148.48ZM223.476 137.681L224.432 137.742L224.436 137.682L224.433 137.621L223.476 137.681ZM225.498 138.174L226.447 138.307L226.466 138.169L226.446 138.032L225.498 138.174ZM224.659 148.332L223.702 148.283L223.65 149.291H224.659V148.332ZM226.089 148.234L226.022 147.277L226.008 147.278L225.994 147.28L226.089 148.234ZM247.885 148.036L248.275 147.16L248.187 147.121L248.093 147.101L247.885 148.036ZM249.02 149.023L249.971 148.904L249.943 148.679L249.817 148.491L249.02 149.023ZM248.428 149.565L248.24 150.505L248.274 150.512L248.309 150.516L248.428 149.565ZM225.695 149.762L225.619 148.807L225.598 148.808L225.576 148.811L225.695 149.762ZM224.561 149.861V148.902H223.641L223.603 149.821L224.561 149.861ZM224.216 158.145L223.258 158.105L223.257 158.118L223.257 158.13L224.216 158.145ZM224.857 182.604L225.807 182.48L225.798 182.413L225.78 182.349L224.857 182.604ZM224.045 181.38C223.945 181.061 223.837 180.359 223.741 179.287C223.648 178.246 223.573 176.94 223.515 175.471C223.399 172.536 223.35 168.986 223.35 165.69H221.432C221.432 169.001 221.482 172.578 221.6 175.547C221.658 177.031 221.735 178.372 221.832 179.457C221.925 180.51 222.045 181.41 222.216 181.955L224.045 181.38ZM223.35 165.69C223.35 162.84 223.399 160.186 223.448 158.268L221.531 158.219C221.482 160.148 221.432 162.82 221.432 165.69H223.35ZM223.448 158.264C223.497 155.956 223.595 153.055 223.743 150.056L221.828 149.962C221.68 152.978 221.581 155.897 221.531 158.224L223.448 158.264ZM222.705 149.054C218.626 149.398 214.732 149.697 210.736 150.396L211.066 152.284C214.96 151.603 218.759 151.31 222.866 150.964L222.705 149.054ZM210.752 150.393C210.755 150.393 210.711 150.399 210.622 150.356C210.533 150.314 210.453 150.248 210.406 150.192C210.383 150.165 210.381 150.155 210.388 150.169C210.392 150.179 210.421 150.248 210.417 150.361C210.411 150.492 210.36 150.651 210.237 150.783C210.124 150.904 210.011 150.936 209.987 150.942L209.548 149.076C209.313 149.131 209.049 149.246 208.836 149.475C208.613 149.713 208.513 150.004 208.501 150.28C208.48 150.772 208.731 151.176 208.931 151.416C209.335 151.903 210.137 152.431 211.051 152.287L210.752 150.393ZM209.94 150.952C213.393 150.319 216.856 149.928 222.912 149.435L222.757 147.525C216.683 148.019 213.144 148.416 209.594 149.066L209.94 150.952ZM223.792 148.529C223.989 144.69 224.235 140.799 224.432 137.742L222.519 137.619C222.322 140.677 222.075 144.578 221.878 148.431L223.792 148.529ZM224.433 137.621C224.439 137.727 224.411 137.872 224.315 138.003C224.228 138.121 224.131 138.167 224.095 138.18C224.06 138.194 224.054 138.189 224.088 138.188C224.118 138.187 224.166 138.19 224.225 138.201C224.35 138.227 224.462 138.278 224.528 138.329C224.592 138.379 224.559 138.38 224.55 138.316L226.446 138.032C226.362 137.474 226.034 137.069 225.697 136.81C225.363 136.553 224.968 136.395 224.601 136.322C224.249 136.251 223.809 136.236 223.405 136.392C223.194 136.473 222.953 136.618 222.77 136.867C222.578 137.129 222.5 137.437 222.519 137.74L224.433 137.621ZM224.548 138.041C224.197 140.55 223.9 144.43 223.702 148.283L225.617 148.381C225.814 144.542 226.108 140.729 226.447 138.307L224.548 138.041ZM224.659 149.291C225.16 149.291 225.704 149.235 226.185 149.187L225.994 147.28C225.489 147.33 225.046 147.374 224.659 147.374V149.291ZM226.157 149.19C230.365 148.893 235.945 148.452 240.735 148.452V146.535C235.86 146.535 230.197 146.983 226.022 147.277L226.157 149.19ZM240.735 148.452C243.534 148.452 246.01 148.601 247.677 148.972L248.093 147.101C246.21 146.682 243.558 146.535 240.735 146.535V148.452ZM247.496 148.912C247.588 148.953 247.735 149.052 247.9 149.202C248.063 149.349 248.178 149.488 248.222 149.554L249.817 148.491C249.664 148.261 249.434 148.005 249.19 147.783C248.948 147.563 248.627 147.317 248.275 147.16L247.496 148.912ZM248.068 149.141C248.066 149.124 248.057 148.917 248.256 148.741C248.43 148.588 248.585 148.619 248.547 148.614L248.309 150.516C248.665 150.561 249.141 150.517 249.524 150.179C249.933 149.818 250.022 149.316 249.971 148.904L248.068 149.141ZM248.616 148.625C246.303 148.162 243.467 148.015 240.489 148.015V149.932C243.428 149.932 246.114 150.08 248.24 150.505L248.616 148.625ZM240.489 148.015C235.166 148.015 229.355 148.512 225.619 148.807L225.77 150.718C229.531 150.421 235.258 149.932 240.489 149.932V148.015ZM225.576 148.811C225.159 148.863 224.882 148.902 224.561 148.902V150.819C225.029 150.819 225.442 150.76 225.814 150.713L225.576 148.811ZM223.603 149.821L223.258 158.105L225.173 158.185L225.518 149.901L223.603 149.821ZM223.257 158.13C223.208 161.262 223.06 165.929 223.06 170.424H224.977C224.977 165.945 225.124 161.34 225.174 158.16L223.257 158.13ZM223.06 170.424C223.06 172.949 223.109 175.436 223.24 177.589C223.37 179.723 223.583 181.597 223.933 182.86L225.78 182.349C225.489 181.294 225.283 179.593 225.154 177.473C225.026 175.373 224.977 172.929 224.977 170.424H223.06ZM223.906 182.728C223.914 182.791 223.894 182.728 223.938 182.606C223.996 182.446 224.14 182.264 224.372 182.18C224.56 182.113 224.697 182.149 224.713 182.153C224.738 182.16 224.726 182.16 224.675 182.13C224.576 182.069 224.434 181.952 224.3 181.792C224.165 181.632 224.078 181.478 224.04 181.364L222.221 181.97C222.477 182.737 223.112 183.424 223.682 183.769C223.835 183.862 224.018 183.952 224.22 184.006C224.413 184.057 224.708 184.097 225.024 183.983C225.383 183.853 225.626 183.575 225.74 183.258C225.841 182.98 225.836 182.7 225.807 182.48L223.906 182.728Z" fill="white" mask="url(#path-1-outside-1_408_102)"/>
<path d="M40.9243 136.557V82.8057" stroke="white" stroke-width="5.30876"/>
<path d="M17.0347 104.041L124.537 4.50147L232.704 104.041" stroke="white" stroke-width="5.30876"/>
<path d="M208.813 137.221V82.8057" stroke="white" stroke-width="5.30876"/>
<path d="M40.2603 183.672V196.944H209.478V182.345" stroke="white" stroke-width="5.30876"/>
<path d="M101.975 85.3499C101.975 77.2507 106.039 61.0521 122.296 59.0273C123.109 59.0273 122.296 76.5757 122.296 85.3499H101.975Z" stroke="white" stroke-width="2"/>
<path d="M126.417 85.3498H147.1C145.786 77.2023 139.812 60.5313 126.417 59.0271V85.3498Z" stroke="white" stroke-width="2"/>
<rect x="102.976" y="90.11" width="18.6821" height="16.8019" stroke="white" stroke-width="2"/>
<rect x="127.417" y="90.11" width="18.6821" height="16.8019" stroke="white" stroke-width="2"/>
</svg>
