<svg width="26" height="27" viewBox="0 0 26 27" fill="none" xmlns="http://www.w3.org/2000/svg">
<g id="help-circle">
<path id="Vector" d="M9.84766 10.25C10.1024 9.52596 10.6051 8.91544 11.2668 8.52655C11.9285 8.13766 12.7065 7.9955 13.4629 8.12526C14.2194 8.25501 14.9055 8.64831 15.3998 9.23548C15.8941 9.82265 16.1646 10.5658 16.1635 11.3333C16.1635 13.5 12.9135 14.5833 12.9135 14.5833M13.0002 18.9168H13.0111M23.8337 13.5001C23.8337 19.4832 18.9834 24.3334 13.0003 24.3334C7.01724 24.3334 2.16699 19.4832 2.16699 13.5001C2.16699 7.51703 7.01724 2.66678 13.0003 2.66678C18.9834 2.66678 23.8337 7.51703 23.8337 13.5001Z" stroke="#FEBF00" stroke-width="2.1645" stroke-linecap="round" stroke-linejoin="round"/>
</g>
</svg>
