<svg width="27" height="27" viewBox="0 0 27 27" fill="none" xmlns="http://www.w3.org/2000/svg">
<g id="key">
<path id="Vector" d="M17.2915 8.62502L21.0831 4.83335M23.2498 2.66669L21.0831 4.83335L23.2498 2.66669ZM12.839 13.0775C13.3983 13.6294 13.843 14.2866 14.1474 15.011C14.4517 15.7355 14.6098 16.5131 14.6124 17.2989C14.6151 18.0847 14.4622 18.8633 14.1627 19.5898C13.8632 20.3163 13.423 20.9764 12.8673 21.532C12.3116 22.0877 11.6516 22.5279 10.9251 22.8274C10.1985 23.1269 9.41997 23.2798 8.63416 23.2771C7.84835 23.2745 7.07081 23.1165 6.34633 22.8121C5.62185 22.5077 4.96473 22.0631 4.41281 21.5037C3.32745 20.3799 2.72688 18.8748 2.74046 17.3126C2.75404 15.7503 3.38067 14.2559 4.48539 13.1512C5.59011 12.0465 7.08454 11.4198 8.64679 11.4063C10.209 11.3927 11.7141 11.9932 12.8379 13.0786L12.839 13.0775ZM12.839 13.0775L17.2915 8.62502L12.839 13.0775ZM17.2915 8.62502L20.5415 11.875L24.3331 8.08335L21.0831 4.83335L17.2915 8.62502Z" stroke="#FEBF00" stroke-width="2.1645" stroke-linecap="round" stroke-linejoin="round"/>
</g>
</svg>
