<svg width="251" height="210" viewBox="0 0 251 210" fill="none" xmlns="http://www.w3.org/2000/svg">
<mask id="path-1-outside-1_408_102" maskUnits="userSpaceOnUse" x="0.247559" y="131.649" width="250" height="53" fill="black">
<rect fill="white" x="0.247559" y="131.649" width="250" height="53"/>
<path d="M36.5287 169.931C34.5562 160.907 33.1261 152.031 32.3864 143.5C26.7648 162.583 12.6615 178.659 1.66488 173.58C1.27038 173.235 1.22107 172.791 1.71419 172.939C16.1627 177.426 28.4414 152.277 31.2029 142.316C31.4002 141.576 31.4495 140.541 31.5481 139.949C31.4988 139.9 31.5481 139.85 31.5481 139.801C31.6961 139.111 33.3234 140.097 33.5206 141.034C34.6548 147.888 35.1972 157.159 37.2683 165.641C40.6709 157.208 49.9416 136.99 51.9141 135.314C52.7031 134.278 54.0838 135.659 54.0345 136.645C53.2948 144.289 52.8017 150.206 52.8017 156.37C52.8017 157.603 52.8017 158.786 52.851 160.019C53.1469 169.734 54.6756 176.835 58.374 178.018C58.6699 178.117 58.7685 178.659 58.1767 178.659C52.6045 178.659 51.421 167.219 51.0758 160.315C51.0265 159.033 50.9772 157.701 50.9772 156.37C50.9772 150.305 51.5689 143.647 52.1606 137.779C49.695 141.626 40.4243 161.597 38.1066 168.008C38.156 169.241 37.0218 170.375 36.5287 169.931ZM58.0658 166.479C57.3261 165.69 56.9809 164.013 56.9809 162.386C56.9809 160.857 57.2768 159.329 57.8192 158.49C57.8685 158.244 58.3617 158.195 58.9534 158.343C59.4958 158.54 59.7917 158.934 59.7424 159.181C59.3479 159.575 58.3617 165.148 59.1013 165.789C59.4958 166.085 59.989 166.232 60.5314 166.232C63.5888 166.232 68.8159 162.288 70.2952 160.808C70.4925 160.611 70.9856 160.907 70.3939 161.992C69.4569 163.718 64.9695 167.613 61.567 167.761C60.3342 167.81 59.0027 167.515 58.0658 166.479ZM59.1013 155.039C58.5096 154.841 58.2137 154.398 58.4603 154.2C58.5589 154.052 58.9041 153.066 59.0027 152.82L59.1013 152.08C59.1013 151.784 59.6438 151.685 60.1369 151.883C60.778 152.031 61.1725 152.425 61.0738 152.672C61.0738 152.869 61.0738 153.214 60.9259 153.51C60.8273 153.756 60.4328 154.841 60.2848 155.088C60.1369 155.285 59.5452 155.285 59.1013 155.039ZM70.2563 165.641C70.207 164.901 70.1577 164.161 70.1577 163.471C70.1577 161.893 70.3056 160.463 70.5029 159.23C70.6508 158.392 72.2781 159.477 72.1302 160.118C72.1795 161.4 71.9822 162.288 72.0316 163.915C73.7575 162.041 75.4341 160.068 77.5545 159.033C77.949 158.836 78.7873 159.329 79.1818 159.871C79.7243 161.153 79.7736 162.189 80.2174 163.915L85.0007 160.019C85.3459 159.773 86.2828 160.266 86.628 160.808C87.1211 161.794 87.3677 163.57 88.3539 164.408C88.8964 164.753 89.4881 165 90.1785 165C91.7565 165 97.1315 162.583 97.8219 161.4C97.9698 161.153 98.6109 161.548 98.0191 162.633C97.2794 163.964 94.0741 166.38 91.2633 166.38C90.2278 166.38 89.0443 166.085 87.9594 165.394C87.2197 164.901 86.7266 164.309 86.2828 163.718C85.9376 163.224 85.6911 162.682 85.5431 162.238C83.3241 164.063 82.0913 165.049 80.7598 165.937C80.3653 166.134 79.4284 165.641 79.1325 165.098C78.6394 164.013 78.3435 162.879 77.8997 160.956C75.3848 162.583 74.0041 165.197 72.0809 166.874C71.6864 167.219 70.4043 166.232 70.2563 165.641ZM98.0839 166.479C97.3442 165.69 96.999 164.013 96.999 162.386C96.999 160.857 97.2949 159.329 97.8373 158.49C97.8866 158.244 98.3797 158.195 98.9715 158.343C99.5139 158.54 99.8098 158.934 99.7605 159.181C99.366 159.575 98.3797 165.148 99.1194 165.789C99.5139 166.085 100.007 166.232 100.549 166.232C103.607 166.232 108.834 162.288 110.313 160.808C110.511 160.611 111.004 160.907 110.412 161.992C109.475 163.718 104.988 167.613 101.585 167.761C100.352 167.81 99.0208 167.515 98.0839 166.479ZM99.1194 155.039C98.5277 154.841 98.2318 154.398 98.4784 154.2C98.577 154.052 98.9222 153.066 99.0208 152.82L99.1194 152.08C99.1194 151.784 99.6618 151.685 100.155 151.883C100.796 152.031 101.191 152.425 101.092 152.672C101.092 152.869 101.092 153.214 100.944 153.51C100.845 153.756 100.451 154.841 100.303 155.088C100.155 155.285 99.5632 155.285 99.1194 155.039ZM119.249 160.907C115.6 161.301 112.05 163.668 111.113 165.739L111.063 166.874C111.113 167.515 109.387 167.071 109.337 166.282C109.288 165.887 109.239 165.394 109.337 164.802L109.831 159.871C109.831 159.526 110.324 159.477 110.817 159.674C111.211 159.921 111.655 160.364 111.606 160.66L111.507 162.337C113.184 161.104 116.734 159.329 119.496 159.625C120.433 159.723 121.32 160.611 121.32 161.351C121.32 161.844 121.172 162.583 121.123 163.372C121.123 163.964 121.567 164.408 122.257 164.605C123.293 164.901 124.92 165 126.942 165C132.761 165 141.242 164.013 143.462 163.372C143.807 163.274 145.631 162.83 145.878 163.224C146.272 163.619 144.201 164.408 143.856 164.507C140.355 165.641 133.155 166.824 127.682 166.824C125.956 166.824 124.427 166.676 123.194 166.43C122.356 166.183 118.855 165.443 119.249 160.907ZM168.857 178.314C168.462 174.418 168.167 168.649 168.068 162.435C167.575 162.386 167.082 162.288 166.589 162.189C163.482 161.597 160.967 159.526 160.918 157.258C160.868 156.321 161.657 155.187 162.397 154.94C163.581 154.644 165.652 155.285 168.068 156.321C168.117 147.592 168.561 138.766 169.498 133.193C169.893 132.651 171.717 133.095 171.618 133.884C170.731 139.16 170.188 148.135 170.04 157.258C171.52 157.997 173.098 158.885 174.627 159.723C178.276 158.047 183.207 154.693 187.201 150.896C189.42 148.825 194.943 142.119 194.943 138.371C194.943 137.829 194.845 137.385 194.598 136.99C194.351 136.596 194.401 136.201 194.746 136.152C195.042 136.103 195.535 136.349 195.683 136.744C195.979 137.434 196.127 138.223 196.127 139.012C196.127 143.5 191.836 149.22 188.68 152.228C184.637 156.074 179.459 159.378 176.057 160.956C184.045 166.479 189.42 170.868 197.212 178.659C197.507 178.955 197.557 179.3 197.261 179.448C197.014 179.596 196.521 179.547 196.275 179.202C192.182 175.109 182.96 167.416 174.38 161.696C172.999 162.14 171.471 162.386 169.991 162.435C169.991 168.649 170.139 174.616 170.583 179.054L170.731 179.3C170.731 179.547 170.632 179.695 170.336 179.744C169.794 179.695 169.202 178.758 168.857 178.314ZM162.15 157.751C162.545 158.984 164.37 160.167 166.49 160.71C166.983 160.857 167.526 160.907 168.068 160.956V158.392C165.8 157.307 163.482 156.321 162.545 156.666C162.101 156.814 162.101 157.406 162.15 157.751ZM171.865 160.315L169.991 159.378V160.956C170.632 160.907 171.224 160.808 171.816 160.611C171.816 160.512 171.865 160.414 171.865 160.315ZM209.603 161.646C208.518 162.041 205.313 162.485 202.305 162.337C202.502 162.978 202.552 163.718 202.404 164.457C201.96 166.923 199.938 168.156 197.67 168.008C195.845 167.909 194.612 166.38 194.366 165C194.02 162.929 195.303 160.562 196.437 160.167C196.535 160.167 196.585 160.118 196.683 160.118C196.881 159.427 197.226 158.885 198.212 158.934C199.543 159.132 200.628 159.773 201.368 160.66C202.601 160.808 203.883 160.857 205.017 160.857C207.335 160.857 209.258 160.66 209.702 160.66C211.132 160.611 210.787 161.252 209.603 161.646ZM197.423 161.252C196.782 161.745 195.845 163.471 196.092 164.852C196.338 166.282 196.881 166.824 197.818 166.775C199.987 166.676 201.072 163.865 200.283 162.09C199.149 161.893 198.212 161.597 197.522 161.153L197.423 161.252ZM209.7 167.712C209.108 167.416 208.665 166.183 209.75 166.43C210.193 166.528 210.736 166.578 211.377 166.578C212.955 166.578 214.927 166.331 216.209 166.035C214.977 165.394 213.103 164.457 212.117 163.915C210.834 163.175 209.454 162.682 209.256 161.203C208.862 158.589 214.237 157.011 216.752 156.666C217.541 156.567 218.527 157.504 218.133 157.997C216.308 158.638 211.821 159.477 211.278 160.759C210.982 161.449 212.117 161.942 213.103 162.534C214.977 163.57 216.456 164.309 217.442 165.098C218.527 166.035 217.59 167.416 216.308 167.761C215.42 168.008 214.138 168.156 212.856 168.156C211.623 168.156 210.44 168.008 209.7 167.712ZM223.344 181.667C222.801 179.941 222.604 172.298 222.604 165.69C222.604 162.83 222.653 160.167 222.702 158.244C222.752 155.926 222.85 153.017 222.998 150.009C218.905 150.354 215.059 150.65 211.114 151.34C210.177 151.488 209.142 150.206 209.98 150.009C213.481 149.368 216.982 148.973 223.048 148.48C223.245 144.634 223.491 140.738 223.689 137.681C223.639 136.892 225.563 137.188 225.711 138.174C225.365 140.639 225.069 144.486 224.872 148.332C225.316 148.332 225.809 148.283 226.302 148.234C230.494 147.938 236.115 147.494 240.948 147.494C243.759 147.494 246.323 147.642 248.098 148.036C248.542 148.234 249.035 148.727 249.232 149.023C249.282 149.417 249.035 149.614 248.641 149.565C246.422 149.121 243.66 148.973 240.701 148.973C235.425 148.973 229.656 149.466 225.908 149.762C225.513 149.812 225.168 149.861 224.774 149.861L224.428 158.145C224.379 161.301 224.231 165.937 224.231 170.424C224.231 175.454 224.428 180.286 225.069 182.604C225.217 183.738 223.689 182.703 223.344 181.667Z"/>
</mask>
<path d="M36.5287 169.931C34.5562 160.907 33.1261 152.031 32.3864 143.5C26.7648 162.583 12.6615 178.659 1.66488 173.58C1.27038 173.235 1.22107 172.791 1.71419 172.939C16.1627 177.426 28.4414 152.277 31.2029 142.316C31.4002 141.576 31.4495 140.541 31.5481 139.949C31.4988 139.9 31.5481 139.85 31.5481 139.801C31.6961 139.111 33.3234 140.097 33.5206 141.034C34.6548 147.888 35.1972 157.159 37.2683 165.641C40.6709 157.208 49.9416 136.99 51.9141 135.314C52.7031 134.278 54.0838 135.659 54.0345 136.645C53.2948 144.289 52.8017 150.206 52.8017 156.37C52.8017 157.603 52.8017 158.786 52.851 160.019C53.1469 169.734 54.6756 176.835 58.374 178.018C58.6699 178.117 58.7685 178.659 58.1767 178.659C52.6045 178.659 51.421 167.219 51.0758 160.315C51.0265 159.033 50.9772 157.701 50.9772 156.37C50.9772 150.305 51.5689 143.647 52.1606 137.779C49.695 141.626 40.4243 161.597 38.1066 168.008C38.156 169.241 37.0218 170.375 36.5287 169.931ZM58.0658 166.479C57.3261 165.69 56.9809 164.013 56.9809 162.386C56.9809 160.857 57.2768 159.329 57.8192 158.49C57.8685 158.244 58.3617 158.195 58.9534 158.343C59.4958 158.54 59.7917 158.934 59.7424 159.181C59.3479 159.575 58.3617 165.148 59.1013 165.789C59.4958 166.085 59.989 166.232 60.5314 166.232C63.5888 166.232 68.8159 162.288 70.2952 160.808C70.4925 160.611 70.9856 160.907 70.3939 161.992C69.4569 163.718 64.9695 167.613 61.567 167.761C60.3342 167.81 59.0027 167.515 58.0658 166.479ZM59.1013 155.039C58.5096 154.841 58.2137 154.398 58.4603 154.2C58.5589 154.052 58.9041 153.066 59.0027 152.82L59.1013 152.08C59.1013 151.784 59.6438 151.685 60.1369 151.883C60.778 152.031 61.1725 152.425 61.0738 152.672C61.0738 152.869 61.0738 153.214 60.9259 153.51C60.8273 153.756 60.4328 154.841 60.2848 155.088C60.1369 155.285 59.5452 155.285 59.1013 155.039ZM70.2563 165.641C70.207 164.901 70.1577 164.161 70.1577 163.471C70.1577 161.893 70.3056 160.463 70.5029 159.23C70.6508 158.392 72.2781 159.477 72.1302 160.118C72.1795 161.4 71.9822 162.288 72.0316 163.915C73.7575 162.041 75.4341 160.068 77.5545 159.033C77.949 158.836 78.7873 159.329 79.1818 159.871C79.7243 161.153 79.7736 162.189 80.2174 163.915L85.0007 160.019C85.3459 159.773 86.2828 160.266 86.628 160.808C87.1211 161.794 87.3677 163.57 88.3539 164.408C88.8964 164.753 89.4881 165 90.1785 165C91.7565 165 97.1315 162.583 97.8219 161.4C97.9698 161.153 98.6109 161.548 98.0191 162.633C97.2794 163.964 94.0741 166.38 91.2633 166.38C90.2278 166.38 89.0443 166.085 87.9594 165.394C87.2197 164.901 86.7266 164.309 86.2828 163.718C85.9376 163.224 85.6911 162.682 85.5431 162.238C83.3241 164.063 82.0913 165.049 80.7598 165.937C80.3653 166.134 79.4284 165.641 79.1325 165.098C78.6394 164.013 78.3435 162.879 77.8997 160.956C75.3848 162.583 74.0041 165.197 72.0809 166.874C71.6864 167.219 70.4043 166.232 70.2563 165.641ZM98.0839 166.479C97.3442 165.69 96.999 164.013 96.999 162.386C96.999 160.857 97.2949 159.329 97.8373 158.49C97.8866 158.244 98.3797 158.195 98.9715 158.343C99.5139 158.54 99.8098 158.934 99.7605 159.181C99.366 159.575 98.3797 165.148 99.1194 165.789C99.5139 166.085 100.007 166.232 100.549 166.232C103.607 166.232 108.834 162.288 110.313 160.808C110.511 160.611 111.004 160.907 110.412 161.992C109.475 163.718 104.988 167.613 101.585 167.761C100.352 167.81 99.0208 167.515 98.0839 166.479ZM99.1194 155.039C98.5277 154.841 98.2318 154.398 98.4784 154.2C98.577 154.052 98.9222 153.066 99.0208 152.82L99.1194 152.08C99.1194 151.784 99.6618 151.685 100.155 151.883C100.796 152.031 101.191 152.425 101.092 152.672C101.092 152.869 101.092 153.214 100.944 153.51C100.845 153.756 100.451 154.841 100.303 155.088C100.155 155.285 99.5632 155.285 99.1194 155.039ZM119.249 160.907C115.6 161.301 112.05 163.668 111.113 165.739L111.063 166.874C111.113 167.515 109.387 167.071 109.337 166.282C109.288 165.887 109.239 165.394 109.337 164.802L109.831 159.871C109.831 159.526 110.324 159.477 110.817 159.674C111.211 159.921 111.655 160.364 111.606 160.66L111.507 162.337C113.184 161.104 116.734 159.329 119.496 159.625C120.433 159.723 121.32 160.611 121.32 161.351C121.32 161.844 121.172 162.583 121.123 163.372C121.123 163.964 121.567 164.408 122.257 164.605C123.293 164.901 124.92 165 126.942 165C132.761 165 141.242 164.013 143.462 163.372C143.807 163.274 145.631 162.83 145.878 163.224C146.272 163.619 144.201 164.408 143.856 164.507C140.355 165.641 133.155 166.824 127.682 166.824C125.956 166.824 124.427 166.676 123.194 166.43C122.356 166.183 118.855 165.443 119.249 160.907ZM168.857 178.314C168.462 174.418 168.167 168.649 168.068 162.435C167.575 162.386 167.082 162.288 166.589 162.189C163.482 161.597 160.967 159.526 160.918 157.258C160.868 156.321 161.657 155.187 162.397 154.94C163.581 154.644 165.652 155.285 168.068 156.321C168.117 147.592 168.561 138.766 169.498 133.193C169.893 132.651 171.717 133.095 171.618 133.884C170.731 139.16 170.188 148.135 170.04 157.258C171.52 157.997 173.098 158.885 174.627 159.723C178.276 158.047 183.207 154.693 187.201 150.896C189.42 148.825 194.943 142.119 194.943 138.371C194.943 137.829 194.845 137.385 194.598 136.99C194.351 136.596 194.401 136.201 194.746 136.152C195.042 136.103 195.535 136.349 195.683 136.744C195.979 137.434 196.127 138.223 196.127 139.012C196.127 143.5 191.836 149.22 188.68 152.228C184.637 156.074 179.459 159.378 176.057 160.956C184.045 166.479 189.42 170.868 197.212 178.659C197.507 178.955 197.557 179.3 197.261 179.448C197.014 179.596 196.521 179.547 196.275 179.202C192.182 175.109 182.96 167.416 174.38 161.696C172.999 162.14 171.471 162.386 169.991 162.435C169.991 168.649 170.139 174.616 170.583 179.054L170.731 179.3C170.731 179.547 170.632 179.695 170.336 179.744C169.794 179.695 169.202 178.758 168.857 178.314ZM162.15 157.751C162.545 158.984 164.37 160.167 166.49 160.71C166.983 160.857 167.526 160.907 168.068 160.956V158.392C165.8 157.307 163.482 156.321 162.545 156.666C162.101 156.814 162.101 157.406 162.15 157.751ZM171.865 160.315L169.991 159.378V160.956C170.632 160.907 171.224 160.808 171.816 160.611C171.816 160.512 171.865 160.414 171.865 160.315ZM209.603 161.646C208.518 162.041 205.313 162.485 202.305 162.337C202.502 162.978 202.552 163.718 202.404 164.457C201.96 166.923 199.938 168.156 197.67 168.008C195.845 167.909 194.612 166.38 194.366 165C194.02 162.929 195.303 160.562 196.437 160.167C196.535 160.167 196.585 160.118 196.683 160.118C196.881 159.427 197.226 158.885 198.212 158.934C199.543 159.132 200.628 159.773 201.368 160.66C202.601 160.808 203.883 160.857 205.017 160.857C207.335 160.857 209.258 160.66 209.702 160.66C211.132 160.611 210.787 161.252 209.603 161.646ZM197.423 161.252C196.782 161.745 195.845 163.471 196.092 164.852C196.338 166.282 196.881 166.824 197.818 166.775C199.987 166.676 201.072 163.865 200.283 162.09C199.149 161.893 198.212 161.597 197.522 161.153L197.423 161.252ZM209.7 167.712C209.108 167.416 208.665 166.183 209.75 166.43C210.193 166.528 210.736 166.578 211.377 166.578C212.955 166.578 214.927 166.331 216.209 166.035C214.977 165.394 213.103 164.457 212.117 163.915C210.834 163.175 209.454 162.682 209.256 161.203C208.862 158.589 214.237 157.011 216.752 156.666C217.541 156.567 218.527 157.504 218.133 157.997C216.308 158.638 211.821 159.477 211.278 160.759C210.982 161.449 212.117 161.942 213.103 162.534C214.977 163.57 216.456 164.309 217.442 165.098C218.527 166.035 217.59 167.416 216.308 167.761C215.42 168.008 214.138 168.156 212.856 168.156C211.623 168.156 210.44 168.008 209.7 167.712ZM223.344 181.667C222.801 179.941 222.604 172.298 222.604 165.69C222.604 162.83 222.653 160.167 222.702 158.244C222.752 155.926 222.85 153.017 222.998 150.009C218.905 150.354 215.059 150.65 211.114 151.34C210.177 151.488 209.142 150.206 209.98 150.009C213.481 149.368 216.982 148.973 223.048 148.48C223.245 144.634 223.491 140.738 223.689 137.681C223.639 136.892 225.563 137.188 225.711 138.174C225.365 140.639 225.069 144.486 224.872 148.332C225.316 148.332 225.809 148.283 226.302 148.234C230.494 147.938 236.115 147.494 240.948 147.494C243.759 147.494 246.323 147.642 248.098 148.036C248.542 148.234 249.035 148.727 249.232 149.023C249.282 149.417 249.035 149.614 248.641 149.565C246.422 149.121 243.66 148.973 240.701 148.973C235.425 148.973 229.656 149.466 225.908 149.762C225.513 149.812 225.168 149.861 224.774 149.861L224.428 158.145C224.379 161.301 224.231 165.937 224.231 170.424C224.231 175.454 224.428 180.286 225.069 182.604C225.217 183.738 223.689 182.703 223.344 181.667Z" fill="white"/>
<path d="M36.5287 169.931L35.5922 170.136L35.6581 170.437L35.8874 170.643L36.5287 169.931ZM32.3864 143.5L33.3414 143.417L31.467 143.229L32.3864 143.5ZM1.66488 173.58L1.03369 174.301L1.1376 174.392L1.26296 174.45L1.66488 173.58ZM1.71419 172.939L1.99851 172.024L1.98962 172.021L1.71419 172.939ZM31.2029 142.316L32.1267 142.572L32.1291 142.563L31.2029 142.316ZM31.5481 139.949L32.4936 140.107L32.5747 139.62L32.2259 139.271L31.5481 139.949ZM31.5481 139.801L30.6109 139.6L30.5896 139.7V139.801H31.5481ZM33.5206 141.034L34.4663 140.877L34.4629 140.857L34.4586 140.836L33.5206 141.034ZM37.2683 165.641L36.3372 165.868L37.0433 168.76L38.1572 165.999L37.2683 165.641ZM51.9141 135.314L52.5349 136.044L52.6138 135.977L52.6765 135.895L51.9141 135.314ZM54.0345 136.645L54.9886 136.737L54.9907 136.715L54.9918 136.693L54.0345 136.645ZM52.851 160.019L53.8091 159.99L53.8088 159.981L52.851 160.019ZM58.374 178.018L58.6771 177.109L58.6661 177.105L58.374 178.018ZM51.0758 160.315L50.1179 160.352L50.1184 160.363L51.0758 160.315ZM52.1606 137.779L53.1143 137.875L51.3537 137.262L52.1606 137.779ZM38.1066 168.008L37.2052 167.682L37.1414 167.858L37.1489 168.046L38.1066 168.008ZM37.4651 169.726C35.4997 160.735 34.0769 151.9 33.3414 143.417L31.4315 143.582C32.1753 152.161 33.6126 161.079 35.5922 170.136L37.4651 169.726ZM31.467 143.229C28.6918 152.65 23.8296 161.294 18.3537 166.933C12.8274 172.624 6.98431 174.981 2.06681 172.71L1.26296 174.45C7.34209 177.258 14.049 174.117 19.7289 168.269C25.4592 162.368 30.4595 153.433 33.3059 143.77L31.467 143.229ZM2.29608 172.859C2.26365 172.83 2.2548 172.814 2.26001 172.822C2.26296 172.827 2.27424 172.847 2.286 172.882C2.29704 172.915 2.31521 172.982 2.31521 173.075C2.31521 173.169 2.29581 173.312 2.20931 173.463C2.11776 173.622 1.98097 173.738 1.83441 173.803C1.58053 173.917 1.39682 173.844 1.43876 173.857L1.98962 172.021C1.785 171.959 1.42254 171.887 1.05155 172.053C0.575754 172.266 0.398151 172.715 0.398153 173.075C0.398153 173.38 0.513113 173.636 0.613611 173.804C0.723616 173.989 0.868868 174.157 1.03369 174.301L2.29608 172.859ZM1.42989 173.854C5.35708 175.074 9.11229 174.26 12.512 172.276C15.8914 170.304 18.9575 167.16 21.6084 163.62C26.9086 156.543 30.7177 147.654 32.1266 142.572L30.2792 142.06C28.9267 146.939 25.2156 155.605 20.074 162.471C17.5039 165.903 14.6187 168.827 11.5459 170.62C8.49338 172.401 5.29555 173.048 1.9985 172.024L1.42989 173.854ZM32.1291 142.563C32.2472 142.12 32.315 141.616 32.3647 141.187C32.4187 140.722 32.4495 140.371 32.4936 140.107L30.6026 139.791C30.5481 140.118 30.505 140.582 30.4604 140.967C30.4114 141.389 30.3559 141.772 30.2768 142.069L32.1291 142.563ZM32.2259 139.271C32.3356 139.381 32.4325 139.539 32.4694 139.735C32.5029 139.914 32.473 140.054 32.4595 140.108C32.4526 140.135 32.4459 140.155 32.4459 140.155C32.4419 140.167 32.4518 140.138 32.4561 140.124C32.467 140.089 32.5066 139.964 32.5066 139.801H30.5896C30.5896 139.663 30.6231 139.562 30.6263 139.552C30.6267 139.551 30.6324 139.533 30.6244 139.558C30.6203 139.57 30.6098 139.602 30.5997 139.643C30.5801 139.721 30.5471 139.886 30.5852 140.089C30.6267 140.31 30.736 140.493 30.8703 140.627L32.2259 139.271ZM32.4854 140.002C32.4577 140.131 32.368 140.309 32.179 140.428C32.0148 140.532 31.8721 140.53 31.8367 140.528C31.7839 140.525 31.8472 140.521 32.0129 140.623C32.1571 140.712 32.3066 140.838 32.4217 140.972C32.5437 141.115 32.578 141.209 32.5826 141.231L34.4586 140.836C34.3646 140.39 34.1215 140.01 33.8783 139.726C33.6282 139.433 33.3246 139.18 33.0189 138.991C32.7345 138.816 32.3509 138.637 31.9453 138.614C31.7334 138.602 31.4378 138.629 31.1556 138.807C30.8484 139.001 30.6755 139.299 30.6109 139.6L32.4854 140.002ZM32.5749 141.19C33.1381 144.594 33.5518 148.581 34.0922 152.848C34.6296 157.091 35.2883 161.573 36.3372 165.868L38.1995 165.413C37.1772 161.227 36.5292 156.832 35.9941 152.607C35.4619 148.404 35.0373 144.328 34.4663 140.877L32.5749 141.19ZM38.1572 165.999C39.8494 161.806 43.0095 154.661 45.9939 148.354C47.4859 145.201 48.929 142.267 50.1189 140.023C50.7145 138.899 51.2409 137.959 51.6744 137.255C51.8914 136.902 52.0791 136.618 52.2357 136.404C52.4019 136.176 52.5001 136.074 52.5349 136.044L51.2933 134.583C51.0815 134.763 50.8761 135.015 50.6881 135.272C50.4906 135.542 50.2735 135.873 50.0416 136.25C49.5773 137.005 49.0293 137.985 48.4251 139.125C47.2157 141.406 45.7586 144.369 44.2611 147.534C41.2663 153.863 38.0898 161.043 36.3794 165.282L38.1572 165.999ZM52.6765 135.895C52.7024 135.861 52.7066 135.867 52.6794 135.882C52.6501 135.897 52.6159 135.905 52.5883 135.905C52.5467 135.905 52.589 135.892 52.7017 135.979C52.8069 136.061 52.9143 136.186 52.9898 136.328C53.0687 136.475 53.0784 136.573 53.0772 136.597L54.9918 136.693C55.0153 136.225 54.8709 135.78 54.6801 135.423C54.4859 135.06 54.2081 134.721 53.8757 134.463C53.5507 134.212 53.103 133.986 52.5821 133.988C52.0137 133.989 51.5101 134.262 51.1516 134.733L52.6765 135.895ZM53.0804 136.553C52.3406 144.198 51.8432 150.156 51.8432 156.37H53.7602C53.7602 150.256 54.2491 144.379 54.9886 136.737L53.0804 136.553ZM51.8432 156.37C51.8432 157.6 51.8431 158.802 51.8933 160.057L53.8088 159.981C53.7604 158.77 53.7602 157.606 53.7602 156.37H51.8432ZM51.8929 160.048C52.0417 164.933 52.501 169.228 53.4137 172.477C54.3048 175.649 55.7282 178.178 58.0819 178.931L58.6661 177.105C57.3214 176.675 56.1312 175.062 55.2593 171.959C54.4092 168.933 53.9562 164.82 53.8091 159.99L51.8929 160.048ZM58.0709 178.927C57.9101 178.874 57.8049 178.772 57.7449 178.678C57.686 178.587 57.6397 178.456 57.653 178.296C57.668 178.116 57.759 177.931 57.921 177.808C58.0669 177.698 58.187 177.701 58.1767 177.701V179.618C58.4623 179.618 58.792 179.553 59.0766 179.338C59.3774 179.11 59.5361 178.783 59.5634 178.455C59.6109 177.886 59.2622 177.304 58.6771 177.109L58.0709 178.927ZM58.1767 177.701C57.1668 177.701 56.3038 177.201 55.5272 176.183C54.7341 175.142 54.0934 173.631 53.5896 171.819C52.5844 168.205 52.2052 163.71 52.0331 160.267L50.1184 160.363C50.2915 163.824 50.6767 168.501 51.7426 172.333C52.2743 174.244 52.9959 176.024 54.0027 177.345C55.026 178.687 56.4005 179.618 58.1767 179.618V177.701ZM52.0336 160.278C51.9842 158.994 51.9357 157.681 51.9357 156.37H50.0186C50.0186 157.722 50.0687 159.071 50.118 160.352L52.0336 160.278ZM51.9357 156.37C51.9357 150.357 52.5227 143.742 53.1143 137.875L51.207 137.683C50.6151 143.553 50.0186 150.252 50.0186 156.37H51.9357ZM51.3537 137.262C50.078 139.252 47.1144 145.275 44.2089 151.528C41.2944 157.801 38.3803 164.432 37.2052 167.682L39.0081 168.334C40.1507 165.173 43.0308 158.613 45.9474 152.336C48.8731 146.039 51.7777 140.153 52.9676 138.297L51.3537 137.262ZM37.1489 168.046C37.162 168.374 37.0084 168.732 36.804 168.962C36.7011 169.078 36.6412 169.098 36.6645 169.089C36.7063 169.074 36.95 169.021 37.1699 169.218L35.8874 170.643C36.3539 171.063 36.9243 171.034 37.3158 170.893C37.689 170.758 38.002 170.5 38.2381 170.234C38.7117 169.7 39.1006 168.875 39.0644 167.969L37.1489 168.046ZM58.0658 166.479L58.7766 165.836L58.7709 165.83L58.7651 165.823L58.0658 166.479ZM57.8192 158.49L58.624 159.011L58.7233 158.858L58.7591 158.678L57.8192 158.49ZM58.9534 158.343L59.281 157.442L59.2342 157.425L59.1859 157.413L58.9534 158.343ZM59.7424 159.181L60.4202 159.859L60.6254 159.653L60.6823 159.369L59.7424 159.181ZM59.1013 165.789L58.4736 166.513L58.4992 166.535L58.5262 166.556L59.1013 165.789ZM70.2952 160.808L69.6175 160.13L70.2952 160.808ZM70.3939 161.992L69.5524 161.533L69.5515 161.534L70.3939 161.992ZM61.567 167.761L61.6053 168.719L61.6086 168.719L61.567 167.761ZM59.1013 155.039L59.5668 154.201L59.489 154.157L59.4045 154.129L59.1013 155.039ZM58.4603 154.2L59.0591 154.949L59.1753 154.856L59.2578 154.732L58.4603 154.2ZM59.0027 152.82L59.8927 153.176L59.9371 153.065L59.9528 152.946L59.0027 152.82ZM59.1013 152.08L60.0515 152.207L60.0599 152.143V152.08H59.1013ZM60.1369 151.883L59.7809 152.773L59.8494 152.8L59.9214 152.817L60.1369 151.883ZM61.0738 152.672L60.1839 152.316L60.1153 152.487V152.672H61.0738ZM60.9259 153.51L60.0686 153.081L60.0507 153.117L60.0359 153.154L60.9259 153.51ZM60.2848 155.088L61.0517 155.663L61.0813 155.623L61.1068 155.581L60.2848 155.088ZM58.7651 165.823C58.5574 165.602 58.3382 165.169 58.1763 164.516C58.0197 163.884 57.9394 163.138 57.9394 162.386H56.0224C56.0224 163.262 56.1147 164.167 56.3156 164.978C56.5113 165.767 56.8345 166.567 57.3665 167.135L58.7651 165.823ZM57.9394 162.386C57.9394 160.92 58.2325 159.616 58.624 159.011L57.0145 157.97C56.3211 159.041 56.0224 160.795 56.0224 162.386H57.9394ZM58.7591 158.678C58.7054 158.947 58.532 159.102 58.4227 159.167C58.3298 159.222 58.2711 159.223 58.2982 159.22C58.3474 159.214 58.4945 159.216 58.7209 159.272L59.1859 157.413C58.8205 157.321 58.4252 157.274 58.0676 157.317C57.8913 157.338 57.6631 157.389 57.4454 157.518C57.2113 157.657 56.9577 157.911 56.8793 158.302L58.7591 158.678ZM58.6258 159.243C58.7621 159.293 58.8316 159.355 58.8502 159.376C58.8597 159.387 58.8428 159.372 58.8237 159.323C58.8061 159.278 58.7694 159.159 58.8025 158.993L60.6823 159.369C60.7932 158.815 60.5061 158.356 60.2894 158.11C60.0368 157.823 59.6871 157.589 59.281 157.442L58.6258 159.243ZM59.0646 158.503C58.9119 158.656 58.827 158.834 58.7907 158.914C58.7418 159.02 58.6989 159.137 58.6612 159.251C58.5852 159.481 58.5097 159.764 58.4381 160.073C58.294 160.694 58.1517 161.478 58.0465 162.265C57.9418 163.049 57.8695 163.867 57.8755 164.55C57.8784 164.888 57.9007 165.227 57.9606 165.526C58.0098 165.771 58.1233 166.209 58.4736 166.513L59.7291 165.064C59.8945 165.208 59.877 165.332 59.8401 165.148C59.8139 165.018 59.7949 164.813 59.7925 164.533C59.7876 163.978 59.8479 163.259 59.9466 162.519C60.0448 161.784 60.1768 161.061 60.3055 160.506C60.3703 160.227 60.4308 160.006 60.4813 159.853C60.5069 159.775 60.5249 159.731 60.5334 159.712C60.5545 159.666 60.5236 159.755 60.4202 159.859L59.0646 158.503ZM58.5262 166.556C59.1108 166.994 59.814 167.191 60.5314 167.191V165.274C60.164 165.274 59.8809 165.175 59.6765 165.022L58.5262 166.556ZM60.5314 167.191C61.4794 167.191 62.5153 166.891 63.5075 166.478C64.5138 166.058 65.548 165.491 66.5131 164.888C68.4337 163.688 70.171 162.288 70.973 161.486L69.6175 160.13C68.9401 160.808 67.3242 162.12 65.497 163.262C64.5883 163.83 63.6499 164.342 62.7701 164.708C61.8761 165.081 61.1121 165.274 60.5314 165.274V167.191ZM70.973 161.486C70.7882 161.671 70.5079 161.756 70.2342 161.685C69.9547 161.611 69.8056 161.413 69.7504 161.275C69.6993 161.147 69.7257 161.082 69.7144 161.141C69.7041 161.195 69.6673 161.322 69.5524 161.533L71.2353 162.451C71.5686 161.84 71.7689 161.159 71.5304 160.563C71.4012 160.24 71.1289 159.937 70.7199 159.83C70.3168 159.724 69.9009 159.847 69.6175 160.13L70.973 161.486ZM69.5515 161.534C69.3811 161.848 68.9987 162.34 68.4175 162.925C67.8492 163.498 67.1334 164.118 66.3419 164.692C64.7199 165.87 62.9379 166.742 61.5253 166.804L61.6086 168.719C63.5985 168.632 65.7615 167.483 67.4681 166.244C68.3409 165.61 69.1353 164.923 69.7782 164.276C70.4083 163.641 70.9381 162.998 71.2363 162.449L69.5515 161.534ZM61.5287 166.803C60.4541 166.846 59.452 166.582 58.7766 165.836L57.355 167.122C58.5534 168.447 60.2142 168.775 61.6053 168.719L61.5287 166.803ZM59.4045 154.129C59.2488 154.077 59.2131 154.017 59.2404 154.054C59.2527 154.071 59.3254 154.174 59.3313 154.356C59.3344 154.454 59.3172 154.568 59.2646 154.683C59.2117 154.799 59.1358 154.887 59.0591 154.949L57.8615 153.452C57.5603 153.693 57.4034 154.048 57.4152 154.417C57.4256 154.744 57.5631 155.008 57.6925 155.185C57.9541 155.543 58.3621 155.803 58.7982 155.948L59.4045 154.129ZM59.2578 154.732C59.3162 154.644 59.3593 154.551 59.3792 154.508C59.4063 154.449 59.4339 154.383 59.4603 154.319C59.5134 154.189 59.5727 154.034 59.629 153.883C59.7501 153.561 59.8479 153.287 59.8927 153.176L58.1128 152.464C58.0589 152.598 57.9348 152.941 57.834 153.21C57.7794 153.356 57.7277 153.491 57.6852 153.595C57.6639 153.647 57.6476 153.685 57.6365 153.709C57.6183 153.749 57.629 153.719 57.6627 153.669L59.2578 154.732ZM59.9528 152.946L60.0515 152.207L58.1512 151.953L58.0526 152.693L59.9528 152.946ZM60.0599 152.08C60.0599 152.195 60.0323 152.312 59.9775 152.418C59.9244 152.521 59.8567 152.593 59.7997 152.639C59.7439 152.685 59.6949 152.709 59.6658 152.721C59.6361 152.733 59.6165 152.737 59.6109 152.738C59.6073 152.739 59.6813 152.733 59.7809 152.773L60.4929 150.993C60.0993 150.835 59.6557 150.78 59.2576 150.854C59.0604 150.891 58.8101 150.973 58.5879 151.154C58.3435 151.353 58.1428 151.673 58.1428 152.08H60.0599ZM59.9214 152.817C60.1128 152.861 60.2189 152.932 60.2459 152.957C60.2611 152.97 60.2225 152.942 60.1844 152.857C60.1444 152.768 60.0858 152.561 60.1839 152.316L61.9638 153.028C62.1112 152.659 62.0403 152.311 61.934 152.073C61.8297 151.84 61.6709 151.658 61.5196 151.524C61.2138 151.252 60.802 151.052 60.3524 150.949L59.9214 152.817ZM60.1153 152.672C60.1153 152.772 60.1145 152.853 60.1042 152.935C60.0939 153.017 60.0779 153.063 60.0686 153.081L61.7832 153.939C62.0464 153.412 62.0324 152.845 62.0324 152.672H60.1153ZM60.0359 153.154C59.9879 153.274 59.8464 153.654 59.7305 153.952C59.6671 154.115 59.6047 154.271 59.5508 154.399C59.4887 154.545 59.4603 154.599 59.4629 154.595L61.1068 155.581C61.2333 155.37 61.4023 154.942 61.5172 154.646C61.6603 154.278 61.7653 153.992 61.8159 153.866L60.0359 153.154ZM59.518 154.513C59.5912 154.415 59.6703 154.358 59.7229 154.327C59.7757 154.296 59.8169 154.282 59.8355 154.277C59.8697 154.267 59.8703 154.273 59.8307 154.272C59.7956 154.271 59.7482 154.265 59.6963 154.251C59.6447 154.237 59.6003 154.219 59.5668 154.201L58.6358 155.877C59.004 156.081 59.4157 156.178 59.7774 156.188C59.9597 156.193 60.1637 156.177 60.3644 156.119C60.547 156.067 60.8383 155.948 61.0517 155.663L59.518 154.513ZM70.2563 165.641L69.2999 165.705L69.3056 165.79L69.3264 165.873L70.2563 165.641ZM70.5029 159.23L69.5589 159.064L69.5576 159.071L69.5564 159.079L70.5029 159.23ZM72.1302 160.118L71.1962 159.902L71.1675 160.027L71.1724 160.155L72.1302 160.118ZM72.0316 163.915L71.0735 163.944L71.1446 166.293L72.7366 164.564L72.0316 163.915ZM77.5545 159.033L77.9752 159.894L77.9832 159.89L77.5545 159.033ZM79.1818 159.871L80.0646 159.498L80.0217 159.396L79.957 159.307L79.1818 159.871ZM80.2174 163.915L79.2891 164.154L79.6619 165.603L80.8227 164.658L80.2174 163.915ZM85.0007 160.019L84.4436 159.239L84.4189 159.257L84.3954 159.276L85.0007 160.019ZM86.628 160.808L87.4853 160.379L87.4632 160.335L87.4367 160.294L86.628 160.808ZM88.3539 164.408L87.7331 165.138L87.7835 165.181L87.8393 165.217L88.3539 164.408ZM97.8219 161.4L96.9999 160.907L96.9939 160.917L97.8219 161.4ZM98.0191 162.633L98.8571 163.098L98.8606 163.092L98.0191 162.633ZM87.9594 165.394L87.4277 166.192L87.4362 166.197L87.4448 166.203L87.9594 165.394ZM86.2828 163.718L85.4976 164.267L85.5066 164.28L85.516 164.293L86.2828 163.718ZM85.5431 162.238L86.4525 161.935L86.0115 160.612L84.9344 161.498L85.5431 162.238ZM80.7598 165.937L81.1885 166.794L81.2419 166.767L81.2915 166.734L80.7598 165.937ZM79.1325 165.098L78.2599 165.495L78.2743 165.527L78.291 165.557L79.1325 165.098ZM77.8997 160.956L78.8337 160.741L78.5264 159.409L77.379 160.151L77.8997 160.956ZM72.0809 166.874L71.451 166.151L71.4497 166.152L72.0809 166.874ZM71.2127 165.577C71.1629 164.83 71.1162 164.124 71.1162 163.471H69.1992C69.1992 164.199 69.2511 164.972 69.2999 165.705L71.2127 165.577ZM71.1162 163.471C71.1162 161.953 71.2586 160.574 71.4494 159.382L69.5564 159.079C69.3527 160.352 69.1992 161.833 69.1992 163.471H71.1162ZM71.4468 159.397C71.4355 159.461 71.389 159.608 71.24 159.733C71.095 159.856 70.9458 159.88 70.8749 159.883C70.8102 159.885 70.7865 159.872 70.814 159.881C70.8366 159.889 70.8774 159.907 70.9307 159.939C71.0438 160.007 71.1413 160.098 71.1923 160.166C71.2168 160.199 71.2123 160.202 71.202 160.172C71.1917 160.142 71.164 160.042 71.1962 159.902L73.0642 160.333C73.1981 159.753 72.9133 159.265 72.726 159.016C72.5088 158.726 72.218 158.477 71.9243 158.299C71.6537 158.135 71.2486 157.951 70.8058 157.967C70.5638 157.976 70.2645 158.048 70.0027 158.269C69.7369 158.494 69.6073 158.79 69.5589 159.064L71.4468 159.397ZM71.1724 160.155C71.1949 160.739 71.1617 161.233 71.1243 161.826C71.0869 162.418 71.0474 163.083 71.0735 163.944L72.9897 163.886C72.9664 163.119 73.0009 162.527 73.0375 161.947C73.074 161.369 73.1148 160.779 73.088 160.081L71.1724 160.155ZM72.7366 164.564C74.5215 162.626 76.0573 160.831 77.9752 159.894L77.1339 158.172C74.8109 159.306 72.9935 161.456 71.3265 163.265L72.7366 164.564ZM77.9832 159.89C77.8211 159.971 77.7089 159.94 77.7387 159.946C77.7564 159.949 77.8169 159.966 77.9127 160.018C78.1104 160.125 78.3035 160.293 78.4066 160.435L79.957 159.307C79.6656 158.907 79.2424 158.557 78.8236 158.331C78.6112 158.217 78.3636 158.114 78.1008 158.063C77.8502 158.015 77.4852 157.996 77.1259 158.176L77.9832 159.89ZM78.2991 160.245C78.536 160.805 78.6689 161.317 78.7992 161.927C78.9273 162.527 79.0607 163.265 79.2891 164.154L81.1457 163.676C80.9303 162.838 80.8171 162.196 80.674 161.526C80.5331 160.867 80.3701 160.22 80.0646 159.498L78.2991 160.245ZM80.8227 164.658L85.606 160.762L84.3954 159.276L79.6121 163.172L80.8227 164.658ZM85.5578 160.799C85.4539 160.873 85.3565 160.899 85.3002 160.908C85.2716 160.912 85.2502 160.913 85.2375 160.912C85.2247 160.912 85.218 160.911 85.2179 160.911C85.2178 160.911 85.2222 160.912 85.2313 160.914C85.2404 160.916 85.2528 160.92 85.2684 160.925C85.3002 160.936 85.34 160.952 85.3857 160.975C85.4789 161.022 85.5766 161.085 85.6614 161.156C85.7491 161.23 85.7989 161.291 85.8193 161.323L87.4367 160.294C87.1462 159.837 86.6721 159.475 86.243 159.26C86.0212 159.15 85.7599 159.052 85.4862 159.013C85.2346 158.977 84.8181 158.972 84.4436 159.239L85.5578 160.799ZM85.7707 161.237C85.8621 161.42 85.9524 161.661 86.0592 161.977C86.1586 162.27 86.2777 162.644 86.4062 162.994C86.6591 163.683 87.0362 164.546 87.7331 165.138L88.9747 163.678C88.6854 163.432 88.4461 162.988 88.2059 162.333C88.0878 162.012 87.9912 161.704 87.8748 161.361C87.7659 161.04 87.6404 160.69 87.4853 160.379L85.7707 161.237ZM87.8393 165.217C88.4738 165.62 89.2444 165.958 90.1785 165.958V164.041C89.7319 164.041 89.3189 163.886 88.8685 163.599L87.8393 165.217ZM90.1785 165.958C90.7423 165.958 91.5039 165.759 92.2439 165.513C93.0203 165.255 93.8952 164.902 94.7351 164.514C95.5737 164.126 96.398 163.694 97.0681 163.273C97.4025 163.063 97.7128 162.847 97.972 162.632C98.2163 162.429 98.4785 162.177 98.6498 161.883L96.9939 160.917C96.9983 160.909 96.9868 160.93 96.9409 160.979C96.897 161.026 96.8339 161.085 96.7479 161.157C96.5748 161.3 96.3396 161.467 96.0484 161.65C95.4672 162.015 94.7197 162.409 93.9309 162.773C93.1436 163.137 92.3357 163.462 91.6388 163.694C90.9057 163.938 90.4037 164.041 90.1785 164.041V165.958ZM98.6438 161.893C98.423 162.261 98.0163 162.333 97.7495 162.262C97.5078 162.197 97.3896 162.041 97.3458 161.956C97.2452 161.761 97.3968 161.772 97.1776 162.174L98.8606 163.092C99.2332 162.409 99.3601 161.68 99.05 161.078C98.9014 160.79 98.6322 160.514 98.2472 160.41C97.8371 160.3 97.2948 160.415 96.9999 160.907L98.6438 161.893ZM97.1812 162.167C96.9267 162.625 96.0997 163.457 94.9135 164.191C93.7459 164.913 92.42 165.422 91.2633 165.422V167.339C92.9175 167.339 94.5996 166.639 95.9223 165.821C97.2264 165.014 98.3719 163.972 98.857 163.098L97.1812 162.167ZM91.2633 165.422C90.4033 165.422 89.3995 165.174 88.474 164.586L87.4448 166.203C88.6891 166.995 90.0523 167.339 91.2633 167.339V165.422ZM88.4911 164.597C87.8879 164.194 87.4728 163.707 87.0496 163.142L85.516 164.293C85.9805 164.912 86.5516 165.608 87.4277 166.192L88.4911 164.597ZM87.0681 163.168C86.7847 162.763 86.5764 162.307 86.4525 161.935L84.6338 162.541C84.8057 163.057 85.0905 163.686 85.4976 164.267L87.0681 163.168ZM84.9344 161.498C82.7113 163.326 81.5138 164.282 80.2281 165.139L81.2915 166.734C82.6688 165.816 83.9368 164.8 86.1519 162.979L84.9344 161.498ZM80.3312 165.079C80.4203 165.035 80.4924 165.025 80.524 165.023C80.556 165.021 80.5671 165.025 80.5526 165.022C80.5208 165.016 80.4488 164.995 80.3509 164.944C80.2563 164.895 80.1641 164.832 80.0896 164.767C80.0114 164.698 79.9797 164.65 79.974 164.639L78.291 165.557C78.5613 166.053 79.0462 166.427 79.4675 166.646C79.6901 166.761 79.9448 166.86 80.2088 166.908C80.4521 166.952 80.825 166.976 81.1885 166.794L80.3312 165.079ZM80.0051 164.702C79.5569 163.716 79.2789 162.67 78.8337 160.741L76.9657 161.172C77.4081 163.089 77.7219 164.311 78.2599 165.495L80.0051 164.702ZM77.379 160.151C75.9967 161.046 74.9477 162.198 74.0359 163.278C73.0943 164.394 72.34 165.376 71.451 166.151L72.7108 167.596C73.7449 166.694 74.6426 165.532 75.5009 164.515C76.389 163.462 77.2878 162.494 78.4204 161.761L77.379 160.151ZM71.4497 166.152C71.5932 166.027 71.7457 165.993 71.831 165.988C71.9076 165.982 71.944 165.997 71.9245 165.991C71.8832 165.979 71.7779 165.932 71.6333 165.829C71.4959 165.73 71.3671 165.613 71.2736 165.505C71.2274 165.451 71.1981 165.41 71.1819 165.383C71.1635 165.352 71.1746 165.362 71.1862 165.408L69.3264 165.873C69.4174 166.237 69.6397 166.546 69.8231 166.758C70.024 166.991 70.268 167.209 70.519 167.388C70.7628 167.563 71.0611 167.734 71.3758 167.828C71.6369 167.906 72.2259 168.02 72.7121 167.595L71.4497 166.152ZM98.0839 166.479L98.7946 165.836L98.7889 165.83L98.7831 165.823L98.0839 166.479ZM97.8373 158.49L98.642 159.011L98.7414 158.858L98.7772 158.678L97.8373 158.49ZM98.9715 158.343L99.299 157.442L99.2523 157.425L99.2039 157.413L98.9715 158.343ZM99.7605 159.181L100.438 159.859L100.643 159.653L100.7 159.369L99.7605 159.181ZM99.1194 165.789L98.4916 166.513L98.5172 166.535L98.5443 166.556L99.1194 165.789ZM110.313 160.808L109.636 160.13L110.313 160.808ZM110.412 161.992L109.57 161.533L109.57 161.534L110.412 161.992ZM101.585 167.761L101.623 168.719L101.627 168.719L101.585 167.761ZM99.1194 155.039L99.5849 154.201L99.507 154.157L99.4225 154.129L99.1194 155.039ZM98.4783 154.2L99.0771 154.949L99.1933 154.856L99.2759 154.732L98.4783 154.2ZM99.0208 152.82L99.9108 153.176L99.9551 153.065L99.9709 152.946L99.0208 152.82ZM99.1194 152.08L100.07 152.207L100.078 152.143V152.08H99.1194ZM100.155 151.883L99.799 152.773L99.8675 152.8L99.9394 152.817L100.155 151.883ZM101.092 152.672L100.202 152.316L100.133 152.487V152.672H101.092ZM100.944 153.51L100.087 153.081L100.069 153.117L100.054 153.154L100.944 153.51ZM100.303 155.088L101.07 155.663L101.099 155.623L101.125 155.581L100.303 155.088ZM98.7831 165.823C98.5755 165.602 98.3562 165.169 98.1944 164.516C98.0378 163.884 97.9575 163.138 97.9575 162.386H96.0405C96.0405 163.262 96.1328 164.167 96.3337 164.978C96.5294 165.767 96.8525 166.567 97.3846 167.135L98.7831 165.823ZM97.9575 162.386C97.9575 160.92 98.2505 159.616 98.642 159.011L97.0325 157.97C96.3392 159.041 96.0405 160.795 96.0405 162.386H97.9575ZM98.7772 158.678C98.7235 158.947 98.55 159.102 98.4408 159.167C98.3479 159.222 98.2892 159.223 98.3163 159.22C98.3655 159.214 98.5126 159.216 98.739 159.272L99.2039 157.413C98.8386 157.321 98.4433 157.274 98.0856 157.317C97.9094 157.338 97.6811 157.389 97.4634 157.518C97.2293 157.657 96.9757 157.911 96.8974 158.302L98.7772 158.678ZM98.6439 159.243C98.7802 159.293 98.8496 159.355 98.8683 159.376C98.8778 159.387 98.8609 159.372 98.8418 159.323C98.8242 159.278 98.7874 159.159 98.8206 158.993L100.7 159.369C100.811 158.815 100.524 158.356 100.307 158.11C100.055 157.823 99.7052 157.589 99.299 157.442L98.6439 159.243ZM99.0827 158.503C98.93 158.656 98.8451 158.834 98.8088 158.914C98.7599 159.02 98.7169 159.137 98.6793 159.251C98.6033 159.481 98.5277 159.764 98.4561 160.073C98.3121 160.694 98.1698 161.478 98.0645 162.265C97.9599 163.049 97.8876 163.867 97.8936 164.55C97.8965 164.888 97.9187 165.227 97.9786 165.526C98.0279 165.771 98.1414 166.209 98.4916 166.513L99.7472 165.064C99.9125 165.208 99.8951 165.332 99.8582 165.148C99.832 165.018 99.813 164.813 99.8105 164.533C99.8057 163.978 99.8659 163.259 99.9647 162.519C100.063 161.784 100.195 161.061 100.324 160.506C100.388 160.227 100.449 160.006 100.499 159.853C100.525 159.775 100.543 159.731 100.551 159.712C100.573 159.666 100.542 159.755 100.438 159.859L99.0827 158.503ZM98.5443 166.556C99.1289 166.994 99.832 167.191 100.549 167.191V165.274C100.182 165.274 99.8989 165.175 99.6945 165.022L98.5443 166.556ZM100.549 167.191C101.497 167.191 102.533 166.891 103.526 166.478C104.532 166.058 105.566 165.491 106.531 164.888C108.452 163.688 110.189 162.288 110.991 161.486L109.636 160.13C108.958 160.808 107.342 162.12 105.515 163.262C104.606 163.83 103.668 164.342 102.788 164.708C101.894 165.081 101.13 165.274 100.549 165.274V167.191ZM110.991 161.486C110.806 161.671 110.526 161.756 110.252 161.685C109.973 161.611 109.824 161.413 109.769 161.275C109.717 161.147 109.744 161.082 109.732 161.141C109.722 161.195 109.685 161.322 109.57 161.533L111.253 162.451C111.587 161.84 111.787 161.159 111.548 160.563C111.419 160.24 111.147 159.937 110.738 159.83C110.335 159.724 109.919 159.847 109.636 160.13L110.991 161.486ZM109.57 161.534C109.399 161.848 109.017 162.34 108.436 162.925C107.867 163.498 107.151 164.118 106.36 164.692C104.738 165.87 102.956 166.742 101.543 166.804L101.627 168.719C103.617 168.632 105.78 167.483 107.486 166.244C108.359 165.61 109.153 164.923 109.796 164.276C110.426 163.641 110.956 162.998 111.254 162.449L109.57 161.534ZM101.547 166.803C100.472 166.846 99.4701 166.582 98.7946 165.836L97.3731 167.122C98.5715 168.447 100.232 168.775 101.623 168.719L101.547 166.803ZM99.4225 154.129C99.2669 154.077 99.2311 154.017 99.2584 154.054C99.2708 154.071 99.3435 154.174 99.3493 154.356C99.3524 154.454 99.3353 154.568 99.2826 154.683C99.2297 154.799 99.1539 154.887 99.0771 154.949L97.8796 153.452C97.5784 153.693 97.4215 154.048 97.4332 154.417C97.4437 154.744 97.5811 155.008 97.7106 155.185C97.9721 155.543 98.3802 155.803 98.8163 155.948L99.4225 154.129ZM99.2759 154.732C99.3343 154.644 99.3774 154.551 99.3973 154.508C99.4243 154.449 99.452 154.383 99.4784 154.319C99.5314 154.189 99.5908 154.034 99.6471 153.883C99.7682 153.561 99.866 153.287 99.9108 153.176L98.1308 152.464C98.0769 152.598 97.9529 152.941 97.8521 153.21C97.7974 153.356 97.7458 153.491 97.7033 153.595C97.6819 153.647 97.6657 153.685 97.6546 153.709C97.6363 153.749 97.6471 153.719 97.6808 153.669L99.2759 154.732ZM99.9709 152.946L100.07 152.207L98.1693 151.953L98.0707 152.693L99.9709 152.946ZM100.078 152.08C100.078 152.195 100.05 152.312 99.9956 152.418C99.9424 152.521 99.8748 152.593 99.8178 152.639C99.762 152.685 99.713 152.709 99.6839 152.721C99.6542 152.733 99.6346 152.737 99.6289 152.738C99.6253 152.739 99.6994 152.733 99.799 152.773L100.511 150.993C100.117 150.835 99.6737 150.78 99.2756 150.854C99.0785 150.891 98.8281 150.973 98.606 151.154C98.3616 151.353 98.1609 151.673 98.1609 152.08H100.078ZM99.9394 152.817C100.131 152.861 100.237 152.932 100.264 152.957C100.279 152.97 100.241 152.942 100.202 152.857C100.162 152.768 100.104 152.561 100.202 152.316L101.982 153.028C102.129 152.659 102.058 152.311 101.952 152.073C101.848 151.84 101.689 151.658 101.538 151.524C101.232 151.252 100.82 151.052 100.37 150.949L99.9394 152.817ZM100.133 152.672C100.133 152.772 100.133 152.853 100.122 152.935C100.112 153.017 100.096 153.063 100.087 153.081L101.801 153.939C102.064 153.412 102.05 152.845 102.05 152.672H100.133ZM100.054 153.154C100.006 153.274 99.8644 153.654 99.7486 153.952C99.6851 154.115 99.6228 154.271 99.5688 154.399C99.5068 154.545 99.4783 154.599 99.481 154.595L101.125 155.581C101.251 155.37 101.42 154.942 101.535 154.646C101.678 154.278 101.783 153.992 101.834 153.866L100.054 153.154ZM99.5361 154.513C99.6092 154.415 99.6884 154.358 99.741 154.327C99.7938 154.296 99.835 154.282 99.8535 154.277C99.8878 154.267 99.8884 154.273 99.8487 154.272C99.8136 154.271 99.7662 154.265 99.7144 154.251C99.6627 154.237 99.6184 154.219 99.5849 154.201L98.6539 155.877C99.0221 156.081 99.4338 156.178 99.7955 156.188C99.9777 156.193 100.182 156.177 100.382 156.119C100.565 156.067 100.856 155.948 101.07 155.663L99.5361 154.513ZM119.249 160.907L120.204 160.99L120.305 159.828L119.146 159.954L119.249 160.907ZM111.113 165.739L110.239 165.344L110.163 165.513L110.155 165.698L111.113 165.739ZM111.063 166.874L110.106 166.832L110.103 166.89L110.108 166.947L111.063 166.874ZM109.337 166.282L110.294 166.222L110.292 166.192L110.289 166.163L109.337 166.282ZM109.337 164.802L110.283 164.96L110.288 164.929L110.291 164.898L109.337 164.802ZM109.831 159.871L110.784 159.967L110.789 159.919V159.871H109.831ZM110.817 159.674L111.325 158.861L111.252 158.816L111.173 158.784L110.817 159.674ZM111.606 160.66L110.66 160.503L110.652 160.553L110.649 160.604L111.606 160.66ZM111.507 162.337L110.55 162.281L110.43 164.318L112.075 163.109L111.507 162.337ZM119.496 159.625L119.394 160.578L119.395 160.578L119.496 159.625ZM121.123 163.372L120.166 163.313L120.165 163.342V163.372H121.123ZM122.257 164.605L121.994 165.527L122.257 164.605ZM143.462 163.372L143.198 162.451L143.196 162.452L143.462 163.372ZM145.878 163.224L145.065 163.732L145.123 163.825L145.2 163.902L145.878 163.224ZM143.856 164.507L143.593 163.585L143.577 163.59L143.561 163.595L143.856 164.507ZM123.194 166.43L122.924 167.349L122.965 167.361L123.006 167.37L123.194 166.43ZM119.146 159.954C117.16 160.168 115.225 160.915 113.661 161.878C112.12 162.827 110.819 164.063 110.239 165.344L111.986 166.134C112.343 165.345 113.286 164.361 114.667 163.51C116.024 162.674 117.689 162.04 119.352 161.86L119.146 159.954ZM110.155 165.698L110.106 166.832L112.021 166.915L112.07 165.781L110.155 165.698ZM110.108 166.947C110.096 166.799 110.139 166.596 110.29 166.426C110.421 166.279 110.562 166.239 110.604 166.229C110.651 166.218 110.665 166.224 110.634 166.221C110.608 166.219 110.566 166.212 110.513 166.196C110.399 166.162 110.304 166.108 110.255 166.066C110.199 166.019 110.284 166.064 110.294 166.222L108.381 166.342C108.415 166.894 108.735 167.291 109.015 167.528C109.301 167.772 109.645 167.937 109.962 168.032C110.262 168.122 110.657 168.185 111.039 168.096C111.237 168.05 111.504 167.945 111.72 167.703C111.957 167.438 112.043 167.108 112.019 166.8L110.108 166.947ZM110.289 166.163C110.242 165.793 110.208 165.412 110.283 164.96L108.392 164.645C108.27 165.377 108.334 165.981 108.386 166.401L110.289 166.163ZM110.291 164.898L110.784 159.967L108.877 159.776L108.384 164.707L110.291 164.898ZM110.789 159.871C110.789 160.038 110.718 160.229 110.568 160.369C110.441 160.487 110.321 160.511 110.296 160.515C110.255 160.522 110.318 160.507 110.461 160.564L111.173 158.784C110.822 158.644 110.393 158.555 109.981 158.624C109.772 158.659 109.498 158.747 109.263 158.965C109.004 159.205 108.872 159.532 108.872 159.871H110.789ZM110.309 160.487C110.368 160.524 110.433 160.571 110.497 160.624C110.561 160.678 110.614 160.73 110.652 160.774C110.693 160.822 110.699 160.84 110.691 160.823C110.687 160.815 110.629 160.693 110.66 160.503L112.551 160.818C112.608 160.48 112.512 160.191 112.427 160.009C112.337 159.818 112.216 159.654 112.104 159.523C111.878 159.261 111.592 159.028 111.325 158.861L110.309 160.487ZM110.649 160.604L110.55 162.281L112.464 162.393L112.563 160.716L110.649 160.604ZM112.075 163.109C112.844 162.543 114.077 161.832 115.442 161.301C116.822 160.764 118.233 160.453 119.394 160.578L119.598 158.672C117.998 158.5 116.252 158.929 114.747 159.514C113.228 160.105 111.847 160.897 110.939 161.565L112.075 163.109ZM119.395 160.578C119.611 160.601 119.876 160.727 120.094 160.937C120.198 161.038 120.272 161.139 120.316 161.224C120.361 161.311 120.362 161.354 120.362 161.351H122.279C122.279 160.624 121.868 159.984 121.425 159.557C120.964 159.114 120.318 158.747 119.596 158.671L119.395 160.578ZM120.362 161.351C120.362 161.525 120.334 161.77 120.289 162.132C120.247 162.469 120.193 162.883 120.166 163.313L122.08 163.432C122.102 163.073 122.147 162.722 122.191 162.369C122.232 162.041 122.279 161.669 122.279 161.351H120.362ZM120.165 163.372C120.165 164.553 121.071 165.263 121.994 165.527L122.521 163.684C122.299 163.62 122.181 163.535 122.129 163.48C122.089 163.437 122.082 163.409 122.082 163.372H120.165ZM121.994 165.527C123.174 165.864 124.927 165.958 126.942 165.958V164.041C124.913 164.041 123.411 163.938 122.521 163.684L121.994 165.527ZM126.942 165.958C129.896 165.958 133.507 165.708 136.651 165.38C139.768 165.054 142.524 164.641 143.728 164.293L143.196 162.452C142.18 162.745 139.586 163.145 136.452 163.473C133.346 163.798 129.806 164.041 126.942 164.041V165.958ZM143.725 164.294C143.866 164.254 144.364 164.129 144.839 164.063C145.082 164.029 145.271 164.017 145.389 164.024C145.449 164.028 145.447 164.034 145.407 164.02C145.376 164.01 145.198 163.945 145.065 163.732L146.691 162.716C146.496 162.405 146.207 162.268 146.028 162.207C145.84 162.142 145.651 162.119 145.501 162.11C145.196 162.093 144.862 162.124 144.574 162.164C143.989 162.246 143.402 162.392 143.198 162.451L143.725 164.294ZM145.2 163.902C145.119 163.822 145.031 163.694 144.991 163.521C144.95 163.348 144.973 163.196 145.008 163.09C145.066 162.912 145.164 162.839 145.132 162.868C145.089 162.907 144.954 162.999 144.712 163.121C144.248 163.356 143.701 163.554 143.593 163.585L144.119 165.428C144.356 165.361 145.017 165.115 145.577 164.832C145.846 164.695 146.177 164.509 146.422 164.287C146.534 164.185 146.732 163.985 146.829 163.688C146.884 163.522 146.911 163.312 146.857 163.085C146.804 162.856 146.686 162.677 146.556 162.547L145.2 163.902ZM143.561 163.595C140.164 164.695 133.066 165.866 127.682 165.866V167.783C133.245 167.783 140.545 166.587 144.151 165.418L143.561 163.595ZM127.682 165.866C126.007 165.866 124.543 165.722 123.382 165.49L123.006 167.37C124.311 167.631 125.904 167.783 127.682 167.783V165.866ZM123.465 165.51C122.991 165.371 122.123 165.171 121.376 164.543C120.696 163.971 120.033 162.962 120.204 160.99L118.294 160.824C118.071 163.388 118.962 165.018 120.142 166.011C121.257 166.948 122.559 167.242 122.924 167.349L123.465 165.51ZM168.857 178.314L167.903 178.411L167.931 178.685L168.1 178.902L168.857 178.314ZM168.068 162.435L169.026 162.42L169.013 161.567L168.163 161.482L168.068 162.435ZM166.589 162.189L166.777 161.249L166.768 161.247L166.589 162.189ZM160.918 157.258L161.876 157.237L161.876 157.222L161.875 157.207L160.918 157.258ZM162.397 154.94L162.165 154.01L162.129 154.019L162.094 154.031L162.397 154.94ZM168.068 156.321L167.69 157.202L169.018 157.771L169.026 156.326L168.068 156.321ZM169.498 133.193L168.723 132.629L168.59 132.812L168.553 133.034L169.498 133.193ZM171.618 133.884L172.564 134.043L172.567 134.023L172.57 134.003L171.618 133.884ZM170.04 157.258L169.082 157.242L169.072 157.845L169.612 158.115L170.04 157.258ZM174.626 159.723L174.166 160.564L174.588 160.796L175.027 160.594L174.626 159.723ZM187.201 150.896L186.547 150.196L186.541 150.202L187.201 150.896ZM194.746 136.152L194.881 137.101L194.892 137.099L194.903 137.097L194.746 136.152ZM195.683 136.744L194.785 137.08L194.793 137.101L194.802 137.121L195.683 136.744ZM188.68 152.228L189.341 152.922L189.342 152.922L188.68 152.228ZM176.057 160.956L175.653 160.087L174.133 160.792L175.511 161.745L176.057 160.956ZM197.212 178.659L197.889 177.981L197.212 178.659ZM197.261 179.448L196.832 178.591L196.799 178.607L196.768 178.626L197.261 179.448ZM196.275 179.202L197.055 178.644L197.008 178.58L196.952 178.524L196.275 179.202ZM174.38 161.696L174.912 160.898L174.527 160.642L174.087 160.783L174.38 161.696ZM169.991 162.435L169.959 161.477L169.033 161.508V162.435H169.991ZM170.583 179.054L169.629 179.149L169.65 179.363L169.761 179.547L170.583 179.054ZM170.731 179.3H171.689V179.035L171.553 178.807L170.731 179.3ZM170.336 179.744L170.25 180.699L170.372 180.71L170.494 180.69L170.336 179.744ZM162.15 157.751L161.202 157.886L161.213 157.966L161.238 158.043L162.15 157.751ZM166.49 160.71L166.765 159.791L166.747 159.786L166.728 159.781L166.49 160.71ZM168.068 160.956L167.981 161.911L169.027 162.006V160.956H168.068ZM168.068 158.392H169.027V157.788L168.482 157.527L168.068 158.392ZM162.545 156.666L162.848 157.575L162.862 157.571L162.876 157.565L162.545 156.666ZM171.865 160.315H172.824V159.723L172.294 159.458L171.865 160.315ZM169.991 159.378L170.42 158.521L169.033 157.827V159.378H169.991ZM169.991 160.956H169.033V161.991L170.065 161.912L169.991 160.956ZM171.816 160.611L172.119 161.52L172.774 161.302V160.611H171.816ZM169.811 178.217C169.42 174.358 169.125 168.618 169.026 162.42L167.11 162.451C167.208 168.679 167.505 174.478 167.903 178.411L169.811 178.217ZM168.163 161.482C167.725 161.438 167.278 161.349 166.777 161.249L166.401 163.129C166.886 163.226 167.425 163.334 167.973 163.389L168.163 161.482ZM166.768 161.247C165.361 160.979 164.113 160.379 163.23 159.624C162.338 158.861 161.893 158.013 161.876 157.237L159.959 157.278C159.992 158.771 160.828 160.092 161.984 161.08C163.146 162.075 164.709 162.807 166.409 163.13L166.768 161.247ZM161.875 157.207C161.864 157.004 161.952 156.687 162.163 156.366C162.381 156.034 162.61 155.879 162.7 155.849L162.094 154.031C161.444 154.247 160.909 154.783 160.56 155.314C160.204 155.856 159.922 156.574 159.96 157.308L161.875 157.207ZM162.63 155.87C162.978 155.783 163.595 155.815 164.528 156.058C165.429 156.294 166.501 156.692 167.69 157.202L168.446 155.44C167.219 154.914 166.047 154.474 165.012 154.204C164.01 153.942 163 153.801 162.165 154.01L162.63 155.87ZM169.026 156.326C169.076 147.608 169.52 138.845 170.443 133.352L168.553 133.034C167.602 138.686 167.159 147.577 167.109 156.315L169.026 156.326ZM170.273 133.757C170.199 133.859 170.118 133.901 170.09 133.913C170.064 133.925 170.064 133.919 170.104 133.915C170.188 133.907 170.327 133.917 170.478 133.96C170.55 133.981 170.613 134.006 170.663 134.031C170.715 134.057 170.742 134.078 170.75 134.085C170.759 134.094 170.733 134.074 170.706 134.017C170.676 133.953 170.655 133.862 170.667 133.765L172.57 134.003C172.647 133.382 172.323 132.917 172.018 132.648C171.717 132.382 171.345 132.215 171.008 132.118C170.667 132.02 170.281 131.971 169.915 132.008C169.587 132.04 169.061 132.165 168.723 132.629L170.273 133.757ZM170.673 133.725C169.773 139.076 169.23 148.11 169.082 157.242L170.999 157.273C171.147 148.159 171.689 139.244 172.564 134.043L170.673 133.725ZM169.612 158.115C171.07 158.844 172.623 159.718 174.166 160.564L175.087 158.883C173.573 158.052 171.97 157.151 170.469 156.4L169.612 158.115ZM175.027 160.594C178.786 158.867 183.803 155.449 187.862 151.591L186.541 150.202C182.611 153.938 177.765 157.226 174.226 158.852L175.027 160.594ZM187.855 151.597C189.023 150.507 191.002 148.258 192.693 145.807C193.541 144.578 194.332 143.275 194.915 142.022C195.489 140.788 195.902 139.515 195.902 138.371H193.985C193.985 139.101 193.707 140.072 193.176 141.214C192.654 142.337 191.926 143.543 191.115 144.718C189.49 147.075 187.598 149.214 186.547 150.196L187.855 151.597ZM195.902 138.371C195.902 137.707 195.779 137.072 195.411 136.482L193.785 137.498C193.91 137.698 193.985 137.95 193.985 138.371H195.902ZM195.411 136.482C195.365 136.408 195.42 136.446 195.397 136.593C195.383 136.679 195.339 136.806 195.226 136.921C195.109 137.039 194.976 137.087 194.881 137.101L194.61 135.203C194.344 135.241 194.074 135.358 193.859 135.576C193.648 135.791 193.542 136.051 193.504 136.29C193.431 136.746 193.585 137.178 193.785 137.498L195.411 136.482ZM194.903 137.097C194.857 137.105 194.821 137.105 194.802 137.104C194.781 137.102 194.769 137.099 194.766 137.099C194.76 137.097 194.769 137.099 194.785 137.108C194.8 137.117 194.809 137.126 194.811 137.127C194.812 137.129 194.798 137.115 194.785 137.08L196.58 136.407C196.409 135.951 196.068 135.638 195.755 135.455C195.459 135.281 195.032 135.133 194.588 135.207L194.903 137.097ZM194.802 137.121C195.041 137.679 195.168 138.338 195.168 139.012H197.085C197.085 138.108 196.917 137.189 196.564 136.366L194.802 137.121ZM195.168 139.012C195.168 140.988 194.208 143.354 192.772 145.67C191.352 147.961 189.544 150.081 188.019 151.534L189.342 152.922C190.973 151.367 192.888 149.122 194.402 146.68C195.9 144.262 197.085 141.524 197.085 139.012H195.168ZM188.02 151.533C184.055 155.305 178.965 158.551 175.653 160.087L176.46 161.826C179.954 160.205 185.219 156.843 189.341 152.922L188.02 151.533ZM175.511 161.745C183.453 167.235 188.784 171.587 196.534 179.337L197.889 177.981C190.056 170.149 184.637 165.723 176.602 160.168L175.511 161.745ZM196.534 179.337C196.588 179.392 196.517 179.353 196.503 179.192C196.495 179.098 196.509 178.968 196.583 178.836C196.658 178.703 196.76 178.627 196.832 178.591L197.689 180.306C197.91 180.195 198.117 180.021 198.256 179.772C198.395 179.525 198.433 179.262 198.413 179.026C198.374 178.581 198.131 178.223 197.889 177.981L196.534 179.337ZM196.768 178.626C196.842 178.582 196.898 178.572 196.916 178.57C196.938 178.567 196.95 178.569 196.956 178.57C196.962 178.571 197.011 178.583 197.055 178.644L195.495 179.759C195.785 180.165 196.203 180.374 196.58 180.45C196.935 180.521 197.377 180.497 197.754 180.27L196.768 178.626ZM196.952 178.524C192.81 174.381 183.538 166.649 174.912 160.898L173.848 162.493C182.383 168.183 191.554 175.836 195.597 179.879L196.952 178.524ZM174.087 160.783C172.799 161.197 171.359 161.431 169.959 161.477L170.023 163.393C171.582 163.341 173.2 163.082 174.673 162.608L174.087 160.783ZM169.033 162.435C169.033 168.655 169.18 174.661 169.629 179.149L171.537 178.958C171.098 174.57 170.95 168.643 170.95 162.435H169.033ZM169.761 179.547L169.909 179.793L171.553 178.807L171.405 178.561L169.761 179.547ZM169.772 179.3C169.772 179.3 169.772 179.291 169.774 179.276C169.776 179.261 169.78 179.237 169.788 179.207C169.806 179.144 169.842 179.062 169.908 178.982C170.048 178.814 170.202 178.795 170.179 178.799L170.494 180.69C170.767 180.644 171.118 180.526 171.381 180.21C171.643 179.895 171.689 179.538 171.689 179.3H169.772ZM170.423 178.789C170.535 178.8 170.564 178.843 170.496 178.792C170.436 178.748 170.351 178.668 170.244 178.546C170.003 178.27 169.847 178.026 169.614 177.726L168.1 178.902C168.212 179.046 168.524 179.492 168.801 179.808C168.953 179.981 169.14 180.173 169.354 180.332C169.56 180.485 169.866 180.664 170.25 180.699L170.423 178.789ZM161.238 158.043C161.53 158.957 162.29 159.715 163.138 160.285C164.011 160.871 165.101 161.344 166.252 161.638L166.728 159.781C165.759 159.533 164.876 159.142 164.208 158.693C163.515 158.228 163.165 157.777 163.063 157.459L161.238 158.043ZM166.215 161.628C166.817 161.808 167.459 161.863 167.981 161.911L168.155 160.001C167.592 159.95 167.149 159.907 166.765 159.791L166.215 161.628ZM169.027 160.956V158.392H167.109V160.956H169.027ZM168.482 157.527C167.343 156.983 166.155 156.445 165.121 156.087C164.604 155.908 164.096 155.764 163.634 155.691C163.196 155.621 162.679 155.595 162.214 155.766L162.876 157.565C162.868 157.569 162.896 157.557 162.982 157.555C163.066 157.553 163.182 157.56 163.334 157.584C163.641 157.633 164.031 157.738 164.494 157.898C165.419 158.219 166.525 158.716 167.654 159.257L168.482 157.527ZM162.242 155.757C161.586 155.975 161.321 156.526 161.23 156.915C161.141 157.291 161.169 157.66 161.202 157.886L163.099 157.615C163.092 157.565 163.087 157.509 163.087 157.456C163.087 157.402 163.093 157.368 163.096 157.354C163.099 157.339 163.094 157.373 163.054 157.427C163.033 157.455 163.003 157.486 162.965 157.514C162.926 157.543 162.885 157.563 162.848 157.575L162.242 155.757ZM172.294 159.458L170.42 158.521L169.562 160.235L171.436 161.172L172.294 159.458ZM169.033 159.378V160.956H170.95V159.378H169.033ZM170.065 161.912C170.76 161.858 171.433 161.749 172.119 161.52L171.513 159.702C171.015 159.867 170.505 159.955 169.918 160L170.065 161.912ZM172.774 160.611C172.774 160.665 172.768 160.702 172.766 160.714C172.764 160.722 172.763 160.725 172.77 160.695C172.775 160.676 172.789 160.623 172.799 160.566C172.811 160.505 172.824 160.418 172.824 160.315H170.906C170.906 160.261 170.913 160.224 170.915 160.212C170.917 160.204 170.918 160.201 170.91 160.23C170.906 160.25 170.892 160.303 170.881 160.36C170.87 160.421 170.857 160.508 170.857 160.611H172.774ZM209.603 161.646L209.3 160.737L209.288 160.741L209.276 160.746L209.603 161.646ZM202.305 162.337L202.352 161.379L200.987 161.312L201.389 162.619L202.305 162.337ZM202.404 164.457L201.464 164.269L201.462 164.278L201.46 164.287L202.404 164.457ZM197.67 168.008L197.732 167.051L197.721 167.051L197.67 168.008ZM194.366 165L193.42 165.157L193.422 165.168L194.366 165ZM196.437 160.167V159.209H196.275L196.122 159.262L196.437 160.167ZM196.683 160.118V161.076H197.406L197.605 160.381L196.683 160.118ZM198.212 158.934L198.352 157.986L198.306 157.979L198.26 157.977L198.212 158.934ZM201.368 160.66L200.632 161.274L200.876 161.567L201.254 161.612L201.368 160.66ZM209.702 160.66V161.619H209.718L209.735 161.618L209.702 160.66ZM197.423 161.252L198.007 162.012L198.057 161.974L198.101 161.93L197.423 161.252ZM196.092 164.852L197.036 164.689L197.035 164.683L196.092 164.852ZM197.818 166.775L197.774 165.817L197.767 165.818L197.818 166.775ZM200.283 162.09L201.159 161.701L200.951 161.234L200.447 161.146L200.283 162.09ZM197.522 161.153L198.04 160.347L197.39 159.929L196.844 160.476L197.522 161.153ZM209.276 160.746C208.847 160.902 207.87 161.102 206.572 161.242C205.3 161.379 203.797 161.451 202.352 161.379L202.258 163.294C203.821 163.371 205.425 163.294 206.778 163.148C208.107 163.005 209.275 162.786 209.931 162.547L209.276 160.746ZM201.389 162.619C201.54 163.109 201.58 163.687 201.464 164.269L203.343 164.645C203.523 163.748 203.465 162.847 203.221 162.055L201.389 162.619ZM201.46 164.287C201.117 166.195 199.597 167.173 197.732 167.051L197.607 168.964C200.278 169.138 202.803 167.651 203.347 164.627L201.46 164.287ZM197.721 167.051C196.437 166.981 195.496 165.876 195.309 164.831L193.422 165.168C193.729 166.885 195.253 168.837 197.618 168.965L197.721 167.051ZM195.311 164.842C195.178 164.041 195.357 163.129 195.715 162.359C195.892 161.98 196.1 161.663 196.304 161.433C196.517 161.192 196.68 161.097 196.752 161.072L196.122 159.262C195.627 159.434 195.204 159.783 194.869 160.162C194.524 160.551 194.22 161.029 193.978 161.55C193.498 162.58 193.209 163.887 193.42 165.157L195.311 164.842ZM196.437 161.126C196.657 161.126 196.826 161.064 196.863 161.052C196.9 161.04 196.805 161.076 196.683 161.076V159.159C196.463 159.159 196.294 159.221 196.257 159.233C196.22 159.245 196.315 159.209 196.437 159.209V161.126ZM197.605 160.381C197.688 160.092 197.762 159.989 197.801 159.954C197.814 159.942 197.832 159.928 197.872 159.916C197.917 159.902 198.007 159.884 198.164 159.892L198.26 157.977C197.572 157.943 196.967 158.116 196.502 158.544C196.073 158.939 195.876 159.454 195.762 159.854L197.605 160.381ZM198.072 159.882C199.173 160.046 200.045 160.57 200.632 161.274L202.104 160.047C201.212 158.975 199.914 158.217 198.352 157.986L198.072 159.882ZM201.254 161.612C202.536 161.766 203.858 161.816 205.017 161.816V159.899C203.908 159.899 202.666 159.851 201.482 159.708L201.254 161.612ZM205.017 161.816C206.202 161.816 207.283 161.766 208.119 161.716C209.001 161.663 209.517 161.619 209.702 161.619V159.702C209.443 159.702 208.775 159.756 208.005 159.802C207.189 159.851 206.15 159.899 205.017 159.899V161.816ZM209.735 161.618C210.055 161.607 210.141 161.644 210.104 161.63C210.082 161.621 209.94 161.563 209.82 161.388C209.675 161.177 209.655 160.929 209.708 160.735C209.751 160.577 209.828 160.497 209.835 160.49C209.848 160.475 209.841 160.486 209.796 160.516C209.706 160.574 209.542 160.656 209.3 160.737L209.906 162.556C210.256 162.439 210.579 162.293 210.842 162.122C210.973 162.037 211.109 161.933 211.228 161.806C211.341 161.687 211.487 161.498 211.557 161.239C211.638 160.943 211.604 160.601 211.402 160.305C211.225 160.046 210.981 159.915 210.808 159.846C210.471 159.713 210.064 159.689 209.669 159.702L209.735 161.618ZM196.839 160.492C196.336 160.879 195.859 161.601 195.543 162.343C195.22 163.101 194.979 164.077 195.148 165.02L197.035 164.683C196.957 164.246 197.062 163.668 197.306 163.095C197.557 162.506 197.869 162.118 198.007 162.012L196.839 160.492ZM195.147 165.015C195.282 165.796 195.521 166.507 195.99 167.017C196.509 167.581 197.182 167.768 197.868 167.732L197.767 165.818C197.516 165.831 197.45 165.772 197.401 165.719C197.303 165.613 197.148 165.338 197.036 164.689L195.147 165.015ZM197.861 167.732C199.4 167.662 200.479 166.627 201.026 165.472C201.567 164.33 201.687 162.888 201.159 161.701L199.407 162.48C199.669 163.068 199.64 163.919 199.294 164.651C198.953 165.369 198.405 165.789 197.774 165.817L197.861 167.732ZM200.447 161.146C199.367 160.958 198.575 160.691 198.04 160.347L197.003 161.96C197.849 162.504 198.931 162.828 200.119 163.035L200.447 161.146ZM196.844 160.476L196.745 160.574L198.101 161.93L198.199 161.831L196.844 160.476ZM209.7 167.712L209.272 168.569L209.307 168.587L209.344 168.602L209.7 167.712ZM209.75 166.43L209.537 167.364L209.542 167.365L209.75 166.43ZM216.209 166.035L216.425 166.969L218.959 166.385L216.652 165.185L216.209 166.035ZM212.117 163.915L211.638 164.745L211.646 164.75L211.655 164.755L212.117 163.915ZM209.256 161.203L210.207 161.076L210.205 161.068L210.204 161.06L209.256 161.203ZM216.752 156.666L216.633 155.715L216.622 155.716L216.752 156.666ZM218.133 157.997L218.45 158.902L218.71 158.811L218.881 158.596L218.133 157.997ZM211.278 160.759L212.159 161.136L212.161 161.132L211.278 160.759ZM213.103 162.534L212.61 163.356L212.624 163.365L212.639 163.373L213.103 162.534ZM217.442 165.098L218.069 164.373L218.055 164.361L218.041 164.35L217.442 165.098ZM216.308 167.761L216.059 166.836L216.052 166.838L216.308 167.761ZM210.129 166.855C210.161 166.871 210.135 166.864 210.09 166.801C210.046 166.738 210.04 166.699 210.043 166.719C210.045 166.732 210.054 166.793 210.03 166.884C210.005 166.985 209.942 167.114 209.818 167.218C209.575 167.423 209.371 167.327 209.537 167.364L209.962 165.495C209.585 165.409 209.031 165.375 208.584 165.751C208.114 166.146 208.1 166.702 208.149 167.016C208.202 167.35 208.35 167.66 208.522 167.904C208.693 168.146 208.943 168.405 209.272 168.569L210.129 166.855ZM209.542 167.365C210.075 167.484 210.692 167.536 211.377 167.536V165.619C210.78 165.619 210.312 165.573 209.957 165.494L209.542 167.365ZM211.377 167.536C213.03 167.536 215.075 167.281 216.425 166.969L215.994 165.101C214.78 165.381 212.88 165.619 211.377 165.619V167.536ZM216.652 165.185C215.39 164.529 213.553 163.611 212.578 163.075L211.655 164.755C212.652 165.303 214.563 166.259 215.767 166.886L216.652 165.185ZM212.596 163.085C211.845 162.652 211.327 162.426 210.858 162.071C210.461 161.772 210.261 161.485 210.207 161.076L208.306 161.329C208.449 162.399 209.038 163.099 209.702 163.601C210.293 164.047 211.106 164.438 211.638 164.745L212.596 163.085ZM210.204 161.06C210.163 160.786 210.248 160.478 210.607 160.095C210.978 159.698 211.571 159.307 212.324 158.949C213.825 158.237 215.698 157.778 216.882 157.616L216.622 155.716C215.291 155.899 213.219 156.402 211.502 157.218C210.646 157.624 209.812 158.139 209.208 158.785C208.591 159.443 208.153 160.312 208.309 161.346L210.204 161.06ZM216.871 157.617C216.863 157.618 216.903 157.613 216.989 157.649C217.073 157.683 217.158 157.739 217.223 157.802C217.295 157.871 217.294 157.9 217.281 157.857C217.272 157.83 217.256 157.765 217.268 157.673C217.281 157.575 217.321 157.478 217.384 157.399L218.881 158.596C219.229 158.162 219.228 157.655 219.108 157.278C218.996 156.924 218.773 156.632 218.549 156.418C218.125 156.011 217.408 155.618 216.633 155.715L216.871 157.617ZM217.815 157.093C217.397 157.24 216.81 157.403 216.114 157.595C215.433 157.782 214.665 157.992 213.935 158.224C213.21 158.454 212.482 158.718 211.885 159.023C211.586 159.176 211.294 159.353 211.044 159.559C210.799 159.76 210.545 160.031 210.395 160.385L212.161 161.132C212.147 161.166 212.151 161.13 212.263 161.038C212.37 160.95 212.532 160.846 212.758 160.73C213.212 160.497 213.821 160.271 214.515 160.051C215.202 159.833 215.932 159.633 216.623 159.443C217.297 159.257 217.956 159.075 218.45 158.902L217.815 157.093ZM210.397 160.381C210.2 160.842 210.249 161.305 210.451 161.69C210.627 162.025 210.901 162.272 211.127 162.444C211.553 162.771 212.207 163.115 212.61 163.356L213.596 161.712C213.348 161.564 213.053 161.399 212.843 161.276C212.608 161.139 212.427 161.026 212.293 160.923C212.148 160.812 212.133 160.769 212.148 160.799C212.191 160.879 212.209 161.021 212.159 161.136L210.397 160.381ZM212.639 163.373C214.583 164.447 215.941 165.125 216.843 165.847L218.041 164.35C216.971 163.493 215.37 162.692 213.566 161.695L212.639 163.373ZM216.816 165.824C216.941 165.932 216.955 166.001 216.958 166.02C216.962 166.047 216.964 166.11 216.91 166.215C216.79 166.448 216.475 166.724 216.059 166.836L216.557 168.687C217.423 168.454 218.218 167.866 218.616 167.089C218.821 166.688 218.933 166.209 218.848 165.703C218.762 165.188 218.486 164.733 218.069 164.373L216.816 165.824ZM216.052 166.838C215.272 167.054 214.081 167.197 212.856 167.197V169.114C214.195 169.114 215.569 168.961 216.565 168.685L216.052 166.838ZM212.856 167.197C211.664 167.197 210.626 167.05 210.056 166.822L209.344 168.602C210.254 168.966 211.583 169.114 212.856 169.114V167.197ZM223.344 181.667L222.429 181.955L222.432 181.963L222.434 181.97L223.344 181.667ZM222.702 158.244L223.661 158.268L223.661 158.264L222.702 158.244ZM222.998 150.009L223.956 150.056L224.01 148.962L222.918 149.054L222.998 150.009ZM211.114 151.34L211.264 152.287L211.271 152.286L211.279 152.284L211.114 151.34ZM209.98 150.009L209.807 149.066L209.784 149.07L209.76 149.076L209.98 150.009ZM223.048 148.48L223.125 149.435L223.962 149.367L224.005 148.529L223.048 148.48ZM223.689 137.681L224.645 137.742L224.649 137.682L224.645 137.621L223.689 137.681ZM225.711 138.174L226.66 138.307L226.679 138.169L226.658 138.032L225.711 138.174ZM224.872 148.332L223.915 148.283L223.863 149.291H224.872V148.332ZM226.302 148.234L226.235 147.277L226.221 147.278L226.207 147.28L226.302 148.234ZM248.098 148.036L248.488 147.16L248.4 147.121L248.306 147.101L248.098 148.036ZM249.232 149.023L250.184 148.904L250.156 148.679L250.03 148.491L249.232 149.023ZM248.641 149.565L248.453 150.505L248.487 150.512L248.522 150.516L248.641 149.565ZM225.908 149.762L225.832 148.807L225.811 148.808L225.789 148.811L225.908 149.762ZM224.774 149.861V148.902H223.854L223.816 149.821L224.774 149.861ZM224.428 158.145L223.471 158.105L223.47 158.118L223.47 158.13L224.428 158.145ZM225.069 182.604L226.02 182.48L226.011 182.413L225.993 182.349L225.069 182.604ZM224.258 181.38C224.158 181.061 224.05 180.359 223.954 179.287C223.861 178.246 223.786 176.94 223.728 175.471C223.612 172.536 223.562 168.986 223.562 165.69H221.645C221.645 169.001 221.695 172.578 221.813 175.547C221.871 177.031 221.948 178.372 222.044 179.457C222.138 180.51 222.258 181.41 222.429 181.955L224.258 181.38ZM223.562 165.69C223.562 162.84 223.612 160.186 223.661 158.268L221.744 158.219C221.695 160.148 221.645 162.82 221.645 165.69H223.562ZM223.661 158.264C223.71 155.956 223.808 153.055 223.956 150.056L222.041 149.962C221.893 152.978 221.794 155.897 221.744 158.224L223.661 158.264ZM222.918 149.054C218.839 149.398 214.945 149.697 210.949 150.396L211.279 152.284C215.173 151.603 218.972 151.31 223.079 150.964L222.918 149.054ZM210.965 150.393C210.968 150.393 210.924 150.399 210.835 150.356C210.746 150.314 210.666 150.248 210.619 150.192C210.596 150.165 210.594 150.155 210.6 150.169C210.605 150.179 210.634 150.248 210.629 150.361C210.624 150.492 210.573 150.651 210.45 150.783C210.337 150.904 210.224 150.936 210.199 150.942L209.76 149.076C209.526 149.131 209.262 149.246 209.049 149.475C208.826 149.713 208.726 150.004 208.714 150.28C208.693 150.772 208.944 151.176 209.144 151.416C209.548 151.903 210.35 152.431 211.264 152.287L210.965 150.393ZM210.153 150.952C213.606 150.319 217.069 149.928 223.125 149.435L222.97 147.525C216.896 148.019 213.356 148.416 209.807 149.066L210.153 150.952ZM224.005 148.529C224.202 144.69 224.448 140.799 224.645 137.742L222.732 137.619C222.535 140.677 222.288 144.578 222.09 148.431L224.005 148.529ZM224.645 137.621C224.652 137.727 224.624 137.872 224.528 138.003C224.441 138.121 224.344 138.167 224.308 138.18C224.273 138.194 224.267 138.189 224.3 138.188C224.331 138.187 224.379 138.19 224.438 138.201C224.563 138.227 224.674 138.278 224.741 138.329C224.805 138.379 224.772 138.38 224.763 138.316L226.658 138.032C226.575 137.474 226.247 137.069 225.91 136.81C225.575 136.553 225.181 136.395 224.814 136.322C224.462 136.251 224.021 136.236 223.618 136.392C223.407 136.473 223.166 136.618 222.983 136.867C222.791 137.129 222.713 137.437 222.732 137.74L224.645 137.621ZM224.761 138.041C224.41 140.55 224.113 144.43 223.915 148.283L225.829 148.381C226.026 144.542 226.321 140.729 226.66 138.307L224.761 138.041ZM224.872 149.291C225.373 149.291 225.916 149.235 226.398 149.187L226.207 147.28C225.702 147.33 225.259 147.374 224.872 147.374V149.291ZM226.37 149.19C230.578 148.893 236.158 148.452 240.948 148.452V146.535C236.073 146.535 230.41 146.983 226.235 147.277L226.37 149.19ZM240.948 148.452C243.747 148.452 246.223 148.601 247.89 148.972L248.306 147.101C246.423 146.682 243.771 146.535 240.948 146.535V148.452ZM247.709 148.912C247.801 148.953 247.948 149.052 248.113 149.202C248.275 149.349 248.391 149.488 248.435 149.554L250.03 148.491C249.877 148.261 249.647 148.005 249.403 147.783C249.161 147.563 248.84 147.317 248.488 147.16L247.709 148.912ZM248.281 149.141C248.279 149.124 248.27 148.917 248.469 148.741C248.643 148.588 248.798 148.619 248.76 148.614L248.522 150.516C248.878 150.561 249.354 150.517 249.737 150.179C250.146 149.818 250.235 149.316 250.184 148.904L248.281 149.141ZM248.829 148.625C246.516 148.162 243.68 148.015 240.701 148.015V149.932C243.641 149.932 246.327 150.08 248.453 150.505L248.829 148.625ZM240.701 148.015C235.379 148.015 229.568 148.512 225.832 148.807L225.983 150.718C229.743 150.421 235.471 149.932 240.701 149.932V148.015ZM225.789 148.811C225.372 148.863 225.095 148.902 224.774 148.902V150.819C225.241 150.819 225.655 150.76 226.027 150.713L225.789 148.811ZM223.816 149.821L223.471 158.105L225.386 158.185L225.731 149.901L223.816 149.821ZM223.47 158.13C223.421 161.262 223.273 165.929 223.273 170.424H225.19C225.19 165.945 225.337 161.34 225.387 158.16L223.47 158.13ZM223.273 170.424C223.273 172.949 223.322 175.436 223.453 177.589C223.583 179.723 223.796 181.597 224.146 182.86L225.993 182.349C225.702 181.294 225.496 179.593 225.367 177.473C225.239 175.373 225.19 172.929 225.19 170.424H223.273ZM224.119 182.728C224.127 182.791 224.106 182.728 224.151 182.606C224.209 182.446 224.353 182.264 224.585 182.18C224.773 182.113 224.91 182.149 224.926 182.153C224.951 182.16 224.939 182.16 224.888 182.13C224.788 182.069 224.647 181.952 224.513 181.792C224.378 181.632 224.291 181.478 224.253 181.364L222.434 181.97C222.69 182.737 223.325 183.424 223.895 183.769C224.048 183.862 224.231 183.952 224.433 184.006C224.626 184.057 224.921 184.097 225.237 183.983C225.596 183.853 225.839 183.575 225.953 183.258C226.054 182.98 226.049 182.7 226.02 182.48L224.119 182.728Z" fill="white" mask="url(#path-1-outside-1_408_102)"/>
<path d="M41.1372 136.557V82.8057" stroke="white" stroke-width="5.30876"/>
<path d="M17.2476 104.041L124.75 4.50147L232.917 104.041" stroke="white" stroke-width="5.30876"/>
<path d="M209.026 137.221V82.8057" stroke="white" stroke-width="5.30876"/>
<path d="M40.4731 183.672V196.944H209.69V182.345" stroke="white" stroke-width="5.30876"/>
<path d="M102.188 85.3499C102.188 77.2507 106.252 61.0521 122.509 59.0273C123.322 59.0273 122.509 76.5757 122.509 85.3499H102.188Z" stroke="white" stroke-width="2"/>
<path d="M126.63 85.3498H147.312C145.999 77.2023 140.025 60.5313 126.63 59.0271V85.3498Z" stroke="white" stroke-width="2"/>
<rect x="103.188" y="90.11" width="18.6821" height="16.8019" stroke="white" stroke-width="2"/>
<rect x="127.63" y="90.11" width="18.6821" height="16.8019" stroke="white" stroke-width="2"/>
</svg>
