<svg width="250" height="210" viewBox="0 0 250 210" fill="none" xmlns="http://www.w3.org/2000/svg">
<mask id="path-1-outside-1_408_115" maskUnits="userSpaceOnUse" x="0.034668" y="131.417" width="250" height="53" fill="black">
<rect fill="white" x="0.034668" y="131.417" width="250" height="53"/>
<path d="M36.3158 169.699C34.3433 160.675 32.9132 151.799 32.1735 143.268C26.5519 162.351 12.4486 178.427 1.45199 173.348C1.05749 173.003 1.00818 172.559 1.5013 172.707C15.9498 177.194 28.2286 152.045 30.99 142.084C31.1873 141.344 31.2366 140.309 31.3352 139.717C31.2859 139.668 31.3352 139.618 31.3352 139.569C31.4832 138.879 33.1105 139.865 33.3077 140.802C34.4419 147.656 34.9843 156.927 37.0554 165.409C40.458 156.976 49.7287 136.758 51.7012 135.082C52.4902 134.046 53.8709 135.427 53.8216 136.413C53.0819 144.057 52.5888 149.974 52.5888 156.138C52.5888 157.371 52.5888 158.554 52.6381 159.787C52.934 169.502 54.4627 176.603 58.1611 177.786C58.457 177.885 58.5556 178.427 57.9639 178.427C52.3916 178.427 51.2081 166.987 50.8629 160.083C50.8136 158.801 50.7643 157.469 50.7643 156.138C50.7643 150.073 51.356 143.415 51.9478 137.547C49.4821 141.394 40.2114 161.365 37.8938 167.776C37.9431 169.009 36.8089 170.143 36.3158 169.699ZM57.8529 166.247C57.1132 165.458 56.768 163.781 56.768 162.154C56.768 160.625 57.0639 159.097 57.6063 158.258C57.6556 158.012 58.1488 157.963 58.7405 158.111C59.283 158.308 59.5788 158.702 59.5295 158.949C59.135 159.343 58.1488 164.916 58.8885 165.557C59.283 165.853 59.7761 166 60.3185 166C63.3759 166 68.603 162.055 70.0823 160.576C70.2796 160.379 70.7727 160.675 70.181 161.76C69.244 163.486 64.7566 167.381 61.3541 167.529C60.1213 167.578 58.7898 167.283 57.8529 166.247ZM58.8885 154.807C58.2967 154.609 58.0008 154.166 58.2474 153.968C58.346 153.82 58.6912 152.834 58.7898 152.588L58.8885 151.848C58.8885 151.552 59.4309 151.453 59.924 151.651C60.5651 151.799 60.9596 152.193 60.8609 152.44C60.8609 152.637 60.8609 152.982 60.713 153.278C60.6144 153.524 60.2199 154.609 60.072 154.856C59.924 155.053 59.3323 155.053 58.8885 154.807ZM70.0434 165.409C69.9941 164.669 69.9448 163.929 69.9448 163.239C69.9448 161.661 70.0927 160.231 70.29 158.998C70.4379 158.16 72.0652 159.245 71.9173 159.886C71.9666 161.168 71.7694 162.055 71.8187 163.683C73.5446 161.809 75.2212 159.836 77.3416 158.801C77.7361 158.604 78.5745 159.097 78.969 159.639C79.5114 160.921 79.5607 161.957 80.0045 163.683L84.7878 159.787C85.133 159.541 86.0699 160.034 86.4151 160.576C86.9082 161.562 87.1548 163.338 88.141 164.176C88.6835 164.521 89.2752 164.768 89.9656 164.768C91.5436 164.768 96.9186 162.351 97.609 161.168C97.7569 160.921 98.398 161.316 97.8062 162.401C97.0666 163.732 93.8613 166.148 91.0505 166.148C90.0149 166.148 88.8314 165.853 87.7465 165.162C87.0069 164.669 86.5137 164.077 86.0699 163.486C85.7247 162.992 85.4782 162.45 85.3302 162.006C83.1112 163.831 81.8784 164.817 80.5469 165.705C80.1524 165.902 79.2155 165.409 78.9196 164.866C78.4265 163.781 78.1306 162.647 77.6868 160.724C75.1719 162.351 73.7912 164.965 71.868 166.642C71.4735 166.987 70.1914 166 70.0434 165.409ZM97.871 166.247C97.1313 165.458 96.7861 163.781 96.7861 162.154C96.7861 160.625 97.082 159.097 97.6244 158.258C97.6737 158.012 98.1668 157.963 98.7586 158.111C99.301 158.308 99.5969 158.702 99.5476 158.949C99.1531 159.343 98.1668 164.916 98.9065 165.557C99.301 165.853 99.7941 166 100.337 166C103.394 166 108.621 162.055 110.1 160.576C110.298 160.379 110.791 160.675 110.199 161.76C109.262 163.486 104.775 167.381 101.372 167.529C100.139 167.578 98.8079 167.283 97.871 166.247ZM98.9065 154.807C98.3148 154.609 98.0189 154.166 98.2655 153.968C98.3641 153.82 98.7093 152.834 98.8079 152.588L98.9065 151.848C98.9065 151.552 99.449 151.453 99.9421 151.651C100.583 151.799 100.978 152.193 100.879 152.44C100.879 152.637 100.879 152.982 100.731 153.278C100.632 153.524 100.238 154.609 100.09 154.856C99.9421 155.053 99.3503 155.053 98.9065 154.807ZM119.036 160.675C115.387 161.069 111.837 163.436 110.9 165.507L110.85 166.642C110.9 167.283 109.174 166.839 109.125 166.05C109.075 165.655 109.026 165.162 109.125 164.57L109.618 159.639C109.618 159.294 110.111 159.245 110.604 159.442C110.998 159.689 111.442 160.132 111.393 160.428L111.294 162.105C112.971 160.872 116.521 159.097 119.283 159.393C120.22 159.491 121.107 160.379 121.107 161.119C121.107 161.612 120.96 162.351 120.91 163.14C120.91 163.732 121.354 164.176 122.044 164.373C123.08 164.669 124.707 164.768 126.729 164.768C132.548 164.768 141.03 163.781 143.249 163.14C143.594 163.042 145.418 162.598 145.665 162.992C146.059 163.387 143.988 164.176 143.643 164.275C140.142 165.409 132.942 166.592 127.469 166.592C125.743 166.592 124.214 166.444 122.981 166.198C122.143 165.951 118.642 165.211 119.036 160.675ZM168.644 178.082C168.25 174.186 167.954 168.417 167.855 162.203C167.362 162.154 166.869 162.055 166.376 161.957C163.269 161.365 160.754 159.294 160.705 157.026C160.655 156.089 161.444 154.955 162.184 154.708C163.368 154.412 165.439 155.053 167.855 156.089C167.904 147.36 168.348 138.534 169.285 132.961C169.68 132.419 171.504 132.863 171.406 133.652C170.518 138.928 169.976 147.903 169.828 157.026C171.307 157.765 172.885 158.653 174.414 159.491C178.063 157.815 182.994 154.461 186.988 150.664C189.207 148.593 194.73 141.887 194.73 138.139C194.73 137.597 194.632 137.153 194.385 136.758C194.139 136.364 194.188 135.969 194.533 135.92C194.829 135.871 195.322 136.117 195.47 136.512C195.766 137.202 195.914 137.991 195.914 138.78C195.914 143.268 191.624 148.988 188.468 151.996C184.424 155.842 179.246 159.146 175.844 160.724C183.832 166.247 189.207 170.636 196.999 178.427C197.295 178.723 197.344 179.068 197.048 179.216C196.801 179.364 196.308 179.315 196.062 178.97C191.969 174.877 182.747 167.184 174.167 161.464C172.786 161.908 171.258 162.154 169.778 162.203C169.778 168.417 169.926 174.384 170.37 178.822L170.518 179.068C170.518 179.315 170.419 179.463 170.123 179.512C169.581 179.463 168.989 178.526 168.644 178.082ZM161.938 157.519C162.332 158.752 164.157 159.935 166.277 160.478C166.77 160.625 167.313 160.675 167.855 160.724V158.16C165.587 157.075 163.269 156.089 162.332 156.434C161.888 156.582 161.888 157.174 161.938 157.519ZM171.652 160.083L169.778 159.146V160.724C170.419 160.675 171.011 160.576 171.603 160.379C171.603 160.28 171.652 160.182 171.652 160.083ZM209.39 161.414C208.305 161.809 205.1 162.253 202.092 162.105C202.289 162.746 202.339 163.486 202.191 164.225C201.747 166.691 199.725 167.924 197.457 167.776C195.632 167.677 194.399 166.148 194.153 164.768C193.808 162.697 195.09 160.33 196.224 159.935C196.323 159.935 196.372 159.886 196.47 159.886C196.668 159.195 197.013 158.653 197.999 158.702C199.331 158.9 200.415 159.541 201.155 160.428C202.388 160.576 203.67 160.625 204.804 160.625C207.122 160.625 209.045 160.428 209.489 160.428C210.919 160.379 210.574 161.02 209.39 161.414ZM197.21 161.02C196.569 161.513 195.632 163.239 195.879 164.62C196.125 166.05 196.668 166.592 197.605 166.543C199.774 166.444 200.859 163.633 200.07 161.858C198.936 161.661 197.999 161.365 197.309 160.921L197.21 161.02ZM209.487 167.48C208.896 167.184 208.452 165.951 209.537 166.198C209.98 166.296 210.523 166.346 211.164 166.346C212.742 166.346 214.714 166.099 215.997 165.803C214.764 165.162 212.89 164.225 211.904 163.683C210.622 162.943 209.241 162.45 209.044 160.971C208.649 158.357 214.024 156.779 216.539 156.434C217.328 156.335 218.314 157.272 217.92 157.765C216.095 158.406 211.608 159.245 211.065 160.527C210.769 161.217 211.904 161.71 212.89 162.302C214.764 163.338 216.243 164.077 217.229 164.866C218.314 165.803 217.377 167.184 216.095 167.529C215.208 167.776 213.925 167.924 212.643 167.924C211.411 167.924 210.227 167.776 209.487 167.48ZM223.131 181.435C222.588 179.709 222.391 172.066 222.391 165.458C222.391 162.598 222.44 159.935 222.49 158.012C222.539 155.694 222.638 152.785 222.785 149.777C218.693 150.122 214.846 150.418 210.901 151.108C209.964 151.256 208.929 149.974 209.767 149.777C213.268 149.136 216.769 148.741 222.835 148.248C223.032 144.402 223.279 140.506 223.476 137.449C223.427 136.66 225.35 136.956 225.498 137.942C225.152 140.407 224.857 144.254 224.659 148.1C225.103 148.1 225.596 148.051 226.089 148.001C230.281 147.706 235.903 147.262 240.735 147.262C243.546 147.262 246.11 147.41 247.885 147.804C248.329 148.001 248.822 148.495 249.02 148.79C249.069 149.185 248.822 149.382 248.428 149.333C246.209 148.889 243.447 148.741 240.489 148.741C235.212 148.741 229.443 149.234 225.695 149.53C225.3 149.579 224.955 149.629 224.561 149.629L224.216 157.913C224.166 161.069 224.018 165.705 224.018 170.192C224.018 175.222 224.216 180.054 224.857 182.372C225.005 183.506 223.476 182.471 223.131 181.435Z"/>
</mask>
<path d="M36.3158 169.699C34.3433 160.675 32.9132 151.799 32.1735 143.268C26.5519 162.351 12.4486 178.427 1.45199 173.348C1.05749 173.003 1.00818 172.559 1.5013 172.707C15.9498 177.194 28.2286 152.045 30.99 142.084C31.1873 141.344 31.2366 140.309 31.3352 139.717C31.2859 139.668 31.3352 139.618 31.3352 139.569C31.4832 138.879 33.1105 139.865 33.3077 140.802C34.4419 147.656 34.9843 156.927 37.0554 165.409C40.458 156.976 49.7287 136.758 51.7012 135.082C52.4902 134.046 53.8709 135.427 53.8216 136.413C53.0819 144.057 52.5888 149.974 52.5888 156.138C52.5888 157.371 52.5888 158.554 52.6381 159.787C52.934 169.502 54.4627 176.603 58.1611 177.786C58.457 177.885 58.5556 178.427 57.9639 178.427C52.3916 178.427 51.2081 166.987 50.8629 160.083C50.8136 158.801 50.7643 157.469 50.7643 156.138C50.7643 150.073 51.356 143.415 51.9478 137.547C49.4821 141.394 40.2114 161.365 37.8938 167.776C37.9431 169.009 36.8089 170.143 36.3158 169.699ZM57.8529 166.247C57.1132 165.458 56.768 163.781 56.768 162.154C56.768 160.625 57.0639 159.097 57.6063 158.258C57.6556 158.012 58.1488 157.963 58.7405 158.111C59.283 158.308 59.5788 158.702 59.5295 158.949C59.135 159.343 58.1488 164.916 58.8885 165.557C59.283 165.853 59.7761 166 60.3185 166C63.3759 166 68.603 162.055 70.0823 160.576C70.2796 160.379 70.7727 160.675 70.181 161.76C69.244 163.486 64.7566 167.381 61.3541 167.529C60.1213 167.578 58.7898 167.283 57.8529 166.247ZM58.8885 154.807C58.2967 154.609 58.0008 154.166 58.2474 153.968C58.346 153.82 58.6912 152.834 58.7898 152.588L58.8885 151.848C58.8885 151.552 59.4309 151.453 59.924 151.651C60.5651 151.799 60.9596 152.193 60.8609 152.44C60.8609 152.637 60.8609 152.982 60.713 153.278C60.6144 153.524 60.2199 154.609 60.072 154.856C59.924 155.053 59.3323 155.053 58.8885 154.807ZM70.0434 165.409C69.9941 164.669 69.9448 163.929 69.9448 163.239C69.9448 161.661 70.0927 160.231 70.29 158.998C70.4379 158.16 72.0652 159.245 71.9173 159.886C71.9666 161.168 71.7694 162.055 71.8187 163.683C73.5446 161.809 75.2212 159.836 77.3416 158.801C77.7361 158.604 78.5745 159.097 78.969 159.639C79.5114 160.921 79.5607 161.957 80.0045 163.683L84.7878 159.787C85.133 159.541 86.0699 160.034 86.4151 160.576C86.9082 161.562 87.1548 163.338 88.141 164.176C88.6835 164.521 89.2752 164.768 89.9656 164.768C91.5436 164.768 96.9186 162.351 97.609 161.168C97.7569 160.921 98.398 161.316 97.8062 162.401C97.0666 163.732 93.8613 166.148 91.0505 166.148C90.0149 166.148 88.8314 165.853 87.7465 165.162C87.0069 164.669 86.5137 164.077 86.0699 163.486C85.7247 162.992 85.4782 162.45 85.3302 162.006C83.1112 163.831 81.8784 164.817 80.5469 165.705C80.1524 165.902 79.2155 165.409 78.9196 164.866C78.4265 163.781 78.1306 162.647 77.6868 160.724C75.1719 162.351 73.7912 164.965 71.868 166.642C71.4735 166.987 70.1914 166 70.0434 165.409ZM97.871 166.247C97.1313 165.458 96.7861 163.781 96.7861 162.154C96.7861 160.625 97.082 159.097 97.6244 158.258C97.6737 158.012 98.1668 157.963 98.7586 158.111C99.301 158.308 99.5969 158.702 99.5476 158.949C99.1531 159.343 98.1668 164.916 98.9065 165.557C99.301 165.853 99.7941 166 100.337 166C103.394 166 108.621 162.055 110.1 160.576C110.298 160.379 110.791 160.675 110.199 161.76C109.262 163.486 104.775 167.381 101.372 167.529C100.139 167.578 98.8079 167.283 97.871 166.247ZM98.9065 154.807C98.3148 154.609 98.0189 154.166 98.2655 153.968C98.3641 153.82 98.7093 152.834 98.8079 152.588L98.9065 151.848C98.9065 151.552 99.449 151.453 99.9421 151.651C100.583 151.799 100.978 152.193 100.879 152.44C100.879 152.637 100.879 152.982 100.731 153.278C100.632 153.524 100.238 154.609 100.09 154.856C99.9421 155.053 99.3503 155.053 98.9065 154.807ZM119.036 160.675C115.387 161.069 111.837 163.436 110.9 165.507L110.85 166.642C110.9 167.283 109.174 166.839 109.125 166.05C109.075 165.655 109.026 165.162 109.125 164.57L109.618 159.639C109.618 159.294 110.111 159.245 110.604 159.442C110.998 159.689 111.442 160.132 111.393 160.428L111.294 162.105C112.971 160.872 116.521 159.097 119.283 159.393C120.22 159.491 121.107 160.379 121.107 161.119C121.107 161.612 120.96 162.351 120.91 163.14C120.91 163.732 121.354 164.176 122.044 164.373C123.08 164.669 124.707 164.768 126.729 164.768C132.548 164.768 141.03 163.781 143.249 163.14C143.594 163.042 145.418 162.598 145.665 162.992C146.059 163.387 143.988 164.176 143.643 164.275C140.142 165.409 132.942 166.592 127.469 166.592C125.743 166.592 124.214 166.444 122.981 166.198C122.143 165.951 118.642 165.211 119.036 160.675ZM168.644 178.082C168.25 174.186 167.954 168.417 167.855 162.203C167.362 162.154 166.869 162.055 166.376 161.957C163.269 161.365 160.754 159.294 160.705 157.026C160.655 156.089 161.444 154.955 162.184 154.708C163.368 154.412 165.439 155.053 167.855 156.089C167.904 147.36 168.348 138.534 169.285 132.961C169.68 132.419 171.504 132.863 171.406 133.652C170.518 138.928 169.976 147.903 169.828 157.026C171.307 157.765 172.885 158.653 174.414 159.491C178.063 157.815 182.994 154.461 186.988 150.664C189.207 148.593 194.73 141.887 194.73 138.139C194.73 137.597 194.632 137.153 194.385 136.758C194.139 136.364 194.188 135.969 194.533 135.92C194.829 135.871 195.322 136.117 195.47 136.512C195.766 137.202 195.914 137.991 195.914 138.78C195.914 143.268 191.624 148.988 188.468 151.996C184.424 155.842 179.246 159.146 175.844 160.724C183.832 166.247 189.207 170.636 196.999 178.427C197.295 178.723 197.344 179.068 197.048 179.216C196.801 179.364 196.308 179.315 196.062 178.97C191.969 174.877 182.747 167.184 174.167 161.464C172.786 161.908 171.258 162.154 169.778 162.203C169.778 168.417 169.926 174.384 170.37 178.822L170.518 179.068C170.518 179.315 170.419 179.463 170.123 179.512C169.581 179.463 168.989 178.526 168.644 178.082ZM161.938 157.519C162.332 158.752 164.157 159.935 166.277 160.478C166.77 160.625 167.313 160.675 167.855 160.724V158.16C165.587 157.075 163.269 156.089 162.332 156.434C161.888 156.582 161.888 157.174 161.938 157.519ZM171.652 160.083L169.778 159.146V160.724C170.419 160.675 171.011 160.576 171.603 160.379C171.603 160.28 171.652 160.182 171.652 160.083ZM209.39 161.414C208.305 161.809 205.1 162.253 202.092 162.105C202.289 162.746 202.339 163.486 202.191 164.225C201.747 166.691 199.725 167.924 197.457 167.776C195.632 167.677 194.399 166.148 194.153 164.768C193.808 162.697 195.09 160.33 196.224 159.935C196.323 159.935 196.372 159.886 196.47 159.886C196.668 159.195 197.013 158.653 197.999 158.702C199.331 158.9 200.415 159.541 201.155 160.428C202.388 160.576 203.67 160.625 204.804 160.625C207.122 160.625 209.045 160.428 209.489 160.428C210.919 160.379 210.574 161.02 209.39 161.414ZM197.21 161.02C196.569 161.513 195.632 163.239 195.879 164.62C196.125 166.05 196.668 166.592 197.605 166.543C199.774 166.444 200.859 163.633 200.07 161.858C198.936 161.661 197.999 161.365 197.309 160.921L197.21 161.02ZM209.487 167.48C208.896 167.184 208.452 165.951 209.537 166.198C209.98 166.296 210.523 166.346 211.164 166.346C212.742 166.346 214.714 166.099 215.997 165.803C214.764 165.162 212.89 164.225 211.904 163.683C210.622 162.943 209.241 162.45 209.044 160.971C208.649 158.357 214.024 156.779 216.539 156.434C217.328 156.335 218.314 157.272 217.92 157.765C216.095 158.406 211.608 159.245 211.065 160.527C210.769 161.217 211.904 161.71 212.89 162.302C214.764 163.338 216.243 164.077 217.229 164.866C218.314 165.803 217.377 167.184 216.095 167.529C215.208 167.776 213.925 167.924 212.643 167.924C211.411 167.924 210.227 167.776 209.487 167.48ZM223.131 181.435C222.588 179.709 222.391 172.066 222.391 165.458C222.391 162.598 222.44 159.935 222.49 158.012C222.539 155.694 222.638 152.785 222.785 149.777C218.693 150.122 214.846 150.418 210.901 151.108C209.964 151.256 208.929 149.974 209.767 149.777C213.268 149.136 216.769 148.741 222.835 148.248C223.032 144.402 223.279 140.506 223.476 137.449C223.427 136.66 225.35 136.956 225.498 137.942C225.152 140.407 224.857 144.254 224.659 148.1C225.103 148.1 225.596 148.051 226.089 148.001C230.281 147.706 235.903 147.262 240.735 147.262C243.546 147.262 246.11 147.41 247.885 147.804C248.329 148.001 248.822 148.495 249.02 148.79C249.069 149.185 248.822 149.382 248.428 149.333C246.209 148.889 243.447 148.741 240.489 148.741C235.212 148.741 229.443 149.234 225.695 149.53C225.3 149.579 224.955 149.629 224.561 149.629L224.216 157.913C224.166 161.069 224.018 165.705 224.018 170.192C224.018 175.222 224.216 180.054 224.857 182.372C225.005 183.506 223.476 182.471 223.131 181.435Z" fill="#FEBF00"/>
<path d="M36.3158 169.699L35.3793 169.904L35.4452 170.205L35.6745 170.411L36.3158 169.699ZM32.1735 143.268L33.1285 143.185L31.2541 142.997L32.1735 143.268ZM1.45199 173.348L0.820795 174.069L0.924711 174.16L1.05007 174.218L1.45199 173.348ZM1.5013 172.707L1.78562 171.792L1.77673 171.789L1.5013 172.707ZM30.99 142.084L31.9138 142.34L31.9162 142.331L30.99 142.084ZM31.3352 139.717L32.2807 139.875L32.3618 139.388L32.013 139.039L31.3352 139.717ZM31.3352 139.569L30.398 139.368L30.3767 139.468V139.569H31.3352ZM33.3077 140.802L34.2534 140.645L34.25 140.625L34.2457 140.604L33.3077 140.802ZM37.0554 165.409L36.1243 165.636L36.8304 168.528L37.9443 165.767L37.0554 165.409ZM51.7012 135.082L52.322 135.812L52.4009 135.745L52.4636 135.663L51.7012 135.082ZM53.8216 136.413L54.7757 136.505L54.7778 136.483L54.779 136.461L53.8216 136.413ZM52.6381 159.787L53.5963 159.758L53.5959 159.749L52.6381 159.787ZM58.1611 177.786L58.4642 176.877L58.4532 176.873L58.1611 177.786ZM50.8629 160.083L49.905 160.12L49.9056 160.131L50.8629 160.083ZM51.9478 137.547L52.9014 137.643L51.1408 137.03L51.9478 137.547ZM37.8938 167.776L36.9923 167.45L36.9285 167.626L36.936 167.814L37.8938 167.776ZM37.2522 169.494C35.2869 160.503 33.864 151.668 33.1285 143.185L31.2186 143.35C31.9624 151.929 33.3997 160.847 35.3793 169.904L37.2522 169.494ZM31.2541 142.997C28.4789 152.418 23.6167 161.062 18.1408 166.701C12.6145 172.392 6.77142 174.749 1.85392 172.478L1.05007 174.218C7.1292 177.026 13.8361 173.885 19.516 168.037C25.2463 162.136 30.2466 153.201 33.093 143.538L31.2541 142.997ZM2.08319 172.627C2.05076 172.598 2.04191 172.582 2.04712 172.59C2.05007 172.595 2.06135 172.615 2.07311 172.65C2.08415 172.683 2.10232 172.75 2.10232 172.843C2.10232 172.937 2.08292 173.08 1.99642 173.231C1.90487 173.39 1.76808 173.506 1.62152 173.571C1.36764 173.685 1.18393 173.612 1.22587 173.625L1.77673 171.789C1.57211 171.727 1.20965 171.655 0.838655 171.821C0.362864 172.034 0.185261 172.483 0.185263 172.843C0.185263 173.148 0.300222 173.404 0.400721 173.572C0.510725 173.757 0.655977 173.925 0.820795 174.069L2.08319 172.627ZM1.217 173.622C5.14419 174.842 8.89939 174.028 12.2991 172.044C15.6785 170.072 18.7446 166.928 21.3955 163.388C26.6958 156.311 30.5048 147.422 31.9137 142.34L30.0664 141.828C28.7138 146.707 25.0027 155.373 19.8611 162.239C17.291 165.671 14.4058 168.595 11.333 170.388C8.28049 172.169 5.08266 172.816 1.78561 171.792L1.217 173.622ZM31.9162 142.331C32.0343 141.888 32.1021 141.384 32.1518 140.955C32.2058 140.49 32.2366 140.139 32.2807 139.875L30.3897 139.559C30.3353 139.886 30.2921 140.35 30.2475 140.735C30.1985 141.157 30.143 141.54 30.0639 141.837L31.9162 142.331ZM32.013 139.039C32.1227 139.149 32.2196 139.307 32.2565 139.503C32.29 139.682 32.2601 139.822 32.2466 139.876C32.2397 139.903 32.233 139.923 32.233 139.923C32.229 139.935 32.2389 139.906 32.2432 139.892C32.2541 139.857 32.2938 139.732 32.2938 139.569H30.3767C30.3767 139.431 30.4102 139.33 30.4134 139.32C30.4138 139.319 30.4195 139.301 30.4115 139.326C30.4074 139.338 30.3969 139.37 30.3868 139.411C30.3672 139.489 30.3342 139.654 30.3723 139.857C30.4138 140.078 30.5231 140.261 30.6575 140.395L32.013 139.039ZM32.2725 139.77C32.2448 139.899 32.1551 140.077 31.9661 140.196C31.8019 140.3 31.6592 140.298 31.6238 140.296C31.571 140.293 31.6343 140.289 31.8 140.391C31.9442 140.48 32.0937 140.606 32.2088 140.74C32.3309 140.883 32.3651 140.977 32.3698 140.999L34.2457 140.604C34.1517 140.158 33.9086 139.778 33.6654 139.494C33.4153 139.201 33.1117 138.948 32.806 138.759C32.5216 138.584 32.138 138.405 31.7324 138.382C31.5205 138.37 31.2249 138.397 30.9427 138.575C30.6355 138.769 30.4626 139.067 30.398 139.368L32.2725 139.77ZM32.362 140.958C32.9252 144.362 33.3389 148.349 33.8793 152.616C34.4167 156.859 35.0754 161.341 36.1243 165.636L37.9866 165.181C36.9643 160.995 36.3163 156.6 35.7812 152.375C35.249 148.172 34.8244 144.096 34.2534 140.645L32.362 140.958ZM37.9443 165.767C39.6365 161.574 42.7966 154.429 45.781 148.122C47.273 144.969 48.7161 142.035 49.906 139.791C50.5016 138.667 51.028 137.727 51.4615 137.023C51.6785 136.67 51.8662 136.386 52.0229 136.172C52.189 135.944 52.2872 135.842 52.322 135.812L51.0804 134.351C50.8686 134.531 50.6632 134.783 50.4752 135.04C50.2777 135.31 50.0606 135.641 49.8287 136.018C49.3644 136.773 48.8164 137.753 48.2123 138.893C47.0028 141.174 45.5457 144.137 44.0482 147.302C41.0534 153.631 37.8769 160.811 36.1666 165.05L37.9443 165.767ZM52.4636 135.663C52.4896 135.629 52.4937 135.635 52.4665 135.65C52.4372 135.665 52.403 135.673 52.3754 135.673C52.3338 135.673 52.3761 135.66 52.4888 135.747C52.594 135.829 52.7014 135.954 52.7769 136.096C52.8558 136.243 52.8655 136.341 52.8643 136.365L54.779 136.461C54.8024 135.993 54.658 135.548 54.4672 135.191C54.2731 134.828 53.9952 134.489 53.6628 134.231C53.3378 133.98 52.8901 133.754 52.3692 133.756C51.8008 133.757 51.2972 134.03 50.9388 134.501L52.4636 135.663ZM52.8675 136.321C52.1277 143.966 51.6303 149.924 51.6303 156.138H53.5473C53.5473 150.024 54.0362 144.147 54.7757 136.505L52.8675 136.321ZM51.6303 156.138C51.6303 157.368 51.6302 158.57 51.6804 159.825L53.5959 159.749C53.5475 158.538 53.5473 157.374 53.5473 156.138H51.6303ZM51.68 159.816C51.8288 164.701 52.2881 168.996 53.2009 172.245C54.0919 175.417 55.5153 177.946 57.869 178.699L58.4532 176.873C57.1085 176.443 55.9183 174.83 55.0465 171.727C54.1963 168.701 53.7433 164.588 53.5962 159.758L51.68 159.816ZM57.858 178.695C57.6972 178.642 57.5921 178.54 57.532 178.446C57.4731 178.355 57.4268 178.224 57.4401 178.064C57.4551 177.884 57.5461 177.699 57.7081 177.576C57.854 177.466 57.9741 177.469 57.9639 177.469V179.386C58.2494 179.386 58.5791 179.321 58.8638 179.106C59.1645 178.878 59.3232 178.551 59.3506 178.223C59.398 177.654 59.0494 177.072 58.4642 176.877L57.858 178.695ZM57.9639 177.469C56.9539 177.469 56.0909 176.969 55.3143 175.951C54.5212 174.91 53.8805 173.399 53.3767 171.587C52.3715 167.973 51.9924 163.478 51.8202 160.035L49.9056 160.131C50.0786 163.592 50.4638 168.269 51.5297 172.101C52.0615 174.012 52.783 175.792 53.7898 177.113C54.8131 178.455 56.1876 179.386 57.9639 179.386V177.469ZM51.8207 160.046C51.7713 158.762 51.7228 157.448 51.7228 156.138H49.8057C49.8057 157.49 49.8558 158.839 49.9051 160.12L51.8207 160.046ZM51.7228 156.138C51.7228 150.125 52.3099 143.51 52.9014 137.643L50.9941 137.451C50.4022 143.321 49.8057 150.02 49.8057 156.138H51.7228ZM51.1408 137.03C49.8651 139.02 46.9015 145.043 43.996 151.296C41.0815 157.569 38.1674 164.2 36.9923 167.45L38.7952 168.102C39.9378 164.941 42.8179 158.381 45.7346 152.104C48.6602 145.807 51.5648 139.921 52.7547 138.065L51.1408 137.03ZM36.936 167.814C36.9491 168.142 36.7956 168.5 36.5911 168.73C36.4882 168.846 36.4283 168.866 36.4516 168.857C36.4934 168.842 36.7371 168.789 36.957 168.986L35.6745 170.411C36.141 170.831 36.7114 170.802 37.103 170.661C37.4761 170.526 37.7891 170.268 38.0252 170.002C38.4988 169.468 38.8877 168.643 38.8515 167.737L36.936 167.814ZM57.8529 166.247L58.5637 165.604L58.558 165.598L58.5522 165.591L57.8529 166.247ZM57.6063 158.258L58.4111 158.779L58.5104 158.626L58.5462 158.446L57.6063 158.258ZM58.7405 158.111L59.0681 157.21L59.0213 157.193L58.973 157.181L58.7405 158.111ZM59.5295 158.949L60.2073 159.627L60.4125 159.421L60.4694 159.137L59.5295 158.949ZM58.8885 165.557L58.2607 166.281L58.2863 166.303L58.3133 166.323L58.8885 165.557ZM70.0823 160.576L69.4046 159.898L70.0823 160.576ZM70.181 161.76L69.3395 161.301L69.3386 161.302L70.181 161.76ZM61.3541 167.529L61.3924 168.487L61.3957 168.487L61.3541 167.529ZM58.8885 154.807L59.354 153.969L59.2761 153.925L59.1916 153.897L58.8885 154.807ZM58.2474 153.968L58.8462 154.717L58.9624 154.624L59.0449 154.5L58.2474 153.968ZM58.7898 152.588L59.6798 152.944L59.7242 152.833L59.74 152.714L58.7898 152.588ZM58.8885 151.848L59.8386 151.975L59.847 151.911V151.848H58.8885ZM59.924 151.651L59.568 152.541L59.6366 152.568L59.7085 152.585L59.924 151.651ZM60.8609 152.44L59.971 152.084L59.9024 152.255V152.44H60.8609ZM60.713 153.278L59.8557 152.849L59.8378 152.885L59.823 152.922L60.713 153.278ZM60.072 154.856L60.8388 155.431L60.8684 155.391L60.8939 155.349L60.072 154.856ZM58.5522 165.591C58.3445 165.37 58.1253 164.937 57.9635 164.284C57.8068 163.652 57.7266 162.906 57.7266 162.154H55.8095C55.8095 163.03 55.9018 163.935 56.1027 164.746C56.2984 165.535 56.6216 166.335 57.1536 166.903L58.5522 165.591ZM57.7266 162.154C57.7266 160.688 58.0196 159.384 58.4111 158.779L56.8016 157.738C56.1082 158.809 55.8095 160.563 55.8095 162.154H57.7266ZM58.5462 158.446C58.4926 158.715 58.3191 158.87 58.2098 158.935C58.1169 158.99 58.0582 158.991 58.0854 158.988C58.1345 158.982 58.2817 158.984 58.508 159.04L58.973 157.181C58.6076 157.089 58.2123 157.042 57.8547 157.085C57.6784 157.106 57.4502 157.157 57.2325 157.286C56.9984 157.425 56.7448 157.679 56.6664 158.07L58.5462 158.446ZM58.4129 159.011C58.5492 159.061 58.6187 159.123 58.6373 159.144C58.6468 159.155 58.63 159.14 58.6108 159.091C58.5932 159.046 58.5565 158.927 58.5896 158.761L60.4694 159.137C60.5803 158.583 60.2932 158.124 60.0765 157.878C59.8239 157.591 59.4742 157.357 59.0681 157.21L58.4129 159.011ZM58.8517 158.271C58.699 158.424 58.6142 158.602 58.5778 158.682C58.5289 158.788 58.486 158.905 58.4483 159.019C58.3723 159.249 58.2968 159.532 58.2252 159.841C58.0811 160.462 57.9388 161.246 57.8336 162.033C57.729 162.817 57.6567 163.635 57.6626 164.318C57.6656 164.656 57.6878 164.995 57.7477 165.293C57.7969 165.539 57.9104 165.977 58.2607 166.281L59.5162 164.832C59.6816 164.976 59.6641 165.1 59.6272 164.916C59.601 164.786 59.582 164.581 59.5796 164.301C59.5747 163.746 59.635 163.027 59.7338 162.287C59.8319 161.552 59.9639 160.829 60.0926 160.274C60.1574 159.995 60.2179 159.774 60.2684 159.621C60.2941 159.543 60.312 159.499 60.3205 159.48C60.3416 159.434 60.3107 159.523 60.2073 159.627L58.8517 158.271ZM58.3133 166.323C58.8979 166.762 59.6011 166.959 60.3185 166.959V165.042C59.9511 165.042 59.668 164.943 59.4636 164.79L58.3133 166.323ZM60.3185 166.959C61.2665 166.959 62.3024 166.659 63.2946 166.246C64.3009 165.826 65.3351 165.259 66.3002 164.656C68.2208 163.456 69.9581 162.056 70.7601 161.254L69.4046 159.898C68.7272 160.576 67.1113 161.888 65.2842 163.03C64.3754 163.598 63.437 164.11 62.5572 164.476C61.6632 164.849 60.8992 165.042 60.3185 165.042V166.959ZM70.7601 161.254C70.5753 161.439 70.295 161.524 70.0213 161.453C69.7418 161.379 69.5927 161.181 69.5376 161.043C69.4864 160.915 69.5128 160.85 69.5015 160.909C69.4912 160.963 69.4544 161.09 69.3395 161.301L71.0225 162.219C71.3557 161.608 71.556 160.927 71.3175 160.331C71.1883 160.008 70.916 159.705 70.507 159.598C70.1039 159.492 69.688 159.615 69.4046 159.898L70.7601 161.254ZM69.3386 161.302C69.1682 161.616 68.7858 162.108 68.2046 162.693C67.6363 163.266 66.9205 163.886 66.129 164.46C64.507 165.638 62.725 166.51 61.3124 166.572L61.3957 168.487C63.3857 168.4 65.5486 167.251 67.2552 166.012C68.128 165.378 68.9225 164.691 69.5653 164.044C70.1954 163.409 70.7252 162.766 71.0234 162.217L69.3386 161.302ZM61.3158 166.571C60.2412 166.614 59.2391 166.35 58.5637 165.604L57.1421 166.89C58.3405 168.215 60.0013 168.543 61.3924 168.487L61.3158 166.571ZM59.1916 153.897C59.036 153.845 59.0002 153.785 59.0275 153.822C59.0398 153.839 59.1126 153.942 59.1184 154.124C59.1215 154.222 59.1043 154.336 59.0517 154.451C58.9988 154.567 58.923 154.655 58.8462 154.717L57.6486 153.22C57.3475 153.461 57.1905 153.816 57.2023 154.185C57.2127 154.512 57.3502 154.776 57.4797 154.953C57.7412 155.311 58.1492 155.571 58.5853 155.716L59.1916 153.897ZM59.0449 154.5C59.1033 154.412 59.1464 154.319 59.1663 154.276C59.1934 154.217 59.2211 154.151 59.2474 154.087C59.3005 153.957 59.3598 153.802 59.4161 153.651C59.5372 153.329 59.6351 153.055 59.6798 152.944L57.8999 152.232C57.846 152.366 57.7219 152.709 57.6211 152.978C57.5665 153.124 57.5148 153.259 57.4724 153.363C57.451 153.415 57.4347 153.453 57.4236 153.477C57.4054 153.517 57.4161 153.487 57.4499 153.437L59.0449 154.5ZM59.74 152.714L59.8386 151.975L57.9383 151.721L57.8397 152.461L59.74 152.714ZM59.847 151.848C59.847 151.963 59.8194 152.08 59.7646 152.186C59.7115 152.289 59.6438 152.361 59.5868 152.407C59.531 152.453 59.4821 152.477 59.453 152.489C59.4232 152.501 59.4036 152.505 59.398 152.506C59.3944 152.507 59.4684 152.501 59.568 152.541L60.28 150.761C59.8865 150.603 59.4428 150.548 59.0447 150.622C58.8475 150.659 58.5972 150.741 58.375 150.922C58.1306 151.121 57.9299 151.441 57.9299 151.848H59.847ZM59.7085 152.585C59.8999 152.629 60.006 152.7 60.0331 152.725C60.0482 152.738 60.0096 152.71 59.9715 152.625C59.9315 152.535 59.8729 152.329 59.971 152.084L61.7509 152.796C61.8983 152.427 61.8274 152.079 61.7211 151.841C61.6168 151.608 61.458 151.426 61.3067 151.292C61.0009 151.02 60.5892 150.82 60.1395 150.717L59.7085 152.585ZM59.9024 152.44C59.9024 152.54 59.9016 152.621 59.8913 152.703C59.881 152.785 59.865 152.831 59.8557 152.849L61.5703 153.707C61.8335 153.18 61.8195 152.613 61.8195 152.44H59.9024ZM59.823 152.922C59.775 153.042 59.6335 153.422 59.5176 153.719C59.4542 153.883 59.3918 154.039 59.3379 154.167C59.2758 154.313 59.2474 154.367 59.25 154.363L60.8939 155.349C61.0204 155.138 61.1894 154.71 61.3043 154.414C61.4474 154.046 61.5524 153.76 61.603 153.634L59.823 152.922ZM59.3051 154.281C59.3783 154.183 59.4574 154.126 59.5101 154.095C59.5629 154.064 59.604 154.05 59.6226 154.045C59.6568 154.035 59.6575 154.041 59.6178 154.04C59.5827 154.039 59.5353 154.033 59.4835 154.019C59.4318 154.005 59.3874 153.987 59.354 153.969L58.423 155.644C58.7911 155.849 59.2028 155.946 59.5645 155.956C59.7468 155.961 59.9508 155.945 60.1515 155.887C60.3341 155.835 60.6254 155.716 60.8388 155.431L59.3051 154.281ZM70.0434 165.409L69.087 165.472L69.0927 165.558L69.1135 165.641L70.0434 165.409ZM70.29 158.998L69.3461 158.832L69.3447 158.839L69.3435 158.847L70.29 158.998ZM71.9173 159.886L70.9833 159.67L70.9546 159.795L70.9595 159.923L71.9173 159.886ZM71.8187 163.683L70.8606 163.712L70.9318 166.061L72.5237 164.332L71.8187 163.683ZM77.3416 158.801L77.7623 159.662L77.7703 159.658L77.3416 158.801ZM78.969 159.639L79.8517 159.266L79.8089 159.164L79.7441 159.075L78.969 159.639ZM80.0045 163.683L79.0762 163.922L79.449 165.371L80.6098 164.426L80.0045 163.683ZM84.7878 159.787L84.2307 159.007L84.206 159.025L84.1825 159.044L84.7878 159.787ZM86.4151 160.576L87.2724 160.147L87.2503 160.103L87.2238 160.062L86.4151 160.576ZM88.141 164.176L87.5202 164.906L87.5706 164.949L87.6264 164.985L88.141 164.176ZM97.609 161.168L96.787 160.675L96.781 160.685L97.609 161.168ZM97.8062 162.401L98.6442 162.866L98.6477 162.86L97.8062 162.401ZM87.7465 165.162L87.2148 165.96L87.2233 165.965L87.2319 165.971L87.7465 165.162ZM86.0699 163.486L85.2847 164.035L85.2937 164.048L85.3031 164.061L86.0699 163.486ZM85.3302 162.006L86.2396 161.703L85.7986 160.38L84.7215 161.266L85.3302 162.006ZM80.5469 165.705L80.9756 166.562L81.029 166.535L81.0786 166.502L80.5469 165.705ZM78.9196 164.866L78.047 165.263L78.0615 165.295L78.0782 165.325L78.9196 164.866ZM77.6868 160.724L78.6208 160.509L78.3135 159.177L77.1661 159.919L77.6868 160.724ZM71.868 166.642L71.2381 165.919L71.2368 165.92L71.868 166.642ZM70.9998 165.345C70.9501 164.598 70.9033 163.892 70.9033 163.239H68.9863C68.9863 163.967 69.0382 164.74 69.087 165.472L70.9998 165.345ZM70.9033 163.239C70.9033 161.721 71.0457 160.342 71.2365 159.15L69.3435 158.847C69.1398 160.12 68.9863 161.601 68.9863 163.239H70.9033ZM71.2339 159.165C71.2226 159.229 71.1762 159.376 71.0271 159.501C70.8821 159.624 70.7329 159.648 70.662 159.651C70.5973 159.653 70.5736 159.64 70.6011 159.649C70.6237 159.657 70.6645 159.675 70.7178 159.707C70.8309 159.775 70.9284 159.866 70.9794 159.934C71.0039 159.967 70.9994 159.97 70.9891 159.94C70.9788 159.91 70.9511 159.81 70.9833 159.67L72.8513 160.101C72.9852 159.521 72.7005 159.033 72.5131 158.784C72.2959 158.494 72.0051 158.245 71.7114 158.067C71.4408 157.903 71.0357 157.719 70.593 157.735C70.3509 157.744 70.0516 157.816 69.7898 158.037C69.524 158.262 69.3944 158.558 69.3461 158.832L71.2339 159.165ZM70.9595 159.923C70.982 160.507 70.9488 161.001 70.9114 161.594C70.874 162.186 70.8345 162.851 70.8606 163.712L72.7768 163.654C72.7535 162.887 72.788 162.295 72.8246 161.715C72.8611 161.137 72.9019 160.546 72.8751 159.849L70.9595 159.923ZM72.5237 164.332C74.3086 162.394 75.8445 160.599 77.7623 159.662L76.921 157.94C74.598 159.074 72.7806 161.224 71.1136 163.033L72.5237 164.332ZM77.7703 159.658C77.6082 159.739 77.496 159.708 77.5258 159.714C77.5435 159.717 77.6041 159.734 77.6999 159.786C77.8975 159.893 78.0907 160.061 78.1938 160.203L79.7441 159.075C79.4527 158.675 79.0295 158.325 78.6107 158.099C78.3983 157.985 78.1507 157.882 77.8879 157.831C77.6373 157.783 77.2723 157.764 76.913 157.944L77.7703 159.658ZM78.0862 160.013C78.3231 160.573 78.456 161.085 78.5863 161.695C78.7144 162.295 78.8478 163.033 79.0762 163.922L80.9328 163.444C80.7174 162.606 80.6042 161.964 80.4611 161.294C80.3202 160.635 80.1572 159.988 79.8517 159.266L78.0862 160.013ZM80.6098 164.426L85.3931 160.53L84.1825 159.044L79.3992 162.94L80.6098 164.426ZM85.3449 160.567C85.241 160.641 85.1436 160.667 85.0873 160.676C85.0588 160.68 85.0373 160.681 85.0246 160.68C85.0119 160.68 85.0051 160.679 85.005 160.679C85.0049 160.679 85.0093 160.68 85.0184 160.682C85.0275 160.684 85.0399 160.688 85.0555 160.693C85.0873 160.704 85.1271 160.72 85.1728 160.743C85.266 160.79 85.3637 160.853 85.4485 160.924C85.5362 160.998 85.586 161.059 85.6064 161.091L87.2238 160.062C86.9333 159.605 86.4592 159.243 86.0301 159.028C85.8083 158.918 85.547 158.82 85.2733 158.781C85.0217 158.745 84.6052 158.74 84.2307 159.007L85.3449 160.567ZM85.5578 161.005C85.6492 161.188 85.7395 161.429 85.8463 161.745C85.9457 162.038 86.0648 162.412 86.1933 162.762C86.4463 163.451 86.8233 164.314 87.5202 164.906L88.7618 163.446C88.4725 163.2 88.2332 162.756 87.993 162.101C87.8749 161.78 87.7783 161.472 87.6619 161.129C87.553 160.808 87.4275 160.458 87.2724 160.147L85.5578 161.005ZM87.6264 164.985C88.2609 165.388 89.0315 165.726 89.9656 165.726V163.809C89.519 163.809 89.106 163.654 88.6556 163.367L87.6264 164.985ZM89.9656 165.726C90.5294 165.726 91.291 165.527 92.031 165.281C92.8074 165.023 93.6823 164.67 94.5222 164.282C95.3608 163.894 96.1851 163.462 96.8552 163.041C97.1897 162.831 97.5 162.615 97.7592 162.4C98.0034 162.197 98.2657 161.944 98.4369 161.651L96.781 160.685C96.7854 160.677 96.7739 160.698 96.728 160.747C96.6841 160.794 96.621 160.853 96.535 160.925C96.3619 161.068 96.1267 161.235 95.8355 161.418C95.2543 161.783 94.5068 162.177 93.718 162.541C92.9307 162.905 92.1228 163.23 91.426 163.462C90.6928 163.706 90.1908 163.809 89.9656 163.809V165.726ZM98.4309 161.661C98.2101 162.029 97.8034 162.101 97.5366 162.03C97.2949 161.965 97.1767 161.809 97.1329 161.724C97.0324 161.529 97.1839 161.54 96.9648 161.942L98.6477 162.86C99.0203 162.177 99.1472 161.448 98.8371 160.846C98.6885 160.558 98.4193 160.282 98.0343 160.178C97.6242 160.068 97.0819 160.183 96.7871 160.675L98.4309 161.661ZM96.9683 161.935C96.7138 162.393 95.8868 163.225 94.7006 163.959C93.5331 164.681 92.2071 165.19 91.0505 165.19V167.107C92.7046 167.107 94.3867 166.407 95.7094 165.589C97.0135 164.782 98.159 163.74 98.6441 162.866L96.9683 161.935ZM91.0505 165.19C90.1904 165.19 89.1866 164.942 88.2611 164.353L87.2319 165.971C88.4762 166.763 89.8394 167.107 91.0505 167.107V165.19ZM88.2782 164.365C87.675 163.962 87.2599 163.475 86.8367 162.91L85.3031 164.061C85.7676 164.68 86.3387 165.376 87.2148 165.96L88.2782 164.365ZM86.8552 162.936C86.5718 162.531 86.3635 162.075 86.2396 161.703L84.4209 162.309C84.5928 162.825 84.8776 163.454 85.2847 164.035L86.8552 162.936ZM84.7215 161.266C82.4984 163.094 81.3009 164.05 80.0152 164.907L81.0786 166.502C82.4559 165.584 83.724 164.568 85.939 162.747L84.7215 161.266ZM80.1183 164.847C80.2074 164.803 80.2795 164.793 80.3111 164.791C80.3431 164.789 80.3542 164.793 80.3398 164.79C80.3079 164.784 80.2359 164.763 80.138 164.712C80.0434 164.663 79.9512 164.6 79.8768 164.535C79.7985 164.466 79.7668 164.418 79.7611 164.407L78.0782 165.325C78.3484 165.821 78.8333 166.195 79.2546 166.414C79.4772 166.529 79.7319 166.628 79.996 166.676C80.2392 166.72 80.6121 166.744 80.9756 166.562L80.1183 164.847ZM79.7922 164.47C79.344 163.484 79.066 162.438 78.6208 160.509L76.7528 160.94C77.1952 162.857 77.509 164.079 78.047 165.263L79.7922 164.47ZM77.1661 159.919C75.7838 160.814 74.7348 161.966 73.823 163.046C72.8814 164.162 72.1271 165.144 71.2381 165.919L72.4979 167.364C73.532 166.462 74.4297 165.3 75.288 164.283C76.1761 163.23 77.0749 162.262 78.2076 161.529L77.1661 159.919ZM71.2368 165.92C71.3803 165.795 71.5328 165.761 71.6181 165.756C71.6947 165.75 71.7311 165.765 71.7116 165.759C71.6703 165.747 71.565 165.7 71.4204 165.596C71.2831 165.498 71.1542 165.381 71.0607 165.273C71.0145 165.219 70.9852 165.178 70.969 165.151C70.9506 165.12 70.9617 165.13 70.9733 165.176L69.1135 165.641C69.2045 166.005 69.4268 166.314 69.6102 166.526C69.8111 166.759 70.0551 166.977 70.3061 167.156C70.5499 167.331 70.8482 167.502 71.1629 167.596C71.424 167.674 72.013 167.788 72.4992 167.363L71.2368 165.92ZM97.871 166.247L98.5817 165.604L98.576 165.598L98.5702 165.591L97.871 166.247ZM97.6244 158.258L98.4292 158.779L98.5285 158.626L98.5643 158.446L97.6244 158.258ZM98.7586 158.111L99.0862 157.21L99.0394 157.193L98.9911 157.181L98.7586 158.111ZM99.5476 158.949L100.225 159.627L100.431 159.421L100.487 159.137L99.5476 158.949ZM98.9065 165.557L98.2787 166.281L98.3043 166.303L98.3314 166.323L98.9065 165.557ZM110.1 160.576L109.423 159.898L110.1 160.576ZM110.199 161.76L109.358 161.301L109.357 161.302L110.199 161.76ZM101.372 167.529L101.41 168.487L101.414 168.487L101.372 167.529ZM98.9065 154.807L99.372 153.969L99.2941 153.925L99.2096 153.897L98.9065 154.807ZM98.2655 153.968L98.8643 154.717L98.9805 154.624L99.063 154.5L98.2655 153.968ZM98.8079 152.588L99.6979 152.944L99.7422 152.833L99.758 152.714L98.8079 152.588ZM98.9065 151.848L99.8566 151.975L99.865 151.911V151.848H98.9065ZM99.9421 151.651L99.5861 152.541L99.6546 152.568L99.7265 152.585L99.9421 151.651ZM100.879 152.44L99.989 152.084L99.9205 152.255V152.44H100.879ZM100.731 153.278L99.8737 152.849L99.8559 152.885L99.8411 152.922L100.731 153.278ZM100.09 154.856L100.857 155.431L100.887 155.391L100.912 155.349L100.09 154.856ZM98.5702 165.591C98.3626 165.37 98.1433 164.937 97.9815 164.284C97.8249 163.652 97.7446 162.906 97.7446 162.154H95.8276C95.8276 163.03 95.9199 163.935 96.1208 164.746C96.3165 165.535 96.6396 166.335 97.1717 166.903L98.5702 165.591ZM97.7446 162.154C97.7446 160.688 98.0376 159.384 98.4292 158.779L96.8196 157.738C96.1263 158.809 95.8276 160.563 95.8276 162.154H97.7446ZM98.5643 158.446C98.5106 158.715 98.3371 158.87 98.2279 158.935C98.135 158.99 98.0763 158.991 98.1034 158.988C98.1526 158.982 98.2997 158.984 98.5261 159.04L98.9911 157.181C98.6257 157.089 98.2304 157.042 97.8727 157.085C97.6965 157.106 97.4682 157.157 97.2505 157.286C97.0164 157.425 96.7628 157.679 96.6845 158.07L98.5643 158.446ZM98.431 159.011C98.5673 159.061 98.6367 159.123 98.6554 159.144C98.6649 159.155 98.648 159.14 98.6289 159.091C98.6113 159.046 98.5745 158.927 98.6077 158.761L100.487 159.137C100.598 158.583 100.311 158.124 100.095 157.878C99.842 157.591 99.4923 157.357 99.0862 157.21L98.431 159.011ZM98.8698 158.271C98.7171 158.424 98.6322 158.602 98.5959 158.682C98.547 158.788 98.504 158.905 98.4664 159.019C98.3904 159.249 98.3149 159.532 98.2432 159.841C98.0992 160.462 97.9569 161.246 97.8516 162.033C97.747 162.817 97.6747 163.635 97.6807 164.318C97.6836 164.656 97.7058 164.995 97.7657 165.293C97.815 165.539 97.9285 165.977 98.2787 166.281L99.5343 164.832C99.6996 164.976 99.6822 165.1 99.6453 164.916C99.6191 164.786 99.6001 164.581 99.5976 164.301C99.5928 163.746 99.653 163.027 99.7518 162.287C99.85 161.552 99.982 160.829 100.111 160.274C100.175 159.995 100.236 159.774 100.286 159.621C100.312 159.543 100.33 159.499 100.339 159.48C100.36 159.434 100.329 159.523 100.225 159.627L98.8698 158.271ZM98.3314 166.323C98.916 166.762 99.6192 166.959 100.337 166.959V165.042C99.9691 165.042 99.686 164.943 99.4816 164.79L98.3314 166.323ZM100.337 166.959C101.285 166.959 102.32 166.659 103.313 166.246C104.319 165.826 105.353 165.259 106.318 164.656C108.239 163.456 109.976 162.056 110.778 161.254L109.423 159.898C108.745 160.576 107.129 161.888 105.302 163.03C104.393 163.598 103.455 164.11 102.575 164.476C101.681 164.849 100.917 165.042 100.337 165.042V166.959ZM110.778 161.254C110.593 161.439 110.313 161.524 110.039 161.453C109.76 161.379 109.611 161.181 109.556 161.043C109.504 160.915 109.531 160.85 109.52 160.909C109.509 160.963 109.472 161.09 109.358 161.301L111.041 162.219C111.374 161.608 111.574 160.927 111.336 160.331C111.206 160.008 110.934 159.705 110.525 159.598C110.122 159.492 109.706 159.615 109.423 159.898L110.778 161.254ZM109.357 161.302C109.186 161.616 108.804 162.108 108.223 162.693C107.654 163.266 106.939 163.886 106.147 164.46C104.525 165.638 102.743 166.51 101.33 166.572L101.414 168.487C103.404 168.4 105.567 167.251 107.273 166.012C108.146 165.378 108.941 164.691 109.583 164.044C110.213 163.409 110.743 162.766 111.041 162.217L109.357 161.302ZM101.334 166.571C100.259 166.614 99.2572 166.35 98.5817 165.604L97.1602 166.89C98.3586 168.215 100.019 168.543 101.41 168.487L101.334 166.571ZM99.2096 153.897C99.054 153.845 99.0182 153.785 99.0455 153.822C99.0579 153.839 99.1306 153.942 99.1364 154.124C99.1395 154.222 99.1224 154.336 99.0697 154.451C99.0168 154.567 98.941 154.655 98.8643 154.717L97.6667 153.22C97.3655 153.461 97.2086 153.816 97.2204 154.185C97.2308 154.512 97.3683 154.776 97.4977 154.953C97.7592 155.311 98.1673 155.571 98.6034 155.716L99.2096 153.897ZM99.063 154.5C99.1214 154.412 99.1645 154.319 99.1844 154.276C99.2114 154.217 99.2391 154.151 99.2655 154.087C99.3186 153.957 99.3779 153.802 99.4342 153.651C99.5553 153.329 99.6531 153.055 99.6979 152.944L97.9179 152.232C97.8641 152.366 97.74 152.709 97.6392 152.978C97.5845 153.124 97.5329 153.259 97.4904 153.363C97.469 153.415 97.4528 153.453 97.4417 153.477C97.4235 153.517 97.4342 153.487 97.4679 153.437L99.063 154.5ZM99.758 152.714L99.8566 151.975L97.9564 151.721L97.8578 152.461L99.758 152.714ZM99.865 151.848C99.865 151.963 99.8374 152.08 99.7827 152.186C99.7295 152.289 99.6619 152.361 99.6049 152.407C99.5491 152.453 99.5001 152.477 99.471 152.489C99.4413 152.501 99.4217 152.505 99.416 152.506C99.4124 152.507 99.4865 152.501 99.5861 152.541L100.298 150.761C99.9045 150.603 99.4608 150.548 99.0627 150.622C98.8656 150.659 98.6152 150.741 98.3931 150.922C98.1487 151.121 97.948 151.441 97.948 151.848H99.865ZM99.7265 152.585C99.918 152.629 100.024 152.7 100.051 152.725C100.066 152.738 100.028 152.71 99.9896 152.625C99.9495 152.535 99.891 152.329 99.989 152.084L101.769 152.796C101.916 152.427 101.845 152.079 101.739 151.841C101.635 151.608 101.476 151.426 101.325 151.292C101.019 151.02 100.607 150.82 100.158 150.717L99.7265 152.585ZM99.9205 152.44C99.9205 152.54 99.9196 152.621 99.9094 152.703C99.8991 152.785 99.8831 152.831 99.8737 152.849L101.588 153.707C101.852 153.18 101.838 152.613 101.838 152.44H99.9205ZM99.8411 152.922C99.7931 153.042 99.6515 153.422 99.5357 153.719C99.4722 153.883 99.4099 154.039 99.3559 154.167C99.2939 154.313 99.2654 154.367 99.2681 154.363L100.912 155.349C101.038 155.138 101.207 154.71 101.322 154.414C101.465 154.046 101.57 153.76 101.621 153.634L99.8411 152.922ZM99.3232 154.281C99.3964 154.183 99.4755 154.126 99.5281 154.095C99.5809 154.064 99.6221 154.05 99.6406 154.045C99.6749 154.035 99.6755 154.041 99.6358 154.04C99.6008 154.039 99.5533 154.033 99.5015 154.019C99.4499 154.005 99.4055 153.987 99.372 153.969L98.441 155.644C98.8092 155.849 99.2209 155.946 99.5826 155.956C99.7648 155.961 99.9689 155.945 100.17 155.887C100.352 155.835 100.643 155.716 100.857 155.431L99.3232 154.281ZM119.036 160.675L119.991 160.758L120.092 159.596L118.933 159.722L119.036 160.675ZM110.9 165.507L110.026 165.112L109.95 165.281L109.942 165.466L110.9 165.507ZM110.85 166.642L109.893 166.6L109.89 166.658L109.895 166.715L110.85 166.642ZM109.125 166.05L110.081 165.99L110.079 165.96L110.076 165.931L109.125 166.05ZM109.125 164.57L110.07 164.728L110.075 164.697L110.078 164.666L109.125 164.57ZM109.618 159.639L110.571 159.735L110.576 159.687V159.639H109.618ZM110.604 159.442L111.112 158.629L111.039 158.584L110.96 158.552L110.604 159.442ZM111.393 160.428L110.447 160.271L110.439 160.321L110.436 160.372L111.393 160.428ZM111.294 162.105L110.337 162.049L110.218 164.086L111.862 162.877L111.294 162.105ZM119.283 159.393L119.181 160.346L119.183 160.346L119.283 159.393ZM120.91 163.14L119.954 163.081L119.952 163.11V163.14H120.91ZM122.044 164.373L121.781 165.295L122.044 164.373ZM143.249 163.14L142.985 162.219L142.983 162.219L143.249 163.14ZM145.665 162.992L144.852 163.5L144.91 163.593L144.987 163.67L145.665 162.992ZM143.643 164.275L143.38 163.353L143.364 163.358L143.348 163.363L143.643 164.275ZM122.981 166.198L122.711 167.117L122.752 167.129L122.793 167.138L122.981 166.198ZM118.933 159.722C116.947 159.936 115.013 160.683 113.448 161.646C111.908 162.595 110.606 163.831 110.026 165.112L111.773 165.902C112.13 165.113 113.073 164.129 114.454 163.278C115.811 162.442 117.476 161.808 119.139 161.628L118.933 159.722ZM109.942 165.466L109.893 166.6L111.808 166.683L111.857 165.549L109.942 165.466ZM109.895 166.715C109.883 166.567 109.926 166.364 110.078 166.194C110.209 166.047 110.349 166.007 110.391 165.997C110.438 165.986 110.452 165.992 110.421 165.989C110.395 165.987 110.353 165.98 110.3 165.964C110.186 165.93 110.091 165.876 110.042 165.834C109.986 165.787 110.071 165.832 110.081 165.99L108.168 166.11C108.202 166.662 108.522 167.059 108.802 167.296C109.089 167.54 109.432 167.705 109.749 167.8C110.049 167.89 110.444 167.953 110.826 167.864C111.024 167.818 111.291 167.713 111.507 167.471C111.744 167.206 111.83 166.876 111.806 166.568L109.895 166.715ZM110.076 165.931C110.029 165.561 109.995 165.18 110.07 164.728L108.179 164.413C108.057 165.145 108.121 165.749 108.173 166.169L110.076 165.931ZM110.078 164.666L110.571 159.735L108.664 159.544L108.171 164.475L110.078 164.666ZM110.576 159.639C110.576 159.806 110.506 159.997 110.355 160.137C110.228 160.255 110.108 160.279 110.083 160.283C110.042 160.29 110.105 160.275 110.248 160.332L110.96 158.552C110.61 158.412 110.18 158.323 109.768 158.392C109.559 158.427 109.285 158.515 109.05 158.733C108.791 158.973 108.659 159.3 108.659 159.639H110.576ZM110.096 160.255C110.155 160.292 110.221 160.339 110.284 160.392C110.348 160.446 110.401 160.498 110.439 160.542C110.48 160.59 110.486 160.608 110.478 160.591C110.474 160.583 110.416 160.461 110.447 160.271L112.338 160.586C112.395 160.248 112.299 159.959 112.214 159.777C112.124 159.586 112.004 159.421 111.891 159.291C111.665 159.029 111.379 158.796 111.112 158.629L110.096 160.255ZM110.436 160.372L110.337 162.049L112.251 162.161L112.35 160.484L110.436 160.372ZM111.862 162.877C112.631 162.311 113.864 161.6 115.229 161.069C116.609 160.532 118.02 160.221 119.181 160.346L119.385 158.44C117.785 158.268 116.04 158.697 114.534 159.282C113.015 159.873 111.634 160.665 110.726 161.333L111.862 162.877ZM119.183 160.346C119.398 160.369 119.663 160.495 119.881 160.705C119.986 160.806 120.059 160.907 120.103 160.992C120.148 161.079 120.149 161.122 120.149 161.119H122.066C122.066 160.392 121.655 159.752 121.212 159.325C120.752 158.882 120.105 158.515 119.383 158.439L119.183 160.346ZM120.149 161.119C120.149 161.293 120.121 161.538 120.076 161.9C120.034 162.237 119.98 162.651 119.954 163.081L121.867 163.2C121.889 162.841 121.934 162.49 121.978 162.137C122.02 161.809 122.066 161.437 122.066 161.119H120.149ZM119.952 163.14C119.952 164.321 120.858 165.031 121.781 165.295L122.308 163.452C122.086 163.388 121.968 163.303 121.916 163.248C121.876 163.205 121.869 163.177 121.869 163.14H119.952ZM121.781 165.295C122.962 165.632 124.714 165.726 126.729 165.726V163.809C124.7 163.809 123.198 163.706 122.308 163.452L121.781 165.295ZM126.729 165.726C129.683 165.726 133.294 165.476 136.438 165.148C139.555 164.822 142.312 164.409 143.515 164.061L142.983 162.219C141.967 162.513 139.373 162.913 136.239 163.241C133.133 163.566 129.594 163.809 126.729 163.809V165.726ZM143.512 164.062C143.653 164.022 144.151 163.897 144.626 163.831C144.869 163.797 145.058 163.785 145.176 163.792C145.236 163.796 145.234 163.802 145.194 163.788C145.163 163.778 144.985 163.713 144.852 163.5L146.478 162.484C146.283 162.173 145.994 162.036 145.815 161.975C145.627 161.91 145.439 161.887 145.288 161.878C144.983 161.861 144.649 161.892 144.361 161.932C143.777 162.014 143.189 162.16 142.985 162.219L143.512 164.062ZM144.987 163.67C144.907 163.59 144.818 163.462 144.778 163.289C144.737 163.116 144.76 162.964 144.795 162.858C144.853 162.68 144.951 162.607 144.919 162.636C144.876 162.675 144.741 162.767 144.499 162.889C144.036 163.124 143.488 163.322 143.38 163.353L143.906 165.196C144.143 165.129 144.804 164.883 145.364 164.6C145.633 164.463 145.964 164.277 146.209 164.055C146.321 163.953 146.519 163.753 146.616 163.456C146.671 163.29 146.698 163.08 146.644 162.853C146.591 162.624 146.473 162.445 146.343 162.315L144.987 163.67ZM143.348 163.363C139.952 164.463 132.853 165.634 127.469 165.634V167.551C133.032 167.551 140.332 166.355 143.939 165.186L143.348 163.363ZM127.469 165.634C125.794 165.634 124.33 165.49 123.169 165.258L122.793 167.138C124.099 167.399 125.691 167.551 127.469 167.551V165.634ZM123.252 165.278C122.778 165.139 121.91 164.939 121.163 164.311C120.483 163.739 119.82 162.73 119.991 160.758L118.081 160.592C117.858 163.156 118.749 164.785 119.93 165.779C121.045 166.716 122.346 167.01 122.711 167.117L123.252 165.278ZM168.644 178.082L167.69 178.179L167.718 178.453L167.887 178.67L168.644 178.082ZM167.855 162.203L168.813 162.188L168.8 161.335L167.95 161.25L167.855 162.203ZM166.376 161.957L166.564 161.017L166.555 161.015L166.376 161.957ZM160.705 157.026L161.663 157.005L161.663 156.99L161.662 156.975L160.705 157.026ZM162.184 154.708L161.952 153.778L161.916 153.787L161.881 153.799L162.184 154.708ZM167.855 156.089L167.477 156.97L168.805 157.539L168.814 156.094L167.855 156.089ZM169.285 132.961L168.51 132.397L168.377 132.58L168.34 132.802L169.285 132.961ZM171.406 133.652L172.351 133.811L172.354 133.791L172.357 133.771L171.406 133.652ZM169.828 157.026L168.869 157.01L168.859 157.613L169.399 157.883L169.828 157.026ZM174.414 159.491L173.953 160.332L174.376 160.564L174.814 160.362L174.414 159.491ZM186.988 150.664L186.334 149.964L186.328 149.97L186.988 150.664ZM194.533 135.92L194.669 136.869L194.68 136.867L194.691 136.865L194.533 135.92ZM195.47 136.512L194.572 136.848L194.58 136.869L194.589 136.889L195.47 136.512ZM188.468 151.996L189.128 152.69L189.129 152.69L188.468 151.996ZM175.844 160.724L175.44 159.854L173.92 160.56L175.299 161.513L175.844 160.724ZM196.999 178.427L197.676 177.749L196.999 178.427ZM197.048 179.216L196.619 178.359L196.586 178.375L196.555 178.394L197.048 179.216ZM196.062 178.97L196.842 178.412L196.796 178.348L196.739 178.292L196.062 178.97ZM174.167 161.464L174.699 160.666L174.314 160.41L173.874 160.551L174.167 161.464ZM169.778 162.203L169.746 161.245L168.82 161.276V162.203H169.778ZM170.37 178.822L169.416 178.917L169.438 179.131L169.548 179.315L170.37 178.822ZM170.518 179.068H171.476V178.803L171.34 178.575L170.518 179.068ZM170.123 179.512L170.037 180.467L170.159 180.478L170.281 180.458L170.123 179.512ZM161.938 157.519L160.989 157.654L161 157.734L161.025 157.811L161.938 157.519ZM166.277 160.478L166.553 159.559L166.534 159.554L166.515 159.549L166.277 160.478ZM167.855 160.724L167.768 161.679L168.814 161.774V160.724H167.855ZM167.855 158.16H168.814V157.556L168.269 157.295L167.855 158.16ZM162.332 156.434L162.635 157.343L162.649 157.339L162.663 157.333L162.332 156.434ZM171.652 160.083H172.611V159.491L172.081 159.226L171.652 160.083ZM169.778 159.146L170.207 158.289L168.82 157.595V159.146H169.778ZM169.778 160.724H168.82V161.759L169.852 161.68L169.778 160.724ZM171.603 160.379L171.906 161.288L172.561 161.07V160.379H171.603ZM169.598 177.985C169.207 174.126 168.912 168.386 168.813 162.188L166.897 162.219C166.996 168.447 167.292 174.246 167.69 178.179L169.598 177.985ZM167.95 161.25C167.512 161.206 167.065 161.117 166.564 161.017L166.188 162.897C166.673 162.994 167.212 163.102 167.76 163.157L167.95 161.25ZM166.555 161.015C165.148 160.747 163.9 160.147 163.017 159.392C162.125 158.629 161.68 157.78 161.663 157.005L159.747 157.046C159.779 158.539 160.616 159.86 161.771 160.848C162.934 161.843 164.496 162.575 166.196 162.898L166.555 161.015ZM161.662 156.975C161.651 156.772 161.739 156.455 161.95 156.134C162.168 155.802 162.397 155.647 162.487 155.617L161.881 153.799C161.231 154.015 160.697 154.551 160.348 155.082C159.991 155.624 159.709 156.342 159.748 157.076L161.662 156.975ZM162.417 155.638C162.765 155.551 163.382 155.583 164.315 155.826C165.216 156.062 166.288 156.46 167.477 156.97L168.233 155.208C167.006 154.682 165.834 154.242 164.8 153.972C163.797 153.71 162.787 153.569 161.952 153.778L162.417 155.638ZM168.814 156.094C168.863 147.376 169.307 138.613 170.23 133.12L168.34 132.802C167.39 138.454 166.946 147.345 166.897 156.083L168.814 156.094ZM170.06 133.525C169.986 133.627 169.905 133.669 169.878 133.681C169.851 133.693 169.851 133.687 169.891 133.683C169.975 133.675 170.114 133.685 170.265 133.728C170.337 133.749 170.4 133.774 170.45 133.799C170.502 133.825 170.529 133.846 170.537 133.853C170.547 133.862 170.52 133.842 170.493 133.785C170.463 133.721 170.442 133.63 170.454 133.533L172.357 133.771C172.434 133.15 172.11 132.685 171.805 132.416C171.504 132.15 171.132 131.983 170.795 131.886C170.454 131.788 170.069 131.739 169.702 131.776C169.374 131.808 168.848 131.933 168.51 132.397L170.06 133.525ZM170.46 133.493C169.56 138.844 169.017 147.878 168.869 157.01L170.786 157.041C170.934 147.927 171.476 139.012 172.351 133.811L170.46 133.493ZM169.399 157.883C170.857 158.612 172.41 159.486 173.953 160.332L174.874 158.651C173.36 157.82 171.757 156.919 170.256 156.168L169.399 157.883ZM174.814 160.362C178.573 158.635 183.59 155.217 187.649 151.359L186.328 149.97C182.398 153.706 177.553 156.994 174.013 158.62L174.814 160.362ZM187.642 151.365C188.81 150.275 190.79 148.026 192.48 145.575C193.328 144.346 194.119 143.043 194.702 141.79C195.276 140.556 195.689 139.283 195.689 138.139H193.772C193.772 138.869 193.494 139.84 192.963 140.982C192.441 142.105 191.713 143.311 190.902 144.486C189.277 146.843 187.386 148.982 186.334 149.964L187.642 151.365ZM195.689 138.139C195.689 137.475 195.566 136.84 195.198 136.25L193.572 137.266C193.697 137.466 193.772 137.718 193.772 138.139H195.689ZM195.198 136.25C195.152 136.176 195.207 136.214 195.184 136.361C195.17 136.447 195.126 136.574 195.013 136.689C194.896 136.807 194.763 136.855 194.669 136.869L194.397 134.971C194.131 135.009 193.861 135.126 193.647 135.344C193.435 135.559 193.329 135.819 193.291 136.058C193.218 136.514 193.372 136.946 193.572 137.266L195.198 136.25ZM194.691 136.865C194.644 136.873 194.609 136.873 194.589 136.872C194.568 136.87 194.556 136.867 194.553 136.867C194.548 136.865 194.556 136.867 194.572 136.876C194.588 136.885 194.596 136.893 194.598 136.895C194.599 136.897 194.585 136.883 194.572 136.848L196.367 136.175C196.196 135.719 195.855 135.406 195.542 135.223C195.246 135.049 194.819 134.901 194.375 134.975L194.691 136.865ZM194.589 136.889C194.828 137.447 194.955 138.106 194.955 138.78H196.872C196.872 137.876 196.704 136.957 196.351 136.134L194.589 136.889ZM194.955 138.78C194.955 140.755 193.995 143.122 192.559 145.438C191.139 147.729 189.331 149.849 187.806 151.302L189.129 152.69C190.76 151.135 192.675 148.89 194.189 146.448C195.687 144.03 196.872 141.292 196.872 138.78H194.955ZM187.807 151.301C183.842 155.073 178.752 158.319 175.44 159.854L176.247 161.594C179.741 159.973 185.006 156.611 189.128 152.69L187.807 151.301ZM175.299 161.513C183.241 167.003 188.571 171.355 196.321 179.105L197.676 177.749C189.844 169.917 184.424 165.491 176.389 159.936L175.299 161.513ZM196.321 179.105C196.375 179.16 196.304 179.121 196.29 178.96C196.282 178.866 196.296 178.736 196.37 178.604C196.445 178.471 196.547 178.395 196.619 178.359L197.477 180.073C197.697 179.963 197.904 179.789 198.043 179.54C198.182 179.293 198.221 179.03 198.2 178.794C198.161 178.349 197.918 177.991 197.676 177.749L196.321 179.105ZM196.555 178.394C196.629 178.35 196.685 178.34 196.703 178.338C196.725 178.335 196.737 178.337 196.743 178.338C196.75 178.339 196.798 178.351 196.842 178.412L195.282 179.527C195.572 179.933 195.99 180.142 196.367 180.218C196.722 180.289 197.164 180.265 197.541 180.038L196.555 178.394ZM196.739 178.292C192.597 174.149 183.325 166.417 174.699 160.666L173.635 162.261C182.17 167.951 191.341 175.604 195.384 179.647L196.739 178.292ZM173.874 160.551C172.586 160.965 171.146 161.199 169.746 161.245L169.81 163.161C171.369 163.109 172.987 162.85 174.46 162.376L173.874 160.551ZM168.82 162.203C168.82 168.423 168.967 174.429 169.416 178.917L171.324 178.726C170.885 174.338 170.737 168.411 170.737 162.203H168.82ZM169.548 179.315L169.696 179.561L171.34 178.575L171.192 178.329L169.548 179.315ZM169.559 179.068C169.559 179.068 169.559 179.059 169.561 179.044C169.563 179.028 169.567 179.005 169.575 178.975C169.593 178.912 169.629 178.83 169.695 178.75C169.835 178.582 169.989 178.563 169.966 178.567L170.281 180.458C170.554 180.412 170.905 180.294 171.168 179.978C171.43 179.663 171.476 179.306 171.476 179.068H169.559ZM170.21 178.557C170.322 178.568 170.352 178.611 170.283 178.56C170.223 178.516 170.139 178.436 170.031 178.314C169.79 178.038 169.635 177.794 169.401 177.494L167.887 178.67C167.999 178.814 168.312 179.26 168.588 179.576C168.74 179.749 168.927 179.941 169.141 180.1C169.347 180.253 169.653 180.432 170.037 180.467L170.21 178.557ZM161.025 157.811C161.317 158.725 162.077 159.483 162.925 160.053C163.798 160.639 164.888 161.112 166.04 161.406L166.515 159.549C165.546 159.301 164.663 158.91 163.995 158.461C163.302 157.996 162.952 157.545 162.851 157.227L161.025 157.811ZM166.002 161.396C166.604 161.576 167.246 161.631 167.768 161.679L167.942 159.769C167.379 159.718 166.936 159.675 166.553 159.559L166.002 161.396ZM168.814 160.724V158.16H166.897V160.724H168.814ZM168.269 157.295C167.13 156.751 165.942 156.213 164.908 155.855C164.391 155.676 163.883 155.532 163.421 155.459C162.983 155.389 162.466 155.363 162.001 155.534L162.663 157.333C162.655 157.337 162.683 157.325 162.769 157.323C162.853 157.321 162.969 157.328 163.121 157.352C163.428 157.401 163.818 157.506 164.281 157.666C165.206 157.987 166.312 158.484 167.442 159.025L168.269 157.295ZM162.029 155.525C161.373 155.743 161.108 156.294 161.017 156.683C160.928 157.059 160.956 157.428 160.989 157.654L162.887 157.383C162.879 157.333 162.875 157.277 162.875 157.224C162.875 157.17 162.88 157.136 162.883 157.122C162.887 157.107 162.882 157.141 162.841 157.195C162.82 157.223 162.79 157.254 162.752 157.282C162.713 157.311 162.672 157.331 162.635 157.343L162.029 155.525ZM172.081 159.226L170.207 158.289L169.35 160.003L171.223 160.94L172.081 159.226ZM168.82 159.146V160.724H170.737V159.146H168.82ZM169.852 161.68C170.547 161.626 171.22 161.517 171.906 161.288L171.3 159.47C170.802 159.635 170.292 159.723 169.705 159.768L169.852 161.68ZM172.561 160.379C172.561 160.433 172.555 160.47 172.553 160.482C172.551 160.49 172.55 160.493 172.557 160.463C172.562 160.444 172.576 160.391 172.587 160.334C172.598 160.273 172.611 160.186 172.611 160.083H170.694C170.694 160.029 170.7 159.992 170.702 159.98C170.704 159.972 170.705 159.969 170.698 159.998C170.693 160.018 170.679 160.071 170.668 160.128C170.657 160.189 170.644 160.276 170.644 160.379H172.561ZM209.39 161.414L209.087 160.505L209.075 160.509L209.063 160.514L209.39 161.414ZM202.092 162.105L202.139 161.147L200.774 161.08L201.176 162.387L202.092 162.105ZM202.191 164.225L201.251 164.037L201.249 164.046L201.247 164.055L202.191 164.225ZM197.457 167.776L197.519 166.819L197.508 166.819L197.457 167.776ZM194.153 164.768L193.207 164.925L193.209 164.936L194.153 164.768ZM196.224 159.935V158.977H196.062L195.909 159.03L196.224 159.935ZM196.47 159.886V160.844H197.193L197.392 160.149L196.47 159.886ZM197.999 158.702L198.14 157.754L198.094 157.747L198.047 157.745L197.999 158.702ZM201.155 160.428L200.419 161.042L200.663 161.334L201.041 161.38L201.155 160.428ZM209.489 160.428V161.387H209.505L209.522 161.386L209.489 160.428ZM197.21 161.02L197.795 161.78L197.844 161.742L197.888 161.698L197.21 161.02ZM195.879 164.62L196.823 164.457L196.822 164.451L195.879 164.62ZM197.605 166.543L197.561 165.585L197.554 165.586L197.605 166.543ZM200.07 161.858L200.946 161.469L200.738 161.002L200.234 160.914L200.07 161.858ZM197.309 160.921L197.827 160.115L197.177 159.697L196.631 160.244L197.309 160.921ZM209.063 160.514C208.634 160.67 207.657 160.87 206.359 161.01C205.087 161.147 203.584 161.219 202.139 161.147L202.045 163.062C203.608 163.139 205.212 163.062 206.565 162.916C207.894 162.773 209.062 162.554 209.718 162.315L209.063 160.514ZM201.176 162.387C201.327 162.877 201.367 163.455 201.251 164.037L203.131 164.413C203.31 163.516 203.252 162.615 203.008 161.823L201.176 162.387ZM201.247 164.055C200.904 165.963 199.385 166.941 197.519 166.819L197.394 168.732C200.066 168.906 202.59 167.419 203.134 164.395L201.247 164.055ZM197.508 166.819C196.224 166.749 195.283 165.644 195.096 164.599L193.209 164.936C193.516 166.653 195.04 168.605 197.405 168.733L197.508 166.819ZM195.098 164.61C194.965 163.809 195.144 162.897 195.502 162.127C195.679 161.748 195.887 161.431 196.091 161.201C196.304 160.96 196.467 160.865 196.539 160.84L195.909 159.03C195.414 159.202 194.991 159.551 194.656 159.93C194.311 160.319 194.007 160.797 193.765 161.318C193.285 162.348 192.996 163.655 193.207 164.925L195.098 164.61ZM196.224 160.894C196.444 160.894 196.613 160.832 196.65 160.82C196.687 160.808 196.592 160.844 196.47 160.844V158.927C196.25 158.927 196.081 158.989 196.044 159.001C196.007 159.013 196.102 158.977 196.224 158.977V160.894ZM197.392 160.149C197.475 159.86 197.549 159.757 197.588 159.722C197.601 159.71 197.619 159.696 197.659 159.684C197.704 159.67 197.794 159.652 197.951 159.66L198.047 157.745C197.359 157.711 196.754 157.884 196.29 158.312C195.86 158.707 195.663 159.222 195.549 159.622L197.392 160.149ZM197.859 159.65C198.96 159.814 199.832 160.338 200.419 161.042L201.891 159.815C200.999 158.743 199.701 157.985 198.14 157.754L197.859 159.65ZM201.041 161.38C202.323 161.534 203.645 161.584 204.804 161.584V159.667C203.695 159.667 202.453 159.619 201.269 159.476L201.041 161.38ZM204.804 161.584C205.989 161.584 207.07 161.534 207.906 161.484C208.788 161.431 209.304 161.387 209.489 161.387V159.47C209.23 159.47 208.562 159.524 207.792 159.57C206.976 159.619 205.937 159.667 204.804 159.667V161.584ZM209.522 161.386C209.842 161.375 209.928 161.412 209.891 161.398C209.869 161.389 209.727 161.331 209.607 161.156C209.463 160.945 209.442 160.697 209.495 160.503C209.538 160.345 209.615 160.265 209.622 160.258C209.636 160.243 209.629 160.254 209.583 160.284C209.493 160.342 209.329 160.424 209.087 160.505L209.693 162.324C210.043 162.207 210.366 162.061 210.629 161.89C210.76 161.805 210.896 161.701 211.015 161.574C211.128 161.455 211.274 161.266 211.344 161.007C211.425 160.711 211.391 160.369 211.189 160.073C211.012 159.814 210.768 159.683 210.595 159.614C210.258 159.481 209.851 159.457 209.456 159.47L209.522 161.386ZM196.626 160.26C196.123 160.647 195.646 161.369 195.33 162.111C195.007 162.869 194.767 163.845 194.935 164.788L196.822 164.451C196.744 164.014 196.849 163.436 197.093 162.863C197.344 162.274 197.657 161.886 197.795 161.78L196.626 160.26ZM194.934 164.783C195.069 165.564 195.308 166.275 195.777 166.785C196.296 167.349 196.969 167.536 197.655 167.5L197.554 165.586C197.303 165.599 197.237 165.54 197.188 165.487C197.09 165.381 196.935 165.106 196.823 164.457L194.934 164.783ZM197.648 167.5C199.187 167.43 200.266 166.395 200.813 165.24C201.354 164.098 201.474 162.656 200.946 161.469L199.194 162.248C199.456 162.836 199.427 163.687 199.081 164.419C198.741 165.137 198.192 165.557 197.561 165.585L197.648 167.5ZM200.234 160.914C199.154 160.726 198.362 160.459 197.827 160.115L196.79 161.728C197.636 162.271 198.718 162.596 199.906 162.803L200.234 160.914ZM196.631 160.244L196.532 160.342L197.888 161.698L197.987 161.599L196.631 160.244ZM209.487 167.48L209.059 168.337L209.094 168.355L209.131 168.37L209.487 167.48ZM209.537 166.198L209.324 167.132L209.329 167.133L209.537 166.198ZM215.997 165.803L216.212 166.737L218.746 166.152L216.439 164.953L215.997 165.803ZM211.904 163.683L211.425 164.513L211.433 164.518L211.442 164.523L211.904 163.683ZM209.044 160.971L209.994 160.844L209.993 160.836L209.991 160.828L209.044 160.971ZM216.539 156.434L216.42 155.483L216.409 155.484L216.539 156.434ZM217.92 157.765L218.237 158.67L218.497 158.579L218.668 158.364L217.92 157.765ZM211.065 160.527L211.946 160.904L211.948 160.9L211.065 160.527ZM212.89 162.302L212.397 163.124L212.411 163.133L212.426 163.141L212.89 162.302ZM217.229 164.866L217.856 164.141L217.842 164.129L217.828 164.118L217.229 164.866ZM216.095 167.529L215.846 166.604L215.839 166.606L216.095 167.529ZM209.916 166.623C209.948 166.639 209.922 166.632 209.877 166.568C209.833 166.506 209.827 166.467 209.83 166.487C209.832 166.5 209.841 166.561 209.817 166.652C209.792 166.753 209.729 166.882 209.605 166.986C209.362 167.191 209.158 167.095 209.324 167.132L209.749 165.263C209.372 165.177 208.818 165.143 208.371 165.519C207.901 165.914 207.887 166.47 207.936 166.784C207.989 167.118 208.137 167.428 208.309 167.672C208.48 167.914 208.731 168.173 209.059 168.337L209.916 166.623ZM209.329 167.133C209.862 167.252 210.479 167.304 211.164 167.304V165.387C210.567 165.387 210.099 165.341 209.745 165.262L209.329 167.133ZM211.164 167.304C212.817 167.304 214.862 167.049 216.212 166.737L215.781 164.869C214.567 165.149 212.667 165.387 211.164 165.387V167.304ZM216.439 164.953C215.177 164.297 213.34 163.379 212.366 162.843L211.442 164.523C212.439 165.071 214.35 166.027 215.554 166.654L216.439 164.953ZM212.383 162.853C211.632 162.42 211.114 162.194 210.645 161.839C210.248 161.54 210.048 161.253 209.994 160.844L208.093 161.097C208.236 162.167 208.825 162.867 209.489 163.369C210.08 163.815 210.893 164.206 211.425 164.513L212.383 162.853ZM209.991 160.828C209.95 160.554 210.035 160.246 210.394 159.863C210.766 159.466 211.358 159.075 212.112 158.717C213.612 158.005 215.485 157.546 216.669 157.384L216.409 155.484C215.078 155.667 213.006 156.17 211.289 156.986C210.433 157.392 209.599 157.907 208.995 158.553C208.378 159.211 207.94 160.08 208.096 161.114L209.991 160.828ZM216.658 157.385C216.65 157.386 216.69 157.381 216.776 157.417C216.86 157.451 216.945 157.507 217.01 157.57C217.082 157.639 217.081 157.668 217.068 157.625C217.059 157.598 217.044 157.533 217.055 157.441C217.068 157.343 217.108 157.246 217.171 157.167L218.668 158.364C219.016 157.93 219.015 157.423 218.895 157.046C218.783 156.692 218.56 156.4 218.336 156.186C217.912 155.779 217.195 155.386 216.42 155.483L216.658 157.385ZM217.602 156.861C217.184 157.008 216.598 157.171 215.901 157.363C215.22 157.55 214.452 157.76 213.722 157.992C212.997 158.222 212.269 158.486 211.672 158.791C211.373 158.944 211.081 159.121 210.831 159.327C210.587 159.528 210.333 159.799 210.183 160.153L211.948 160.9C211.934 160.934 211.939 160.898 212.05 160.806C212.157 160.718 212.319 160.614 212.545 160.498C213 160.265 213.609 160.039 214.302 159.819C214.989 159.601 215.719 159.401 216.41 159.211C217.085 159.025 217.743 158.843 218.237 158.67L217.602 156.861ZM210.184 160.149C209.987 160.61 210.036 161.073 210.238 161.458C210.414 161.793 210.689 162.04 210.914 162.212C211.34 162.539 211.994 162.883 212.397 163.124L213.383 161.48C213.136 161.332 212.84 161.167 212.63 161.044C212.395 160.907 212.214 160.794 212.08 160.691C211.935 160.58 211.92 160.537 211.936 160.567C211.978 160.647 211.996 160.789 211.946 160.904L210.184 160.149ZM212.426 163.141C214.37 164.215 215.729 164.893 216.631 165.615L217.828 164.118C216.758 163.261 215.157 162.46 213.354 161.463L212.426 163.141ZM216.603 165.592C216.728 165.7 216.742 165.769 216.745 165.788C216.749 165.815 216.751 165.878 216.697 165.983C216.577 166.216 216.262 166.492 215.846 166.604L216.344 168.455C217.211 168.222 218.005 167.634 218.403 166.857C218.608 166.456 218.72 165.977 218.635 165.471C218.549 164.956 218.273 164.501 217.856 164.141L216.603 165.592ZM215.839 166.606C215.059 166.822 213.868 166.965 212.643 166.965V168.882C213.982 168.882 215.356 168.729 216.352 168.453L215.839 166.606ZM212.643 166.965C211.451 166.965 210.413 166.818 209.843 166.59L209.131 168.37C210.041 168.734 211.37 168.882 212.643 168.882V166.965ZM223.131 181.435L222.216 181.723L222.219 181.73L222.221 181.738L223.131 181.435ZM222.49 158.012L223.448 158.036L223.448 158.032L222.49 158.012ZM222.785 149.777L223.743 149.824L223.797 148.73L222.705 148.822L222.785 149.777ZM210.901 151.108L211.051 152.055L211.059 152.054L211.066 152.052L210.901 151.108ZM209.767 149.777L209.594 148.834L209.571 148.838L209.548 148.844L209.767 149.777ZM222.835 148.248L222.912 149.203L223.749 149.135L223.792 148.297L222.835 148.248ZM223.476 137.449L224.432 137.51L224.436 137.45L224.433 137.389L223.476 137.449ZM225.498 137.942L226.447 138.075L226.466 137.937L226.446 137.8L225.498 137.942ZM224.659 148.1L223.702 148.051L223.65 149.059H224.659V148.1ZM226.089 148.001L226.022 147.045L226.008 147.046L225.994 147.048L226.089 148.001ZM247.885 147.804L248.275 146.928L248.187 146.889L248.093 146.869L247.885 147.804ZM249.02 148.79L249.971 148.672L249.943 148.447L249.817 148.259L249.02 148.79ZM248.428 149.333L248.24 150.273L248.274 150.28L248.309 150.284L248.428 149.333ZM225.695 149.53L225.619 148.575L225.598 148.576L225.576 148.579L225.695 149.53ZM224.561 149.629V148.67H223.641L223.603 149.589L224.561 149.629ZM224.216 157.913L223.258 157.873L223.257 157.886L223.257 157.898L224.216 157.913ZM224.857 182.372L225.807 182.248L225.798 182.181L225.78 182.117L224.857 182.372ZM224.045 181.148C223.945 180.829 223.837 180.127 223.741 179.055C223.648 178.014 223.573 176.708 223.515 175.239C223.399 172.304 223.35 168.754 223.35 165.458H221.432C221.432 168.769 221.482 172.346 221.6 175.315C221.658 176.799 221.735 178.14 221.832 179.225C221.925 180.278 222.045 181.178 222.216 181.723L224.045 181.148ZM223.35 165.458C223.35 162.608 223.399 159.954 223.448 158.036L221.531 157.987C221.482 159.916 221.432 162.588 221.432 165.458H223.35ZM223.448 158.032C223.497 155.724 223.595 152.823 223.743 149.824L221.828 149.73C221.68 152.746 221.581 155.665 221.531 157.992L223.448 158.032ZM222.705 148.822C218.626 149.166 214.732 149.465 210.736 150.164L211.066 152.052C214.96 151.371 218.759 151.078 222.866 150.732L222.705 148.822ZM210.752 150.161C210.755 150.161 210.711 150.167 210.622 150.124C210.533 150.082 210.453 150.016 210.406 149.96C210.383 149.933 210.381 149.923 210.388 149.937C210.392 149.947 210.421 150.016 210.417 150.129C210.411 150.26 210.36 150.419 210.237 150.551C210.124 150.672 210.011 150.704 209.987 150.71L209.548 148.844C209.313 148.899 209.049 149.014 208.836 149.243C208.613 149.481 208.513 149.772 208.501 150.048C208.48 150.54 208.731 150.944 208.931 151.184C209.335 151.671 210.137 152.199 211.051 152.055L210.752 150.161ZM209.94 150.72C213.393 150.087 216.856 149.696 222.912 149.203L222.757 147.293C216.683 147.787 213.144 148.184 209.594 148.834L209.94 150.72ZM223.792 148.297C223.989 144.458 224.235 140.567 224.432 137.51L222.519 137.387C222.322 140.445 222.075 144.346 221.878 148.199L223.792 148.297ZM224.433 137.389C224.439 137.495 224.411 137.64 224.315 137.771C224.228 137.889 224.131 137.935 224.095 137.948C224.06 137.962 224.054 137.957 224.088 137.956C224.118 137.955 224.166 137.958 224.225 137.969C224.35 137.995 224.462 138.046 224.528 138.097C224.592 138.147 224.559 138.148 224.55 138.084L226.446 137.8C226.362 137.242 226.034 136.837 225.697 136.578C225.363 136.321 224.968 136.163 224.601 136.09C224.249 136.019 223.809 136.004 223.405 136.16C223.194 136.241 222.953 136.386 222.77 136.635C222.578 136.897 222.5 137.205 222.519 137.508L224.433 137.389ZM224.548 137.809C224.197 140.318 223.9 144.198 223.702 148.051L225.617 148.149C225.814 144.31 226.108 140.497 226.447 138.075L224.548 137.809ZM224.659 149.059C225.16 149.059 225.704 149.003 226.185 148.955L225.994 147.048C225.489 147.098 225.046 147.142 224.659 147.142V149.059ZM226.157 148.958C230.365 148.661 235.945 148.22 240.735 148.22V146.303C235.86 146.303 230.197 146.751 226.022 147.045L226.157 148.958ZM240.735 148.22C243.534 148.22 246.01 148.369 247.677 148.74L248.093 146.869C246.21 146.45 243.558 146.303 240.735 146.303V148.22ZM247.496 148.68C247.588 148.721 247.735 148.82 247.9 148.97C248.063 149.117 248.178 149.256 248.222 149.322L249.817 148.259C249.664 148.029 249.434 147.773 249.19 147.551C248.948 147.331 248.627 147.085 248.275 146.928L247.496 148.68ZM248.068 148.909C248.066 148.892 248.057 148.685 248.256 148.509C248.43 148.356 248.585 148.387 248.547 148.382L248.309 150.284C248.665 150.329 249.141 150.285 249.524 149.947C249.933 149.586 250.022 149.084 249.971 148.672L248.068 148.909ZM248.616 148.393C246.303 147.93 243.467 147.783 240.489 147.783V149.7C243.428 149.7 246.114 149.848 248.24 150.273L248.616 148.393ZM240.489 147.783C235.166 147.783 229.355 148.28 225.619 148.575L225.77 150.486C229.531 150.189 235.258 149.7 240.489 149.7V147.783ZM225.576 148.579C225.159 148.631 224.882 148.67 224.561 148.67V150.587C225.029 150.587 225.442 150.528 225.814 150.481L225.576 148.579ZM223.603 149.589L223.258 157.873L225.173 157.953L225.518 149.669L223.603 149.589ZM223.257 157.898C223.208 161.03 223.06 165.696 223.06 170.192H224.977C224.977 165.713 225.124 161.108 225.174 157.928L223.257 157.898ZM223.06 170.192C223.06 172.717 223.109 175.204 223.24 177.357C223.37 179.491 223.583 181.365 223.933 182.628L225.78 182.117C225.489 181.062 225.283 179.361 225.154 177.241C225.026 175.141 224.977 172.697 224.977 170.192H223.06ZM223.906 182.496C223.914 182.559 223.894 182.496 223.938 182.374C223.996 182.214 224.14 182.032 224.372 181.948C224.56 181.881 224.697 181.917 224.713 181.921C224.738 181.928 224.726 181.928 224.675 181.898C224.576 181.837 224.434 181.72 224.3 181.56C224.165 181.4 224.078 181.246 224.04 181.132L222.221 181.738C222.477 182.504 223.112 183.192 223.682 183.537C223.835 183.63 224.018 183.72 224.22 183.774C224.413 183.825 224.708 183.865 225.024 183.751C225.383 183.621 225.626 183.343 225.74 183.026C225.841 182.748 225.836 182.468 225.807 182.248L223.906 182.496Z" fill="#FEBF00" mask="url(#path-1-outside-1_408_115)"/>
<path d="M40.9243 136.325V82.5737" stroke="#FEBF00" stroke-width="5.30876"/>
<path d="M17.0347 103.809L124.537 4.26945L232.704 103.809" stroke="#FEBF00" stroke-width="5.30876"/>
<path d="M208.813 136.989V82.5737" stroke="#FEBF00" stroke-width="5.30876"/>
<path d="M40.2603 183.44V196.712H209.478V182.113" stroke="#FEBF00" stroke-width="5.30876"/>
<path d="M101.975 85.1179C101.975 77.0186 106.039 60.8201 122.296 58.7952C123.109 58.7952 122.296 76.3437 122.296 85.1179H101.975Z" fill="#FEBF00"/>
<path d="M126.417 85.1178H147.1C145.786 76.9703 139.812 60.2993 126.417 58.7951V85.1178Z" fill="#FEBF00"/>
<rect x="101.976" y="88.8779" width="20.6821" height="18.8019" fill="#FEBF00"/>
<rect x="126.417" y="88.8779" width="20.6821" height="18.8019" fill="#FEBF00"/>
</svg>
