<svg width="251" height="210" viewBox="0 0 251 210" fill="none" xmlns="http://www.w3.org/2000/svg">
<mask id="path-1-outside-1_408_115" maskUnits="userSpaceOnUse" x="0.141113" y="131.417" width="250" height="53" fill="black">
<rect fill="white" x="0.141113" y="131.417" width="250" height="53"/>
<path d="M36.4222 169.699C34.4497 160.675 33.0197 151.799 32.28 143.268C26.6584 162.351 12.5551 178.427 1.55844 173.348C1.16394 173.003 1.11463 172.559 1.60775 172.707C16.0562 177.194 28.335 152.045 31.0965 142.084C31.2937 141.344 31.343 140.309 31.4417 139.717C31.3924 139.668 31.4417 139.618 31.4417 139.569C31.5896 138.879 33.2169 139.865 33.4142 140.802C34.5483 147.656 35.0908 156.927 37.1619 165.409C40.5644 156.976 49.8351 136.758 51.8076 135.082C52.5966 134.046 53.9774 135.427 53.9281 136.413C53.1884 144.057 52.6953 149.974 52.6953 156.138C52.6953 157.371 52.6953 158.554 52.7446 159.787C53.0404 169.502 54.5691 176.603 58.2675 177.786C58.5634 177.885 58.662 178.427 58.0703 178.427C52.498 178.427 51.3145 166.987 50.9693 160.083C50.92 158.801 50.8707 157.469 50.8707 156.138C50.8707 150.073 51.4625 143.415 52.0542 137.547C49.5886 141.394 40.3179 161.365 38.0002 167.776C38.0495 169.009 36.9153 170.143 36.4222 169.699ZM57.9593 166.247C57.2197 165.458 56.8745 163.781 56.8745 162.154C56.8745 160.625 57.1703 159.097 57.7128 158.258C57.7621 158.012 58.2552 157.963 58.847 158.111C59.3894 158.308 59.6853 158.702 59.636 158.949C59.2415 159.343 58.2552 164.916 58.9949 165.557C59.3894 165.853 59.8825 166 60.425 166C63.4823 166 68.7094 162.055 70.1888 160.576C70.386 160.379 70.8792 160.675 70.2874 161.76C69.3505 163.486 64.8631 167.381 61.4605 167.529C60.2277 167.578 58.8963 167.283 57.9593 166.247ZM58.9949 154.807C58.4032 154.609 58.1073 154.166 58.3538 153.968C58.4525 153.82 58.7977 152.834 58.8963 152.588L58.9949 151.848C58.9949 151.552 59.5373 151.453 60.0305 151.651C60.6715 151.799 61.066 152.193 60.9674 152.44C60.9674 152.637 60.9674 152.982 60.8195 153.278C60.7208 153.524 60.3263 154.609 60.1784 154.856C60.0305 155.053 59.4387 155.053 58.9949 154.807ZM70.1499 165.409C70.1006 164.669 70.0513 163.929 70.0513 163.239C70.0513 161.661 70.1992 160.231 70.3964 158.998C70.5444 158.16 72.1717 159.245 72.0237 159.886C72.0731 161.168 71.8758 162.055 71.9251 163.683C73.651 161.809 75.3277 159.836 77.4481 158.801C77.8426 158.604 78.6809 159.097 79.0754 159.639C79.6178 160.921 79.6671 161.957 80.111 163.683L84.8942 159.787C85.2394 159.541 86.1764 160.034 86.5215 160.576C87.0147 161.562 87.2612 163.338 88.2475 164.176C88.7899 164.521 89.3817 164.768 90.072 164.768C91.65 164.768 97.0251 162.351 97.7154 161.168C97.8634 160.921 98.5044 161.316 97.9127 162.401C97.173 163.732 93.9677 166.148 91.1569 166.148C90.1213 166.148 88.9378 165.853 87.853 165.162C87.1133 164.669 86.6202 164.077 86.1764 163.486C85.8312 162.992 85.5846 162.45 85.4367 162.006C83.2176 163.831 81.9848 164.817 80.6534 165.705C80.2589 165.902 79.322 165.409 79.0261 164.866C78.533 163.781 78.2371 162.647 77.7933 160.724C75.2784 162.351 73.8976 164.965 71.9744 166.642C71.5799 166.987 70.2978 166 70.1499 165.409ZM97.9774 166.247C97.2377 165.458 96.8925 163.781 96.8925 162.154C96.8925 160.625 97.1884 159.097 97.7308 158.258C97.7802 158.012 98.2733 157.963 98.865 158.111C99.4075 158.308 99.7033 158.702 99.654 158.949C99.2595 159.343 98.2733 164.916 99.013 165.557C99.4075 165.853 99.9006 166 100.443 166C103.5 166 108.727 162.055 110.207 160.576C110.404 160.379 110.897 160.675 110.305 161.76C109.369 163.486 104.881 167.381 101.479 167.529C100.246 167.578 98.9143 167.283 97.9774 166.247ZM99.013 154.807C98.4212 154.609 98.1253 154.166 98.3719 153.968C98.4705 153.82 98.8157 152.834 98.9143 152.588L99.013 151.848C99.013 151.552 99.5554 151.453 100.049 151.651C100.69 151.799 101.084 152.193 100.985 152.44C100.985 152.637 100.985 152.982 100.838 153.278C100.739 153.524 100.344 154.609 100.196 154.856C100.049 155.053 99.4568 155.053 99.013 154.807ZM119.143 160.675C115.494 161.069 111.943 163.436 111.006 165.507L110.957 166.642C111.006 167.283 109.28 166.839 109.231 166.05C109.182 165.655 109.132 165.162 109.231 164.57L109.724 159.639C109.724 159.294 110.217 159.245 110.71 159.442C111.105 159.689 111.549 160.132 111.499 160.428L111.401 162.105C113.077 160.872 116.628 159.097 119.389 159.393C120.326 159.491 121.214 160.379 121.214 161.119C121.214 161.612 121.066 162.351 121.017 163.14C121.017 163.732 121.46 164.176 122.151 164.373C123.186 164.669 124.814 164.768 126.835 164.768C132.654 164.768 141.136 163.781 143.355 163.14C143.7 163.042 145.525 162.598 145.771 162.992C146.166 163.387 144.095 164.176 143.75 164.275C140.248 165.409 133.049 166.592 127.575 166.592C125.849 166.592 124.321 166.444 123.088 166.198C122.249 165.951 118.748 165.211 119.143 160.675ZM168.751 178.082C168.356 174.186 168.06 168.417 167.962 162.203C167.468 162.154 166.975 162.055 166.482 161.957C163.375 161.365 160.861 159.294 160.811 157.026C160.762 156.089 161.551 154.955 162.291 154.708C163.474 154.412 165.545 155.053 167.962 156.089C168.011 147.36 168.455 138.534 169.392 132.961C169.786 132.419 171.611 132.863 171.512 133.652C170.624 138.928 170.082 147.903 169.934 157.026C171.413 157.765 172.991 158.653 174.52 159.491C178.169 157.815 183.1 154.461 187.095 150.664C189.314 148.593 194.837 141.887 194.837 138.139C194.837 137.597 194.738 137.153 194.492 136.758C194.245 136.364 194.294 135.969 194.639 135.92C194.935 135.871 195.428 136.117 195.576 136.512C195.872 137.202 196.02 137.991 196.02 138.78C196.02 143.268 191.73 148.988 188.574 151.996C184.53 155.842 179.353 159.146 175.95 160.724C183.939 166.247 189.314 170.636 197.105 178.427C197.401 178.723 197.45 179.068 197.154 179.216C196.908 179.364 196.415 179.315 196.168 178.97C192.075 174.877 182.854 167.184 174.273 161.464C172.893 161.908 171.364 162.154 169.885 162.203C169.885 168.417 170.033 174.384 170.476 178.822L170.624 179.068C170.624 179.315 170.526 179.463 170.23 179.512C169.687 179.463 169.096 178.526 168.751 178.082ZM162.044 157.519C162.439 158.752 164.263 159.935 166.384 160.478C166.877 160.625 167.419 160.675 167.962 160.724V158.16C165.693 157.075 163.375 156.089 162.439 156.434C161.995 156.582 161.995 157.174 162.044 157.519ZM171.759 160.083L169.885 159.146V160.724C170.526 160.675 171.118 160.576 171.709 160.379C171.709 160.28 171.759 160.182 171.759 160.083ZM209.497 161.414C208.412 161.809 205.207 162.253 202.199 162.105C202.396 162.746 202.445 163.486 202.297 164.225C201.853 166.691 199.832 167.924 197.563 167.776C195.739 167.677 194.506 166.148 194.259 164.768C193.914 162.697 195.196 160.33 196.33 159.935C196.429 159.935 196.478 159.886 196.577 159.886C196.774 159.195 197.119 158.653 198.106 158.702C199.437 158.9 200.522 159.541 201.262 160.428C202.494 160.576 203.776 160.625 204.911 160.625C207.228 160.625 209.152 160.428 209.595 160.428C211.025 160.379 210.68 161.02 209.497 161.414ZM197.317 161.02C196.676 161.513 195.739 163.239 195.985 164.62C196.232 166.05 196.774 166.592 197.711 166.543C199.881 166.444 200.966 163.633 200.177 161.858C199.043 161.661 198.106 161.365 197.415 160.921L197.317 161.02ZM209.594 167.48C209.002 167.184 208.558 165.951 209.643 166.198C210.087 166.296 210.629 166.346 211.27 166.346C212.848 166.346 214.821 166.099 216.103 165.803C214.87 165.162 212.996 164.225 212.01 163.683C210.728 162.943 209.347 162.45 209.15 160.971C208.755 158.357 214.131 156.779 216.645 156.434C217.434 156.335 218.421 157.272 218.026 157.765C216.202 158.406 211.714 159.245 211.172 160.527C210.876 161.217 212.01 161.71 212.996 162.302C214.87 163.338 216.35 164.077 217.336 164.866C218.421 165.803 217.484 167.184 216.202 167.529C215.314 167.776 214.032 167.924 212.75 167.924C211.517 167.924 210.333 167.776 209.594 167.48ZM223.237 181.435C222.695 179.709 222.497 172.066 222.497 165.458C222.497 162.598 222.547 159.935 222.596 158.012C222.645 155.694 222.744 152.785 222.892 149.777C218.799 150.122 214.953 150.418 211.008 151.108C210.071 151.256 209.035 149.974 209.873 149.777C213.375 149.136 216.876 148.741 222.941 148.248C223.138 144.402 223.385 140.506 223.582 137.449C223.533 136.66 225.456 136.956 225.604 137.942C225.259 140.407 224.963 144.254 224.766 148.1C225.21 148.1 225.703 148.051 226.196 148.001C230.387 147.706 236.009 147.262 240.842 147.262C243.652 147.262 246.217 147.41 247.992 147.804C248.436 148.001 248.929 148.495 249.126 148.79C249.175 149.185 248.929 149.382 248.534 149.333C246.315 148.889 243.554 148.741 240.595 148.741C235.319 148.741 229.549 149.234 225.801 149.53C225.407 149.579 225.062 149.629 224.667 149.629L224.322 157.913C224.273 161.069 224.125 165.705 224.125 170.192C224.125 175.222 224.322 180.054 224.963 182.372C225.111 183.506 223.582 182.471 223.237 181.435Z"/>
</mask>
<path d="M36.4222 169.699C34.4497 160.675 33.0197 151.799 32.28 143.268C26.6584 162.351 12.5551 178.427 1.55844 173.348C1.16394 173.003 1.11463 172.559 1.60775 172.707C16.0562 177.194 28.335 152.045 31.0965 142.084C31.2937 141.344 31.343 140.309 31.4417 139.717C31.3924 139.668 31.4417 139.618 31.4417 139.569C31.5896 138.879 33.2169 139.865 33.4142 140.802C34.5483 147.656 35.0908 156.927 37.1619 165.409C40.5644 156.976 49.8351 136.758 51.8076 135.082C52.5966 134.046 53.9774 135.427 53.9281 136.413C53.1884 144.057 52.6953 149.974 52.6953 156.138C52.6953 157.371 52.6953 158.554 52.7446 159.787C53.0404 169.502 54.5691 176.603 58.2675 177.786C58.5634 177.885 58.662 178.427 58.0703 178.427C52.498 178.427 51.3145 166.987 50.9693 160.083C50.92 158.801 50.8707 157.469 50.8707 156.138C50.8707 150.073 51.4625 143.415 52.0542 137.547C49.5886 141.394 40.3179 161.365 38.0002 167.776C38.0495 169.009 36.9153 170.143 36.4222 169.699ZM57.9593 166.247C57.2197 165.458 56.8745 163.781 56.8745 162.154C56.8745 160.625 57.1703 159.097 57.7128 158.258C57.7621 158.012 58.2552 157.963 58.847 158.111C59.3894 158.308 59.6853 158.702 59.636 158.949C59.2415 159.343 58.2552 164.916 58.9949 165.557C59.3894 165.853 59.8825 166 60.425 166C63.4823 166 68.7094 162.055 70.1888 160.576C70.386 160.379 70.8792 160.675 70.2874 161.76C69.3505 163.486 64.8631 167.381 61.4605 167.529C60.2277 167.578 58.8963 167.283 57.9593 166.247ZM58.9949 154.807C58.4032 154.609 58.1073 154.166 58.3538 153.968C58.4525 153.82 58.7977 152.834 58.8963 152.588L58.9949 151.848C58.9949 151.552 59.5373 151.453 60.0305 151.651C60.6715 151.799 61.066 152.193 60.9674 152.44C60.9674 152.637 60.9674 152.982 60.8195 153.278C60.7208 153.524 60.3263 154.609 60.1784 154.856C60.0305 155.053 59.4387 155.053 58.9949 154.807ZM70.1499 165.409C70.1006 164.669 70.0513 163.929 70.0513 163.239C70.0513 161.661 70.1992 160.231 70.3964 158.998C70.5444 158.16 72.1717 159.245 72.0237 159.886C72.0731 161.168 71.8758 162.055 71.9251 163.683C73.651 161.809 75.3277 159.836 77.4481 158.801C77.8426 158.604 78.6809 159.097 79.0754 159.639C79.6178 160.921 79.6671 161.957 80.111 163.683L84.8942 159.787C85.2394 159.541 86.1764 160.034 86.5215 160.576C87.0147 161.562 87.2612 163.338 88.2475 164.176C88.7899 164.521 89.3817 164.768 90.072 164.768C91.65 164.768 97.0251 162.351 97.7154 161.168C97.8634 160.921 98.5044 161.316 97.9127 162.401C97.173 163.732 93.9677 166.148 91.1569 166.148C90.1213 166.148 88.9378 165.853 87.853 165.162C87.1133 164.669 86.6202 164.077 86.1764 163.486C85.8312 162.992 85.5846 162.45 85.4367 162.006C83.2176 163.831 81.9848 164.817 80.6534 165.705C80.2589 165.902 79.322 165.409 79.0261 164.866C78.533 163.781 78.2371 162.647 77.7933 160.724C75.2784 162.351 73.8976 164.965 71.9744 166.642C71.5799 166.987 70.2978 166 70.1499 165.409ZM97.9774 166.247C97.2377 165.458 96.8925 163.781 96.8925 162.154C96.8925 160.625 97.1884 159.097 97.7308 158.258C97.7802 158.012 98.2733 157.963 98.865 158.111C99.4075 158.308 99.7033 158.702 99.654 158.949C99.2595 159.343 98.2733 164.916 99.013 165.557C99.4075 165.853 99.9006 166 100.443 166C103.5 166 108.727 162.055 110.207 160.576C110.404 160.379 110.897 160.675 110.305 161.76C109.369 163.486 104.881 167.381 101.479 167.529C100.246 167.578 98.9143 167.283 97.9774 166.247ZM99.013 154.807C98.4212 154.609 98.1253 154.166 98.3719 153.968C98.4705 153.82 98.8157 152.834 98.9143 152.588L99.013 151.848C99.013 151.552 99.5554 151.453 100.049 151.651C100.69 151.799 101.084 152.193 100.985 152.44C100.985 152.637 100.985 152.982 100.838 153.278C100.739 153.524 100.344 154.609 100.196 154.856C100.049 155.053 99.4568 155.053 99.013 154.807ZM119.143 160.675C115.494 161.069 111.943 163.436 111.006 165.507L110.957 166.642C111.006 167.283 109.28 166.839 109.231 166.05C109.182 165.655 109.132 165.162 109.231 164.57L109.724 159.639C109.724 159.294 110.217 159.245 110.71 159.442C111.105 159.689 111.549 160.132 111.499 160.428L111.401 162.105C113.077 160.872 116.628 159.097 119.389 159.393C120.326 159.491 121.214 160.379 121.214 161.119C121.214 161.612 121.066 162.351 121.017 163.14C121.017 163.732 121.46 164.176 122.151 164.373C123.186 164.669 124.814 164.768 126.835 164.768C132.654 164.768 141.136 163.781 143.355 163.14C143.7 163.042 145.525 162.598 145.771 162.992C146.166 163.387 144.095 164.176 143.75 164.275C140.248 165.409 133.049 166.592 127.575 166.592C125.849 166.592 124.321 166.444 123.088 166.198C122.249 165.951 118.748 165.211 119.143 160.675ZM168.751 178.082C168.356 174.186 168.06 168.417 167.962 162.203C167.468 162.154 166.975 162.055 166.482 161.957C163.375 161.365 160.861 159.294 160.811 157.026C160.762 156.089 161.551 154.955 162.291 154.708C163.474 154.412 165.545 155.053 167.962 156.089C168.011 147.36 168.455 138.534 169.392 132.961C169.786 132.419 171.611 132.863 171.512 133.652C170.624 138.928 170.082 147.903 169.934 157.026C171.413 157.765 172.991 158.653 174.52 159.491C178.169 157.815 183.1 154.461 187.095 150.664C189.314 148.593 194.837 141.887 194.837 138.139C194.837 137.597 194.738 137.153 194.492 136.758C194.245 136.364 194.294 135.969 194.639 135.92C194.935 135.871 195.428 136.117 195.576 136.512C195.872 137.202 196.02 137.991 196.02 138.78C196.02 143.268 191.73 148.988 188.574 151.996C184.53 155.842 179.353 159.146 175.95 160.724C183.939 166.247 189.314 170.636 197.105 178.427C197.401 178.723 197.45 179.068 197.154 179.216C196.908 179.364 196.415 179.315 196.168 178.97C192.075 174.877 182.854 167.184 174.273 161.464C172.893 161.908 171.364 162.154 169.885 162.203C169.885 168.417 170.033 174.384 170.476 178.822L170.624 179.068C170.624 179.315 170.526 179.463 170.23 179.512C169.687 179.463 169.096 178.526 168.751 178.082ZM162.044 157.519C162.439 158.752 164.263 159.935 166.384 160.478C166.877 160.625 167.419 160.675 167.962 160.724V158.16C165.693 157.075 163.375 156.089 162.439 156.434C161.995 156.582 161.995 157.174 162.044 157.519ZM171.759 160.083L169.885 159.146V160.724C170.526 160.675 171.118 160.576 171.709 160.379C171.709 160.28 171.759 160.182 171.759 160.083ZM209.497 161.414C208.412 161.809 205.207 162.253 202.199 162.105C202.396 162.746 202.445 163.486 202.297 164.225C201.853 166.691 199.832 167.924 197.563 167.776C195.739 167.677 194.506 166.148 194.259 164.768C193.914 162.697 195.196 160.33 196.33 159.935C196.429 159.935 196.478 159.886 196.577 159.886C196.774 159.195 197.119 158.653 198.106 158.702C199.437 158.9 200.522 159.541 201.262 160.428C202.494 160.576 203.776 160.625 204.911 160.625C207.228 160.625 209.152 160.428 209.595 160.428C211.025 160.379 210.68 161.02 209.497 161.414ZM197.317 161.02C196.676 161.513 195.739 163.239 195.985 164.62C196.232 166.05 196.774 166.592 197.711 166.543C199.881 166.444 200.966 163.633 200.177 161.858C199.043 161.661 198.106 161.365 197.415 160.921L197.317 161.02ZM209.594 167.48C209.002 167.184 208.558 165.951 209.643 166.198C210.087 166.296 210.629 166.346 211.27 166.346C212.848 166.346 214.821 166.099 216.103 165.803C214.87 165.162 212.996 164.225 212.01 163.683C210.728 162.943 209.347 162.45 209.15 160.971C208.755 158.357 214.131 156.779 216.645 156.434C217.434 156.335 218.421 157.272 218.026 157.765C216.202 158.406 211.714 159.245 211.172 160.527C210.876 161.217 212.01 161.71 212.996 162.302C214.87 163.338 216.35 164.077 217.336 164.866C218.421 165.803 217.484 167.184 216.202 167.529C215.314 167.776 214.032 167.924 212.75 167.924C211.517 167.924 210.333 167.776 209.594 167.48ZM223.237 181.435C222.695 179.709 222.497 172.066 222.497 165.458C222.497 162.598 222.547 159.935 222.596 158.012C222.645 155.694 222.744 152.785 222.892 149.777C218.799 150.122 214.953 150.418 211.008 151.108C210.071 151.256 209.035 149.974 209.873 149.777C213.375 149.136 216.876 148.741 222.941 148.248C223.138 144.402 223.385 140.506 223.582 137.449C223.533 136.66 225.456 136.956 225.604 137.942C225.259 140.407 224.963 144.254 224.766 148.1C225.21 148.1 225.703 148.051 226.196 148.001C230.387 147.706 236.009 147.262 240.842 147.262C243.652 147.262 246.217 147.41 247.992 147.804C248.436 148.001 248.929 148.495 249.126 148.79C249.175 149.185 248.929 149.382 248.534 149.333C246.315 148.889 243.554 148.741 240.595 148.741C235.319 148.741 229.549 149.234 225.801 149.53C225.407 149.579 225.062 149.629 224.667 149.629L224.322 157.913C224.273 161.069 224.125 165.705 224.125 170.192C224.125 175.222 224.322 180.054 224.963 182.372C225.111 183.506 223.582 182.471 223.237 181.435Z" fill="#FEBF00"/>
<path d="M36.4222 169.699L35.4858 169.904L35.5517 170.205L35.781 170.411L36.4222 169.699ZM32.28 143.268L33.2349 143.185L31.3605 142.997L32.28 143.268ZM1.55844 173.348L0.92724 174.069L1.03116 174.16L1.15651 174.218L1.55844 173.348ZM1.60775 172.707L1.89206 171.792L1.88318 171.789L1.60775 172.707ZM31.0965 142.084L32.0202 142.34L32.0226 142.331L31.0965 142.084ZM31.4417 139.717L32.3872 139.875L32.4683 139.388L32.1194 139.039L31.4417 139.717ZM31.4417 139.569L30.5044 139.368L30.4831 139.468V139.569H31.4417ZM33.4142 140.802L34.3598 140.645L34.3564 140.625L34.3521 140.604L33.4142 140.802ZM37.1619 165.409L36.2307 165.636L36.9369 168.528L38.0508 165.767L37.1619 165.409ZM51.8076 135.082L52.4284 135.812L52.5073 135.745L52.5701 135.663L51.8076 135.082ZM53.9281 136.413L54.8821 136.505L54.8843 136.483L54.8854 136.461L53.9281 136.413ZM52.7446 159.787L53.7027 159.758L53.7023 159.749L52.7446 159.787ZM58.2675 177.786L58.5707 176.877L58.5597 176.873L58.2675 177.786ZM50.9693 160.083L50.0114 160.12L50.012 160.131L50.9693 160.083ZM52.0542 137.547L53.0079 137.643L51.2472 137.03L52.0542 137.547ZM38.0002 167.776L37.0988 167.45L37.0349 167.626L37.0424 167.814L38.0002 167.776ZM37.3586 169.494C35.3933 160.503 33.9705 151.668 33.2349 143.185L31.325 143.35C32.0689 151.929 33.5061 160.847 35.4858 169.904L37.3586 169.494ZM31.3605 142.997C28.5853 152.418 23.7232 161.062 18.2472 166.701C12.7209 172.392 6.87786 174.749 1.96036 172.478L1.15651 174.218C7.23565 177.026 13.9426 173.885 19.6225 168.037C25.3527 162.136 30.353 153.201 33.1994 143.538L31.3605 142.997ZM2.18963 172.627C2.1572 172.598 2.14835 172.582 2.15357 172.59C2.15652 172.595 2.1678 172.615 2.17956 172.65C2.19059 172.683 2.20876 172.75 2.20876 172.843C2.20876 172.937 2.18937 173.08 2.10286 173.231C2.01132 173.39 1.87452 173.506 1.72796 173.571C1.47408 173.685 1.29038 173.612 1.33232 173.625L1.88318 171.789C1.67856 171.727 1.3161 171.655 0.945101 171.821C0.469309 172.034 0.291706 172.483 0.291708 172.843C0.291708 173.148 0.406668 173.404 0.507166 173.572C0.61717 173.757 0.762423 173.925 0.92724 174.069L2.18963 172.627ZM1.32344 173.622C5.25063 174.842 9.00584 174.028 12.4055 172.044C15.7849 170.072 18.8511 166.928 21.502 163.388C26.8022 156.311 30.6112 147.422 32.0202 142.34L30.1728 141.828C28.8203 146.707 25.1092 155.373 19.9675 162.239C17.3975 165.671 14.5123 168.595 11.4394 170.388C8.38693 172.169 5.18911 172.816 1.89205 171.792L1.32344 173.622ZM32.0226 142.331C32.1407 141.888 32.2085 141.384 32.2582 140.955C32.3122 140.49 32.343 140.139 32.3872 139.875L30.4962 139.559C30.4417 139.886 30.3985 140.35 30.3539 140.735C30.305 141.157 30.2495 141.54 30.1703 141.837L32.0226 142.331ZM32.1194 139.039C32.2291 139.149 32.3261 139.307 32.363 139.503C32.3964 139.682 32.3665 139.822 32.3531 139.876C32.3461 139.903 32.3394 139.923 32.3394 139.923C32.3355 139.935 32.3453 139.906 32.3496 139.892C32.3605 139.857 32.4002 139.732 32.4002 139.569H30.4831C30.4831 139.431 30.5167 139.33 30.5198 139.32C30.5203 139.319 30.5259 139.301 30.5179 139.326C30.5139 139.338 30.5033 139.37 30.4933 139.411C30.4737 139.489 30.4407 139.654 30.4788 139.857C30.5203 140.078 30.6296 140.261 30.7639 140.395L32.1194 139.039ZM32.3789 139.77C32.3513 139.899 32.2616 140.077 32.0725 140.196C31.9083 140.3 31.7657 140.298 31.7302 140.296C31.6775 140.293 31.7408 140.289 31.9064 140.391C32.0506 140.48 32.2002 140.606 32.3152 140.74C32.4373 140.883 32.4716 140.977 32.4762 140.999L34.3521 140.604C34.2581 140.158 34.015 139.778 33.7719 139.494C33.5217 139.201 33.2182 138.948 32.9124 138.759C32.6281 138.584 32.2445 138.405 31.8389 138.382C31.627 138.37 31.3314 138.397 31.0491 138.575C30.742 138.769 30.569 139.067 30.5044 139.368L32.3789 139.77ZM32.4685 140.958C33.0317 144.362 33.4454 148.349 33.9857 152.616C34.5232 156.859 35.1819 161.341 36.2307 165.636L38.0931 165.181C37.0708 160.995 36.4227 156.6 35.8876 152.375C35.3554 148.172 34.9308 144.096 34.3598 140.645L32.4685 140.958ZM38.0508 165.767C39.743 161.574 42.9031 154.429 45.8875 148.122C47.3795 144.969 48.8225 142.035 50.0125 139.791C50.608 138.667 51.1344 137.727 51.568 137.023C51.785 136.67 51.9727 136.386 52.1293 136.172C52.2954 135.944 52.3937 135.842 52.4284 135.812L51.1868 134.351C50.9751 134.531 50.7697 134.783 50.5817 135.04C50.3841 135.31 50.1671 135.641 49.9351 136.018C49.4709 136.773 48.9228 137.753 48.3187 138.893C47.1093 141.174 45.6522 144.137 44.1546 147.302C41.1599 153.631 37.9834 160.811 36.273 165.05L38.0508 165.767ZM52.5701 135.663C52.596 135.629 52.6002 135.635 52.5729 135.65C52.5437 135.665 52.5094 135.673 52.4818 135.673C52.4402 135.673 52.4826 135.66 52.5952 135.747C52.7005 135.829 52.8078 135.954 52.8834 136.096C52.9622 136.243 52.972 136.341 52.9707 136.365L54.8854 136.461C54.9088 135.993 54.7644 135.548 54.5736 135.191C54.3795 134.828 54.1016 134.489 53.7692 134.231C53.4442 133.98 52.9965 133.754 52.4757 133.756C51.9072 133.757 51.4036 134.03 51.0452 134.501L52.5701 135.663ZM52.974 136.321C52.2341 143.966 51.7367 149.924 51.7367 156.138H53.6538C53.6538 150.024 54.1426 144.147 54.8821 136.505L52.974 136.321ZM51.7367 156.138C51.7367 157.368 51.7366 158.57 51.7868 159.825L53.7023 159.749C53.6539 158.538 53.6538 157.374 53.6538 156.138H51.7367ZM51.7865 159.816C51.9353 164.701 52.3945 168.996 53.3073 172.245C54.1984 175.417 55.6218 177.946 57.9754 178.699L58.5597 176.873C57.2149 176.443 56.0247 174.83 55.1529 171.727C54.3028 168.701 53.8498 164.588 53.7027 159.758L51.7865 159.816ZM57.9644 178.695C57.8036 178.642 57.6985 178.54 57.6385 178.446C57.5796 178.355 57.5332 178.224 57.5466 178.064C57.5616 177.884 57.6525 177.699 57.8145 177.576C57.9605 177.466 58.0806 177.469 58.0703 177.469V179.386C58.3559 179.386 58.6856 179.321 58.9702 179.106C59.2709 178.878 59.4297 178.551 59.457 178.223C59.5045 177.654 59.1558 177.072 58.5707 176.877L57.9644 178.695ZM58.0703 177.469C57.0604 177.469 56.1973 176.969 55.4208 175.951C54.6276 174.91 53.987 173.399 53.4831 171.587C52.478 167.973 52.0988 163.478 51.9267 160.035L50.012 160.131C50.1851 163.592 50.5702 168.269 51.6362 172.101C52.1679 174.012 52.8895 175.792 53.8962 177.113C54.9196 178.455 56.2941 179.386 58.0703 179.386V177.469ZM51.9272 160.046C51.8778 158.762 51.8292 157.448 51.8292 156.138H49.9122C49.9122 157.49 49.9623 158.839 50.0115 160.12L51.9272 160.046ZM51.8292 156.138C51.8292 150.125 52.4163 143.51 53.0079 137.643L51.1005 137.451C50.5086 143.321 49.9122 150.02 49.9122 156.138H51.8292ZM51.2472 137.03C49.9716 139.02 47.008 145.043 44.1024 151.296C41.1879 157.569 38.2738 164.2 37.0988 167.45L38.9016 168.102C40.0443 164.941 42.9243 158.381 45.841 152.104C48.7666 145.807 51.6712 139.921 52.8612 138.065L51.2472 137.03ZM37.0424 167.814C37.0555 168.142 36.902 168.5 36.6976 168.73C36.5946 168.846 36.5347 168.866 36.5581 168.857C36.5999 168.842 36.8436 168.789 37.0634 168.986L35.781 170.411C36.2474 170.831 36.8178 170.802 37.2094 170.661C37.5826 170.526 37.8956 170.268 38.1317 170.002C38.6053 169.468 38.9942 168.643 38.958 167.737L37.0424 167.814ZM57.9593 166.247L58.6701 165.604L58.6644 165.598L58.6586 165.591L57.9593 166.247ZM57.7128 158.258L58.5175 158.779L58.6168 158.626L58.6527 158.446L57.7128 158.258ZM58.847 158.111L59.1745 157.21L59.1277 157.193L59.0794 157.181L58.847 158.111ZM59.636 158.949L60.3137 159.627L60.519 159.421L60.5759 159.137L59.636 158.949ZM58.9949 165.557L58.3671 166.281L58.3927 166.303L58.4198 166.323L58.9949 165.557ZM70.1888 160.576L69.511 159.898L70.1888 160.576ZM70.2874 161.76L69.4459 161.301L69.445 161.302L70.2874 161.76ZM61.4605 167.529L61.4988 168.487L61.5022 168.487L61.4605 167.529ZM58.9949 154.807L59.4604 153.969L59.3825 153.925L59.298 153.897L58.9949 154.807ZM58.3538 153.968L58.9526 154.717L59.0688 154.624L59.1514 154.5L58.3538 153.968ZM58.8963 152.588L59.7862 152.944L59.8306 152.833L59.8464 152.714L58.8963 152.588ZM58.9949 151.848L59.945 151.975L59.9534 151.911V151.848H58.9949ZM60.0305 151.651L59.6745 152.541L59.743 152.568L59.8149 152.585L60.0305 151.651ZM60.9674 152.44L60.0774 152.084L60.0089 152.255V152.44H60.9674ZM60.8195 153.278L59.9621 152.849L59.9443 152.885L59.9295 152.922L60.8195 153.278ZM60.1784 154.856L60.9452 155.431L60.9749 155.391L61.0003 155.349L60.1784 154.856ZM58.6586 165.591C58.451 165.37 58.2317 164.937 58.0699 164.284C57.9133 163.652 57.833 162.906 57.833 162.154H55.9159C55.9159 163.03 56.0083 163.935 56.2092 164.746C56.4049 165.535 56.728 166.335 57.2601 166.903L58.6586 165.591ZM57.833 162.154C57.833 160.688 58.126 159.384 58.5175 158.779L56.908 157.738C56.2147 158.809 55.9159 160.563 55.9159 162.154H57.833ZM58.6527 158.446C58.599 158.715 58.4255 158.87 58.3162 158.935C58.2234 158.99 58.1646 158.991 58.1918 158.988C58.241 158.982 58.3881 158.984 58.6145 159.04L59.0794 157.181C58.7141 157.089 58.3188 157.042 57.9611 157.085C57.7849 157.106 57.5566 157.157 57.3389 157.286C57.1048 157.425 56.8512 157.679 56.7729 158.07L58.6527 158.446ZM58.5194 159.011C58.6557 159.061 58.7251 159.123 58.7438 159.144C58.7533 159.155 58.7364 159.14 58.7173 159.091C58.6996 159.046 58.6629 158.927 58.696 158.761L60.5759 159.137C60.6867 158.583 60.3997 158.124 60.1829 157.878C59.9304 157.591 59.5807 157.357 59.1745 157.21L58.5194 159.011ZM58.9582 158.271C58.8055 158.424 58.7206 158.602 58.6843 158.682C58.6354 158.788 58.5924 158.905 58.5547 159.019C58.4788 159.249 58.4032 159.532 58.3316 159.841C58.1876 160.462 58.0453 161.246 57.94 162.033C57.8354 162.817 57.7631 163.635 57.769 164.318C57.772 164.656 57.7942 164.995 57.8541 165.293C57.9034 165.539 58.0169 165.977 58.3671 166.281L59.6227 164.832C59.788 164.976 59.7705 165.1 59.7337 164.916C59.7075 164.786 59.6885 164.581 59.686 164.301C59.6812 163.746 59.7414 163.027 59.8402 162.287C59.9384 161.552 60.0704 160.829 60.1991 160.274C60.2638 159.995 60.3243 159.774 60.3749 159.621C60.4005 159.543 60.4184 159.499 60.427 159.48C60.4481 159.434 60.4172 159.523 60.3137 159.627L58.9582 158.271ZM58.4198 166.323C59.0044 166.762 59.7075 166.959 60.425 166.959V165.042C60.0575 165.042 59.7744 164.943 59.57 164.79L58.4198 166.323ZM60.425 166.959C61.3729 166.959 62.4088 166.659 63.401 166.246C64.4074 165.826 65.4415 165.259 66.4066 164.656C68.3273 163.456 70.0646 162.056 70.8666 161.254L69.511 159.898C68.8336 160.576 67.2177 161.888 65.3906 163.03C64.4818 163.598 63.5435 164.11 62.6637 164.476C61.7697 164.849 61.0057 165.042 60.425 165.042V166.959ZM70.8666 161.254C70.6817 161.439 70.4014 161.524 70.1278 161.453C69.8483 161.379 69.6992 161.181 69.644 161.043C69.5929 160.915 69.6192 160.85 69.6079 160.909C69.5977 160.963 69.5608 161.09 69.4459 161.301L71.1289 162.219C71.4621 161.608 71.6625 160.927 71.4239 160.331C71.2948 160.008 71.0224 159.705 70.6135 159.598C70.2104 159.492 69.7945 159.615 69.511 159.898L70.8666 161.254ZM69.445 161.302C69.2747 161.616 68.8923 162.108 68.3111 162.693C67.7427 163.266 67.027 163.886 66.2355 164.46C64.6135 165.638 62.8315 166.51 61.4189 166.572L61.5022 168.487C63.4921 168.4 65.6551 167.251 67.3617 166.012C68.2344 165.378 69.0289 164.691 69.6718 164.044C70.3018 163.409 70.8317 162.766 71.1298 162.217L69.445 161.302ZM61.4222 166.571C60.3477 166.614 59.3456 166.35 58.6701 165.604L57.2486 166.89C58.447 168.215 60.1077 168.543 61.4988 168.487L61.4222 166.571ZM59.298 153.897C59.1424 153.845 59.1066 153.785 59.1339 153.822C59.1463 153.839 59.219 153.942 59.2248 154.124C59.2279 154.222 59.2108 154.336 59.1581 154.451C59.1052 154.567 59.0294 154.655 58.9526 154.717L57.7551 153.22C57.4539 153.461 57.2969 153.816 57.3087 154.185C57.3192 154.512 57.4566 154.776 57.5861 154.953C57.8476 155.311 58.2557 155.571 58.6918 155.716L59.298 153.897ZM59.1514 154.5C59.2098 154.412 59.2529 154.319 59.2728 154.276C59.2998 154.217 59.3275 154.151 59.3539 154.087C59.4069 153.957 59.4663 153.802 59.5226 153.651C59.6436 153.329 59.7415 153.055 59.7862 152.944L58.0063 152.232C57.9524 152.366 57.8284 152.709 57.7276 152.978C57.6729 153.124 57.6213 153.259 57.5788 153.363C57.5574 153.415 57.5412 153.453 57.5301 153.477C57.5118 153.517 57.5226 153.487 57.5563 153.437L59.1514 154.5ZM59.8464 152.714L59.945 151.975L58.0448 151.721L57.9462 152.461L59.8464 152.714ZM59.9534 151.848C59.9534 151.963 59.9258 152.08 59.8711 152.186C59.8179 152.289 59.7503 152.361 59.6933 152.407C59.6375 152.453 59.5885 152.477 59.5594 152.489C59.5297 152.501 59.5101 152.505 59.5044 152.506C59.5008 152.507 59.5749 152.501 59.6745 152.541L60.3864 150.761C59.9929 150.603 59.5492 150.548 59.1511 150.622C58.954 150.659 58.7036 150.741 58.4815 150.922C58.2371 151.121 58.0364 151.441 58.0364 151.848H59.9534ZM59.8149 152.585C60.0064 152.629 60.1124 152.7 60.1395 152.725C60.1546 152.738 60.116 152.71 60.078 152.625C60.0379 152.535 59.9794 152.329 60.0774 152.084L61.8574 152.796C62.0047 152.427 61.9339 152.079 61.8275 151.841C61.7232 151.608 61.5644 151.426 61.4131 151.292C61.1073 151.02 60.6956 150.82 60.246 150.717L59.8149 152.585ZM60.0089 152.44C60.0089 152.54 60.008 152.621 59.9978 152.703C59.9875 152.785 59.9715 152.831 59.9621 152.849L61.6768 153.707C61.9399 153.18 61.9259 152.613 61.9259 152.44H60.0089ZM59.9295 152.922C59.8815 153.042 59.7399 153.422 59.6241 153.719C59.5606 153.883 59.4983 154.039 59.4443 154.167C59.3823 154.313 59.3538 154.367 59.3565 154.363L61.0003 155.349C61.1268 155.138 61.2958 154.71 61.4108 154.414C61.5538 154.046 61.6588 153.76 61.7094 153.634L59.9295 152.922ZM59.4116 154.281C59.4847 154.183 59.5639 154.126 59.6165 154.095C59.6693 154.064 59.7104 154.05 59.729 154.045C59.7633 154.035 59.7639 154.041 59.7242 154.04C59.6891 154.039 59.6417 154.033 59.5899 154.019C59.5382 154.005 59.4938 153.987 59.4604 153.969L58.5294 155.644C58.8976 155.849 59.3093 155.946 59.671 155.956C59.8532 155.961 60.0572 155.945 60.2579 155.887C60.4406 155.835 60.7318 155.716 60.9452 155.431L59.4116 154.281ZM70.1499 165.409L69.1935 165.472L69.1992 165.558L69.22 165.641L70.1499 165.409ZM70.3964 158.998L69.4525 158.832L69.4512 158.839L69.4499 158.847L70.3964 158.998ZM72.0237 159.886L71.0898 159.67L71.061 159.795L71.0659 159.923L72.0237 159.886ZM71.9251 163.683L70.967 163.712L71.0382 166.061L72.6302 164.332L71.9251 163.683ZM77.4481 158.801L77.8687 159.662L77.8768 159.658L77.4481 158.801ZM79.0754 159.639L79.9582 159.266L79.9153 159.164L79.8506 159.075L79.0754 159.639ZM80.111 163.683L79.1826 163.922L79.5555 165.371L80.7163 164.426L80.111 163.683ZM84.8942 159.787L84.3371 159.007L84.3124 159.025L84.2889 159.044L84.8942 159.787ZM86.5215 160.576L87.3789 160.147L87.3568 160.103L87.3302 160.062L86.5215 160.576ZM88.2475 164.176L87.6267 164.906L87.6771 164.949L87.7329 164.985L88.2475 164.176ZM97.7154 161.168L96.8934 160.675L96.8875 160.685L97.7154 161.168ZM97.9127 162.401L98.7506 162.866L98.7542 162.86L97.9127 162.401ZM87.853 165.162L87.3213 165.96L87.3298 165.965L87.3384 165.971L87.853 165.162ZM86.1764 163.486L85.3911 164.035L85.4001 164.048L85.4095 164.061L86.1764 163.486ZM85.4367 162.006L86.346 161.703L85.905 160.38L84.8279 161.266L85.4367 162.006ZM80.6534 165.705L81.0821 166.562L81.1354 166.535L81.1851 166.502L80.6534 165.705ZM79.0261 164.866L78.1535 165.263L78.1679 165.295L78.1846 165.325L79.0261 164.866ZM77.7933 160.724L78.7273 160.509L78.42 159.177L77.2726 159.919L77.7933 160.724ZM71.9744 166.642L71.3445 165.919L71.3432 165.92L71.9744 166.642ZM71.1063 165.345C71.0565 164.598 71.0098 163.892 71.0098 163.239H69.0927C69.0927 163.967 69.1446 164.74 69.1935 165.472L71.1063 165.345ZM71.0098 163.239C71.0098 161.721 71.1521 160.342 71.3429 159.15L69.4499 158.847C69.2463 160.12 69.0927 161.601 69.0927 163.239H71.0098ZM71.3404 159.165C71.329 159.229 71.2826 159.376 71.1335 159.501C70.9885 159.624 70.8394 159.648 70.7684 159.651C70.7038 159.653 70.6801 159.64 70.7075 159.649C70.7302 159.657 70.771 159.675 70.8242 159.707C70.9373 159.775 71.0349 159.866 71.0859 159.934C71.1104 159.967 71.1058 159.97 71.0956 159.94C71.0852 159.91 71.0576 159.81 71.0898 159.67L72.9577 160.101C73.0917 159.521 72.8069 159.033 72.6195 158.784C72.4024 158.494 72.1116 158.245 71.8178 158.067C71.5473 157.903 71.1421 157.719 70.6994 157.735C70.4574 157.744 70.158 157.816 69.8963 158.037C69.6305 158.262 69.5008 158.558 69.4525 158.832L71.3404 159.165ZM71.0659 159.923C71.0884 160.507 71.0553 161.001 71.0178 161.594C70.9805 162.186 70.941 162.851 70.967 163.712L72.8832 163.654C72.86 162.887 72.8944 162.295 72.931 161.715C72.9676 161.137 73.0084 160.546 72.9816 159.849L71.0659 159.923ZM72.6302 164.332C74.4151 162.394 75.9509 160.599 77.8687 159.662L77.0275 157.94C74.7044 159.074 72.887 161.224 71.2201 163.033L72.6302 164.332ZM77.8768 159.658C77.7147 159.739 77.6024 159.708 77.6323 159.714C77.65 159.717 77.7105 159.734 77.8063 159.786C78.0039 159.893 78.1971 160.061 78.3002 160.203L79.8506 159.075C79.5592 158.675 79.136 158.325 78.7172 158.099C78.5048 157.985 78.2571 157.882 77.9943 157.831C77.7437 157.783 77.3788 157.764 77.0194 157.944L77.8768 159.658ZM78.1926 160.013C78.4296 160.573 78.5625 161.085 78.6928 161.695C78.8209 162.295 78.9543 163.033 79.1826 163.922L81.0393 163.444C80.8238 162.606 80.7107 161.964 80.5675 161.294C80.4266 160.635 80.2637 159.988 79.9582 159.266L78.1926 160.013ZM80.7163 164.426L85.4995 160.53L84.2889 159.044L79.5056 162.94L80.7163 164.426ZM85.4514 160.567C85.3475 160.641 85.2501 160.667 85.1937 160.676C85.1652 160.68 85.1437 160.681 85.1311 160.68C85.1183 160.68 85.1115 160.679 85.1115 160.679C85.1113 160.679 85.1157 160.68 85.1249 160.682C85.1339 160.684 85.1464 160.688 85.162 160.693C85.1938 160.704 85.2335 160.72 85.2792 160.743C85.3724 160.79 85.4702 160.853 85.555 160.924C85.6426 160.998 85.6925 161.059 85.7129 161.091L87.3302 160.062C87.0398 159.605 86.5657 159.243 86.1366 159.028C85.9148 158.918 85.6535 158.82 85.3797 158.781C85.1282 158.745 84.7116 158.74 84.3371 159.007L85.4514 160.567ZM85.6642 161.005C85.7557 161.188 85.8459 161.429 85.9528 161.745C86.0521 162.038 86.1712 162.412 86.2997 162.762C86.5527 163.451 86.9298 164.314 87.6267 164.906L88.8683 163.446C88.5789 163.2 88.3396 162.756 88.0994 162.101C87.9814 161.78 87.8848 161.472 87.7684 161.129C87.6595 160.808 87.534 160.458 87.3789 160.147L85.6642 161.005ZM87.7329 164.985C88.3674 165.388 89.1379 165.726 90.072 165.726V163.809C89.6254 163.809 89.2124 163.654 88.7621 163.367L87.7329 164.985ZM90.072 165.726C90.6358 165.726 91.3975 165.527 92.1375 165.281C92.9139 165.023 93.7888 164.67 94.6287 164.282C95.4673 163.894 96.2916 163.462 96.9616 163.041C97.2961 162.831 97.6064 162.615 97.8656 162.4C98.1099 162.197 98.3721 161.944 98.5434 161.651L96.8875 160.685C96.8918 160.677 96.8804 160.698 96.8345 160.747C96.7906 160.794 96.7274 160.853 96.6414 160.925C96.4684 161.068 96.2332 161.235 95.942 161.418C95.3607 161.783 94.6132 162.177 93.8245 162.541C93.0371 162.905 92.2292 163.23 91.5324 163.462C90.7992 163.706 90.2972 163.809 90.072 163.809V165.726ZM98.5374 161.661C98.3165 162.029 97.9098 162.101 97.643 162.03C97.4014 161.965 97.2831 161.809 97.2393 161.724C97.1388 161.529 97.2903 161.54 97.0712 161.942L98.7542 162.86C99.1268 162.177 99.2537 161.448 98.9436 160.846C98.795 160.558 98.5257 160.282 98.1407 160.178C97.7306 160.068 97.1883 160.183 96.8935 160.675L98.5374 161.661ZM97.0748 161.935C96.8203 162.393 95.9933 163.225 94.8071 163.959C93.6395 164.681 92.3136 165.19 91.1569 165.19V167.107C92.811 167.107 94.4931 166.407 95.8158 165.589C97.1199 164.782 98.2654 163.74 98.7506 162.866L97.0748 161.935ZM91.1569 165.19C90.2968 165.19 89.293 164.942 88.3676 164.353L87.3384 165.971C88.5827 166.763 89.9458 167.107 91.1569 167.107V165.19ZM88.3847 164.365C87.7814 163.962 87.3663 163.475 86.9432 162.91L85.4095 164.061C85.874 164.68 86.4452 165.376 87.3213 165.96L88.3847 164.365ZM86.9616 162.936C86.6783 162.531 86.47 162.075 86.346 161.703L84.5273 162.309C84.6992 162.825 84.9841 163.454 85.3911 164.035L86.9616 162.936ZM84.8279 161.266C82.6049 163.094 81.4073 164.05 80.1217 164.907L81.1851 166.502C82.5623 165.584 83.8304 164.568 86.0454 162.747L84.8279 161.266ZM80.2247 164.847C80.3139 164.803 80.386 164.793 80.4175 164.791C80.4495 164.789 80.4606 164.793 80.4462 164.79C80.4143 164.784 80.3424 164.763 80.2445 164.712C80.1498 164.663 80.0577 164.6 79.9832 164.535C79.905 164.466 79.8733 164.418 79.8676 164.407L78.1846 165.325C78.4549 165.821 78.9397 166.195 79.361 166.414C79.5836 166.529 79.8384 166.628 80.1024 166.676C80.3457 166.72 80.7186 166.744 81.0821 166.562L80.2247 164.847ZM79.8987 164.47C79.4505 163.484 79.1725 162.438 78.7273 160.509L76.8593 160.94C77.3017 162.857 77.6154 164.079 78.1535 165.263L79.8987 164.47ZM77.2726 159.919C75.8903 160.814 74.8413 161.966 73.9294 163.046C72.9879 164.162 72.2336 165.144 71.3445 165.919L72.6043 167.364C73.6385 166.462 74.5361 165.3 75.3945 164.283C76.2825 163.23 77.1814 162.262 78.314 161.529L77.2726 159.919ZM71.3432 165.92C71.4867 165.795 71.6392 165.761 71.7246 165.756C71.8011 165.75 71.8375 165.765 71.8181 165.759C71.7768 165.747 71.6714 165.7 71.5268 165.596C71.3895 165.498 71.2606 165.381 71.1671 165.273C71.121 165.219 71.0916 165.178 71.0755 165.151C71.0571 165.12 71.0682 165.13 71.0798 165.176L69.22 165.641C69.3109 166.005 69.5333 166.314 69.7167 166.526C69.9175 166.759 70.1616 166.977 70.4126 167.156C70.6563 167.331 70.9547 167.502 71.2694 167.596C71.5305 167.674 72.1194 167.788 72.6056 167.363L71.3432 165.92ZM97.9774 166.247L98.6882 165.604L98.6825 165.598L98.6767 165.591L97.9774 166.247ZM97.7308 158.258L98.5356 158.779L98.6349 158.626L98.6708 158.446L97.7308 158.258ZM98.865 158.111L99.1926 157.21L99.1458 157.193L99.0975 157.181L98.865 158.111ZM99.654 158.949L100.332 159.627L100.537 159.421L100.594 159.137L99.654 158.949ZM99.013 165.557L98.3852 166.281L98.4108 166.303L98.4379 166.323L99.013 165.557ZM110.207 160.576L109.529 159.898L110.207 160.576ZM110.305 161.76L109.464 161.301L109.463 161.302L110.305 161.76ZM101.479 167.529L101.517 168.487L101.52 168.487L101.479 167.529ZM99.013 154.807L99.4785 153.969L99.4006 153.925L99.3161 153.897L99.013 154.807ZM98.3719 153.968L98.9707 154.717L99.0869 154.624L99.1694 154.5L98.3719 153.968ZM98.9143 152.588L99.8043 152.944L99.8487 152.833L99.8645 152.714L98.9143 152.588ZM99.013 151.848L99.9631 151.975L99.9715 151.911V151.848H99.013ZM100.049 151.651L99.6925 152.541L99.7611 152.568L99.833 152.585L100.049 151.651ZM100.985 152.44L100.095 152.084L100.027 152.255V152.44H100.985ZM100.838 153.278L99.9802 152.849L99.9624 152.885L99.9475 152.922L100.838 153.278ZM100.196 154.856L100.963 155.431L100.993 155.391L101.018 155.349L100.196 154.856ZM98.6767 165.591C98.469 165.37 98.2498 164.937 98.088 164.284C97.9314 163.652 97.8511 162.906 97.8511 162.154H95.934C95.934 163.03 96.0263 163.935 96.2272 164.746C96.4229 165.535 96.7461 166.335 97.2781 166.903L98.6767 165.591ZM97.8511 162.154C97.8511 160.688 98.1441 159.384 98.5356 158.779L96.9261 157.738C96.2327 158.809 95.934 160.563 95.934 162.154H97.8511ZM98.6708 158.446C98.6171 158.715 98.4436 158.87 98.3343 158.935C98.2414 158.99 98.1827 158.991 98.2099 158.988C98.259 158.982 98.4062 158.984 98.6326 159.04L99.0975 157.181C98.7321 157.089 98.3368 157.042 97.9792 157.085C97.8029 157.106 97.5747 157.157 97.357 157.286C97.1229 157.425 96.8693 157.679 96.7909 158.07L98.6708 158.446ZM98.5375 159.011C98.6737 159.061 98.7432 159.123 98.7618 159.144C98.7713 159.155 98.7545 159.14 98.7353 159.091C98.7177 159.046 98.681 158.927 98.7141 158.761L100.594 159.137C100.705 158.583 100.418 158.124 100.201 157.878C99.9485 157.591 99.5987 157.357 99.1926 157.21L98.5375 159.011ZM98.9762 158.271C98.8235 158.424 98.7387 158.602 98.7023 158.682C98.6535 158.788 98.6105 158.905 98.5728 159.019C98.4968 159.249 98.4213 159.532 98.3497 159.841C98.2056 160.462 98.0633 161.246 97.9581 162.033C97.8535 162.817 97.7812 163.635 97.7871 164.318C97.7901 164.656 97.8123 164.995 97.8722 165.293C97.9214 165.539 98.0349 165.977 98.3852 166.281L99.6407 164.832C99.8061 164.976 99.7886 165.1 99.7517 164.916C99.7255 164.786 99.7065 164.581 99.7041 164.301C99.6992 163.746 99.7595 163.027 99.8583 162.287C99.9564 161.552 100.088 160.829 100.217 160.274C100.282 159.995 100.342 159.774 100.393 159.621C100.419 159.543 100.436 159.499 100.445 159.48C100.466 159.434 100.435 159.523 100.332 159.627L98.9762 158.271ZM98.4379 166.323C99.0224 166.762 99.7256 166.959 100.443 166.959V165.042C100.076 165.042 99.7925 164.943 99.5881 164.79L98.4379 166.323ZM100.443 166.959C101.391 166.959 102.427 166.659 103.419 166.246C104.425 165.826 105.46 165.259 106.425 164.656C108.345 163.456 110.083 162.056 110.885 161.254L109.529 159.898C108.852 160.576 107.236 161.888 105.409 163.03C104.5 163.598 103.562 164.11 102.682 164.476C101.788 164.849 101.024 165.042 100.443 165.042V166.959ZM110.885 161.254C110.7 161.439 110.419 161.524 110.146 161.453C109.866 161.379 109.717 161.181 109.662 161.043C109.611 160.915 109.637 160.85 109.626 160.909C109.616 160.963 109.579 161.09 109.464 161.301L111.147 162.219C111.48 161.608 111.681 160.927 111.442 160.331C111.313 160.008 111.04 159.705 110.632 159.598C110.228 159.492 109.813 159.615 109.529 159.898L110.885 161.254ZM109.463 161.302C109.293 161.616 108.91 162.108 108.329 162.693C107.761 163.266 107.045 163.886 106.254 164.46C104.632 165.638 102.85 166.51 101.437 166.572L101.52 168.487C103.51 168.4 105.673 167.251 107.38 166.012C108.252 165.378 109.047 164.691 109.69 164.044C110.32 163.409 110.85 162.766 111.148 162.217L109.463 161.302ZM101.44 166.571C100.366 166.614 99.3636 166.35 98.6882 165.604L97.2666 166.89C98.465 168.215 100.126 168.543 101.517 168.487L101.44 166.571ZM99.3161 153.897C99.1605 153.845 99.1247 153.785 99.152 153.822C99.1643 153.839 99.2371 153.942 99.2429 154.124C99.246 154.222 99.2288 154.336 99.1762 154.451C99.1233 154.567 99.0475 154.655 98.9707 154.717L97.7731 153.22C97.472 153.461 97.315 153.816 97.3268 154.185C97.3372 154.512 97.4747 154.776 97.6042 154.953C97.8657 155.311 98.2737 155.571 98.7099 155.716L99.3161 153.897ZM99.1694 154.5C99.2278 154.412 99.2709 154.319 99.2908 154.276C99.3179 154.217 99.3456 154.151 99.3719 154.087C99.425 153.957 99.4843 153.802 99.5406 153.651C99.6617 153.329 99.7596 153.055 99.8043 152.944L98.0244 152.232C97.9705 152.366 97.8464 152.709 97.7456 152.978C97.691 153.124 97.6393 153.259 97.5969 153.363C97.5755 153.415 97.5592 153.453 97.5481 153.477C97.5299 153.517 97.5406 153.487 97.5744 153.437L99.1694 154.5ZM99.8645 152.714L99.9631 151.975L98.0628 151.721L97.9642 152.461L99.8645 152.714ZM99.9715 151.848C99.9715 151.963 99.9439 152.08 99.8891 152.186C99.836 152.289 99.7683 152.361 99.7113 152.407C99.6555 152.453 99.6066 152.477 99.5775 152.489C99.5477 152.501 99.5281 152.505 99.5225 152.506C99.5189 152.507 99.593 152.501 99.6925 152.541L100.405 150.761C100.011 150.603 99.5673 150.548 99.1692 150.622C98.9721 150.659 98.7217 150.741 98.4995 150.922C98.2551 151.121 98.0544 151.441 98.0544 151.848H99.9715ZM99.833 152.585C100.024 152.629 100.13 152.7 100.158 152.725C100.173 152.738 100.134 152.71 100.096 152.625C100.056 152.535 99.9974 152.329 100.095 152.084L101.875 152.796C102.023 152.427 101.952 152.079 101.846 151.841C101.741 151.608 101.582 151.426 101.431 151.292C101.125 151.02 100.714 150.82 100.264 150.717L99.833 152.585ZM100.027 152.44C100.027 152.54 100.026 152.621 100.016 152.703C100.006 152.785 99.9895 152.831 99.9802 152.849L101.695 153.707C101.958 153.18 101.944 152.613 101.944 152.44H100.027ZM99.9475 152.922C99.8995 153.042 99.758 153.422 99.6421 153.719C99.5787 153.883 99.5163 154.039 99.4624 154.167C99.4003 154.313 99.3719 154.367 99.3745 154.363L101.018 155.349C101.145 155.138 101.314 154.71 101.429 154.414C101.572 154.046 101.677 153.76 101.727 153.634L99.9475 152.922ZM99.4296 154.281C99.5028 154.183 99.582 154.126 99.6346 154.095C99.6874 154.064 99.7285 154.05 99.7471 154.045C99.7813 154.035 99.782 154.041 99.7423 154.04C99.7072 154.039 99.6598 154.033 99.608 154.019C99.5563 154.005 99.5119 153.987 99.4785 153.969L98.5475 155.644C98.9156 155.849 99.3273 155.946 99.689 155.956C99.8713 155.961 100.075 155.945 100.276 155.887C100.459 155.835 100.75 155.716 100.963 155.431L99.4296 154.281ZM119.143 160.675L120.098 160.758L120.199 159.596L119.04 159.722L119.143 160.675ZM111.006 165.507L110.133 165.112L110.057 165.281L110.049 165.466L111.006 165.507ZM110.957 166.642L109.999 166.6L109.997 166.658L110.001 166.715L110.957 166.642ZM109.231 166.05L110.188 165.99L110.186 165.96L110.182 165.931L109.231 166.05ZM109.231 164.57L110.176 164.728L110.182 164.697L110.185 164.666L109.231 164.57ZM109.724 159.639L110.678 159.735L110.683 159.687V159.639H109.724ZM110.71 159.442L111.218 158.629L111.146 158.584L111.066 158.552L110.71 159.442ZM111.499 160.428L110.554 160.271L110.545 160.321L110.542 160.372L111.499 160.428ZM111.401 162.105L110.444 162.049L110.324 164.086L111.969 162.877L111.401 162.105ZM119.389 159.393L119.287 160.346L119.289 160.346L119.389 159.393ZM121.017 163.14L120.06 163.081L120.058 163.11V163.14H121.017ZM122.151 164.373L121.887 165.295L122.151 164.373ZM143.355 163.14L143.092 162.219L143.089 162.219L143.355 163.14ZM145.771 162.992L144.959 163.5L145.016 163.593L145.094 163.67L145.771 162.992ZM143.75 164.275L143.486 163.353L143.47 163.358L143.454 163.363L143.75 164.275ZM123.088 166.198L122.817 167.117L122.858 167.129L122.9 167.138L123.088 166.198ZM119.04 159.722C117.054 159.936 115.119 160.683 113.555 161.646C112.014 162.595 110.713 163.831 110.133 165.112L111.88 165.902C112.237 165.113 113.179 164.129 114.56 163.278C115.918 162.442 117.583 161.808 119.246 161.628L119.04 159.722ZM110.049 165.466L109.999 166.6L111.915 166.683L111.964 165.549L110.049 165.466ZM110.001 166.715C109.99 166.567 110.032 166.364 110.184 166.194C110.315 166.047 110.456 166.007 110.498 165.997C110.545 165.986 110.558 165.992 110.528 165.989C110.502 165.987 110.459 165.98 110.406 165.964C110.292 165.93 110.198 165.876 110.149 165.834C110.092 165.787 110.178 165.832 110.188 165.99L108.274 166.11C108.309 166.662 108.628 167.059 108.908 167.296C109.195 167.54 109.538 167.705 109.856 167.8C110.155 167.89 110.551 167.953 110.932 167.864C111.13 167.818 111.398 167.713 111.614 167.471C111.851 167.206 111.936 166.876 111.913 166.568L110.001 166.715ZM110.182 165.931C110.136 165.561 110.101 165.18 110.176 164.728L108.286 164.413C108.164 165.145 108.227 165.749 108.28 166.169L110.182 165.931ZM110.185 164.666L110.678 159.735L108.77 159.544L108.277 164.475L110.185 164.666ZM110.683 159.639C110.683 159.806 110.612 159.997 110.461 160.137C110.334 160.255 110.215 160.279 110.19 160.283C110.148 160.29 110.212 160.275 110.354 160.332L111.066 158.552C110.716 158.412 110.286 158.323 109.875 158.392C109.665 158.427 109.391 158.515 109.157 158.733C108.898 158.973 108.766 159.3 108.766 159.639H110.683ZM110.202 160.255C110.261 160.292 110.327 160.339 110.39 160.392C110.454 160.446 110.507 160.498 110.545 160.542C110.587 160.59 110.592 160.608 110.585 160.591C110.581 160.583 110.522 160.461 110.554 160.271L112.445 160.586C112.501 160.248 112.406 159.959 112.32 159.777C112.231 159.586 112.11 159.421 111.997 159.291C111.772 159.029 111.486 158.796 111.218 158.629L110.202 160.255ZM110.542 160.372L110.444 162.049L112.358 162.161L112.456 160.484L110.542 160.372ZM111.969 162.877C112.738 162.311 113.97 161.6 115.336 161.069C116.715 160.532 118.126 160.221 119.287 160.346L119.491 158.44C117.891 158.268 116.146 158.697 114.641 159.282C113.121 159.873 111.74 160.665 110.833 161.333L111.969 162.877ZM119.289 160.346C119.504 160.369 119.77 160.495 119.988 160.705C120.092 160.806 120.166 160.907 120.21 160.992C120.255 161.079 120.255 161.122 120.255 161.119H122.172C122.172 160.392 121.762 159.752 121.318 159.325C120.858 158.882 120.212 158.515 119.49 158.439L119.289 160.346ZM120.255 161.119C120.255 161.293 120.228 161.538 120.183 161.9C120.14 162.237 120.087 162.651 120.06 163.081L121.973 163.2C121.996 162.841 122.041 162.49 122.085 162.137C122.126 161.809 122.172 161.437 122.172 161.119H120.255ZM120.058 163.14C120.058 164.321 120.965 165.031 121.887 165.295L122.414 163.452C122.193 163.388 122.075 163.303 122.023 163.248C121.982 163.205 121.975 163.177 121.975 163.14H120.058ZM121.887 165.295C123.068 165.632 124.821 165.726 126.835 165.726V163.809C124.807 163.809 123.305 163.706 122.414 163.452L121.887 165.295ZM126.835 165.726C129.79 165.726 133.401 165.476 136.545 165.148C139.661 164.822 142.418 164.409 143.621 164.061L143.089 162.219C142.073 162.513 139.48 162.913 136.346 163.241C133.24 163.566 129.7 163.809 126.835 163.809V165.726ZM143.618 164.062C143.76 164.022 144.257 163.897 144.733 163.831C144.975 163.797 145.165 163.785 145.282 163.792C145.343 163.796 145.34 163.802 145.3 163.788C145.269 163.778 145.091 163.713 144.959 163.5L146.584 162.484C146.39 162.173 146.101 162.036 145.922 161.975C145.733 161.91 145.545 161.887 145.394 161.878C145.09 161.861 144.755 161.892 144.468 161.932C143.883 162.014 143.296 162.16 143.092 162.219L143.618 164.062ZM145.094 163.67C145.013 163.59 144.925 163.462 144.884 163.289C144.844 163.116 144.866 162.964 144.901 162.858C144.96 162.68 145.058 162.607 145.026 162.636C144.982 162.675 144.847 162.767 144.605 162.889C144.142 163.124 143.595 163.322 143.486 163.353L144.013 165.196C144.25 165.129 144.911 164.883 145.471 164.6C145.74 164.463 146.07 164.277 146.315 164.055C146.427 163.953 146.625 163.753 146.723 163.456C146.777 163.29 146.804 163.08 146.751 162.853C146.697 162.624 146.579 162.445 146.449 162.315L145.094 163.67ZM143.454 163.363C140.058 164.463 132.959 165.634 127.575 165.634V167.551C133.139 167.551 140.439 166.355 144.045 165.186L143.454 163.363ZM127.575 165.634C125.901 165.634 124.436 165.49 123.276 165.258L122.9 167.138C124.205 167.399 125.798 167.551 127.575 167.551V165.634ZM123.358 165.278C122.884 165.139 122.016 164.939 121.27 164.311C120.589 163.739 119.926 162.73 120.098 160.758L118.188 160.592C117.965 163.156 118.855 164.785 120.036 165.779C121.151 166.716 122.453 167.01 122.817 167.117L123.358 165.278ZM168.751 178.082L167.797 178.179L167.825 178.453L167.994 178.67L168.751 178.082ZM167.962 162.203L168.92 162.188L168.906 161.335L168.057 161.25L167.962 162.203ZM166.482 161.957L166.67 161.017L166.662 161.015L166.482 161.957ZM160.811 157.026L161.77 157.005L161.769 156.99L161.768 156.975L160.811 157.026ZM162.291 154.708L162.058 153.778L162.022 153.787L161.988 153.799L162.291 154.708ZM167.962 156.089L167.584 156.97L168.912 157.539L168.92 156.094L167.962 156.089ZM169.392 132.961L168.616 132.397L168.484 132.58L168.446 132.802L169.392 132.961ZM171.512 133.652L172.457 133.811L172.461 133.791L172.463 133.771L171.512 133.652ZM169.934 157.026L168.976 157.01L168.966 157.613L169.505 157.883L169.934 157.026ZM174.52 159.491L174.059 160.332L174.482 160.564L174.92 160.362L174.52 159.491ZM187.095 150.664L186.441 149.964L186.434 149.97L187.095 150.664ZM194.639 135.92L194.775 136.869L194.786 136.867L194.797 136.865L194.639 135.92ZM195.576 136.512L194.679 136.848L194.687 136.869L194.695 136.889L195.576 136.512ZM188.574 151.996L189.235 152.69L189.235 152.69L188.574 151.996ZM175.95 160.724L175.547 159.854L174.027 160.56L175.405 161.513L175.95 160.724ZM197.105 178.427L197.783 177.749L197.105 178.427ZM197.154 179.216L196.726 178.359L196.693 178.375L196.661 178.394L197.154 179.216ZM196.168 178.97L196.948 178.412L196.902 178.348L196.846 178.292L196.168 178.97ZM174.273 161.464L174.805 160.666L174.42 160.41L173.98 160.551L174.273 161.464ZM169.885 162.203L169.853 161.245L168.926 161.276V162.203H169.885ZM170.476 178.822L169.523 178.917L169.544 179.131L169.655 179.315L170.476 178.822ZM170.624 179.068H171.583V178.803L171.446 178.575L170.624 179.068ZM170.23 179.512L170.143 180.467L170.266 180.478L170.387 180.458L170.23 179.512ZM162.044 157.519L161.095 157.654L161.107 157.734L161.131 157.811L162.044 157.519ZM166.384 160.478L166.659 159.559L166.64 159.554L166.621 159.549L166.384 160.478ZM167.962 160.724L167.875 161.679L168.92 161.774V160.724H167.962ZM167.962 158.16H168.92V157.556L168.375 157.295L167.962 158.16ZM162.439 156.434L162.742 157.343L162.756 157.339L162.77 157.333L162.439 156.434ZM171.759 160.083H172.717V159.491L172.187 159.226L171.759 160.083ZM169.885 159.146L170.313 158.289L168.926 157.595V159.146H169.885ZM169.885 160.724H168.926V161.759L169.958 161.68L169.885 160.724ZM171.709 160.379L172.012 161.288L172.668 161.07V160.379H171.709ZM169.704 177.985C169.313 174.126 169.018 168.386 168.92 162.188L167.003 162.219C167.102 168.447 167.399 174.246 167.797 178.179L169.704 177.985ZM168.057 161.25C167.618 161.206 167.171 161.117 166.67 161.017L166.294 162.897C166.779 162.994 167.318 163.102 167.866 163.157L168.057 161.25ZM166.662 161.015C165.255 160.747 164.007 160.147 163.123 159.392C162.232 158.629 161.786 157.78 161.77 157.005L159.853 157.046C159.885 158.539 160.722 159.86 161.877 160.848C163.04 161.843 164.603 162.575 166.303 162.898L166.662 161.015ZM161.768 156.975C161.758 156.772 161.845 156.455 162.056 156.134C162.274 155.802 162.504 155.647 162.594 155.617L161.988 153.799C161.338 154.015 160.803 154.551 160.454 155.082C160.098 155.624 159.815 156.342 159.854 157.076L161.768 156.975ZM162.523 155.638C162.871 155.551 163.489 155.583 164.422 155.826C165.323 156.062 166.395 156.46 167.584 156.97L168.339 155.208C167.112 154.682 165.94 154.242 164.906 153.972C163.903 153.71 162.893 153.569 162.058 153.778L162.523 155.638ZM168.92 156.094C168.969 147.376 169.413 138.613 170.337 133.12L168.446 132.802C167.496 138.454 167.052 147.345 167.003 156.083L168.92 156.094ZM170.167 133.525C170.093 133.627 170.012 133.669 169.984 133.681C169.957 133.693 169.958 133.687 169.998 133.683C170.081 133.675 170.22 133.685 170.372 133.728C170.444 133.749 170.506 133.774 170.557 133.799C170.608 133.825 170.635 133.846 170.644 133.853C170.653 133.862 170.627 133.842 170.6 133.785C170.569 133.721 170.549 133.63 170.561 133.533L172.463 133.771C172.541 133.15 172.217 132.685 171.912 132.416C171.611 132.15 171.238 131.983 170.902 131.886C170.56 131.788 170.175 131.739 169.808 131.776C169.48 131.808 168.954 131.933 168.616 132.397L170.167 133.525ZM170.567 133.493C169.667 138.844 169.124 147.878 168.976 157.01L170.892 157.041C171.04 147.927 171.582 139.012 172.457 133.811L170.567 133.493ZM169.505 157.883C170.963 158.612 172.516 159.486 174.059 160.332L174.981 158.651C173.466 157.82 171.863 156.919 170.363 156.168L169.505 157.883ZM174.92 160.362C178.679 158.635 183.697 155.217 187.755 151.359L186.434 149.97C182.504 153.706 177.659 156.994 174.12 158.62L174.92 160.362ZM187.749 151.365C188.916 150.275 190.896 148.026 192.587 145.575C193.435 144.346 194.226 143.043 194.808 141.79C195.382 140.556 195.795 139.283 195.795 138.139H193.878C193.878 138.869 193.601 139.84 193.07 140.982C192.548 142.105 191.819 143.311 191.009 144.486C189.383 146.843 187.492 148.982 186.441 149.964L187.749 151.365ZM195.795 138.139C195.795 137.475 195.673 136.84 195.304 136.25L193.679 137.266C193.803 137.466 193.878 137.718 193.878 138.139H195.795ZM195.304 136.25C195.258 136.176 195.314 136.214 195.29 136.361C195.276 136.447 195.232 136.574 195.119 136.689C195.003 136.807 194.869 136.855 194.775 136.869L194.504 134.971C194.237 135.009 193.968 135.126 193.753 135.344C193.541 135.559 193.435 135.819 193.397 136.058C193.324 136.514 193.478 136.946 193.679 137.266L195.304 136.25ZM194.797 136.865C194.75 136.873 194.715 136.873 194.695 136.872C194.675 136.87 194.663 136.867 194.659 136.867C194.654 136.865 194.663 136.867 194.679 136.876C194.694 136.885 194.702 136.893 194.704 136.895C194.705 136.897 194.692 136.883 194.679 136.848L196.474 136.175C196.303 135.719 195.961 135.406 195.648 135.223C195.353 135.049 194.925 134.901 194.482 134.975L194.797 136.865ZM194.695 136.889C194.934 137.447 195.062 138.106 195.062 138.78H196.979C196.979 137.876 196.81 136.957 196.457 136.134L194.695 136.889ZM195.062 138.78C195.062 140.755 194.101 143.122 192.666 145.438C191.246 147.729 189.437 149.849 187.913 151.302L189.235 152.69C190.867 151.135 192.782 148.89 194.295 146.448C195.794 144.03 196.979 141.292 196.979 138.78H195.062ZM187.913 151.301C183.948 155.073 178.858 158.319 175.547 159.854L176.353 161.594C179.847 159.973 185.113 156.611 189.235 152.69L187.913 151.301ZM175.405 161.513C183.347 167.003 188.677 171.355 196.427 179.105L197.783 177.749C189.95 169.917 184.53 165.491 176.495 159.936L175.405 161.513ZM196.427 179.105C196.482 179.16 196.411 179.121 196.397 178.96C196.389 178.866 196.403 178.736 196.477 178.604C196.551 178.471 196.653 178.395 196.726 178.359L197.583 180.073C197.804 179.963 198.01 179.789 198.149 179.54C198.288 179.293 198.327 179.03 198.307 178.794C198.268 178.349 198.024 177.991 197.783 177.749L196.427 179.105ZM196.661 178.394C196.736 178.35 196.792 178.34 196.81 178.338C196.832 178.335 196.844 178.337 196.849 178.338C196.856 178.339 196.904 178.351 196.948 178.412L195.388 179.527C195.679 179.933 196.097 180.142 196.473 180.218C196.828 180.289 197.27 180.265 197.648 180.038L196.661 178.394ZM196.846 178.292C192.703 174.149 183.431 166.417 174.805 160.666L173.742 162.261C182.276 167.951 191.447 175.604 195.49 179.647L196.846 178.292ZM173.98 160.551C172.692 160.965 171.253 161.199 169.853 161.245L169.917 163.161C171.476 163.109 173.093 162.85 174.567 162.376L173.98 160.551ZM168.926 162.203C168.926 168.423 169.074 174.429 169.523 178.917L171.43 178.726C170.991 174.338 170.843 168.411 170.843 162.203H168.926ZM169.655 179.315L169.802 179.561L171.446 178.575L171.298 178.329L169.655 179.315ZM169.666 179.068C169.666 179.068 169.666 179.059 169.668 179.044C169.669 179.028 169.673 179.005 169.682 178.975C169.699 178.912 169.735 178.83 169.802 178.75C169.942 178.582 170.095 178.563 170.072 178.567L170.387 180.458C170.66 180.412 171.011 180.294 171.274 179.978C171.537 179.663 171.583 179.306 171.583 179.068H169.666ZM170.317 178.557C170.429 178.568 170.458 178.611 170.389 178.56C170.329 178.516 170.245 178.436 170.138 178.314C169.897 178.038 169.741 177.794 169.507 177.494L167.994 178.67C168.105 178.814 168.418 179.26 168.695 179.576C168.846 179.749 169.033 179.941 169.247 180.1C169.453 180.253 169.76 180.432 170.143 180.467L170.317 178.557ZM161.131 157.811C161.424 158.725 162.184 159.483 163.032 160.053C163.905 160.639 164.995 161.112 166.146 161.406L166.621 159.549C165.652 159.301 164.769 158.91 164.101 158.461C163.408 157.996 163.059 157.545 162.957 157.227L161.131 157.811ZM166.108 161.396C166.71 161.576 167.353 161.631 167.875 161.679L168.048 159.769C167.485 159.718 167.043 159.675 166.659 159.559L166.108 161.396ZM168.92 160.724V158.16H167.003V160.724H168.92ZM168.375 157.295C167.237 156.751 166.049 156.213 165.014 155.855C164.497 155.676 163.99 155.532 163.528 155.459C163.09 155.389 162.573 155.363 162.107 155.534L162.77 157.333C162.761 157.337 162.79 157.325 162.876 157.323C162.96 157.321 163.076 157.328 163.228 157.352C163.535 157.401 163.924 157.506 164.387 157.666C165.313 157.987 166.418 158.484 167.548 159.025L168.375 157.295ZM162.135 155.525C161.479 155.743 161.215 156.294 161.123 156.683C161.035 157.059 161.063 157.428 161.095 157.654L162.993 157.383C162.986 157.333 162.981 157.277 162.981 157.224C162.981 157.17 162.986 157.136 162.989 157.122C162.993 157.107 162.988 157.141 162.948 157.195C162.927 157.223 162.897 157.254 162.858 157.282C162.819 157.311 162.779 157.331 162.742 157.343L162.135 155.525ZM172.187 159.226L170.313 158.289L169.456 160.003L171.33 160.94L172.187 159.226ZM168.926 159.146V160.724H170.843V159.146H168.926ZM169.958 161.68C170.653 161.626 171.326 161.517 172.012 161.288L171.406 159.47C170.909 159.635 170.398 159.723 169.811 159.768L169.958 161.68ZM172.668 160.379C172.668 160.433 172.661 160.47 172.659 160.482C172.658 160.49 172.656 160.493 172.664 160.463C172.669 160.444 172.682 160.391 172.693 160.334C172.704 160.273 172.717 160.186 172.717 160.083H170.8C170.8 160.029 170.807 159.992 170.809 159.98C170.81 159.972 170.811 159.969 170.804 159.998C170.799 160.018 170.786 160.071 170.775 160.128C170.763 160.189 170.751 160.276 170.751 160.379H172.668ZM209.497 161.414L209.194 160.505L209.181 160.509L209.169 160.514L209.497 161.414ZM202.199 162.105L202.246 161.147L200.88 161.08L201.282 162.387L202.199 162.105ZM202.297 164.225L201.357 164.037L201.355 164.046L201.354 164.055L202.297 164.225ZM197.563 167.776L197.626 166.819L197.615 166.819L197.563 167.776ZM194.259 164.768L193.314 164.925L193.316 164.936L194.259 164.768ZM196.33 159.935V158.977H196.168L196.015 159.03L196.33 159.935ZM196.577 159.886V160.844H197.3L197.499 160.149L196.577 159.886ZM198.106 158.702L198.246 157.754L198.2 157.747L198.153 157.745L198.106 158.702ZM201.262 160.428L200.525 161.042L200.769 161.334L201.147 161.38L201.262 160.428ZM209.595 160.428V161.387H209.612L209.628 161.386L209.595 160.428ZM197.317 161.02L197.901 161.78L197.95 161.742L197.994 161.698L197.317 161.02ZM195.985 164.62L196.93 164.457L196.929 164.451L195.985 164.62ZM197.711 166.543L197.668 165.585L197.661 165.586L197.711 166.543ZM200.177 161.858L201.053 161.469L200.845 161.002L200.341 160.914L200.177 161.858ZM197.415 160.921L197.934 160.115L197.284 159.697L196.737 160.244L197.415 160.921ZM209.169 160.514C208.74 160.67 207.763 160.87 206.466 161.01C205.193 161.147 203.691 161.219 202.246 161.147L202.151 163.062C203.714 163.139 205.319 163.062 206.672 162.916C208 162.773 209.168 162.554 209.824 162.315L209.169 160.514ZM201.282 162.387C201.433 162.877 201.474 163.455 201.357 164.037L203.237 164.413C203.417 163.516 203.358 162.615 203.115 161.823L201.282 162.387ZM201.354 164.055C201.01 165.963 199.491 166.941 197.626 166.819L197.501 168.732C200.172 168.906 202.696 167.419 203.24 164.395L201.354 164.055ZM197.615 166.819C196.331 166.749 195.389 165.644 195.203 164.599L193.316 164.936C193.622 166.653 195.147 168.605 197.511 168.733L197.615 166.819ZM195.205 164.61C195.071 163.809 195.251 162.897 195.609 162.127C195.786 161.748 195.993 161.431 196.197 161.201C196.411 160.96 196.573 160.865 196.645 160.84L196.015 159.03C195.52 159.202 195.097 159.551 194.762 159.93C194.418 160.319 194.114 160.797 193.871 161.318C193.391 162.348 193.102 163.655 193.314 164.925L195.205 164.61ZM196.33 160.894C196.551 160.894 196.719 160.832 196.757 160.82C196.793 160.808 196.699 160.844 196.577 160.844V158.927C196.357 158.927 196.188 158.989 196.151 159.001C196.114 159.013 196.209 158.977 196.33 158.977V160.894ZM197.499 160.149C197.581 159.86 197.656 159.757 197.695 159.722C197.708 159.71 197.726 159.696 197.766 159.684C197.811 159.67 197.9 159.652 198.058 159.66L198.153 157.745C197.466 157.711 196.861 157.884 196.396 158.312C195.966 158.707 195.77 159.222 195.655 159.622L197.499 160.149ZM197.965 159.65C199.067 159.814 199.938 160.338 200.525 161.042L201.998 159.815C201.105 158.743 199.807 157.985 198.246 157.754L197.965 159.65ZM201.147 161.38C202.429 161.534 203.752 161.584 204.911 161.584V159.667C203.801 159.667 202.559 159.619 201.376 159.476L201.147 161.38ZM204.911 161.584C206.096 161.584 207.177 161.534 208.013 161.484C208.895 161.431 209.411 161.387 209.595 161.387V159.47C209.336 159.47 208.669 159.524 207.899 159.57C207.083 159.619 206.043 159.667 204.911 159.667V161.584ZM209.628 161.386C209.948 161.375 210.034 161.412 209.998 161.398C209.975 161.389 209.833 161.331 209.714 161.156C209.569 160.945 209.548 160.697 209.601 160.503C209.644 160.345 209.722 160.265 209.728 160.258C209.742 160.243 209.735 160.254 209.69 160.284C209.6 160.342 209.436 160.424 209.194 160.505L209.8 162.324C210.15 162.207 210.472 162.061 210.735 161.89C210.867 161.805 211.002 161.701 211.122 161.574C211.234 161.455 211.38 161.266 211.451 161.007C211.532 160.711 211.498 160.369 211.296 160.073C211.119 159.814 210.874 159.683 210.702 159.614C210.364 159.481 209.957 159.457 209.562 159.47L209.628 161.386ZM196.732 160.26C196.229 160.647 195.752 161.369 195.436 162.111C195.113 162.869 194.873 163.845 195.042 164.788L196.929 164.451C196.851 164.014 196.955 163.436 197.2 162.863C197.451 162.274 197.763 161.886 197.901 161.78L196.732 160.26ZM195.041 164.783C195.175 165.564 195.415 166.275 195.884 166.785C196.402 167.349 197.075 167.536 197.761 167.5L197.661 165.586C197.41 165.599 197.343 165.54 197.295 165.487C197.197 165.381 197.042 165.106 196.93 164.457L195.041 164.783ZM197.755 167.5C199.294 167.43 200.372 166.395 200.92 165.24C201.461 164.098 201.58 162.656 201.053 161.469L199.301 162.248C199.562 162.836 199.534 163.687 199.187 164.419C198.847 165.137 198.298 165.557 197.668 165.585L197.755 167.5ZM200.341 160.914C199.261 160.726 198.468 160.459 197.934 160.115L196.897 161.728C197.743 162.271 198.824 162.596 200.012 162.803L200.341 160.914ZM196.737 160.244L196.639 160.342L197.994 161.698L198.093 161.599L196.737 160.244ZM209.594 167.48L209.165 168.337L209.201 168.355L209.238 168.37L209.594 167.48ZM209.643 166.198L209.431 167.132L209.435 167.133L209.643 166.198ZM216.103 165.803L216.319 166.737L218.852 166.152L216.545 164.953L216.103 165.803ZM212.01 163.683L211.531 164.513L211.54 164.518L211.548 164.523L212.01 163.683ZM209.15 160.971L210.1 160.844L210.099 160.836L210.098 160.828L209.15 160.971ZM216.645 156.434L216.527 155.483L216.515 155.484L216.645 156.434ZM218.026 157.765L218.344 158.67L218.603 158.579L218.775 158.364L218.026 157.765ZM211.172 160.527L212.053 160.904L212.055 160.9L211.172 160.527ZM212.996 162.302L212.503 163.124L212.518 163.133L212.533 163.141L212.996 162.302ZM217.336 164.866L217.962 164.141L217.949 164.129L217.935 164.118L217.336 164.866ZM216.202 167.529L215.952 166.604L215.945 166.606L216.202 167.529ZM210.022 166.623C210.055 166.639 210.028 166.632 209.983 166.568C209.939 166.506 209.934 166.467 209.937 166.487C209.939 166.5 209.947 166.561 209.924 166.652C209.898 166.753 209.835 166.882 209.711 166.986C209.468 167.191 209.265 167.095 209.431 167.132L209.856 165.263C209.479 165.177 208.924 165.143 208.478 165.519C208.008 165.914 207.993 166.47 208.043 166.784C208.095 167.118 208.244 167.428 208.415 167.672C208.586 167.914 208.837 168.173 209.165 168.337L210.022 166.623ZM209.435 167.133C209.969 167.252 210.585 167.304 211.27 167.304V165.387C210.673 165.387 210.205 165.341 209.851 165.262L209.435 167.133ZM211.27 167.304C212.924 167.304 214.968 167.049 216.319 166.737L215.887 164.869C214.673 165.149 212.773 165.387 211.27 165.387V167.304ZM216.545 164.953C215.284 164.297 213.447 163.379 212.472 162.843L211.548 164.523C212.546 165.071 214.457 166.027 215.661 166.654L216.545 164.953ZM212.489 162.853C211.739 162.42 211.22 162.194 210.751 161.839C210.354 161.54 210.155 161.253 210.1 160.844L208.2 161.097C208.343 162.167 208.932 162.867 209.595 163.369C210.186 163.815 210.999 164.206 211.531 164.513L212.489 162.853ZM210.098 160.828C210.056 160.554 210.142 160.246 210.501 159.863C210.872 159.466 211.465 159.075 212.218 158.717C213.718 158.005 215.591 157.546 216.776 157.384L216.515 155.484C215.185 155.667 213.113 156.17 211.395 156.986C210.54 157.392 209.706 157.907 209.101 158.553C208.485 159.211 208.046 160.08 208.202 161.114L210.098 160.828ZM216.764 157.385C216.756 157.386 216.796 157.381 216.883 157.417C216.966 157.451 217.051 157.507 217.116 157.57C217.189 157.639 217.188 157.668 217.174 157.625C217.165 157.598 217.15 157.533 217.162 157.441C217.174 157.343 217.215 157.246 217.278 157.167L218.775 158.364C219.122 157.93 219.121 157.423 219.002 157.046C218.889 156.692 218.666 156.4 218.443 156.186C218.018 155.779 217.302 155.386 216.527 155.483L216.764 157.385ZM217.708 156.861C217.29 157.008 216.704 157.171 216.007 157.363C215.326 157.55 214.558 157.76 213.828 157.992C213.104 158.222 212.375 158.486 211.778 158.791C211.479 158.944 211.187 159.121 210.938 159.327C210.693 159.528 210.439 159.799 210.289 160.153L212.055 160.9C212.04 160.934 212.045 160.898 212.157 160.806C212.263 160.718 212.425 160.614 212.652 160.498C213.106 160.265 213.715 160.039 214.408 159.819C215.096 159.601 215.826 159.401 216.516 159.211C217.191 159.025 217.85 158.843 218.344 158.67L217.708 156.861ZM210.291 160.149C210.093 160.61 210.142 161.073 210.345 161.458C210.521 161.793 210.795 162.04 211.02 162.212C211.446 162.539 212.101 162.883 212.503 163.124L213.49 161.48C213.242 161.332 212.946 161.167 212.737 161.044C212.502 160.907 212.321 160.794 212.186 160.691C212.042 160.58 212.026 160.537 212.042 160.567C212.084 160.647 212.102 160.789 212.053 160.904L210.291 160.149ZM212.533 163.141C214.477 164.215 215.835 164.893 216.737 165.615L217.935 164.118C216.864 163.261 215.264 162.46 213.46 161.463L212.533 163.141ZM216.709 165.592C216.834 165.7 216.848 165.769 216.851 165.788C216.856 165.815 216.857 165.878 216.803 165.983C216.684 166.216 216.368 166.492 215.952 166.604L216.451 168.455C217.317 168.222 218.111 167.634 218.509 166.857C218.715 166.456 218.827 165.977 218.742 165.471C218.656 164.956 218.38 164.501 217.962 164.141L216.709 165.592ZM215.945 166.606C215.166 166.822 213.975 166.965 212.75 166.965V168.882C214.089 168.882 215.463 168.729 216.458 168.453L215.945 166.606ZM212.75 166.965C211.558 166.965 210.52 166.818 209.95 166.59L209.238 168.37C210.147 168.734 211.476 168.882 212.75 168.882V166.965ZM223.237 181.435L222.323 181.723L222.325 181.73L222.328 181.738L223.237 181.435ZM222.596 158.012L223.554 158.036L223.554 158.032L222.596 158.012ZM222.892 149.777L223.849 149.824L223.903 148.73L222.811 148.822L222.892 149.777ZM211.008 151.108L211.157 152.055L211.165 152.054L211.173 152.052L211.008 151.108ZM209.873 149.777L209.701 148.834L209.677 148.838L209.654 148.844L209.873 149.777ZM222.941 148.248L223.019 149.203L223.856 149.135L223.898 148.297L222.941 148.248ZM223.582 137.449L224.539 137.51L224.543 137.45L224.539 137.389L223.582 137.449ZM225.604 137.942L226.553 138.075L226.573 137.937L226.552 137.8L225.604 137.942ZM224.766 148.1L223.809 148.051L223.757 149.059H224.766V148.1ZM226.196 148.001L226.128 147.045L226.114 147.046L226.1 147.048L226.196 148.001ZM247.992 147.804L248.381 146.928L248.293 146.889L248.2 146.869L247.992 147.804ZM249.126 148.79L250.077 148.672L250.049 148.447L249.924 148.259L249.126 148.79ZM248.534 149.333L248.346 150.273L248.381 150.28L248.415 150.284L248.534 149.333ZM225.801 149.53L225.726 148.575L225.704 148.576L225.682 148.579L225.801 149.53ZM224.667 149.629V148.67H223.748L223.709 149.589L224.667 149.629ZM224.322 157.913L223.364 157.873L223.364 157.886L223.364 157.898L224.322 157.913ZM224.963 182.372L225.914 182.248L225.905 182.181L225.887 182.117L224.963 182.372ZM224.152 181.148C224.051 180.829 223.943 180.127 223.847 179.055C223.755 178.014 223.68 176.708 223.622 175.239C223.505 172.304 223.456 168.754 223.456 165.458H221.539C221.539 168.769 221.588 172.346 221.706 175.315C221.765 176.799 221.841 178.14 221.938 179.225C222.032 180.278 222.152 181.178 222.323 181.723L224.152 181.148ZM223.456 165.458C223.456 162.608 223.505 159.954 223.554 158.036L221.638 157.987C221.588 159.916 221.539 162.588 221.539 165.458H223.456ZM223.554 158.032C223.603 155.724 223.702 152.823 223.849 149.824L221.935 149.73C221.786 152.746 221.687 155.665 221.638 157.992L223.554 158.032ZM222.811 148.822C218.732 149.166 214.838 149.465 210.842 150.164L211.173 152.052C215.067 151.371 218.866 151.078 222.972 150.732L222.811 148.822ZM210.858 150.161C210.861 150.161 210.818 150.167 210.729 150.124C210.64 150.082 210.56 150.016 210.512 149.96C210.49 149.933 210.488 149.923 210.494 149.937C210.498 149.947 210.528 150.016 210.523 150.129C210.517 150.26 210.467 150.419 210.344 150.551C210.231 150.672 210.118 150.704 210.093 150.71L209.654 148.844C209.42 148.899 209.156 149.014 208.942 149.243C208.72 149.481 208.619 149.772 208.608 150.048C208.587 150.54 208.838 150.944 209.037 151.184C209.441 151.671 210.243 152.199 211.157 152.055L210.858 150.161ZM210.046 150.72C213.499 150.087 216.962 149.696 223.019 149.203L222.864 147.293C216.789 147.787 213.25 148.184 209.701 148.834L210.046 150.72ZM223.898 148.297C224.095 144.458 224.342 140.567 224.539 137.51L222.626 137.387C222.428 140.445 222.182 144.346 221.984 148.199L223.898 148.297ZM224.539 137.389C224.546 137.495 224.517 137.64 224.421 137.771C224.334 137.889 224.237 137.935 224.202 137.948C224.167 137.962 224.16 137.957 224.194 137.956C224.225 137.955 224.272 137.958 224.331 137.969C224.457 137.995 224.568 138.046 224.634 138.097C224.698 138.147 224.666 138.148 224.656 138.084L226.552 137.8C226.468 137.242 226.14 136.837 225.803 136.578C225.469 136.321 225.075 136.163 224.707 136.09C224.355 136.019 223.915 136.004 223.511 136.16C223.3 136.241 223.06 136.386 222.877 136.635C222.684 136.897 222.607 137.205 222.626 137.508L224.539 137.389ZM224.655 137.809C224.304 140.318 224.006 144.198 223.809 148.051L225.723 148.149C225.92 144.31 226.214 140.497 226.553 138.075L224.655 137.809ZM224.766 149.059C225.267 149.059 225.81 149.003 226.291 148.955L226.1 147.048C225.595 147.098 225.153 147.142 224.766 147.142V149.059ZM226.263 148.958C230.472 148.661 236.051 148.22 240.842 148.22V146.303C235.967 146.303 230.303 146.751 226.128 147.045L226.263 148.958ZM240.842 148.22C243.64 148.22 246.117 148.369 247.784 148.74L248.2 146.869C246.317 146.45 243.664 146.303 240.842 146.303V148.22ZM247.603 148.68C247.694 148.721 247.842 148.82 248.007 148.97C248.169 149.117 248.284 149.256 248.329 149.322L249.924 148.259C249.77 148.029 249.541 147.773 249.296 147.551C249.054 147.331 248.733 147.085 248.381 146.928L247.603 148.68ZM248.175 148.909C248.173 148.892 248.163 148.685 248.362 148.509C248.536 148.356 248.691 148.387 248.653 148.382L248.415 150.284C248.772 150.329 249.247 150.285 249.631 149.947C250.04 149.586 250.129 149.084 250.077 148.672L248.175 148.909ZM248.722 148.393C246.41 147.93 243.573 147.783 240.595 147.783V149.7C243.534 149.7 246.221 149.848 248.346 150.273L248.722 148.393ZM240.595 147.783C235.273 147.783 229.461 148.28 225.726 148.575L225.877 150.486C229.637 150.189 235.365 149.7 240.595 149.7V147.783ZM225.682 148.579C225.265 148.631 224.988 148.67 224.667 148.67V150.587C225.135 150.587 225.548 150.528 225.92 150.481L225.682 148.579ZM223.709 149.589L223.364 157.873L225.28 157.953L225.625 149.669L223.709 149.589ZM223.364 157.898C223.315 161.03 223.166 165.696 223.166 170.192H225.083C225.083 165.713 225.231 161.108 225.28 157.928L223.364 157.898ZM223.166 170.192C223.166 172.717 223.216 175.204 223.347 177.357C223.477 179.491 223.69 181.365 224.039 182.628L225.887 182.117C225.595 181.062 225.389 179.361 225.26 177.241C225.132 175.141 225.083 172.697 225.083 170.192H223.166ZM224.013 182.496C224.021 182.559 224 182.496 224.044 182.374C224.102 182.214 224.247 182.032 224.478 181.948C224.666 181.881 224.803 181.917 224.819 181.921C224.845 181.928 224.832 181.928 224.782 181.898C224.682 181.837 224.54 181.72 224.406 181.56C224.271 181.4 224.184 181.246 224.146 181.132L222.328 181.738C222.583 182.504 223.219 183.192 223.788 183.537C223.941 183.63 224.124 183.72 224.327 183.774C224.519 183.825 224.815 183.865 225.13 183.751C225.49 183.621 225.732 183.343 225.847 183.026C225.948 182.748 225.942 182.468 225.914 182.248L224.013 182.496Z" fill="#FEBF00" mask="url(#path-1-outside-1_408_115)"/>
<path d="M41.0308 136.325V82.5737" stroke="#FEBF00" stroke-width="5.30876"/>
<path d="M17.1411 103.809L124.644 4.26945L232.81 103.809" stroke="#FEBF00" stroke-width="5.30876"/>
<path d="M208.92 136.989V82.5737" stroke="#FEBF00" stroke-width="5.30876"/>
<path d="M40.3667 183.44V196.712H209.584V182.113" stroke="#FEBF00" stroke-width="5.30876"/>
<path d="M102.082 85.1179C102.082 77.0186 106.146 60.8201 122.402 58.7952C123.215 58.7952 122.402 76.3437 122.402 85.1179H102.082Z" fill="#FEBF00"/>
<path d="M126.524 85.1178H147.206C145.893 76.9703 139.918 60.2993 126.524 58.7951V85.1178Z" fill="#FEBF00"/>
<rect x="102.082" y="88.8779" width="20.6821" height="18.8019" fill="#FEBF00"/>
<rect x="126.524" y="88.8779" width="20.6821" height="18.8019" fill="#FEBF00"/>
</svg>
